<svg width="139" height="21" viewBox="0 0 139 21" fill="none" xmlns="http://www.w3.org/2000/svg">
<path d="M1.14337 0.742061C0.972092 0.642836 0.913682 0.423552 1.01291 0.252275C1.11213 0.0809987 1.33142 0.0225905 1.50269 0.121814L1.14337 0.742061ZM138.042 3.93444L135.771 7.39447L133.91 3.69809L138.042 3.93444ZM1.50269 0.121814C2.14465 0.493716 2.78913 0.860746 3.4361 1.22287L3.086 1.84836C2.43593 1.48451 1.78838 1.11573 1.14337 0.742061L1.50269 0.121814ZM7.35089 3.33804C8.66673 4.02377 9.99229 4.68945 11.3273 5.33474L11.0153 5.98011C9.67382 5.33167 8.34182 4.66276 7.01962 3.97371L7.35089 3.33804ZM15.3623 7.20993C16.7167 7.81441 18.0802 8.39814 19.4526 8.96076L19.1808 9.62401C17.8015 9.05858 16.4312 8.47197 15.0701 7.86451L15.3623 7.20993ZM23.595 10.5845C24.9834 11.104 26.3804 11.6022 27.7858 12.0786L27.5556 12.7574C26.1432 12.2786 24.7392 11.778 23.3438 11.2558L23.595 10.5845ZM32.0212 13.4407C33.4387 13.8721 34.8642 14.2815 36.2974 14.6687L36.1104 15.3607C34.6699 14.9715 33.2372 14.56 31.8125 14.1264L32.0212 13.4407ZM40.6102 15.7607C42.0514 16.1014 43.4999 16.4197 44.9555 16.7152L44.8129 17.4177C43.3498 17.1206 41.8938 16.8007 40.4453 16.4583L40.6102 15.7607ZM49.329 17.531C50.7881 17.7791 52.2539 18.0045 53.7262 18.2069L53.6286 18.917C52.1488 18.7136 50.6754 18.4871 49.2088 18.2376L49.329 17.531ZM58.1428 18.7425C59.614 18.8971 61.0912 19.0289 62.5743 19.1373L62.522 19.8522C61.0314 19.7432 59.5466 19.6108 58.0679 19.4553L58.1428 18.7425ZM67.0162 19.3915C67.756 19.4222 68.4971 19.447 69.2396 19.466L69.2213 20.1826C68.475 20.1635 67.7301 20.1385 66.9865 20.1077L67.0162 19.3915ZM69.2396 19.466C69.9821 19.485 70.7236 19.4982 71.464 19.5055L71.4569 20.2223C70.7127 20.2149 69.9675 20.2017 69.2213 20.1826L69.2396 19.466ZM75.913 19.479C77.3997 19.4467 78.8817 19.3907 80.3589 19.3116L80.3972 20.0274C78.9125 20.1069 77.4229 20.1631 75.9286 20.1957L75.913 19.479ZM84.7971 19.0029C86.2779 18.8762 87.7533 18.7261 89.2232 18.553L89.3071 19.2649C87.8296 19.4389 86.3466 19.5897 84.8582 19.7171L84.7971 19.0029ZM93.6327 17.9623C95.1016 17.7416 96.5645 17.4979 98.0212 17.2315L98.1502 17.9366C96.686 18.2044 95.2156 18.4494 93.7392 18.6711L93.6327 17.9623ZM102.384 16.3617C103.835 16.0484 105.28 15.7125 106.718 15.3543L106.891 16.0498C105.446 16.4099 103.994 16.7475 102.536 17.0624L102.384 16.3617ZM111.017 14.2108C112.445 13.807 113.866 13.381 115.279 12.9333L115.496 13.6166C114.075 14.0666 112.648 14.4947 111.212 14.9006L111.017 14.2108ZM119.499 11.5238C120.899 11.0322 122.29 10.519 123.674 9.9847L123.932 10.6534C122.542 11.1903 121.143 11.706 119.737 12.2001L119.499 11.5238ZM127.8 8.31856C129.166 7.74248 130.524 7.14555 131.873 6.52809L132.171 7.17989C130.816 7.80033 129.451 8.40017 128.078 8.97906L127.8 8.31856ZM1.14337 0.742061C0.972092 0.642836 0.913682 0.423552 1.01291 0.252275C1.11213 0.0809987 1.33142 0.0225905 1.50269 0.121814L1.14337 0.742061ZM138.042 3.93444L135.771 7.39447L133.91 3.69809L138.042 3.93444ZM1.50269 0.121814C2.14465 0.493716 2.78913 0.860746 3.4361 1.22287L3.086 1.84836C2.43593 1.48451 1.78838 1.11573 1.14337 0.742061L1.50269 0.121814ZM7.35089 3.33804C8.66673 4.02377 9.99229 4.68945 11.3273 5.33474L11.0153 5.98011C9.67382 5.33167 8.34182 4.66276 7.01962 3.97371L7.35089 3.33804ZM15.3623 7.20993C16.7167 7.81441 18.0802 8.39814 19.4526 8.96076L19.1808 9.62401C17.8015 9.05858 16.4312 8.47197 15.0701 7.86451L15.3623 7.20993ZM23.595 10.5845C24.9834 11.104 26.3804 11.6022 27.7858 12.0786L27.5556 12.7574C26.1432 12.2786 24.7392 11.778 23.3438 11.2558L23.595 10.5845ZM32.0212 13.4407C33.4387 13.8721 34.8642 14.2815 36.2974 14.6687L36.1104 15.3607C34.6699 14.9715 33.2372 14.56 31.8125 14.1264L32.0212 13.4407ZM40.6102 15.7607C42.0514 16.1014 43.4999 16.4197 44.9555 16.7152L44.8129 17.4177C43.3498 17.1206 41.8938 16.8007 40.4453 16.4583L40.6102 15.7607ZM49.329 17.531C50.7881 17.7791 52.2539 18.0045 53.7262 18.2069L53.6286 18.917C52.1488 18.7136 50.6754 18.4871 49.2088 18.2376L49.329 17.531ZM58.1428 18.7425C59.614 18.8971 61.0912 19.0289 62.5743 19.1373L62.522 19.8522C61.0314 19.7432 59.5466 19.6108 58.0679 19.4553L58.1428 18.7425ZM67.0162 19.3915C67.756 19.4222 68.4971 19.447 69.2396 19.466L69.2213 20.1826C68.475 20.1635 67.7301 20.1385 66.9865 20.1077L67.0162 19.3915ZM69.2396 19.466C69.9821 19.485 70.7236 19.4982 71.464 19.5055L71.4569 20.2223C70.7127 20.2149 69.9675 20.2017 69.2213 20.1826L69.2396 19.466ZM75.913 19.479C77.3997 19.4467 78.8817 19.3907 80.3589 19.3116L80.3972 20.0274C78.9125 20.1069 77.4229 20.1631 75.9286 20.1957L75.913 19.479ZM84.7971 19.0029C86.2779 18.8762 87.7533 18.7261 89.2232 18.553L89.3071 19.2649C87.8296 19.4389 86.3466 19.5897 84.8582 19.7171L84.7971 19.0029ZM93.6327 17.9623C95.1016 17.7416 96.5645 17.4979 98.0212 17.2315L98.1502 17.9366C96.686 18.2044 95.2156 18.4494 93.7392 18.6711L93.6327 17.9623ZM102.384 16.3617C103.835 16.0484 105.28 15.7125 106.718 15.3543L106.891 16.0498C105.446 16.4099 103.994 16.7475 102.536 17.0624L102.384 16.3617ZM111.017 14.2108C112.445 13.807 113.866 13.381 115.279 12.9333L115.496 13.6166C114.075 14.0666 112.648 14.4947 111.212 14.9006L111.017 14.2108ZM119.499 11.5238C120.899 11.0322 122.29 10.519 123.674 9.9847L123.932 10.6534C122.542 11.1903 121.143 11.706 119.737 12.2001L119.499 11.5238ZM127.8 8.31856C129.166 7.74248 130.524 7.14555 131.873 6.52809L132.171 7.17989C130.816 7.80033 129.451 8.40017 128.078 8.97906L127.8 8.31856Z" fill="#1B1D21"/>
</svg>
