<svg width="138" height="22" viewBox="0 0 138 22" fill="none" xmlns="http://www.w3.org/2000/svg">
<path d="M0.272274 20.3452C0.100998 20.4444 0.0425885 20.6637 0.141813 20.8349C0.241038 21.0062 0.460322 21.0646 0.631598 20.9654L0.272274 20.3452ZM137.171 17.1528L134.9 13.6927L133.039 17.3891L137.171 17.1528ZM0.631598 20.9654C1.27355 20.5935 1.91803 20.2265 2.565 19.8644L2.2149 19.2389C1.56484 19.6027 0.917281 19.9715 0.272274 20.3452L0.631598 20.9654ZM6.4798 17.7492C7.79563 17.0634 9.12119 16.3978 10.4562 15.7525L10.1442 15.1071C8.80273 15.7555 7.47073 16.4245 6.14853 17.1135L6.4798 17.7492ZM14.4912 13.8773C15.8456 13.2728 17.2091 12.6891 18.5816 12.1265L18.3097 11.4632C16.9304 12.0286 15.5601 12.6152 14.199 13.2227L14.4912 13.8773ZM22.7239 10.5027C24.1123 9.9832 25.5094 9.48505 26.9147 9.00865L26.6845 8.32978C25.2721 8.8086 23.8681 9.30924 22.4727 9.83138L22.7239 10.5027ZM31.1501 7.64655C32.5676 7.21516 33.9931 6.80572 35.4263 6.41855L35.2393 5.72654C33.7988 6.11568 32.3661 6.52721 30.9414 6.96079L31.1501 7.64655ZM39.7391 5.3265C41.1803 4.98582 42.6288 4.66754 44.0844 4.37198L43.9418 3.6695C42.4787 3.96658 41.0227 4.28649 39.5742 4.62892L39.7391 5.3265ZM48.4579 3.55626C49.917 3.3081 51.3828 3.08268 52.8551 2.88031L52.7575 2.17018C51.2777 2.37358 49.8043 2.60016 48.3377 2.8496L48.4579 3.55626ZM57.2717 2.34476C58.7429 2.19008 60.2201 2.05835 61.7032 1.9499L61.6509 1.235C60.1603 1.34401 58.6755 1.47641 57.1968 1.63188L57.2717 2.34476ZM66.1451 1.69568C66.8849 1.66506 67.626 1.64022 68.3685 1.6212L68.3502 0.90462C67.6039 0.923738 66.859 0.948704 66.1154 0.97948L66.1451 1.69568ZM68.3685 1.6212C69.111 1.60217 69.8525 1.58903 70.5929 1.58173L70.5858 0.864957C69.8416 0.872294 69.0964 0.885502 68.3502 0.90462L68.3685 1.6212ZM75.0419 1.60818C76.5286 1.64056 78.0107 1.69647 79.4878 1.77562L79.5261 1.05984C78.0414 0.980282 76.5518 0.924083 75.0575 0.891543L75.0419 1.60818ZM83.926 2.08433C85.4068 2.21104 86.8822 2.36111 88.3521 2.53424L88.436 1.82235C86.9585 1.64833 85.4755 1.49749 83.9872 1.37012L83.926 2.08433ZM92.7617 3.12495C94.2305 3.34559 95.6934 3.58929 97.1501 3.85573L97.2791 3.15061C95.8149 2.88281 94.3445 2.63786 92.8681 2.41609L92.7617 3.12495ZM101.513 4.72551C102.964 5.03879 104.409 5.37471 105.847 5.73295L106.02 5.03741C104.575 4.67735 103.123 4.33972 101.664 4.02484L101.513 4.72551ZM110.146 6.87639C111.574 7.28022 112.995 7.70618 114.408 8.15394L114.625 7.4706C113.204 7.0206 111.776 6.5925 110.341 6.18664L110.146 6.87639ZM118.628 9.56343C120.028 10.055 121.419 10.5682 122.803 11.1025L123.061 10.4338C121.671 9.89687 120.272 9.38119 118.866 8.88714L118.628 9.56343ZM126.928 12.7687C128.295 13.3447 129.653 13.9417 131.002 14.5591L131.3 13.9073C129.944 13.2869 128.58 12.6871 127.207 12.1082L126.928 12.7687ZM0.272274 20.3452C0.100998 20.4444 0.0425885 20.6637 0.141813 20.8349C0.241038 21.0062 0.460322 21.0646 0.631598 20.9654L0.272274 20.3452ZM137.171 17.1528L134.9 13.6927L133.039 17.3891L137.171 17.1528ZM0.631598 20.9654C1.27355 20.5935 1.91803 20.2265 2.565 19.8644L2.2149 19.2389C1.56484 19.6027 0.917281 19.9715 0.272274 20.3452L0.631598 20.9654ZM6.4798 17.7492C7.79563 17.0634 9.12119 16.3978 10.4562 15.7525L10.1442 15.1071C8.80273 15.7555 7.47073 16.4245 6.14853 17.1135L6.4798 17.7492ZM14.4912 13.8773C15.8456 13.2728 17.2091 12.6891 18.5816 12.1265L18.3097 11.4632C16.9304 12.0286 15.5601 12.6152 14.199 13.2227L14.4912 13.8773ZM22.7239 10.5027C24.1123 9.9832 25.5094 9.48505 26.9147 9.00865L26.6845 8.32978C25.2721 8.8086 23.8681 9.30924 22.4727 9.83138L22.7239 10.5027ZM31.1501 7.64655C32.5676 7.21516 33.9931 6.80572 35.4263 6.41855L35.2393 5.72654C33.7988 6.11568 32.3661 6.52721 30.9414 6.96079L31.1501 7.64655ZM39.7391 5.3265C41.1803 4.98582 42.6288 4.66754 44.0844 4.37198L43.9418 3.6695C42.4787 3.96658 41.0227 4.28649 39.5742 4.62892L39.7391 5.3265ZM48.4579 3.55626C49.917 3.3081 51.3828 3.08268 52.8551 2.88031L52.7575 2.17018C51.2777 2.37358 49.8043 2.60016 48.3377 2.8496L48.4579 3.55626ZM57.2717 2.34476C58.7429 2.19008 60.2201 2.05835 61.7032 1.9499L61.6509 1.235C60.1603 1.34401 58.6755 1.47641 57.1968 1.63188L57.2717 2.34476ZM66.1451 1.69568C66.8849 1.66506 67.626 1.64022 68.3685 1.6212L68.3502 0.90462C67.6039 0.923738 66.859 0.948704 66.1154 0.97948L66.1451 1.69568ZM68.3685 1.6212C69.111 1.60217 69.8525 1.58903 70.5929 1.58173L70.5858 0.864957C69.8416 0.872294 69.0964 0.885502 68.3502 0.90462L68.3685 1.6212ZM75.0419 1.60818C76.5286 1.64056 78.0107 1.69647 79.4878 1.77562L79.5261 1.05984C78.0414 0.980282 76.5518 0.924083 75.0575 0.891543L75.0419 1.60818ZM83.926 2.08433C85.4068 2.21104 86.8822 2.36111 88.3521 2.53424L88.436 1.82235C86.9585 1.64833 85.4755 1.49749 83.9872 1.37012L83.926 2.08433ZM92.7617 3.12495C94.2305 3.34559 95.6934 3.58929 97.1501 3.85573L97.2791 3.15061C95.8149 2.88281 94.3445 2.63786 92.8681 2.41609L92.7617 3.12495ZM101.513 4.72551C102.964 5.03879 104.409 5.37471 105.847 5.73295L106.02 5.03741C104.575 4.67735 103.123 4.33972 101.664 4.02484L101.513 4.72551ZM110.146 6.87639C111.574 7.28022 112.995 7.70618 114.408 8.15394L114.625 7.4706C113.204 7.0206 111.776 6.5925 110.341 6.18664L110.146 6.87639ZM118.628 9.56343C120.028 10.055 121.419 10.5682 122.803 11.1025L123.061 10.4338C121.671 9.89687 120.272 9.38119 118.866 8.88714L118.628 9.56343ZM126.928 12.7687C128.295 13.3447 129.653 13.9417 131.002 14.5591L131.3 13.9073C129.944 13.2869 128.58 12.6871 127.207 12.1082L126.928 12.7687Z" fill="#1B1D21"/>
</svg>
