<svg width="45" height="46" viewBox="0 0 45 46" fill="none" xmlns="http://www.w3.org/2000/svg">
<rect y="0.613281" width="44.5635" height="44.5635" rx="22.2817" fill="#4650D3"/>
<path d="M31.8174 18.7273L31.5133 19.4271C31.4658 19.541 31.3856 19.6383 31.2829 19.7068C31.1801 19.7753 31.0594 19.8118 30.936 19.8118C30.8125 19.8118 30.6918 19.7753 30.5891 19.7068C30.4864 19.6383 30.4062 19.541 30.3587 19.4271L30.0546 18.7273C29.5199 17.4895 28.5406 16.4971 27.3101 15.9458L26.3718 15.5267C26.2579 15.4743 26.1615 15.3904 26.0939 15.2849C26.0263 15.1794 25.9904 15.0568 25.9904 14.9315C25.9904 14.8062 26.0263 14.6835 26.0939 14.578C26.1615 14.4725 26.2579 14.3886 26.3718 14.3362L27.2582 13.9418C28.5196 13.3749 29.5156 12.3457 30.041 11.0663L30.3537 10.311C30.3997 10.194 30.4798 10.0935 30.5836 10.0227C30.6875 9.95193 30.8103 9.91406 30.936 9.91406C31.0617 9.91406 31.1845 9.95193 31.2883 10.0227C31.3922 10.0935 31.4723 10.194 31.5183 10.311L31.831 11.0651C32.3558 12.3447 33.3514 13.3743 34.6126 13.9418L35.5002 14.3374C35.6137 14.39 35.7098 14.4739 35.7771 14.5792C35.8445 14.6846 35.8803 14.807 35.8803 14.9321C35.8803 15.0571 35.8445 15.1796 35.7771 15.2849C35.7098 15.3903 35.6137 15.4742 35.5002 15.5267L34.5607 15.9446C33.3304 16.4964 32.3516 17.4893 31.8174 18.7273ZM21.046 11.1516C14.2183 11.1516 8.68359 16.6863 8.68359 23.5141C8.68359 25.6194 9.209 27.6011 10.1374 29.3356L8.68359 35.8765L15.2246 34.4227C17.0155 35.3799 19.0154 35.8794 21.046 35.8765C27.8738 35.8765 33.4085 30.3419 33.4085 23.5141C33.4085 23.0163 33.3796 22.5259 33.3219 22.043L30.8668 22.3335C30.9129 22.7208 30.936 23.1144 30.936 23.5141C30.936 26.1371 29.894 28.6526 28.0393 30.5073C26.1846 32.3621 23.669 33.404 21.046 33.404C19.422 33.4068 17.8226 33.0076 16.3903 32.242L15.5831 31.8105L11.9399 32.6203L12.7496 28.9771L12.3169 28.1698C11.5518 26.7374 11.153 25.138 11.1561 23.5141C11.1557 22.0045 11.5009 20.5148 12.1652 19.1593C12.8296 17.8037 13.7954 16.6182 14.9887 15.6936C16.182 14.7691 17.5712 14.1299 19.0497 13.8252C20.5282 13.5205 22.0569 13.5583 23.5185 13.9357L24.1342 11.5411C23.1452 11.2864 22.1104 11.1516 21.046 11.1516ZM17.3373 23.5141H14.8648C14.8648 25.1534 15.516 26.7257 16.6753 27.8849C17.8345 29.0441 19.4067 29.6953 21.046 29.6953C22.6854 29.6953 24.2576 29.0441 25.4168 27.8849C26.576 26.7257 27.2273 25.1534 27.2273 23.5141H24.7548C24.7548 24.4977 24.364 25.441 23.6685 26.1366C22.973 26.8321 22.0297 27.2228 21.046 27.2228C20.0624 27.2228 19.1191 26.8321 18.4236 26.1366C17.728 25.441 17.3373 24.4977 17.3373 23.5141Z" fill="white"/>
</svg>
