<svg width="19" height="19" viewBox="0 0 19 19" fill="none" xmlns="http://www.w3.org/2000/svg">
<path d="M1 9.08318C1 5.81248 1 4.17669 2.01651 3.16104C3.03302 2.1454 4.66794 2.14453 7.93865 2.14453H11.408C14.6787 2.14453 16.3145 2.14453 17.3301 3.16104C18.3458 4.17756 18.3466 5.81248 18.3466 9.08318V10.8178C18.3466 14.0886 18.3466 15.7243 17.3301 16.74C16.3136 17.7556 14.6787 17.7565 11.408 17.7565H7.93865C4.66794 17.7565 3.03216 17.7565 2.01651 16.74C1.00087 15.7235 1 14.0886 1 10.8178V9.08318Z" stroke="#64CDC7" stroke-width="1.301"/>
<path d="M5.33658 2.14475V0.84375M14.0099 2.14475V0.84375M1.43359 6.4814H17.9129" stroke="#64CDC7" stroke-width="1.301" stroke-linecap="round"/>
<path d="M14.8767 13.4206C14.8767 13.6507 14.7853 13.8713 14.6227 14.0339C14.46 14.1966 14.2394 14.288 14.0094 14.288C13.7794 14.288 13.5588 14.1966 13.3961 14.0339C13.2334 13.8713 13.1421 13.6507 13.1421 13.4206C13.1421 13.1906 13.2334 12.97 13.3961 12.8073C13.5588 12.6447 13.7794 12.5533 14.0094 12.5533C14.2394 12.5533 14.46 12.6447 14.6227 12.8073C14.7853 12.97 14.8767 13.1906 14.8767 13.4206ZM14.8767 9.95132C14.8767 10.1813 14.7853 10.402 14.6227 10.5646C14.46 10.7273 14.2394 10.8186 14.0094 10.8186C13.7794 10.8186 13.5588 10.7273 13.3961 10.5646C13.2334 10.402 13.1421 10.1813 13.1421 9.95132C13.1421 9.72129 13.2334 9.50068 13.3961 9.33802C13.5588 9.17536 13.7794 9.08398 14.0094 9.08398C14.2394 9.08398 14.46 9.17536 14.6227 9.33802C14.7853 9.50068 14.8767 9.72129 14.8767 9.95132ZM10.5401 13.4206C10.5401 13.6507 10.4487 13.8713 10.286 14.0339C10.1234 14.1966 9.90277 14.288 9.67274 14.288C9.44271 14.288 9.2221 14.1966 9.05944 14.0339C8.89679 13.8713 8.80541 13.6507 8.80541 13.4206C8.80541 13.1906 8.89679 12.97 9.05944 12.8073C9.2221 12.6447 9.44271 12.5533 9.67274 12.5533C9.90277 12.5533 10.1234 12.6447 10.286 12.8073C10.4487 12.97 10.5401 13.1906 10.5401 13.4206ZM10.5401 9.95132C10.5401 10.1813 10.4487 10.402 10.286 10.5646C10.1234 10.7273 9.90277 10.8186 9.67274 10.8186C9.44271 10.8186 9.2221 10.7273 9.05944 10.5646C8.89679 10.402 8.80541 10.1813 8.80541 9.95132C8.80541 9.72129 8.89679 9.50068 9.05944 9.33802C9.2221 9.17536 9.44271 9.08398 9.67274 9.08398C9.90277 9.08398 10.1234 9.17536 10.286 9.33802C10.4487 9.50068 10.5401 9.72129 10.5401 9.95132ZM6.20341 13.4206C6.20341 13.6507 6.11203 13.8713 5.94938 14.0339C5.78672 14.1966 5.56611 14.288 5.33608 14.288C5.10605 14.288 4.88544 14.1966 4.72279 14.0339C4.56013 13.8713 4.46875 13.6507 4.46875 13.4206C4.46875 13.1906 4.56013 12.97 4.72279 12.8073C4.88544 12.6447 5.10605 12.5533 5.33608 12.5533C5.56611 12.5533 5.78672 12.6447 5.94938 12.8073C6.11203 12.97 6.20341 13.1906 6.20341 13.4206ZM6.20341 9.95132C6.20341 10.1813 6.11203 10.402 5.94938 10.5646C5.78672 10.7273 5.56611 10.8186 5.33608 10.8186C5.10605 10.8186 4.88544 10.7273 4.72279 10.5646C4.56013 10.402 4.46875 10.1813 4.46875 9.95132C4.46875 9.72129 4.56013 9.50068 4.72279 9.33802C4.88544 9.17536 5.10605 9.08398 5.33608 9.08398C5.56611 9.08398 5.78672 9.17536 5.94938 9.33802C6.11203 9.50068 6.20341 9.72129 6.20341 9.95132Z" fill="#64CDC7"/>
</svg>
