<svg width="19" height="13" viewBox="0 0 19 13" fill="none" xmlns="http://www.w3.org/2000/svg">
<path d="M9.76553 0.706055H4.64394C4.23389 0.706054 3.82786 0.786934 3.44911 0.944065C3.07036 1.1012 2.72632 1.33149 2.43669 1.62176C2.14706 1.91204 1.91753 2.25659 1.76124 2.63569C1.60495 3.01479 1.52497 3.421 1.52589 3.83105V9.17554C1.52589 10.0025 1.8544 10.7956 2.43914 11.3803C2.72868 11.6699 3.07241 11.8996 3.45071 12.0563C3.82901 12.213 4.23447 12.2936 4.64394 12.2936H9.76553C10.5925 12.2936 11.3856 11.9651 11.9703 11.3803C12.5551 10.7956 12.8836 10.0025 12.8836 9.17554V3.83192C12.8847 3.42176 12.8049 3.01541 12.6487 2.63616C12.4925 2.2569 12.263 1.9122 11.9734 1.62182C11.6837 1.33143 11.3396 1.10106 10.9607 0.943914C10.5818 0.78677 10.1757 0.705939 9.76553 0.706055ZM18.0052 4.27772V8.73147C18.0052 8.9483 17.9436 9.16167 17.8274 9.34554C17.7097 9.52995 17.543 9.678 17.346 9.77314C17.1503 9.87108 16.9299 9.90852 16.7129 9.88068C16.4989 9.85505 16.2959 9.7717 16.1257 9.63957L13.3285 7.39491C13.1942 7.28435 13.0855 7.14583 13.0102 6.989C12.9349 6.83217 12.8946 6.66079 12.8923 6.48682C12.8923 6.31335 12.9313 6.14335 13.0076 5.9881C13.0874 5.84239 13.1967 5.71489 13.3285 5.61341L16.1257 3.38698C16.2959 3.25431 16.4993 3.17091 16.7137 3.14586C16.9306 3.1181 17.1509 3.1554 17.346 3.25341C17.5405 3.34564 17.7053 3.49045 17.8218 3.67147C17.9383 3.85249 18.0018 4.06249 18.0052 4.27772Z" stroke="#385469" stroke-width="1.301" stroke-linecap="round" stroke-linejoin="round"/>
</svg>
