<svg width="27" height="27" viewBox="0 0 27 27" fill="none" xmlns="http://www.w3.org/2000/svg">
<path d="M25.125 1.875L14.7917 12.8542M10.2011 12.3181C6.99775 13.5478 4.43637 13.3373 1.875 12.322C2.52083 20.6442 6.401 23.8437 11.5741 25.125C11.5741 25.125 15.4711 22.3686 16.033 15.834C16.0937 15.1262 16.1234 14.7736 15.9774 14.3745C15.8302 13.9753 15.5408 13.6899 14.9635 13.1177C14.0128 12.1773 13.5388 11.7072 12.9743 11.5883C12.4098 11.4721 11.6736 11.7537 10.2011 12.3181Z" stroke="#385469" stroke-width="1.9375" stroke-linecap="round" stroke-linejoin="round"/>
<path d="M3.8125 19.2428C3.8125 19.2428 7.04167 19.8679 10.2708 17.375M12.2083 3.16669V3.29585M8.97917 7.3646C8.97917 7.79282 8.80906 8.20349 8.50627 8.50629C8.20347 8.80908 7.7928 8.97919 7.36458 8.97919C6.93637 8.97919 6.52569 8.80908 6.2229 8.50629C5.92011 8.20349 5.75 7.79282 5.75 7.3646C5.75 6.93639 5.92011 6.52571 6.2229 6.22292C6.52569 5.92013 6.93637 5.75002 7.36458 5.75002C7.7928 5.75002 8.20347 5.92013 8.50627 6.22292C8.80906 6.52571 8.97917 6.93639 8.97917 7.3646Z" stroke="#385469" stroke-width="1.9375" stroke-linecap="round" stroke-linejoin="round"/>
</svg>
