<svg width="29" height="20" viewBox="0 0 29 20" fill="none" xmlns="http://www.w3.org/2000/svg">
<path d="M26.9415 7.6389L21.8284 6.85114L18.7124 1.76085C18.5489 1.49441 18.3193 1.2747 18.0459 1.12297C17.7726 0.971247 17.4647 0.892639 17.1521 0.894756L4.09313 0.998805C3.71634 1.002 3.34991 1.12248 3.04473 1.3435C2.73955 1.56452 2.51079 1.8751 2.39023 2.2321L0.90625 6.63256V16.75H4.02182C4.26403 17.5373 4.75225 18.2262 5.41482 18.7156C6.0774 19.205 6.87941 19.4691 7.70312 19.4691C8.52684 19.4691 9.32885 19.205 9.99142 18.7156C10.654 18.2262 11.1422 17.5373 11.3844 16.75H17.1625C17.4047 17.5373 17.8929 18.2262 18.5555 18.7156C19.218 19.205 20.02 19.4691 20.8438 19.4691C21.6675 19.4691 22.4695 19.205 23.132 18.7156C23.7946 18.2262 24.2828 17.5373 24.525 16.75H28.0938V8.98241C28.0953 8.65736 27.9796 8.34263 27.768 8.09589C27.5564 7.84915 27.2629 7.68691 26.9415 7.6389ZM12.6875 2.74277L17.1665 2.70709L19.6644 6.78787L12.6875 6.78544V2.74277ZM4.10764 2.81119L10.875 2.75727V6.78481L2.76865 6.78193L4.10764 2.81119ZM7.70312 17.6562C7.29984 17.6562 6.9056 17.5367 6.57028 17.3126C6.23496 17.0885 5.97361 16.7701 5.81928 16.3975C5.66495 16.0249 5.62456 15.6149 5.70324 15.2194C5.78192 14.8238 5.97612 14.4605 6.26129 14.1753C6.54646 13.8902 6.90978 13.696 7.30532 13.6173C7.70086 13.5386 8.11085 13.579 8.48344 13.7333C8.85603 13.8877 9.17449 14.149 9.39854 14.4843C9.6226 14.8197 9.74219 15.2139 9.74219 15.6172C9.74159 16.1578 9.52657 16.6761 9.1443 17.0584C8.76203 17.4406 8.24373 17.6556 7.70312 17.6562ZM20.8438 17.6562C20.4405 17.6562 20.0462 17.5367 19.7109 17.3126C19.3756 17.0885 19.1142 16.7701 18.9599 16.3975C18.8056 16.0249 18.7652 15.6149 18.8439 15.2194C18.9225 14.8238 19.1167 14.4605 19.4019 14.1753C19.6871 13.8902 20.0504 13.696 20.4459 13.6173C20.8415 13.5386 21.2515 13.579 21.6241 13.7333C21.9967 13.8877 22.3151 14.149 22.5392 14.4843C22.7632 14.8197 22.8828 15.2139 22.8828 15.6172C22.8822 16.1578 22.6672 16.6761 22.2849 17.0584C21.9027 17.4406 21.3844 17.6556 20.8438 17.6562ZM26.2812 14.9375H24.634C24.4748 14.0481 24.0079 13.243 23.315 12.6632C22.622 12.0833 21.7473 11.7655 20.8438 11.7655C19.9402 11.7655 19.0655 12.0833 18.3725 12.6632C17.6796 13.243 17.2127 14.0481 17.0535 14.9375H11.4934C11.3342 14.0481 10.8672 13.243 10.1743 12.6632C9.48142 12.0833 8.60666 11.7655 7.70312 11.7655C6.79959 11.7655 5.92483 12.0833 5.23191 12.6632C4.539 13.243 4.07208 14.0481 3.91285 14.9375H2.71875V8.59522L21.4399 8.62518L26.2812 9.37108V14.9375Z" fill="#385469"/>
</svg>
