<svg width="18" height="30" viewBox="0 0 18 30" fill="none" xmlns="http://www.w3.org/2000/svg">
<path d="M8.99992 16.9998C13.4182 16.9998 16.9998 13.4182 16.9998 8.99992C16.9998 4.58169 13.4182 1 8.99992 1C4.58169 1 1 4.58169 1 8.99992C1 13.4182 4.58169 16.9998 8.99992 16.9998Z" stroke="#385469" stroke-width="2" stroke-linecap="round" stroke-linejoin="round"/>
<path d="M15.4986 14.3332C16.4839 15.7812 17.0073 17.4938 16.9999 19.2452C16.9999 20.3358 16.8026 21.3771 16.4453 22.3331M16.4453 22.3331C15.2746 25.4558 12.3826 28.5 9 28.5C4.58138 28.5 1.00008 23.8958 1.00008 19.2452C0.992695 17.4938 1.51613 15.7812 2.5014 14.3332M16.4453 22.3331C12.8013 20.7331 9.07467 18.1105 7.66668 16.9998M9 1C7.67468 1 6.60002 2.04532 6.60002 3.33331C6.60002 4.6213 7.67468 5.66662 9 5.66662C9.61466 5.66662 10.176 5.44262 10.6 5.07196M6.33336 8.99992H6.34403M11.6666 8.99992H11.6773" stroke="#385469" stroke-width="2" stroke-linecap="round" stroke-linejoin="round"/>
</svg>
