<svg width="25" height="26" viewBox="0 0 25 26" fill="none" xmlns="http://www.w3.org/2000/svg">
<path d="M20.4374 14.8749H11.4491L11.7245 14.5995L14.0753 12.2487C15.0247 12.7269 16.0709 12.9818 17.1339 12.994C18.2038 12.9968 19.2538 12.704 20.1679 12.1479C22.9475 10.4651 24.437 6.5698 24.1522 1.72762C24.1388 1.49826 24.0417 1.28181 23.8792 1.11936C23.7168 0.956905 23.5003 0.859759 23.271 0.846366C18.4288 0.562772 14.5335 2.05105 12.8507 4.83074C11.7538 6.64129 11.7257 8.82801 12.7487 10.9245L11.0624 12.6108L9.63153 11.18C10.3347 9.62722 10.2843 8.0159 9.46864 6.67058C8.19482 4.56238 5.2745 3.43855 1.65575 3.65066C1.4268 3.6643 1.21079 3.76141 1.0486 3.92359C0.886419 4.08577 0.789317 4.30178 0.775675 4.53074C0.562394 8.14832 1.68739 11.0686 3.79677 12.3436C4.50247 12.7745 5.31367 13.0017 6.14052 12.9999C6.89065 12.9924 7.63055 12.825 8.31083 12.5089L9.73583 13.9374L8.79833 14.8749H3.56239C3.31375 14.8749 3.0753 14.9737 2.89948 15.1495C2.72367 15.3253 2.62489 15.5637 2.62489 15.8124C2.62489 16.061 2.72367 16.2995 2.89948 16.4753C3.0753 16.6511 3.31375 16.7499 3.56239 16.7499H4.68622L6.23427 23.719C6.32501 24.1364 6.55633 24.51 6.88952 24.7773C7.22272 25.0446 7.63759 25.1893 8.06474 25.1874H15.9362C16.3634 25.1893 16.7782 25.0446 17.1114 24.7773C17.4446 24.51 17.6759 24.1364 17.7667 23.719L19.3147 16.7499H20.4374C20.686 16.7499 20.9245 16.6511 21.1003 16.4753C21.2761 16.2995 21.3749 16.061 21.3749 15.8124C21.3749 15.5637 21.2761 15.3253 21.1003 15.1495C20.9245 14.9737 20.686 14.8749 20.4374 14.8749ZM14.4608 5.80222C15.6866 3.77957 18.5905 2.63816 22.3124 2.68855C22.3604 6.41629 21.2214 9.31902 19.1987 10.5401C17.8499 11.3604 16.2222 11.3065 14.5956 10.4018C13.6897 8.78113 13.6405 7.15105 14.4608 5.80222ZM7.79403 10.669C6.71591 11.2468 5.64833 11.2737 4.76708 10.7393C3.41942 9.92254 2.64247 7.99715 2.62489 5.49988C5.12216 5.51746 7.04872 6.29441 7.86435 7.64207C8.39872 8.52332 8.36708 9.5909 7.79403 10.669ZM15.9362 23.3124H8.06474L6.60927 16.7499H17.3905L15.9362 23.3124Z" fill="#385469"/>
</svg>
