<svg width="26" height="26" viewBox="0 0 26 26" fill="none" xmlns="http://www.w3.org/2000/svg">
<path d="M17.5431 1.95887C17.0103 2.00751 16.5149 2.25354 16.1542 2.64867C15.7934 3.0438 15.5934 3.55949 15.5933 4.09452V10.3988C15.5933 10.6573 15.4906 10.9053 15.3078 11.0881C15.125 11.271 14.877 11.3737 14.6184 11.3737C12.7428 11.3737 11.4247 12.138 10.4511 13.3078C9.44635 14.5141 8.79253 16.1753 8.38308 17.9314C7.97622 19.6771 7.82804 21.4358 7.78385 22.7694C7.76913 23.1952 7.76393 23.6212 7.76825 24.0472H16.8932V23.0723C16.8932 22.2969 16.5852 21.5532 16.037 21.0047C15.4888 20.4563 14.7453 20.148 13.9698 20.1476H12.345C12.0865 20.1476 11.8385 20.0449 11.6557 19.8621C11.4728 19.6793 11.3701 19.4313 11.3701 19.1728C11.3701 18.9142 11.4728 18.6662 11.6557 18.4834C11.8385 18.3006 12.0865 18.1979 12.345 18.1979H13.9698C15.2621 18.1986 16.5013 18.7124 17.4149 19.6265C18.3285 20.5405 18.8417 21.78 18.8417 23.0723V24.0472H19.8165C20.0751 24.0472 20.3231 23.9445 20.5059 23.7616C20.6887 23.5788 20.7914 23.3309 20.7914 23.0723V10.0738C20.7914 9.81571 20.8938 9.56814 21.076 9.38539C21.2583 9.20264 21.5056 9.09962 21.7637 9.09893H22.4214C22.711 9.09889 22.9953 9.02147 23.2449 8.87468C23.4945 8.72789 23.7003 8.51706 23.8411 8.26402C23.9819 8.01098 24.0524 7.72492 24.0455 7.43544C24.0387 7.14596 23.9545 6.86358 23.8019 6.61752L22.996 5.31768C22.8503 5.08296 22.6473 4.88924 22.406 4.75482C22.1646 4.6204 21.893 4.54973 21.6168 4.54947H18.5154C18.2568 4.54947 18.0089 4.44676 17.826 4.26393C17.6432 4.0811 17.5405 3.83314 17.5405 3.57458L17.5431 1.95887ZM5.81848 24.0472C5.81588 23.678 5.81848 23.2231 5.83537 22.7044C5.88217 21.2967 6.03945 19.4002 6.4853 17.4894C6.92725 15.5891 7.67466 13.5951 8.95371 12.06C10.0872 10.699 11.6249 9.71896 13.6462 9.47979V4.09452C13.6462 3.00949 14.0768 1.96882 14.8436 1.20109C15.6103 0.433372 16.6504 0.00137782 17.7355 0C18.7052 0 19.4903 0.785108 19.4903 1.75479V2.5997H21.6168C22.8517 2.5997 24.0007 3.23922 24.652 4.2895L25.4579 5.58934C26.8773 7.88098 25.3487 10.8147 22.7373 11.0357V23.0723C22.7373 23.8473 22.4297 24.5906 21.8821 25.139C21.3344 25.6873 20.5915 25.9959 19.8165 25.997H4.93718C3.97503 25.9973 3.03377 25.7164 2.22917 25.1888C1.42456 24.6612 0.791716 23.9099 0.408461 23.0274C0.0252056 22.1449 -0.0917421 21.1696 0.0720026 20.2215C0.235747 19.2734 0.673043 18.3938 1.3301 17.6909L2.80543 16.109C3.50766 15.3555 3.89017 14.3589 3.87247 13.329C3.85477 12.2991 3.43824 11.3162 2.71054 10.5873L1.26381 9.13793C1.09161 8.95312 0.997857 8.70869 1.00231 8.45613C1.00677 8.20357 1.10908 7.96259 1.2877 7.78398C1.46631 7.60536 1.70729 7.50305 1.95985 7.49859C2.21241 7.49414 2.45684 7.58789 2.64165 7.76009L4.08968 9.20812C5.17533 10.2944 5.79697 11.7597 5.82364 13.2952C5.85032 14.8308 5.27993 16.3167 4.23266 17.4401L2.75604 19.0207C2.35967 19.4465 2.09617 19.9788 1.99783 20.5522C1.89949 21.1256 1.97058 21.7152 2.2024 22.2488C2.43422 22.7824 2.81668 23.2368 3.30291 23.5562C3.78914 23.8756 4.35801 24.0463 4.93978 24.0472H5.81848Z" fill="#385469"/>
</svg>
