<svg width="46" height="46" viewBox="0 0 46 46" fill="none" xmlns="http://www.w3.org/2000/svg">
<rect width="46" height="46" rx="6" fill="#FFE8E8"/>
<path d="M17.524 32.8571C16.9216 32.8571 16.4061 32.6428 15.9775 32.2142C15.5489 31.7856 15.3343 31.2697 15.3335 30.6666V16.4285C15.0232 16.4285 14.7633 16.3234 14.5537 16.1131C14.3442 15.9028 14.239 15.6429 14.2383 15.3333C14.2376 15.0237 14.3427 14.7638 14.5537 14.5535C14.7647 14.3432 15.0247 14.2381 15.3335 14.2381H19.7145C19.7145 13.9277 19.8196 13.6678 20.0299 13.4583C20.2402 13.2487 20.5001 13.1436 20.8097 13.1428H25.1907C25.501 13.1428 25.7613 13.248 25.9716 13.4583C26.1819 13.6685 26.2866 13.9285 26.2859 14.2381H30.6669C30.9772 14.2381 31.2375 14.3432 31.4478 14.5535C31.658 14.7638 31.7628 15.0237 31.7621 15.3333C31.7614 15.6429 31.6562 15.9032 31.4467 16.1142C31.2371 16.3252 30.9772 16.43 30.6669 16.4285V30.6666C30.6669 31.269 30.4526 31.7849 30.024 32.2142C29.5953 32.6435 29.0795 32.8578 28.4764 32.8571H17.524ZM20.8097 28.4762C21.12 28.4762 21.3803 28.371 21.5906 28.1607C21.8009 27.9504 21.9057 27.6905 21.905 27.3809V19.7143C21.905 19.4039 21.7998 19.144 21.5895 18.9344C21.3792 18.7249 21.1193 18.6197 20.8097 18.619C20.5001 18.6183 20.2402 18.7234 20.0299 18.9344C19.8196 19.1455 19.7145 19.4054 19.7145 19.7143V27.3809C19.7145 27.6912 19.8196 27.9515 20.0299 28.1618C20.2402 28.3721 20.5001 28.4769 20.8097 28.4762ZM25.1907 28.4762C25.501 28.4762 25.7613 28.371 25.9716 28.1607C26.1819 27.9504 26.2866 27.6905 26.2859 27.3809V19.7143C26.2859 19.4039 26.1808 19.144 25.9705 18.9344C25.7602 18.7249 25.5003 18.6197 25.1907 18.619C24.8811 18.6183 24.6211 18.7234 24.4109 18.9344C24.2006 19.1455 24.0954 19.4054 24.0954 19.7143V27.3809C24.0954 27.6912 24.2006 27.9515 24.4109 28.1618C24.6211 28.3721 24.8811 28.4769 25.1907 28.4762Z" fill="#F43F3F"/>
</svg>
