<svg width="19" height="19" viewBox="0 0 19 19" fill="none" xmlns="http://www.w3.org/2000/svg">
<rect width="19" height="19" rx="3" fill="white" fill-opacity="0.22"/>
<path d="M12.3212 4.45972C12.4669 4.31402 12.6398 4.19844 12.8302 4.11959C13.0206 4.04074 13.2246 4.00015 13.4306 4.00015C13.6367 4.00015 13.8407 4.04074 14.0311 4.11959C14.2215 4.19844 14.3944 4.31402 14.5401 4.45972C14.6858 4.60542 14.8014 4.77839 14.8803 4.96875C14.9591 5.15912 14.9997 5.36315 14.9997 5.56921C14.9997 5.77526 14.9591 5.97929 14.8803 6.16966C14.8014 6.36002 14.6858 6.53299 14.5401 6.67869L7.05109 14.1677L4 14.9999L4.83212 11.9488L12.3212 4.45972Z" stroke="#385469" stroke-width="1.10949" stroke-linecap="round" stroke-linejoin="round"/>
</svg>
