<svg width="20" height="20" viewBox="0 0 20 20" fill="none" xmlns="http://www.w3.org/2000/svg">
<mask id="mask0_373_1529" style="mask-type:luminance" maskUnits="userSpaceOnUse" x="0" y="0" width="20" height="20">
<path d="M9.82975 19.6595C15.2586 19.6595 19.6595 15.2586 19.6595 9.82975C19.6595 4.40093 15.2586 0 9.82975 0C4.40093 0 0 4.40093 0 9.82975C0 15.2586 4.40093 19.6595 9.82975 19.6595Z" fill="white"/>
</mask>
<g mask="url(#mask0_373_1529)">
<path d="M24.5742 13.1062H-4.91504V19.6594H24.5742V13.1062Z" fill="black"/>
<path d="M24.5742 0H-4.91504V6.55317H24.5742V0Z" fill="#CE1126"/>
<path d="M24.5742 6.55298H-4.91504V13.1061H24.5742V6.55298Z" fill="white"/>
<path d="M9.82984 12.9034C10.4832 12.9034 11.1084 12.8516 11.475 12.7484C11.6303 12.7202 11.6303 12.6403 11.6303 12.5367C11.7856 12.485 11.7054 12.3018 11.8135 12.3018C11.7054 12.33 11.6818 12.1186 11.5504 12.1468C11.5504 11.9633 11.3669 11.9401 11.2119 11.9915C10.9016 12.095 10.3518 12.1183 9.82984 12.1183C9.3082 12.0947 8.76265 12.0947 8.44777 11.9915C8.29279 11.9397 8.1093 11.9633 8.1093 12.1468C7.97758 12.1186 7.95399 12.33 7.84619 12.3018C7.95432 12.3018 7.87437 12.485 8.02935 12.5367C8.02935 12.6403 8.02935 12.7202 8.18925 12.7484C8.55098 12.8519 9.17649 12.9034 9.82984 12.9034Z" fill="white"/>
<path d="M9.82955 12.9422C9.12869 12.9422 8.52678 12.8852 8.17816 12.7856C8.00548 12.7555 7.99139 12.6604 7.99008 12.5628C7.90948 12.5238 7.89145 12.4491 7.879 12.398C7.86983 12.3606 7.86491 12.3475 7.85803 12.3429C7.85082 12.3423 7.84362 12.3413 7.83575 12.339C7.81675 12.3341 7.80462 12.3157 7.80692 12.2964C7.81052 12.2686 7.84525 12.26 7.86885 12.2646C7.8872 12.262 7.90456 12.2423 7.93307 12.2057C7.96518 12.1647 8.00679 12.111 8.07265 12.1054C8.08313 12.0356 8.11918 11.9953 8.1503 11.973C8.22239 11.9212 8.33805 11.914 8.45929 11.9543C8.71257 12.0376 9.11952 12.0526 9.55006 12.0684C9.64344 12.0716 9.73748 12.0752 9.83054 12.0795C10.4983 12.0795 10.9465 12.0385 11.1985 11.9547C11.3197 11.914 11.4354 11.9212 11.5078 11.9733C11.5389 11.9956 11.575 12.0363 11.5855 12.1057C11.6513 12.1116 11.6933 12.165 11.7251 12.206C11.7536 12.2427 11.7709 12.262 11.7893 12.265C11.8129 12.2604 11.8476 12.2689 11.8512 12.2967C11.8538 12.3161 11.8414 12.3344 11.8224 12.3393C11.8145 12.3413 11.8073 12.3426 11.8001 12.3429C11.7929 12.3475 11.788 12.3606 11.7791 12.398C11.7667 12.4491 11.7486 12.5235 11.6684 12.5628C11.6671 12.6604 11.653 12.7555 11.4813 12.7863C11.132 12.8849 10.5284 12.9419 9.82923 12.9419L9.82955 12.9422ZM7.93536 12.318C7.94519 12.338 7.95043 12.3603 7.95502 12.3796C7.9678 12.4327 7.97894 12.4786 8.04152 12.4996C8.05725 12.5048 8.06806 12.5199 8.06806 12.5366C8.06806 12.6401 8.06806 12.6873 8.19585 12.7099C8.53661 12.8069 9.14573 12.8646 9.82955 12.8646C10.5134 12.8646 11.1179 12.8085 11.4642 12.7109C11.591 12.6876 11.591 12.6405 11.591 12.5369C11.591 12.5202 11.6019 12.5051 11.6176 12.4999C11.6798 12.4789 11.691 12.4334 11.7038 12.38C11.7083 12.3606 11.7139 12.3384 11.7237 12.3184C11.7005 12.3007 11.6812 12.2761 11.6641 12.2541C11.6225 12.2007 11.5983 12.1768 11.5583 12.185C11.5468 12.1876 11.5347 12.1847 11.5255 12.1771C11.5163 12.1696 11.5111 12.1585 11.5111 12.147C11.5111 12.0969 11.4947 12.0598 11.4629 12.0366C11.4118 11.9999 11.3204 11.9966 11.2241 12.0287C10.9639 12.1155 10.5078 12.1578 9.82988 12.1578C9.73519 12.1536 9.64115 12.1503 9.5481 12.1467C9.11165 12.1306 8.69946 12.1155 8.43569 12.0287C8.33936 11.9966 8.24762 11.9999 8.1965 12.0366C8.16439 12.0595 8.14834 12.0969 8.14834 12.147C8.14834 12.1588 8.1431 12.1699 8.13392 12.1771C8.12475 12.1847 8.11262 12.1873 8.10116 12.185C8.06085 12.1762 8.03694 12.2007 7.99499 12.2541C7.97796 12.2761 7.95862 12.3007 7.93536 12.3184V12.318Z" fill="#C09300"/>
<path d="M9.85621 9.90806L12.1003 11.9913L11.9404 8.20784C11.9169 7.63444 11.4188 7.76583 11.0568 7.97291C10.6901 8.20784 10.2717 8.20785 9.82967 8.05286C9.38766 8.20817 8.96957 8.20817 8.60292 7.97291C8.24086 7.76616 7.74282 7.63444 7.71922 8.20784L7.55933 11.9913L9.85621 9.90806Z" fill="white"/>
<path d="M12.1005 12.0125C12.0953 12.0125 12.0904 12.0105 12.0864 12.0069L9.85608 9.9368L7.57361 12.0073C7.56738 12.0128 7.55854 12.0145 7.55067 12.0109C7.54314 12.0073 7.53822 11.9994 7.53888 11.9912L7.69877 8.20774C7.70664 8.01377 7.76889 7.88303 7.88357 7.8198C8.10966 7.69463 8.46943 7.8732 8.6136 7.95545C8.95043 8.17137 9.35738 8.19759 9.82331 8.03376C9.82757 8.03212 9.83281 8.03212 9.83707 8.03376C10.3033 8.19759 10.71 8.17137 11.0458 7.9561C11.191 7.8732 11.5511 7.69496 11.7768 7.8198C11.8915 7.88336 11.9537 8.01377 11.9616 8.20774L12.1215 11.9912C12.1215 11.9997 12.1172 12.0076 12.1094 12.0109C12.1068 12.0122 12.1035 12.0128 12.1005 12.0128V12.0125ZM8.07034 7.81717C8.01005 7.81717 7.95304 7.82832 7.90356 7.85551C7.80264 7.91154 7.7476 8.03015 7.74006 8.20873L7.58246 11.9424L9.84232 9.89256C9.85051 9.88536 9.86263 9.88536 9.87049 9.89256L12.0776 11.9414L11.92 8.2084C11.9128 8.02983 11.8577 7.91089 11.7568 7.85518C11.5497 7.7405 11.2057 7.91154 11.0674 7.99051C10.7227 8.21135 10.306 8.23985 9.83019 8.07439C9.35411 8.23985 8.93765 8.21168 8.59197 7.98985C8.48745 7.93022 8.263 7.81652 8.07034 7.81652V7.81717Z" fill="#C09300"/>
<path d="M10.4832 8.7063L10.5585 10.53L10.7699 10.7368L10.6899 8.72989C10.6381 8.72989 10.5067 8.72989 10.4832 8.7063Z" fill="#C09300"/>
<path d="M9.93325 10.323L10.2481 11.7565L10.1446 11.86L10.0365 11.7801L9.85789 10.5016L9.93325 11.7801L9.82971 11.9118L9.72617 11.7801L9.80154 10.5016L9.62296 11.7801L9.51483 11.86L9.41162 11.7565L9.7265 10.323H9.93325Z" fill="#C09300"/>
<path d="M9.82984 11.9404L9.70828 11.786L9.75808 10.94L9.63947 11.7903L9.51299 11.8837L9.39209 11.7628L9.39406 11.7533L9.71188 10.3057H9.94682L9.94976 10.3194L10.2669 11.7624L10.146 11.8833L10.0199 11.79L10.0189 11.7827L9.90094 10.939L9.95075 11.786L9.82951 11.9404H9.82984ZM9.74432 11.7746L9.82984 11.8833L9.91536 11.7746L9.84065 10.5029L9.87571 10.4993L10.0533 11.7703L10.1434 11.8368L10.2293 11.751L9.91929 10.3404H9.74072L9.43108 11.751L9.51693 11.8368L9.60703 11.7703L9.78462 10.4993L9.81968 10.5029L9.74465 11.7746H9.74432Z" fill="#C09300"/>
<path d="M7.9775 8.07642L7.82252 11.7567L7.55908 11.9916L7.71898 8.20813C7.79401 8.15636 7.92573 8.07642 7.9775 8.07642Z" fill="#C09300"/>
<path d="M8.29278 8.33956L8.16106 11.4182L7.89795 11.6876L8.05785 8.13281C8.10962 8.18458 8.2646 8.31139 8.29278 8.33956Z" fill="#C09300"/>
<path d="M8.57937 8.57466L8.47583 11.1422L8.26416 11.3489L8.39588 8.41968C8.44765 8.47145 8.55086 8.54648 8.57904 8.57466H8.57937Z" fill="#C09300"/>
<path d="M8.88988 8.70633L8.78634 10.8948L8.57959 11.0625L8.68313 8.62671C8.7349 8.6503 8.83844 8.70666 8.88988 8.70666V8.70633Z" fill="#C09300"/>
<path d="M9.17659 8.7063L9.10123 10.53L8.88989 10.7368L8.96984 8.72989C9.02161 8.72989 9.153 8.72989 9.17659 8.7063Z" fill="#C09300"/>
<path d="M11.6821 8.07642L11.8371 11.7567L12.1005 11.9916L11.9407 8.20813C11.8656 8.15636 11.7339 8.07642 11.6821 8.07642Z" fill="#C09300"/>
<path d="M11.3667 8.33956L11.4984 11.4182L11.7615 11.6876L11.6016 8.13281C11.5499 8.18458 11.3949 8.31139 11.3667 8.33956Z" fill="#C09300"/>
<path d="M11.0801 8.57466L11.1836 11.1422L11.395 11.3489L11.2632 8.41968C11.2115 8.47145 11.1083 8.54648 11.0801 8.57466Z" fill="#C09300"/>
<path d="M10.7695 8.70633L10.8731 10.8948L11.0798 11.0625L10.9763 8.62671C10.9245 8.6503 10.821 8.70666 10.7695 8.70666V8.70633Z" fill="#C09300"/>
<path d="M9.12444 9.69336L8.49927 11.9119L9.35937 12.0437L9.72602 10.3752L9.12444 9.69369V9.69336Z" fill="white"/>
<path d="M9.35979 12.0628C9.35979 12.0628 9.35783 12.0628 9.35685 12.0628L8.49674 11.9311C8.49117 11.9305 8.48626 11.9272 8.48331 11.9223C8.48036 11.9177 8.47938 11.9118 8.48101 11.9066L9.10619 9.68798C9.10815 9.6811 9.11372 9.67586 9.1206 9.67422C9.12748 9.67291 9.13469 9.67487 9.13961 9.68044L9.74119 10.362C9.74545 10.3666 9.74709 10.3731 9.74545 10.379L9.3788 12.0474C9.37683 12.0566 9.36897 12.0628 9.35979 12.0628ZM8.52426 11.8957L9.34472 12.0212L9.70515 10.3803L9.13371 9.7332L8.52426 11.8961V11.8957Z" fill="#C09300"/>
<path d="M10.5347 9.69336L11.1599 11.9119L10.2998 12.0437L9.93311 10.3752L10.5347 9.69369V9.69336Z" fill="white"/>
<path d="M10.3 12.0631C10.2908 12.0631 10.2829 12.0568 10.281 12.0477L9.9143 10.3792C9.91299 10.3733 9.9143 10.3668 9.91856 10.3622L10.5201 9.68066C10.5247 9.67542 10.5319 9.67312 10.5391 9.67443C10.546 9.67607 10.5516 9.68131 10.5536 9.68819L11.1787 11.9068C11.1804 11.912 11.1794 11.9179 11.1764 11.9225C11.1735 11.9271 11.1686 11.9304 11.163 11.9313L10.3029 12.0631C10.3029 12.0631 10.3009 12.0631 10.3 12.0631ZM9.95428 10.3805L10.315 12.0215L11.1355 11.896L10.526 9.73308L9.95461 10.3802L9.95428 10.3805Z" fill="#C09300"/>
<path d="M10.6662 10.6544C10.6609 10.6544 10.6557 10.6524 10.6517 10.6485L10.2451 10.2602C10.2369 10.2523 10.2366 10.2392 10.2445 10.2307C10.2527 10.2225 10.2658 10.2222 10.274 10.2301L10.6583 10.5974L10.7219 10.4424C10.7261 10.4319 10.7382 10.4267 10.7491 10.4309C10.7599 10.4352 10.7648 10.4473 10.7605 10.4581L10.6855 10.6413C10.6829 10.6475 10.6773 10.6524 10.6704 10.6537C10.6691 10.6541 10.6675 10.6541 10.6662 10.6541V10.6544Z" fill="#C09300"/>
<path d="M10.2132 11.7775C10.2132 11.7775 10.2102 11.7775 10.2089 11.7771C10.1978 11.7748 10.1906 11.7637 10.1929 11.7526L10.282 11.3309L9.99923 10.9013C9.993 10.8918 9.99562 10.8787 10.0051 10.8725C10.0143 10.8662 10.0274 10.8689 10.034 10.8784L10.2928 11.2719L10.3639 10.881C10.3652 10.8728 10.3714 10.8662 10.3796 10.8643C10.3875 10.8623 10.396 10.8656 10.4009 10.8721L10.5671 11.0972L10.6395 10.8394C10.6414 10.8322 10.647 10.8266 10.6542 10.825C10.6614 10.823 10.669 10.825 10.6742 10.8305L10.9419 11.1051C10.9471 11.1104 10.9491 11.1179 10.9471 11.1251L10.8108 11.6248C10.8085 11.6326 10.802 11.6389 10.7938 11.6398C10.7856 11.6412 10.7774 11.6372 10.7732 11.63L10.6087 11.3594L10.5195 11.6313C10.5169 11.6389 10.5104 11.6444 10.5025 11.6454C10.495 11.6471 10.4868 11.6428 10.4825 11.6359L10.3151 11.3754L10.2338 11.7608C10.2319 11.7706 10.223 11.7771 10.2135 11.7771L10.2132 11.7775ZM10.3269 11.3174L10.4937 11.5769L10.5834 11.3037C10.5861 11.2958 10.5926 11.2906 10.6008 11.2896C10.61 11.2886 10.6169 11.2925 10.6211 11.2994L10.784 11.5671L10.9042 11.1254L10.6699 10.8849L10.5959 11.149C10.5936 11.1566 10.5874 11.1624 10.5795 11.1638C10.572 11.1651 10.5638 11.1621 10.5592 11.1556L10.3963 10.9351L10.3269 11.3171V11.3174Z" fill="#C09300"/>
<path d="M8.99311 10.6542C8.99311 10.6542 8.99016 10.6542 8.98885 10.6539C8.98197 10.6526 8.9764 10.6477 8.97378 10.6414L8.89874 10.4583C8.89448 10.4475 8.8994 10.4353 8.91021 10.4311C8.92102 10.4265 8.93282 10.4317 8.93741 10.4425L9.00097 10.5975L9.38532 10.2306C9.39351 10.2227 9.40694 10.223 9.41481 10.2312C9.42267 10.2394 9.42234 10.2528 9.41415 10.2607L9.00785 10.649C9.00392 10.6526 8.99868 10.6549 8.99344 10.6549L8.99311 10.6542Z" fill="#C09300"/>
<path d="M9.28443 10.8091C9.28247 10.8091 9.28083 10.8091 9.27886 10.8085C9.27067 10.8062 9.26477 10.799 9.26379 10.7908L9.1786 9.99293C9.17729 9.98146 9.18581 9.9713 9.19728 9.96999C9.21038 9.96803 9.2189 9.9772 9.22021 9.98834L9.29983 10.7341L9.52657 10.4372C9.53345 10.4281 9.54656 10.4264 9.55574 10.4333C9.56491 10.4402 9.56655 10.4533 9.55967 10.4625L9.30114 10.8009C9.29721 10.8062 9.29099 10.8091 9.28476 10.8091H9.28443Z" fill="#C09300"/>
<path d="M9.58076 11.0898C9.57158 11.0898 9.56339 11.0839 9.56077 11.0747L9.41955 10.5872C9.41627 10.576 9.42282 10.5646 9.43364 10.5613C9.44445 10.5583 9.45625 10.5646 9.45952 10.5754L9.60074 11.0629C9.60402 11.0741 9.59747 11.0855 9.58665 11.0888C9.58469 11.0895 9.58272 11.0895 9.58076 11.0895V11.0898Z" fill="#C09300"/>
<path d="M9.43945 11.7776C9.42962 11.7776 9.4211 11.7707 9.41914 11.7612L9.33788 11.3759L9.17045 11.6364C9.16619 11.6432 9.15865 11.6475 9.15046 11.6459C9.14259 11.6449 9.13571 11.6393 9.13342 11.6318L9.0443 11.3598L8.87981 11.6305C8.87555 11.6377 8.86736 11.6416 8.85917 11.6403C8.85098 11.639 8.8441 11.6331 8.84213 11.6252L8.70583 11.1255C8.70386 11.1183 8.70583 11.1108 8.71107 11.1056L8.97877 10.831C8.98401 10.8257 8.99154 10.8234 8.99875 10.8254C9.00596 10.8274 9.01153 10.8326 9.0135 10.8398L9.08591 11.0977L9.25203 10.8726C9.25695 10.866 9.26547 10.8628 9.27333 10.8647C9.28152 10.8667 9.28775 10.8729 9.28906 10.8814L9.36016 11.2723L9.61901 10.8788C9.62524 10.8693 9.63834 10.8667 9.64784 10.8729C9.65735 10.8791 9.6603 10.8922 9.65374 10.9017L9.37097 11.3313L9.4601 11.753C9.46239 11.7641 9.45518 11.7753 9.44404 11.7776C9.44273 11.7779 9.44109 11.7779 9.43978 11.7779L9.43945 11.7776ZM9.04921 11.2894C9.04921 11.2894 9.05085 11.2894 9.05151 11.2894C9.0597 11.2904 9.06625 11.2959 9.06887 11.3035L9.15865 11.5767L9.32543 11.3172L9.25596 10.9352L9.09312 11.1557C9.08853 11.1622 9.08034 11.1649 9.0728 11.1639C9.06494 11.1626 9.05871 11.1567 9.05642 11.1491L8.98237 10.885L8.74809 11.1255L8.86834 11.5672L9.03119 11.2995C9.03479 11.2933 9.04168 11.2894 9.04888 11.2894H9.04921Z" fill="#C09300"/>
<path d="M9.22772 12.0641C9.21888 12.0641 9.21068 12.0586 9.20806 12.0497L9.11894 11.7784L8.98722 12.0019C8.98296 12.0091 8.97477 12.013 8.96691 12.012C8.95871 12.0111 8.95183 12.0052 8.94954 11.9973L8.84862 11.6624L8.69954 11.8718C8.69266 11.8813 8.67988 11.8833 8.67037 11.8767C8.66087 11.8702 8.65891 11.8571 8.66546 11.8476L8.83912 11.6038C8.84371 11.5972 8.8519 11.5939 8.85943 11.5953C8.8673 11.5966 8.87385 11.6021 8.87614 11.6097L8.97542 11.9396L9.10649 11.7175C9.11075 11.7103 9.11828 11.7063 9.1268 11.7073C9.13499 11.7083 9.14188 11.7139 9.1445 11.7214L9.24804 12.0363C9.25164 12.0471 9.24574 12.0589 9.23493 12.0625C9.23264 12.0632 9.23067 12.0635 9.22838 12.0635L9.22772 12.0641Z" fill="#C09300"/>
<path d="M10.4382 12.0643C10.4362 12.0643 10.4339 12.064 10.4316 12.0633C10.4208 12.0597 10.4149 12.0479 10.4185 12.0371L10.5221 11.7222C10.5247 11.7144 10.5316 11.7088 10.5398 11.7082C10.5476 11.7072 10.5558 11.7111 10.5601 11.7183L10.6912 11.9405L10.7908 11.6105C10.7931 11.603 10.7996 11.5974 10.8075 11.5961C10.815 11.5945 10.8232 11.5981 10.8278 11.6046L11.0014 11.8484C11.008 11.8579 11.0057 11.8707 10.9965 11.8776C10.9874 11.8844 10.9742 11.8821 10.9674 11.8726L10.8183 11.6633L10.7174 11.9981C10.7151 12.006 10.7082 12.0119 10.7 12.0129C10.6921 12.0139 10.6836 12.0099 10.6797 12.0027L10.548 11.7793L10.4588 12.0506C10.4559 12.0594 10.4477 12.065 10.4392 12.065L10.4382 12.0643Z" fill="#C09300"/>
<path d="M8.94128 11.9116C9.15262 11.9398 9.38788 11.9634 9.57104 11.9398C9.67425 11.9398 9.74961 12.1184 9.54286 12.1466C9.3597 12.1698 9.073 12.1466 8.91769 12.1184C8.78597 12.0948 8.49927 12.0434 8.3161 11.9916C8.13294 11.9116 8.26434 11.7567 8.36788 11.7802C8.52777 11.832 8.73452 11.8838 8.9416 11.912L8.94128 11.9116Z" fill="white"/>
<path d="M9.36541 12.1769C9.20027 12.1769 9.0194 12.1579 8.9139 12.1386C8.80086 12.1182 8.50007 12.0648 8.31035 12.0111C8.18584 11.957 8.20157 11.8768 8.20911 11.8535C8.2304 11.7886 8.30675 11.7447 8.37228 11.7595C8.48008 11.7942 8.69535 11.8568 8.94404 11.8905C9.13638 11.9164 9.38147 11.9429 9.56823 11.9187H9.56856C9.63376 11.9187 9.69012 11.9721 9.69438 12.0353C9.69602 12.0612 9.69045 12.1467 9.54562 12.1667C9.49156 12.1736 9.42963 12.1766 9.36541 12.1766V12.1769ZM8.34574 11.7981C8.30609 11.7981 8.26153 11.8279 8.24875 11.8669C8.23532 11.9079 8.26219 11.9452 8.32444 11.9724C8.50957 12.0245 8.80872 12.0779 8.92143 12.0979C9.06528 12.1241 9.35231 12.1503 9.54038 12.1261C9.61509 12.1159 9.65637 12.0842 9.6531 12.0389C9.65047 11.998 9.61116 11.961 9.57118 11.961C9.38179 11.9855 9.13343 11.9587 8.93847 11.9325C8.6865 11.8981 8.46894 11.8348 8.36147 11.8001C8.35622 11.7988 8.35098 11.7984 8.34574 11.7984V11.7981Z" fill="#C09300"/>
<path d="M10.7182 11.9114C10.5065 11.9396 10.2716 11.9632 10.093 11.9396C9.9849 11.9396 9.90954 12.1181 10.1166 12.1463C10.3001 12.1696 10.5868 12.1463 10.7418 12.1181C10.8735 12.0946 11.1602 12.0431 11.3434 11.9913C11.5269 11.9114 11.3951 11.7564 11.2916 11.78C11.1317 11.8318 10.925 11.8835 10.7182 11.9117V11.9114Z" fill="white"/>
<path d="M10.2945 12.1769C10.2299 12.1769 10.1683 12.174 10.1143 12.1671C9.96946 12.1474 9.96389 12.0623 9.96552 12.0367C9.96978 11.9728 10.0284 11.9187 10.0933 11.9187C10.2781 11.943 10.5229 11.9164 10.7159 11.8906C10.9646 11.8568 11.1795 11.7942 11.2857 11.7598C11.3538 11.7448 11.4295 11.7883 11.4508 11.8535C11.4583 11.8768 11.4741 11.9571 11.3522 12.0102C11.1598 12.0645 10.859 12.1183 10.7457 12.1386C10.6405 12.1576 10.4596 12.1769 10.2945 12.1769ZM10.0907 11.9604C10.0458 11.9604 10.0098 12.0023 10.0071 12.0396C10.0042 12.0842 10.0451 12.1157 10.1195 12.1258C10.3076 12.1501 10.5946 12.1239 10.7381 12.0976C10.8509 12.0777 11.1503 12.0242 11.3378 11.9712C11.3974 11.945 11.4243 11.9076 11.4108 11.8666C11.3964 11.8224 11.3401 11.79 11.2961 11.8001C11.1906 11.8342 10.9727 11.8978 10.7211 11.9322C10.5258 11.9584 10.2778 11.9853 10.0904 11.9604H10.0907Z" fill="#C09300"/>
<path d="M8.29265 11.8081C8.13275 11.7799 8.05772 11.9631 8.10949 12.0666C8.13308 12.0148 8.24121 12.0148 8.26447 11.9631C8.29265 11.8831 8.24088 11.8831 8.29265 11.8081Z" fill="white"/>
<path d="M8.10955 12.0874C8.10169 12.0874 8.09448 12.0828 8.09087 12.0759C8.05844 12.0114 8.06925 11.9216 8.11676 11.858C8.15935 11.8007 8.22456 11.7751 8.29632 11.7879C8.3032 11.7892 8.30909 11.7938 8.31204 11.8003C8.31499 11.8069 8.31401 11.8144 8.31008 11.82C8.28616 11.8547 8.28845 11.8675 8.29173 11.8868C8.295 11.9059 8.29894 11.9294 8.28452 11.9701C8.26846 12.0051 8.23111 12.0199 8.19507 12.0343C8.16656 12.0454 8.13707 12.0572 8.12888 12.0753C8.12561 12.0825 8.1184 12.0874 8.1102 12.0874H8.10988H8.10955ZM8.25798 11.8262C8.20097 11.8272 8.16656 11.8606 8.15018 11.8829C8.11971 11.9239 8.10758 11.9799 8.11741 12.0261C8.13511 12.013 8.15739 12.0041 8.17967 11.9956C8.20818 11.9845 8.23766 11.973 8.24586 11.9547C8.25601 11.9258 8.25339 11.9104 8.25044 11.8937C8.24684 11.8721 8.24553 11.8534 8.25831 11.8259L8.25798 11.8262Z" fill="#C09300"/>
<path d="M8.91776 12.2888C8.91776 12.1856 9.02097 12.1981 9.02097 12.0949C9.02097 12.0431 8.99279 11.9631 8.94102 11.9631C8.88925 11.9631 8.83748 12.0149 8.83748 12.0667C8.81389 12.1702 8.91743 12.1856 8.91743 12.2888H8.91776Z" fill="white"/>
<path d="M8.91766 12.3099C8.90619 12.3099 8.89669 12.3008 8.89669 12.289C8.89669 12.2477 8.87735 12.2228 8.85671 12.1966C8.83115 12.1638 8.80232 12.1268 8.81739 12.0622C8.81674 12.0042 8.87834 11.9426 8.94125 11.9426C9.00416 11.9426 9.04184 12.0311 9.04184 12.095C9.04184 12.1589 9.0094 12.1848 8.98319 12.2077C8.95829 12.2297 8.93863 12.2467 8.93863 12.289C8.93863 12.3004 8.92945 12.3099 8.91766 12.3099ZM8.94125 11.9842C8.90095 11.9842 8.85868 12.0265 8.85868 12.0668C8.84786 12.1169 8.86621 12.1409 8.88981 12.171C8.89996 12.1841 8.91078 12.1979 8.91962 12.2139C8.93044 12.1985 8.94387 12.1871 8.95566 12.1766C8.98057 12.1546 9.00023 12.1376 9.00023 12.0953C9.00023 12.0508 8.97532 11.9846 8.94125 11.9846V11.9842Z" fill="#C09300"/>
<path d="M9.66222 11.9915C9.81721 11.9915 9.80181 12.1982 9.72644 12.3017C9.72644 12.2267 9.59473 12.1982 9.59473 12.1468C9.59473 12.0668 9.71367 12.0668 9.6619 11.9915H9.66222Z" fill="white"/>
<path d="M9.72618 12.3225C9.72421 12.3225 9.72192 12.3222 9.71962 12.3215C9.7111 12.3189 9.70521 12.3107 9.70521 12.3019C9.70521 12.2717 9.67178 12.2488 9.63902 12.2262C9.60527 12.2029 9.57349 12.181 9.57349 12.1469C9.57349 12.1007 9.60461 12.0755 9.62722 12.0568C9.65573 12.0335 9.66097 12.028 9.64426 12.0034C9.64 11.9972 9.63935 11.9886 9.64295 11.9821C9.64655 11.9752 9.65376 11.9709 9.6613 11.9709C9.7324 11.9709 9.76648 12.009 9.78253 12.0407C9.82349 12.1213 9.79433 12.2429 9.74256 12.3143C9.73863 12.3199 9.7324 12.3229 9.72585 12.3229L9.72618 12.3225ZM9.69505 12.0165C9.70029 12.0512 9.67342 12.0732 9.65409 12.0889C9.63017 12.1086 9.61575 12.122 9.61575 12.1466C9.61575 12.159 9.64098 12.1764 9.66327 12.1918C9.68718 12.2082 9.71471 12.2272 9.73175 12.2524C9.76091 12.1918 9.7727 12.1112 9.74649 12.0594C9.73535 12.0378 9.71831 12.0234 9.69538 12.0168L9.69505 12.0165Z" fill="#C09300"/>
<path d="M11.3667 11.8083C11.5266 11.7802 11.6016 11.9633 11.5502 12.0669C11.5266 12.0151 11.4185 12.0151 11.3952 11.9633C11.367 11.8834 11.4188 11.8834 11.367 11.8083H11.3667Z" fill="white"/>
<path d="M11.5499 12.0875C11.5417 12.0875 11.5345 12.0826 11.5313 12.0754C11.5231 12.057 11.4936 12.0455 11.4651 12.0344C11.429 12.02 11.3917 12.0056 11.3763 11.9721C11.3612 11.9299 11.3651 11.9063 11.3684 11.8873C11.3717 11.8679 11.3736 11.8552 11.3497 11.8204C11.3458 11.8145 11.3451 11.807 11.3478 11.8005C11.3504 11.7939 11.3563 11.7893 11.3632 11.788C11.4352 11.7755 11.5001 11.8011 11.5427 11.8581C11.5902 11.922 11.601 12.0115 11.5686 12.076C11.565 12.0832 11.5578 12.0875 11.5499 12.0875ZM11.4015 11.8263C11.4143 11.8535 11.413 11.8725 11.4094 11.8942C11.4067 11.9105 11.4041 11.9263 11.4146 11.9567C11.4221 11.9731 11.4516 11.9846 11.4801 11.9961C11.5021 12.0046 11.5247 12.0134 11.5424 12.0265C11.5522 11.98 11.5401 11.9243 11.5096 11.8833C11.4929 11.8611 11.4585 11.8276 11.4015 11.8267V11.8263Z" fill="#C09300"/>
<path d="M10.7419 12.2888C10.7419 12.1856 10.6387 12.1981 10.6387 12.0949C10.6387 12.0431 10.6669 11.9631 10.7186 11.9631C10.7704 11.9631 10.8222 12.0149 10.8222 12.0667C10.8458 12.1702 10.7422 12.1856 10.7422 12.2888H10.7419Z" fill="white"/>
<path d="M10.7419 12.3099C10.7304 12.3099 10.7209 12.3008 10.7209 12.289C10.7209 12.2467 10.7012 12.2297 10.6763 12.2077C10.6501 12.1848 10.6177 12.1563 10.6177 12.095C10.6177 12.0337 10.6527 11.9426 10.7183 11.9426C10.7838 11.9426 10.8424 12.0042 10.8424 12.0668C10.8565 12.1268 10.8277 12.1638 10.8025 12.1966C10.7818 12.2231 10.7625 12.248 10.7625 12.289C10.7625 12.3004 10.7533 12.3099 10.7415 12.3099H10.7419ZM10.7183 11.9842C10.6839 11.9842 10.6593 12.0504 10.6593 12.095C10.6593 12.1373 10.6789 12.1546 10.7039 12.1762C10.716 12.1867 10.7291 12.1985 10.7399 12.2136C10.7487 12.1975 10.7592 12.1838 10.7697 12.1707C10.7933 12.1405 10.8116 12.1166 10.8015 12.0711C10.8008 12.0262 10.7586 11.9839 10.7183 11.9839V11.9842Z" fill="#C09300"/>
<path d="M9.99746 11.9915C9.84248 11.9915 9.85788 12.1982 9.93291 12.3017C9.93291 12.2267 10.0646 12.1982 10.0646 12.1468C10.0646 12.0668 9.94569 12.0668 9.99746 11.9915Z" fill="white"/>
<path d="M9.93311 12.3229C9.92656 12.3229 9.92033 12.3196 9.9164 12.3143C9.86463 12.2429 9.83514 12.1213 9.87643 12.0407C9.89281 12.009 9.92689 11.9709 9.99766 11.9709C10.0052 11.9709 10.0124 11.9752 10.016 11.9821C10.0196 11.989 10.019 11.9972 10.0147 12.0034C9.99766 12.028 10.0032 12.0339 10.0317 12.0568C10.0543 12.0755 10.0855 12.1007 10.0855 12.1469C10.0855 12.1813 10.0537 12.2033 10.0199 12.2262C9.9875 12.2485 9.95375 12.2717 9.95375 12.3019C9.95375 12.3111 9.94786 12.3189 9.93934 12.3215C9.93737 12.3222 9.93508 12.3225 9.93278 12.3225L9.93311 12.3229ZM9.96424 12.0168C9.9413 12.0234 9.92426 12.0378 9.91312 12.0594C9.88691 12.1112 9.89871 12.1918 9.92787 12.2524C9.94491 12.2272 9.97243 12.2085 9.99635 12.1918C10.0186 12.1764 10.0439 12.159 10.0439 12.1466C10.0439 12.122 10.0294 12.1086 10.0055 12.0889C9.98619 12.0732 9.959 12.0512 9.96457 12.0165L9.96424 12.0168Z" fill="#C09300"/>
<path d="M8.49971 11.9261C8.49971 11.9261 8.49676 11.9261 8.49512 11.9255L8.33981 11.8737C8.33293 11.8714 8.329 11.8645 8.32998 11.8573C8.33097 11.8501 8.33719 11.8452 8.3444 11.8452C8.39945 11.8452 8.48398 11.8701 8.51085 11.9022C8.51511 11.9071 8.51544 11.9144 8.51151 11.9199C8.50888 11.9239 8.5043 11.9261 8.49938 11.9261H8.49971Z" fill="#C09300"/>
<path d="M8.78617 12.0061C8.78617 12.0061 8.78355 12.0061 8.78224 12.0055L8.59875 11.954C8.59187 11.9521 8.58728 11.9452 8.58827 11.938C8.58925 11.9308 8.59548 11.9255 8.60268 11.9255C8.63381 11.9255 8.73932 11.9498 8.79305 11.9789C8.79961 11.9825 8.80223 11.9904 8.79961 11.9973C8.79731 12.0029 8.79207 12.0065 8.78617 12.0065V12.0061Z" fill="#C09300"/>
<path d="M9.35989 12.0813C9.35399 12.0813 9.34875 12.078 9.34645 12.0725C9.34383 12.0666 9.34547 12.0597 9.35039 12.0554C9.3802 12.0309 9.4654 12.0286 9.54305 12.0286C9.55059 12.0286 9.55714 12.0345 9.5578 12.0423C9.55812 12.0499 9.55255 12.0567 9.54502 12.0577L9.36185 12.081C9.36185 12.081 9.36054 12.081 9.35989 12.081V12.0813Z" fill="#C09300"/>
<path d="M9.25638 12.058H9.07289C9.06601 12.058 9.06044 12.0534 9.0588 12.0468C9.05716 12.0403 9.06011 12.0337 9.06601 12.0305C9.11876 12.0016 9.23147 11.998 9.26686 12.0331C9.27112 12.0373 9.2721 12.0436 9.27014 12.0491C9.26784 12.0547 9.2626 12.058 9.2567 12.058H9.25638Z" fill="#C09300"/>
<path d="M11.3155 11.8601C11.2637 11.8601 11.1887 11.8837 11.1602 11.9119L11.3155 11.8601Z" fill="white"/>
<path d="M11.1604 11.9261C11.1555 11.9261 11.1506 11.9235 11.1479 11.9193C11.1443 11.9134 11.1453 11.9062 11.1499 11.9012C11.1827 11.8682 11.2636 11.8452 11.3154 11.8452C11.3226 11.8452 11.3285 11.8505 11.3298 11.8573C11.3311 11.8645 11.3268 11.8714 11.32 11.8737L11.165 11.9255C11.165 11.9255 11.162 11.9261 11.1604 11.9261Z" fill="#C09300"/>
<path d="M11.0569 11.9402C11.0288 11.9402 10.9252 11.9638 10.8738 11.992L11.0569 11.9402Z" fill="white"/>
<path d="M10.8736 12.0062C10.8677 12.0062 10.8624 12.0026 10.8601 11.9971C10.8575 11.9902 10.8601 11.9823 10.8667 11.9787C10.9204 11.9495 11.0259 11.9253 11.0571 11.9253C11.0643 11.9253 11.0705 11.9305 11.0715 11.9377C11.0725 11.945 11.0679 11.9518 11.061 11.9538L10.8775 12.0052C10.8775 12.0052 10.8749 12.0059 10.8736 12.0059V12.0062Z" fill="#C09300"/>
<path d="M10.1165 12.0432C10.1682 12.0432 10.2714 12.0432 10.2996 12.0665L10.1165 12.0432Z" fill="white"/>
<path d="M10.2995 12.0812C10.2995 12.0812 10.2982 12.0812 10.2975 12.0812L10.1144 12.058C10.1068 12.057 10.1012 12.0501 10.1016 12.0426C10.1019 12.0347 10.1085 12.0288 10.1163 12.0288C10.194 12.0288 10.2792 12.0308 10.309 12.0557C10.3139 12.0599 10.3159 12.0668 10.3129 12.0727C10.3106 12.078 10.3054 12.0816 10.2995 12.0816V12.0812Z" fill="#C09300"/>
<path d="M10.4031 12.0434C10.4313 12.0152 10.5348 12.0152 10.5862 12.0434H10.4031Z" fill="white"/>
<path d="M10.5862 12.058H10.4027C10.3968 12.058 10.3916 12.0544 10.3893 12.0491C10.387 12.0436 10.3883 12.0373 10.3926 12.0331C10.4276 11.998 10.5404 12.0016 10.5934 12.0305C10.5993 12.0337 10.6023 12.0403 10.6006 12.0468C10.599 12.0534 10.5931 12.058 10.5866 12.058H10.5862Z" fill="#C09300"/>
<path d="M10.3797 10.8091C10.3735 10.8091 10.3673 10.8062 10.3633 10.8009L10.1048 10.4625C10.0979 10.4533 10.0996 10.4402 10.1088 10.4333C10.1179 10.4264 10.131 10.4281 10.1379 10.4372L10.3647 10.7341L10.4443 9.98835C10.4456 9.97688 10.4544 9.96804 10.4672 9.97C10.4787 9.97131 10.4869 9.98147 10.4859 9.99294L10.4007 10.7908C10.3997 10.7993 10.3938 10.8062 10.3856 10.8085C10.3837 10.8088 10.382 10.8091 10.3801 10.8091H10.3797Z" fill="#C09300"/>
<path d="M9.8293 10.7217C10.8988 9.89895 10.807 8.69415 10.807 8.69415C10.7789 8.69972 10.752 8.70266 10.7238 8.70266C10.4994 8.70266 9.96429 8.57422 9.83945 8.41138C9.70577 8.55882 9.15891 8.70266 8.9361 8.70266C8.90792 8.70266 8.87974 8.69972 8.85287 8.69415C8.85287 8.69415 8.75982 9.89927 9.8293 10.7217Z" fill="white"/>
<path d="M9.82911 10.7456L9.81764 10.7367C8.75243 9.91724 8.83303 8.70491 8.83401 8.69278L8.83565 8.67149L8.85662 8.67575C8.88218 8.68099 8.90872 8.68361 8.93591 8.68361C9.16233 8.68361 9.69739 8.53977 9.82551 8.39855L9.84058 8.38184L9.85434 8.39986C9.97328 8.55517 10.5034 8.68394 10.7236 8.68394C10.7502 8.68394 10.7754 8.68132 10.8032 8.67575L10.8242 8.67149L10.8258 8.69278C10.8268 8.70491 10.9061 9.91757 9.84091 10.7367L9.82944 10.7456H9.82911ZM8.87038 8.71637C8.86481 8.87889 8.86842 9.95034 9.82911 10.6977C10.7898 9.95034 10.7944 8.87857 10.7892 8.71605C10.7672 8.71932 10.7459 8.72096 10.7236 8.72096C10.5074 8.72096 9.98934 8.60006 9.83829 8.43852C9.67347 8.59186 9.14234 8.72096 8.93591 8.72096C8.91363 8.72096 8.89201 8.71932 8.87038 8.71605V8.71637Z" fill="#C09300"/>
<path d="M10.7219 8.78229C10.7127 8.78295 10.7035 8.78328 10.694 8.78328C10.4905 8.78328 10.0184 8.67908 9.83654 8.52246C9.64585 8.66696 9.16583 8.78328 8.96563 8.78328C8.95612 8.78328 8.94695 8.78197 8.93778 8.78033C8.93745 8.82587 8.93974 8.87306 8.94236 8.91598C8.95285 9.07653 8.98103 9.23774 9.02395 9.39272C9.15862 9.88061 9.43418 10.2954 9.82901 10.6103C10.2245 10.2954 10.5001 9.88028 10.635 9.39174C10.678 9.23676 10.7061 9.07555 10.717 8.915C10.7196 8.87306 10.7222 8.82686 10.7219 8.78229Z" fill="white"/>
<mask id="mask1_373_1529" style="mask-type:luminance" maskUnits="userSpaceOnUse" x="8" y="8" width="3" height="3">
<path d="M10.7215 8.78205C10.7124 8.78271 10.7032 8.78303 10.6937 8.78303C10.4902 8.78303 10.0181 8.67884 9.83622 8.52222C9.64552 8.66671 9.1655 8.78303 8.96563 8.78303C8.95612 8.78303 8.94695 8.78172 8.93778 8.78008C8.93745 8.82563 8.93974 8.87281 8.94236 8.91573C8.95285 9.07629 8.98103 9.2375 9.02395 9.39248C9.15862 9.88036 9.43418 10.2952 9.82901 10.6097C10.2245 10.2948 10.5001 9.87971 10.635 9.39149C10.678 9.23651 10.7061 9.0753 10.717 8.91475C10.7196 8.87281 10.7222 8.82661 10.7219 8.78205H10.7215Z" fill="white"/>
</mask>
<g mask="url(#mask1_373_1529)">
<path d="M9.48128 8.23755H8.70898V10.9011H9.48128V8.23755Z" fill="#C09300"/>
<path d="M10.9706 8.23755H10.157V10.9011H10.9706V8.23755Z" fill="#C09300"/>
</g>
<path d="M10.0687 11.0897C10.0667 11.0897 10.0648 11.0897 10.0628 11.0891C10.0517 11.0858 10.0454 11.0743 10.0487 11.0632L10.1899 10.5756C10.1932 10.5645 10.2047 10.5586 10.2158 10.5615C10.227 10.5648 10.2332 10.5763 10.2299 10.5874L10.0887 11.075C10.0861 11.0842 10.0779 11.0901 10.0687 11.0901V11.0897Z" fill="#C09300"/>
<path d="M8.30091 12.2734C8.28354 12.2701 8.27437 12.2564 8.27863 12.24C8.28387 12.22 8.29993 12.2085 8.315 12.2141C8.3245 12.2174 8.3422 12.2354 8.3422 12.2416C8.3422 12.2488 8.33302 12.2662 8.32909 12.2662C8.32745 12.2662 8.32483 12.2678 8.32319 12.2695C8.31991 12.2734 8.30976 12.2751 8.30091 12.2734ZM10.1007 12.4019C10.0942 12.3996 10.0837 12.3848 10.084 12.3783C10.084 12.3655 10.1027 12.3448 10.1145 12.3448C10.1201 12.3448 10.1358 12.353 10.1417 12.3589C10.1525 12.3701 10.1499 12.3881 10.1368 12.3986C10.1302 12.4038 10.1106 12.4055 10.1011 12.4019H10.1007ZM10.1125 12.4831C10.0988 12.4785 10.0939 12.4717 10.0925 12.4566C10.0912 12.4405 10.0929 12.4382 10.1099 12.4291L10.122 12.4225L10.1335 12.4274C10.1492 12.4343 10.1561 12.4418 10.1568 12.4526C10.1574 12.4641 10.1489 12.4756 10.1358 12.4815C10.1243 12.4867 10.1237 12.4867 10.1129 12.4831H10.1125ZM8.33466 12.3829C8.34318 12.3756 8.34318 12.3681 8.33499 12.3648C8.32974 12.3625 8.3268 12.3632 8.31664 12.3681C8.30648 12.373 8.30452 12.375 8.30517 12.3799C8.30583 12.3855 8.31009 12.3874 8.32548 12.3888C8.3268 12.3888 8.33106 12.3865 8.33466 12.3832V12.3829ZM8.61088 12.527C8.60334 12.5244 8.58499 12.5201 8.57025 12.5172C8.53584 12.5106 8.48243 12.4985 8.46802 12.4943C8.46179 12.4923 8.45098 12.4897 8.44344 12.4877C8.42968 12.4848 8.4228 12.4825 8.40019 12.4749C8.39331 12.4726 8.37693 12.468 8.36317 12.4648C8.34973 12.4615 8.33368 12.4569 8.32811 12.4543C8.32221 12.452 8.31533 12.45 8.31271 12.45C8.31009 12.45 8.30419 12.4481 8.29993 12.4458C8.29534 12.4435 8.28453 12.4409 8.27601 12.4399C8.25799 12.4382 8.24423 12.4317 8.23669 12.4212C8.23014 12.4123 8.23014 12.4051 8.23603 12.393C8.23866 12.3878 8.24062 12.3815 8.24062 12.3793C8.24062 12.377 8.24291 12.3734 8.24554 12.3711C8.24816 12.3688 8.25045 12.3658 8.25045 12.3648C8.25045 12.3622 8.26192 12.3455 8.26847 12.3386C8.27732 12.3294 8.29567 12.3206 8.30615 12.3206C8.31238 12.3206 8.31762 12.319 8.32024 12.3163C8.32319 12.3134 8.32974 12.3118 8.34154 12.3108L8.35858 12.3095L8.36513 12.2977C8.36874 12.2911 8.37201 12.2826 8.37201 12.2787C8.37201 12.2747 8.37365 12.2685 8.37594 12.2646C8.37791 12.2606 8.38119 12.2511 8.38283 12.2433C8.38971 12.2138 8.39462 12.1974 8.39757 12.1945C8.40183 12.1902 8.4015 12.1886 8.39397 12.1794C8.39003 12.1745 8.38545 12.1712 8.38184 12.1715C8.37365 12.1715 8.36022 12.1764 8.35596 12.181C8.34744 12.1899 8.3363 12.1958 8.32778 12.1958C8.31598 12.1958 8.30124 12.1876 8.29534 12.1777C8.29108 12.1702 8.29108 12.1695 8.296 12.1594C8.29927 12.1525 8.30353 12.1479 8.30812 12.1463C8.31828 12.1424 8.34416 12.1443 8.35039 12.1496C8.35465 12.1532 8.35792 12.1535 8.37136 12.1522C8.3802 12.1512 8.38807 12.1496 8.38872 12.1486C8.38938 12.1476 8.39495 12.146 8.40085 12.145C8.40674 12.144 8.41231 12.1417 8.41297 12.1401C8.41363 12.1381 8.41821 12.1361 8.4228 12.1351C8.42739 12.1342 8.43263 12.1319 8.43427 12.1302C8.43591 12.1283 8.44017 12.127 8.4441 12.127C8.44934 12.127 8.45196 12.1286 8.45524 12.1345C8.45884 12.141 8.45917 12.144 8.45655 12.1574C8.45491 12.1659 8.45163 12.1768 8.44901 12.1817C8.44639 12.1866 8.44443 12.1945 8.44475 12.1997C8.44475 12.2056 8.44311 12.2108 8.44017 12.2144C8.43754 12.2174 8.43525 12.2223 8.43525 12.2253C8.43525 12.2282 8.43361 12.2321 8.43165 12.2344C8.42968 12.2364 8.42673 12.2449 8.42542 12.2531C8.42411 12.2613 8.42149 12.2701 8.41985 12.2728C8.41821 12.2754 8.41625 12.2826 8.41526 12.2885C8.41461 12.2944 8.41231 12.3009 8.41035 12.3023C8.40838 12.3039 8.40674 12.3085 8.40674 12.3127C8.40674 12.3167 8.40478 12.3242 8.40248 12.3288C8.40019 12.3334 8.39724 12.3432 8.39659 12.3501C8.3956 12.357 8.39364 12.3648 8.392 12.3675C8.39036 12.3701 8.38807 12.3776 8.38708 12.3838C8.3861 12.3904 8.38381 12.3983 8.38184 12.4012C8.37857 12.4061 8.37889 12.4074 8.38315 12.4133C8.39036 12.4228 8.41166 12.4297 8.43361 12.4297C8.45065 12.4297 8.45131 12.4294 8.45753 12.4218C8.46114 12.4173 8.46441 12.4094 8.46539 12.4028C8.46638 12.3966 8.46867 12.3888 8.47031 12.3851C8.47228 12.3815 8.47359 12.3727 8.47359 12.3652C8.47359 12.3527 8.47293 12.3514 8.46474 12.3448C8.45655 12.3386 8.45622 12.3376 8.45884 12.3317C8.46146 12.3258 8.4726 12.3206 8.48342 12.3206C8.48571 12.3206 8.48997 12.3186 8.49325 12.316C8.49652 12.3137 8.50144 12.3108 8.50439 12.3098C8.50734 12.3088 8.51389 12.3042 8.51913 12.3C8.52994 12.2905 8.5365 12.2901 8.54207 12.2993C8.54534 12.3049 8.54534 12.3068 8.54207 12.317C8.53977 12.3232 8.53814 12.3331 8.53814 12.3389C8.53814 12.3448 8.53683 12.3511 8.53486 12.353C8.53289 12.355 8.53027 12.3616 8.52896 12.3675C8.52765 12.3734 8.52503 12.3822 8.52274 12.3874C8.52077 12.3927 8.51913 12.4012 8.51913 12.4064C8.51913 12.4117 8.51684 12.4202 8.51422 12.4255C8.50734 12.4389 8.50799 12.4471 8.51684 12.451C8.5188 12.452 8.52339 12.4543 8.52667 12.4559C8.52994 12.4579 8.53715 12.4592 8.54272 12.4592C8.54829 12.4592 8.55747 12.4612 8.56304 12.4638C8.56894 12.4664 8.58073 12.469 8.58925 12.4697C8.60432 12.471 8.60498 12.471 8.61186 12.4635C8.61612 12.4589 8.62005 12.4507 8.62169 12.4425C8.62333 12.4353 8.62529 12.4268 8.62595 12.4238C8.62824 12.415 8.62431 12.4028 8.61677 12.396C8.60334 12.3835 8.60891 12.3668 8.6266 12.3665C8.63414 12.3665 8.65511 12.358 8.66035 12.353C8.6751 12.3389 8.68427 12.3353 8.69345 12.3399C8.70065 12.3435 8.70295 12.3534 8.69836 12.3612C8.69639 12.3645 8.69345 12.3737 8.69181 12.3812C8.68984 12.3891 8.68624 12.4028 8.68362 12.412C8.68099 12.4212 8.67706 12.4372 8.6751 12.4474C8.67313 12.4576 8.6692 12.4723 8.66691 12.4802C8.66428 12.488 8.66232 12.4962 8.66232 12.4985C8.66232 12.5011 8.66002 12.5083 8.65708 12.5149C8.64888 12.5339 8.63676 12.5375 8.61088 12.529V12.527ZM8.2937 12.5283C8.27732 12.5129 8.27994 12.5018 8.30419 12.4841C8.31434 12.4766 8.32057 12.4772 8.33237 12.488C8.35039 12.5044 8.35137 12.5149 8.33532 12.529C8.32745 12.5359 8.32385 12.5375 8.31467 12.5375C8.30517 12.5375 8.30222 12.5365 8.2937 12.5283ZM8.39364 12.5585C8.37758 12.5545 8.36874 12.5385 8.37332 12.5228C8.37758 12.5087 8.37988 12.507 8.40085 12.507C8.42411 12.507 8.4287 12.5106 8.42903 12.5313C8.42903 12.5428 8.42837 12.5457 8.42247 12.5509C8.41559 12.5572 8.40249 12.5608 8.39364 12.5585ZM11.3134 12.5611C11.3059 12.5549 11.3046 12.5523 11.3042 12.5444C11.3042 12.531 11.3118 12.5211 11.3288 12.5136C11.3511 12.5034 11.3603 12.5047 11.3688 12.5198C11.3799 12.5395 11.3796 12.5477 11.3662 12.5608C11.3586 12.568 11.3573 12.5686 11.3403 12.5686C11.3236 12.5686 11.3216 12.5683 11.3134 12.5614V12.5611ZM8.52634 12.5988C8.51454 12.5955 8.50832 12.5867 8.50799 12.5722C8.50799 12.5614 8.50865 12.5595 8.51618 12.5536C8.5211 12.5496 8.52896 12.5464 8.53519 12.5454C8.54403 12.5441 8.54698 12.545 8.55419 12.55C8.57221 12.5627 8.57614 12.5752 8.56566 12.5873C8.55452 12.6004 8.54403 12.6034 8.52634 12.5985V12.5988ZM9.24457 12.6309L9.23539 12.623L9.2367 12.6034C9.23736 12.5926 9.23965 12.5795 9.24162 12.5742C9.24358 12.569 9.24522 12.5572 9.24522 12.5477C9.24522 12.5382 9.24653 12.526 9.2485 12.5205C9.25047 12.5149 9.25341 12.4943 9.25538 12.4743C9.25735 12.4543 9.25997 12.4356 9.26128 12.4323C9.26259 12.4291 9.26357 12.4202 9.26357 12.413C9.26357 12.4058 9.26554 12.3927 9.26783 12.3842C9.27078 12.3743 9.27209 12.3606 9.27209 12.3465C9.27209 12.3344 9.27307 12.3206 9.27438 12.316C9.27569 12.3114 9.27701 12.3052 9.27668 12.3023C9.27668 12.2964 9.2852 12.2829 9.2888 12.2829C9.29011 12.2829 9.29503 12.2885 9.29994 12.2954C9.30486 12.3023 9.31469 12.3134 9.32189 12.3199C9.35335 12.3491 9.35204 12.3465 9.34188 12.356C9.33828 12.3596 9.33402 12.3625 9.33271 12.3625C9.3314 12.3625 9.32714 12.3655 9.32353 12.3694C9.31796 12.375 9.31698 12.3783 9.31698 12.3891C9.31698 12.3963 9.31534 12.4061 9.31338 12.4114C9.3101 12.4199 9.30649 12.4517 9.30518 12.4857C9.30518 12.4929 9.30355 12.5002 9.30256 12.5021C9.30125 12.5041 9.29994 12.5211 9.29929 12.5401C9.29863 12.5591 9.29732 12.5762 9.29601 12.5778C9.2947 12.5798 9.29372 12.5857 9.29372 12.5906C9.29339 12.6099 9.28913 12.6273 9.28323 12.6332C9.27864 12.6378 9.27504 12.6391 9.26587 12.6391C9.25604 12.6391 9.25276 12.6381 9.24489 12.6312L9.24457 12.6309ZM10.1964 12.6093L10.2092 12.6053L10.2082 12.5932L10.2072 12.5811L10.1971 12.5804C10.1886 12.5798 10.1859 12.5808 10.1804 12.5863C10.1709 12.5962 10.1699 12.6034 10.1771 12.6086C10.1804 12.6109 10.183 12.6129 10.1833 12.6129C10.1833 12.6129 10.1892 12.6112 10.1964 12.6093ZM10.1217 12.6601C10.1165 12.6528 10.1165 12.6512 10.1188 12.6384C10.1201 12.6306 10.1214 12.6175 10.1217 12.6089C10.1217 12.6004 10.1233 12.5912 10.125 12.5883C10.1266 12.5853 10.1279 12.5795 10.1276 12.5752C10.1276 12.569 10.1296 12.565 10.1371 12.5578C10.1424 12.5526 10.1469 12.5473 10.1469 12.546C10.1469 12.5431 10.1659 12.528 10.1702 12.528C10.1718 12.528 10.1751 12.5257 10.1774 12.5231C10.1797 12.5205 10.1846 12.5182 10.1886 12.5182C10.1922 12.5182 10.1981 12.5156 10.2017 12.5126C10.2079 12.5074 10.2082 12.5061 10.2079 12.4867C10.2079 12.4743 10.2062 12.4618 10.2036 12.4553C10.2013 12.4494 10.2 12.4422 10.2003 12.4392C10.2003 12.4363 10.2 12.4228 10.1987 12.4094C10.1967 12.3874 10.1958 12.3838 10.1902 12.3783C10.1866 12.3747 10.1823 12.3717 10.1807 12.372C10.1777 12.372 10.1659 12.3586 10.1676 12.357C10.1846 12.3389 10.2148 12.3104 10.218 12.3095C10.2249 12.3072 10.2354 12.3121 10.238 12.3183C10.2393 12.3216 10.2413 12.3357 10.242 12.3494C10.2429 12.3635 10.2449 12.3812 10.2462 12.3891C10.2475 12.3969 10.2502 12.4212 10.2515 12.4431C10.2531 12.4651 10.2554 12.4871 10.2567 12.4913C10.258 12.4959 10.26 12.5159 10.261 12.5362C10.2619 12.5562 10.2639 12.5768 10.2656 12.5817C10.2701 12.5991 10.2901 12.6093 10.3042 12.6017C10.3065 12.6004 10.317 12.5981 10.3275 12.5965C10.3521 12.5926 10.3524 12.5919 10.3501 12.5568C10.3484 12.5326 10.3478 12.5293 10.3419 12.5221C10.3383 12.5179 10.3327 12.5136 10.3291 12.5126C10.3222 12.511 10.3183 12.5054 10.318 12.4975C10.318 12.492 10.3308 12.4795 10.3386 12.4769C10.3412 12.4759 10.3488 12.4713 10.355 12.4661C10.3688 12.4546 10.3779 12.454 10.3868 12.4631C10.3924 12.469 10.393 12.4723 10.3946 12.5038C10.396 12.5283 10.3979 12.5398 10.4005 12.545C10.4035 12.5503 10.4045 12.5585 10.4048 12.5758C10.4048 12.5922 10.4064 12.6024 10.4091 12.6086C10.4127 12.6165 10.4127 12.6181 10.4094 12.625C10.4074 12.6293 10.4051 12.6348 10.4045 12.6378C10.4025 12.6443 10.3989 12.6456 10.3763 12.646C10.3661 12.646 10.3534 12.6476 10.3481 12.6492C10.3429 12.6509 10.3285 12.6522 10.3163 12.6525C10.2646 12.6538 10.1935 12.6597 10.1895 12.6633C10.1866 12.666 10.1784 12.6669 10.1564 12.6669H10.1273L10.1217 12.6594V12.6601ZM9.01521 12.4654C9.02176 12.4608 9.02209 12.4549 9.01619 12.4533C9.00865 12.4513 9.00243 12.4409 9.0021 12.4291C9.00112 12.4078 8.99129 12.4064 8.97228 12.4255C8.96704 12.431 8.95885 12.4382 8.95393 12.4418L8.94542 12.4484L8.95164 12.4546C8.9618 12.4651 8.97327 12.469 8.99227 12.469C9.00439 12.469 9.01127 12.468 9.01488 12.4654H9.01521ZM9.09122 12.699C9.08762 12.6977 9.08434 12.6961 9.08434 12.6951C9.08434 12.6928 9.06108 12.6787 9.05747 12.6787C9.05616 12.6787 9.0542 12.6758 9.05321 12.6722C9.05256 12.6686 9.04961 12.6587 9.04666 12.6502C9.04175 12.6352 9.04175 12.624 9.04666 12.6207C9.05027 12.6184 9.04895 12.6112 9.04404 12.607C9.04109 12.6044 9.03323 12.6027 9.02241 12.6021C8.99948 12.6004 8.99653 12.5998 8.98867 12.5932C8.98277 12.5883 8.98113 12.5847 8.97949 12.5719C8.97818 12.5627 8.97556 12.5545 8.97294 12.5519C8.96835 12.5473 8.96082 12.546 8.95852 12.5496C8.95787 12.5509 8.95393 12.5523 8.94968 12.5532C8.94476 12.5542 8.94148 12.5568 8.93984 12.5608C8.93853 12.5641 8.9346 12.5706 8.93133 12.5752C8.9251 12.5831 8.92444 12.5834 8.90937 12.5834C8.90085 12.5834 8.89004 12.5821 8.88545 12.5804C8.87595 12.5765 8.86514 12.5749 8.83827 12.5732C8.79993 12.5706 8.78224 12.5732 8.77929 12.5827C8.77536 12.5955 8.74423 12.622 8.7308 12.6243C8.72556 12.6253 8.71605 12.6276 8.71048 12.6296C8.70459 12.6315 8.69869 12.6325 8.69738 12.6315C8.69607 12.6309 8.68329 12.6286 8.66854 12.627C8.64102 12.6237 8.63119 12.6191 8.63086 12.6099C8.63086 12.6044 8.64757 12.5958 8.65413 12.5981C8.66101 12.6007 8.67248 12.6004 8.67248 12.5981C8.67248 12.5968 8.67837 12.5945 8.68591 12.5932C8.69312 12.5916 8.70065 12.589 8.70196 12.587C8.7036 12.585 8.70819 12.5834 8.71212 12.5834C8.71802 12.5834 8.72064 12.5811 8.72654 12.5722C8.73047 12.566 8.73375 12.5595 8.73375 12.5578C8.73375 12.5559 8.73604 12.5519 8.73866 12.5483C8.74161 12.5447 8.74358 12.5388 8.74325 12.5336C8.74325 12.5287 8.74489 12.5201 8.74685 12.5146C8.75046 12.5047 8.75013 12.5031 8.74489 12.4877C8.74194 12.4785 8.73801 12.4703 8.73604 12.4694C8.7344 12.4684 8.73178 12.4638 8.73014 12.4592C8.72588 12.4471 8.73014 12.4363 8.74784 12.4179C8.7498 12.4159 8.75177 12.411 8.75275 12.4068C8.75439 12.3989 8.75996 12.3943 8.76815 12.3943C8.77438 12.3943 8.78585 12.4071 8.78585 12.414C8.78585 12.4169 8.78781 12.4215 8.78978 12.4245C8.79207 12.4277 8.79469 12.4382 8.796 12.4513C8.7983 12.4736 8.80223 12.4969 8.80518 12.5057C8.8078 12.5133 8.82123 12.5237 8.82844 12.5237C8.83205 12.5237 8.84155 12.5251 8.84941 12.527C8.8576 12.5287 8.87071 12.5303 8.87824 12.5303C8.89233 12.5303 8.89233 12.5303 8.90708 12.5156C8.91494 12.5077 8.9215 12.4998 8.9215 12.4982C8.92117 12.4887 8.88939 12.4717 8.86416 12.4674C8.85531 12.4658 8.84908 12.4549 8.85105 12.4445C8.85269 12.4356 8.86448 12.4199 8.87628 12.4117C8.88054 12.4084 8.89528 12.4028 8.90904 12.3989L8.93362 12.392L8.9405 12.3789C8.95361 12.3537 8.9808 12.3337 9.00243 12.3334C9.01324 12.3334 9.01553 12.3347 9.02438 12.3455C9.02667 12.3485 9.03126 12.354 9.03454 12.358C9.04404 12.3697 9.04961 12.3838 9.0483 12.3933C9.04699 12.4019 9.05059 12.4156 9.0542 12.4156C9.05747 12.4156 9.09352 12.4504 9.09515 12.4553C9.09614 12.4579 9.09778 12.4599 9.09876 12.4599C9.10171 12.4599 9.1063 12.4756 9.1063 12.4871C9.1063 12.5038 9.10269 12.5064 9.07648 12.507C9.06403 12.507 9.04863 12.509 9.04273 12.5106L9.03159 12.5139L9.03093 12.527C9.03028 12.5447 9.03454 12.5496 9.05387 12.5526C9.06173 12.5539 9.0696 12.5559 9.07091 12.5572C9.07222 12.5585 9.07648 12.5595 9.07975 12.5595C9.08336 12.5595 9.08827 12.5608 9.0909 12.5627C9.09516 12.5657 9.09581 12.569 9.09614 12.5962V12.6263L9.10433 12.6286C9.10859 12.6299 9.11383 12.6322 9.11514 12.6338C9.12104 12.6394 9.12858 12.6371 9.13185 12.6289C9.13349 12.6247 9.13578 12.6191 9.13677 12.6165C9.13775 12.6139 9.13972 12.5978 9.14103 12.5811C9.14234 12.5641 9.14463 12.546 9.1466 12.5408C9.14856 12.5355 9.15118 12.5185 9.15249 12.5031C9.15381 12.4877 9.1561 12.4733 9.15774 12.4717C9.15938 12.4697 9.16101 12.4549 9.16167 12.4382C9.16265 12.414 9.16364 12.4071 9.16691 12.4032C9.17052 12.3992 9.17117 12.394 9.17084 12.3691V12.3399L9.16069 12.3317C9.15413 12.3262 9.15086 12.3216 9.15086 12.3177C9.15086 12.3091 9.15315 12.3068 9.16527 12.3023C9.17117 12.3 9.18067 12.2967 9.18592 12.2947C9.19116 12.2927 9.19673 12.2898 9.19804 12.2882C9.2023 12.2832 9.21606 12.2744 9.21967 12.2744C9.22163 12.2744 9.22491 12.2764 9.2272 12.2787C9.23244 12.2842 9.2331 12.3065 9.22786 12.316C9.22556 12.3199 9.22425 12.3291 9.22425 12.3383C9.22425 12.3468 9.22261 12.3586 9.22065 12.3642C9.21835 12.3701 9.21573 12.3917 9.21442 12.4146C9.21311 12.4366 9.21049 12.4572 9.20885 12.4599C9.20721 12.4628 9.2059 12.4723 9.20623 12.4812C9.20623 12.49 9.20459 12.5064 9.20263 12.5172C9.20066 12.5283 9.19804 12.5467 9.19673 12.5585C9.19542 12.5699 9.1928 12.5834 9.19116 12.5876C9.18919 12.5922 9.18723 12.6034 9.18624 12.6125C9.18559 12.6217 9.18297 12.6332 9.18035 12.6374C9.17805 12.642 9.17609 12.6476 9.17609 12.6499C9.17609 12.6558 9.16331 12.6777 9.1597 12.6777C9.15806 12.6777 9.15577 12.6797 9.15446 12.6823C9.15315 12.6846 9.14856 12.6876 9.14463 12.6882C9.1407 12.6892 9.13415 12.6918 9.13054 12.6945C9.12268 12.7 9.09974 12.7026 9.08991 12.6994L9.09122 12.699ZM11.1587 12.5133C11.1738 12.5067 11.1784 12.4985 11.1722 12.488C11.1669 12.4789 11.1597 12.4749 11.1473 12.4759C11.1332 12.4769 11.1214 12.4861 11.1217 12.4966C11.1217 12.5034 11.1234 12.5057 11.1322 12.5116C11.1381 12.5156 11.1437 12.5185 11.1447 12.5188C11.1456 12.5188 11.1519 12.5165 11.1587 12.5139V12.5133ZM10.9628 12.5149C10.9733 12.51 10.9746 12.5087 10.9746 12.5018C10.9746 12.491 10.9648 12.4785 10.9507 12.4707C10.9356 12.4621 10.93 12.4625 10.9232 12.4713C10.9179 12.4782 10.9179 12.4789 10.9215 12.4893C10.9238 12.4952 10.9255 12.5018 10.9255 12.5038C10.9255 12.5083 10.9402 12.5201 10.9464 12.5201C10.949 12.5201 10.9563 12.5179 10.9628 12.5149ZM10.8753 12.5234C10.8763 12.5195 10.876 12.5103 10.8753 12.5031C10.874 12.4926 10.872 12.4887 10.8661 12.4838C10.8573 12.4762 10.8527 12.4769 10.8422 12.4874C10.8353 12.4943 10.8344 12.4969 10.834 12.5093C10.8337 12.5287 10.8363 12.5313 10.8573 12.531C10.8684 12.531 10.8746 12.5284 10.8757 12.5234H10.8753ZM10.68 12.5598C10.6886 12.5555 10.6905 12.5506 10.6882 12.5405C10.685 12.5247 10.6653 12.5201 10.6558 12.5329C10.6528 12.5369 10.6505 12.5408 10.6505 12.5421C10.6505 12.5434 10.6489 12.5457 10.6469 12.5473C10.644 12.5496 10.644 12.5513 10.6463 12.5552C10.6479 12.5578 10.6502 12.5611 10.6519 12.5618C10.6564 12.5647 10.6728 12.5634 10.68 12.5598ZM10.9907 12.588C10.9975 12.5827 10.9982 12.5752 10.992 12.5699C10.9848 12.5637 10.9717 12.5637 10.9585 12.5699C10.9507 12.5739 10.9484 12.5762 10.9484 12.5808C10.9484 12.5847 10.9504 12.5873 10.954 12.5886C10.9622 12.5916 10.9864 12.5912 10.9907 12.5876V12.588ZM10.6099 12.7017C10.607 12.699 10.608 12.6876 10.6112 12.685C10.6129 12.6836 10.6171 12.6817 10.6204 12.6807C10.6237 12.6797 10.6283 12.6774 10.6302 12.6758C10.6322 12.6741 10.6394 12.6718 10.6463 12.6709C10.6705 12.6673 10.6918 12.6479 10.6918 12.6296C10.6918 12.6243 10.6912 12.6191 10.6902 12.6178C10.6876 12.6135 10.645 12.6161 10.622 12.622C10.6165 12.6234 10.6139 12.622 10.6073 12.6161L10.5991 12.6086L10.5978 12.5739L10.5965 12.5391L10.607 12.5274C10.6129 12.5208 10.6201 12.5113 10.6234 12.5064C10.6266 12.5011 10.6299 12.4969 10.6309 12.4962C10.6319 12.4959 10.6368 12.4916 10.642 12.4871C10.6522 12.4779 10.6692 12.4687 10.6807 12.4658C10.6846 12.4648 10.6889 12.4625 10.6905 12.4605C10.6918 12.4585 10.6964 12.4569 10.7004 12.4566C10.7063 12.4563 10.7085 12.4576 10.7144 12.4664C10.7184 12.4723 10.7217 12.4802 10.7217 12.4841C10.7217 12.488 10.7236 12.4952 10.7256 12.5005C10.7275 12.5057 10.7302 12.5159 10.7308 12.5234C10.7318 12.531 10.7338 12.5385 10.7354 12.5401C10.739 12.5444 10.7688 12.5467 10.7741 12.5428C10.777 12.5408 10.7783 12.5342 10.779 12.5185C10.7796 12.5061 10.7816 12.4939 10.7839 12.4897C10.7859 12.4857 10.7885 12.4789 10.7891 12.4746C10.7914 12.4631 10.8108 12.4363 10.8226 12.4284C10.8281 12.4248 10.834 12.4202 10.836 12.4189C10.8376 12.4173 10.8416 12.4153 10.8445 12.4143C10.8517 12.412 10.8537 12.4091 10.8534 12.3986C10.8534 12.3897 10.8458 12.3793 10.8304 12.3668C10.8265 12.3639 10.8236 12.3596 10.8236 12.3573C10.8236 12.3507 10.8308 12.338 10.8419 12.3249C10.8478 12.318 10.8524 12.3118 10.8524 12.3104C10.8524 12.3091 10.8563 12.3062 10.8609 12.3032C10.8675 12.299 10.8707 12.2983 10.8757 12.3C10.8822 12.3023 10.8842 12.3055 10.8901 12.3258C10.8983 12.3527 10.8999 12.3602 10.9019 12.3753C10.9028 12.3838 10.9045 12.392 10.9055 12.3933C10.9065 12.3947 10.9173 12.3979 10.9297 12.4005C10.9422 12.4032 10.9546 12.4068 10.9576 12.4084C10.9605 12.4101 10.9654 12.4123 10.969 12.4133C10.9776 12.4156 10.9887 12.4238 10.989 12.4277C10.989 12.4294 10.99 12.4307 10.991 12.4307C10.9936 12.4307 11.0061 12.4487 11.0175 12.469C11.0303 12.492 11.0297 12.4916 11.05 12.4913C11.0663 12.4913 11.0683 12.4907 11.0729 12.4848C11.0755 12.4812 11.0778 12.4756 11.0778 12.472C11.0778 12.4644 11.084 12.4559 11.0994 12.4422C11.1053 12.4369 11.1125 12.4304 11.1155 12.4277C11.125 12.4192 11.1358 12.4123 11.1401 12.412C11.1424 12.412 11.1545 12.4163 11.1669 12.4215C11.1856 12.4291 11.1912 12.4327 11.1968 12.4402C11.2089 12.4566 11.2348 12.4635 11.2479 12.4536C11.2511 12.451 11.2554 12.4487 11.2567 12.4487C11.258 12.4487 11.2593 12.4471 11.2593 12.4451C11.2593 12.4402 11.2492 12.413 11.2462 12.4094C11.2449 12.4078 11.2426 12.3983 11.2413 12.3881C11.24 12.3779 11.2364 12.3652 11.2338 12.3593C11.2305 12.3521 11.2282 12.3412 11.2272 12.3265C11.2262 12.3144 11.2236 12.2964 11.2207 12.2865C11.2181 12.277 11.2158 12.2662 11.2158 12.2623C11.2158 12.2449 11.2007 12.222 11.1856 12.2157C11.1823 12.2144 11.1768 12.2118 11.1732 12.2099C11.1643 12.2049 11.1525 12.2056 11.1473 12.2115C11.145 12.2141 11.1404 12.2164 11.1378 12.2164C11.1325 12.2164 11.1168 12.2292 11.1168 12.2331C11.1168 12.2344 11.1132 12.2354 11.1086 12.2354C11.1021 12.2354 11.0991 12.2338 11.0926 12.2256C11.0883 12.2203 11.0844 12.2148 11.0844 12.2135C11.0844 12.2121 11.0798 12.2072 11.0745 12.2026C11.0663 12.1961 11.0647 12.1928 11.0647 12.1859C11.0647 12.1791 11.0657 12.1768 11.0706 12.1748C11.0739 12.1732 11.0768 12.1709 11.0768 12.1699C11.0768 12.1686 11.0808 12.1669 11.086 12.1659C11.0909 12.165 11.104 12.162 11.1148 12.1594C11.142 12.1525 11.1909 12.1519 11.2027 12.1587C11.2069 12.1614 11.2135 12.164 11.2171 12.1646C11.2253 12.1663 11.2466 12.1859 11.2508 12.1958C11.2528 12.1997 11.2551 12.204 11.2564 12.2046C11.2577 12.2053 11.2593 12.2105 11.2603 12.2161C11.2613 12.2216 11.2636 12.2292 11.2656 12.2331C11.2682 12.239 11.2721 12.2633 11.2757 12.3003C11.2764 12.3068 11.2813 12.3298 11.2852 12.3439C11.2865 12.3491 11.2895 12.3612 11.2914 12.3707C11.2934 12.3802 11.2967 12.3897 11.299 12.392C11.301 12.3943 11.3029 12.3979 11.3029 12.4002C11.3029 12.4094 11.3285 12.4248 11.3432 12.4248C11.356 12.4248 11.3753 12.4159 11.3875 12.4048C11.3943 12.3986 11.4025 12.3927 11.4058 12.3917C11.4124 12.3901 11.4232 12.395 11.4271 12.4019C11.4317 12.4101 11.4396 12.4169 11.4497 12.4228C11.4608 12.4291 11.4648 12.4372 11.4605 12.4448C11.4592 12.4474 11.4559 12.4494 11.4536 12.4497C11.4513 12.4497 11.4435 12.4523 11.4363 12.4556C11.4291 12.4589 11.4212 12.4615 11.4186 12.4618C11.416 12.4618 11.4022 12.4658 11.3875 12.4703C11.373 12.4749 11.3472 12.4818 11.3304 12.4851C11.3006 12.4913 11.2606 12.5025 11.2557 12.5057C11.2544 12.5067 11.2489 12.5083 11.2436 12.5093C11.2269 12.5123 11.2256 12.5133 11.224 12.5218C11.222 12.5323 11.1994 12.5559 11.183 12.5647C11.1715 12.5709 11.1692 12.5713 11.1404 12.5713C11.1237 12.5713 11.108 12.5706 11.1057 12.5699C11.1034 12.5693 11.1004 12.5654 11.0994 12.5618C11.0985 12.5578 11.0945 12.5526 11.0903 12.55C11.0824 12.5447 11.0736 12.5447 11.0536 12.5506L11.0447 12.5532L11.0434 12.5765C11.0428 12.5893 11.0405 12.6024 11.0385 12.6053C11.0369 12.6083 11.0342 12.6132 11.0329 12.6158C11.0316 12.6184 11.0251 12.6253 11.0182 12.6312C11.0113 12.6371 11.0011 12.646 10.9959 12.6509C10.9848 12.661 10.9753 12.6627 10.9687 12.6551C10.9664 12.6525 10.9615 12.6506 10.9572 12.6506C10.949 12.6506 10.93 12.6427 10.9179 12.6345C10.9107 12.6293 10.895 12.604 10.895 12.5971C10.895 12.5958 10.8927 12.5926 10.8901 12.5899C10.8861 12.5863 10.8819 12.5853 10.8698 12.5857C10.8612 12.5857 10.8494 12.587 10.8432 12.5883C10.8373 12.5896 10.8222 12.5919 10.8104 12.5932C10.7983 12.5945 10.7852 12.5971 10.7806 12.5991C10.7764 12.6007 10.7682 12.603 10.7623 12.604C10.7472 12.6066 10.7426 12.6122 10.7426 12.6276C10.7426 12.6358 10.7416 12.6414 10.7393 12.643C10.7374 12.6447 10.7351 12.6489 10.7344 12.6525C10.7325 12.662 10.7121 12.6817 10.6981 12.6879C10.6912 12.6909 10.6817 12.6954 10.6768 12.6981C10.6692 12.702 10.6627 12.703 10.6397 12.703C10.6243 12.703 10.6109 12.7026 10.6102 12.7017H10.6099ZM10.4146 12.7226L10.4091 12.7187L10.414 12.7118C10.4166 12.7082 10.4232 12.7036 10.4281 12.702C10.4451 12.6964 10.4566 12.6895 10.4707 12.6761C10.4785 12.6689 10.4848 12.661 10.4848 12.6587C10.4848 12.6564 10.4877 12.6512 10.4913 12.6469C10.4979 12.6394 10.4979 12.6381 10.4975 12.6142C10.4972 12.5899 10.4959 12.5847 10.4867 12.5706C10.4825 12.5637 10.4677 12.5532 10.4526 12.546C10.4428 12.5411 10.4392 12.5313 10.4445 12.5231C10.4467 12.5195 10.4533 12.5067 10.4595 12.4943C10.4658 12.4818 10.472 12.469 10.4736 12.4658C10.4782 12.4569 10.489 12.4563 10.4966 12.4648C10.5034 12.4726 10.5149 12.4926 10.5149 12.4972C10.5149 12.4988 10.5172 12.5025 10.5198 12.5047C10.5254 12.5097 10.5375 12.5306 10.5375 12.5352C10.5375 12.5372 10.5405 12.5434 10.5441 12.549C10.5483 12.5562 10.5506 12.5627 10.5509 12.5706C10.5509 12.5768 10.5529 12.5857 10.5549 12.5906C10.5608 12.6047 10.5588 12.6519 10.5519 12.665C10.549 12.6705 10.5457 12.6751 10.5447 12.6751C10.5437 12.6751 10.5398 12.6794 10.5355 12.685C10.528 12.6951 10.5018 12.7135 10.4949 12.7135C10.4926 12.7135 10.4893 12.7158 10.4874 12.7187C10.4841 12.7236 10.4818 12.7243 10.452 12.7253C10.4258 12.7262 10.4196 12.7256 10.4146 12.7226ZM10.1905 12.7374C10.1827 12.7292 10.181 12.7256 10.1807 12.7177C10.1807 12.7095 10.182 12.7063 10.1899 12.6984C10.2043 12.684 10.2112 12.6836 10.2361 12.6961C10.2597 12.7082 10.2678 12.7092 10.2698 12.7007C10.2718 12.6925 10.2855 12.685 10.2983 12.685C10.3065 12.685 10.3111 12.6866 10.3176 12.6915C10.3258 12.6981 10.3262 12.699 10.3265 12.7138C10.3265 12.7289 10.3265 12.7295 10.317 12.738C10.3078 12.7459 10.3065 12.7466 10.295 12.7452C10.2806 12.7439 10.2721 12.7374 10.2698 12.7259C10.2682 12.7177 10.2652 12.7158 10.2629 12.7213C10.2623 12.723 10.2587 12.7253 10.2551 12.7262C10.2485 12.7279 10.237 12.7351 10.2292 12.7426C10.2262 12.7456 10.221 12.7469 10.2121 12.7469C10.2003 12.7469 10.199 12.7462 10.1899 12.7371L10.1905 12.7374ZM9.98377 12.6099C9.98934 12.608 9.99032 12.6063 9.98933 12.6024C9.98835 12.5998 9.98671 12.5926 9.98508 12.5863C9.98278 12.5768 9.98147 12.5752 9.97623 12.5752C9.97066 12.5752 9.96017 12.5811 9.95067 12.5896C9.94608 12.5939 9.94314 12.604 9.94576 12.6073C9.95133 12.6148 9.96771 12.6158 9.98409 12.6099H9.98377ZM9.79405 12.681C9.79962 12.6768 9.79962 12.6758 9.79929 12.6325V12.5883L9.79241 12.5824C9.78619 12.5768 9.78389 12.5765 9.73868 12.5749C9.71279 12.5739 9.68723 12.5716 9.68199 12.5699C9.67511 12.568 9.66889 12.5677 9.66004 12.5693C9.65185 12.5706 9.64235 12.5706 9.63252 12.5693C9.59582 12.5634 9.57124 12.568 9.5624 12.5824C9.55814 12.5893 9.55814 12.5899 9.5624 12.5962C9.56469 12.5998 9.56928 12.6034 9.57288 12.604C9.57616 12.6047 9.58435 12.6066 9.59058 12.6086C9.59746 12.6106 9.61253 12.6119 9.62858 12.6119C9.64333 12.6119 9.6679 12.6125 9.68363 12.6135C9.69903 12.6145 9.72066 12.6155 9.7318 12.6158C9.74589 12.6161 9.75342 12.6175 9.75866 12.6207L9.76554 12.625L9.76423 12.6479C9.76292 12.6699 9.76292 12.6709 9.76849 12.6758C9.77505 12.6814 9.78291 12.6859 9.78651 12.6856C9.78782 12.6856 9.79143 12.6836 9.79471 12.6814L9.79405 12.681ZM9.77308 12.7567C9.77308 12.7567 9.76686 12.7518 9.75932 12.7485C9.7449 12.742 9.73245 12.7318 9.72491 12.7207C9.71967 12.7128 9.71345 12.6931 9.71312 12.6836C9.71312 12.6791 9.71148 12.6768 9.70755 12.6761C9.69084 12.6725 9.64824 12.6679 9.61712 12.6663C9.59746 12.6653 9.56076 12.6623 9.53553 12.6601C9.48081 12.6545 9.45984 12.6555 9.4523 12.663C9.44968 12.666 9.44608 12.6718 9.44477 12.6758C9.44346 12.68 9.43789 12.6889 9.43297 12.6958C9.42773 12.7026 9.4238 12.7092 9.4238 12.7105C9.4238 12.7118 9.42281 12.7131 9.4215 12.7131C9.42019 12.7131 9.41692 12.7151 9.41462 12.7174C9.4084 12.7233 9.39562 12.7321 9.38906 12.7348C9.38612 12.7361 9.38087 12.7387 9.37727 12.7407C9.36842 12.7456 9.30715 12.7462 9.29699 12.7413C9.29306 12.7393 9.28651 12.738 9.28225 12.738C9.27799 12.738 9.27275 12.7367 9.27013 12.7348C9.26619 12.7321 9.26587 12.7305 9.26783 12.7249C9.27078 12.7167 9.27897 12.7148 9.31075 12.7144C9.32845 12.7144 9.33369 12.7131 9.34385 12.7079C9.3563 12.7013 9.37727 12.6859 9.37891 12.6823C9.37923 12.6814 9.38186 12.6784 9.38448 12.6764C9.3871 12.6745 9.38972 12.6689 9.39038 12.6643C9.39103 12.6597 9.39398 12.6519 9.3966 12.6466C9.40217 12.6358 9.40152 12.6293 9.39201 12.6027C9.38251 12.5752 9.37891 12.5693 9.36809 12.5601C9.35433 12.5486 9.35466 12.5431 9.37006 12.5274C9.37694 12.5205 9.38612 12.509 9.39103 12.5021C9.39889 12.4907 9.40053 12.4893 9.40741 12.4897C9.41397 12.4903 9.41626 12.4923 9.42216 12.5031C9.43133 12.5201 9.44411 12.5493 9.44411 12.5539C9.44411 12.5559 9.44575 12.5608 9.44772 12.5647C9.44968 12.5686 9.45263 12.5758 9.45427 12.5808C9.4582 12.5926 9.46049 12.5935 9.48081 12.5955C9.50211 12.5975 9.50243 12.5971 9.5044 12.5683C9.50506 12.5575 9.50669 12.5473 9.50833 12.546C9.50964 12.5447 9.51063 12.5414 9.51063 12.5388C9.51063 12.5332 9.49818 12.4995 9.49523 12.4962C9.49097 12.4923 9.4926 12.4802 9.49883 12.4697C9.50211 12.4641 9.50571 12.4595 9.50702 12.4595C9.50833 12.4595 9.51325 12.4566 9.51849 12.4533C9.53127 12.4448 9.5506 12.4428 9.55879 12.449C9.56403 12.453 9.56502 12.4559 9.566 12.4743C9.56731 12.4929 9.56797 12.4956 9.57386 12.5005C9.57747 12.5034 9.58304 12.5057 9.58632 12.5057C9.58959 12.5057 9.59418 12.5074 9.5968 12.5097C9.6004 12.5129 9.60925 12.5136 9.64857 12.5139C9.70329 12.5142 9.73376 12.5159 9.73769 12.5182C9.73933 12.5192 9.74883 12.5198 9.75899 12.5198C9.76915 12.5198 9.7911 12.5205 9.80814 12.5215C9.83763 12.5231 9.83927 12.5234 9.84648 12.5303L9.85401 12.5372L9.85467 12.5686C9.85532 12.605 9.85729 12.6096 9.87334 12.6093C9.88711 12.6093 9.89104 12.605 9.89235 12.589C9.893 12.5814 9.89464 12.5739 9.89628 12.5726C9.89792 12.5713 9.90119 12.5663 9.90316 12.5614C9.90742 12.5516 9.92446 12.5342 9.93232 12.5319C9.93527 12.531 9.93986 12.5283 9.94248 12.526C9.9451 12.5237 9.95067 12.5211 9.9546 12.5205C9.9723 12.5172 9.99163 12.5106 9.99622 12.5064C9.99949 12.5034 10.0054 12.5018 10.0126 12.5015C10.0221 12.5011 10.025 12.5018 10.029 12.5067C10.0349 12.5133 10.0359 12.5185 10.0382 12.5509C10.0391 12.5644 10.0411 12.5781 10.0427 12.5814C10.0444 12.585 10.046 12.6014 10.047 12.6184L10.0483 12.6492L10.0408 12.6594L10.0332 12.6696L9.95362 12.6702C9.91004 12.6705 9.87039 12.6715 9.86548 12.6725C9.85631 12.6741 9.85401 12.6791 9.85434 12.6971C9.85434 12.7026 9.8527 12.7072 9.84975 12.7099C9.84713 12.7122 9.84451 12.7164 9.84385 12.7197C9.84254 12.7256 9.82616 12.738 9.81568 12.741C9.8124 12.742 9.80781 12.7443 9.80585 12.7456C9.79995 12.7502 9.7816 12.759 9.77767 12.759C9.7757 12.759 9.77406 12.758 9.77406 12.757L9.77308 12.7567Z" fill="#C09300"/>
<path d="M10.2329 8.29255C10.2548 8.29387 10.2034 8.17558 10.2034 8.17558C10.261 8.23456 10.4796 8.24865 10.4796 8.24865C10.3485 8.19065 10.2175 7.75388 10.2329 7.40591C10.247 7.05663 10.1827 6.91901 10.1313 6.86757C10.0658 6.80204 9.85507 6.74437 9.71648 6.73651C9.63816 6.73257 9.65094 6.79548 9.65094 6.79548C9.50579 6.75813 9.36064 6.74404 9.29511 6.78762C9.23351 6.82858 9.22073 7.03435 9.26562 6.9983C9.37473 6.91082 9.46975 6.99044 9.53528 7.08579C9.59295 7.16934 9.58934 7.40558 9.50579 7.6818C9.41831 7.9721 9.17944 8.26241 9.17944 8.26241C9.3092 8.26241 9.4917 8.14675 9.4917 8.14675L9.44812 8.32794C9.58541 8.26241 9.69485 8.16084 9.69485 8.16084L9.82591 8.29845C9.86949 8.24079 9.95698 8.16084 9.95698 8.16084C9.95698 8.16084 10.0661 8.2765 10.2332 8.2919L10.2329 8.29255Z" fill="white"/>
<path d="M9.41786 8.3662L9.46012 8.19024C9.39689 8.2253 9.27598 8.28395 9.17965 8.28395H9.13574L9.16392 8.24988C9.16621 8.24693 9.40114 7.95924 9.48634 7.67648C9.57284 7.39076 9.56792 7.16959 9.51878 7.09816C9.47159 7.02968 9.42244 6.99003 9.37624 6.98315C9.34381 6.97824 9.31202 6.98872 9.27926 7.01526C9.26418 7.02706 9.25141 7.02444 9.24518 7.02149C9.23044 7.01526 9.22224 6.99888 9.21962 6.97103C9.21471 6.91795 9.23207 6.80556 9.2845 6.7705C9.36346 6.71775 9.52664 6.74429 9.63214 6.76919C9.63411 6.75969 9.63837 6.74953 9.64623 6.74036C9.66163 6.72233 9.68621 6.71414 9.71865 6.71578C9.86445 6.72397 10.0784 6.78426 10.1472 6.85274C10.2042 6.90975 10.2691 7.05196 10.2547 7.40649C10.239 7.76331 10.3756 8.17943 10.489 8.22924L10.4791 8.26921C10.4611 8.2679 10.331 8.25872 10.2462 8.22432C10.2671 8.28461 10.259 8.29608 10.2547 8.3023L10.2478 8.31181L10.2324 8.31279H10.2318C10.0932 8.30001 9.99355 8.22235 9.95718 8.18959C9.93097 8.21449 9.87461 8.26921 9.84283 8.31082L9.82808 8.33048L9.69407 8.18992C9.65901 8.22039 9.5676 8.29411 9.4575 8.34686L9.41818 8.36554L9.41786 8.3662ZM9.52402 8.10243L9.4788 8.28952C9.59283 8.22727 9.67966 8.14732 9.68064 8.14634L9.69571 8.13225L9.82448 8.26724C9.87068 8.21187 9.93949 8.14896 9.94277 8.14601L9.95784 8.13225L9.97193 8.14699C9.97193 8.14699 10.0696 8.24824 10.2154 8.26921C10.2101 8.24857 10.197 8.21318 10.1842 8.18369L10.2183 8.16076C10.2495 8.19254 10.3422 8.21121 10.4133 8.22072C10.2957 8.08343 10.1987 7.71186 10.2124 7.40485C10.2272 7.0477 10.159 6.92417 10.1171 6.88223C10.0558 6.82096 9.85102 6.7646 9.7157 6.75739C9.70292 6.75674 9.68555 6.75805 9.67736 6.76722C9.66917 6.7764 9.67179 6.79147 9.67179 6.7918L9.67769 6.82358L9.64623 6.81572C9.48568 6.77443 9.3592 6.7705 9.30711 6.80523C9.2904 6.81637 9.27467 6.85045 9.26615 6.89403C9.25894 6.9304 9.25927 6.96021 9.26189 6.97561C9.30121 6.94711 9.34184 6.93564 9.38214 6.94154C9.44112 6.95006 9.49846 6.99462 9.55285 7.07391C9.61773 7.16795 9.60692 7.42025 9.52598 7.68794C9.45619 7.92025 9.29367 8.1483 9.22618 8.23743C9.34217 8.21678 9.47946 8.13061 9.48077 8.12963L9.52402 8.1021V8.10243Z" fill="#C09300"/>
<path d="M9.50736 8.16144L9.47656 8.13359C9.60828 7.98713 9.68135 7.45894 9.682 7.45337L9.72329 7.45894C9.72034 7.48122 9.6476 8.00547 9.50736 8.16144Z" fill="#C09300"/>
<path d="M9.71313 8.1716L9.67676 8.15161C9.7685 7.98319 9.79734 7.44649 9.79766 7.44092L9.83928 7.44321C9.83797 7.46549 9.80946 7.99466 9.71346 8.17127L9.71313 8.1716Z" fill="#C09300"/>
<path d="M9.93701 8.16858C9.90031 8.06504 9.89966 7.48869 9.89966 7.46411H9.94127C9.94127 7.62892 9.9475 8.07421 9.976 8.15482L9.93668 8.16858H9.93701Z" fill="#C09300"/>
<path d="M10.1867 8.18772C10.0615 8.00391 10.0313 7.5157 10.03 7.49505L10.0716 7.49243C10.0716 7.49735 10.1024 7.98982 10.2211 8.16413L10.1867 8.1874V8.18772Z" fill="#C09300"/>
<path d="M9.57026 7.19555C9.56371 7.14804 9.55224 7.11069 9.53553 7.08644C9.47 6.99142 9.37498 6.9118 9.26587 6.99896C9.26587 6.99896 9.30322 6.88329 9.38284 6.87936C9.44444 6.87543 9.58468 6.92556 9.70788 7.13624C9.70788 7.13624 9.61679 7.1156 9.59484 7.13493C9.55388 7.17098 9.57026 7.19522 9.57026 7.19522V7.19555Z" fill="#C09300"/>
<path d="M9.55325 7.20742C9.55325 7.20742 9.54506 7.19529 9.54637 7.1776C9.54014 7.1432 9.53031 7.11567 9.51819 7.09798C9.47101 7.02983 9.42186 6.99018 9.37566 6.9833C9.34322 6.97838 9.31144 6.98887 9.27867 7.01541L9.22461 7.05866L9.24591 6.9928C9.24755 6.98756 9.2885 6.86338 9.38156 6.85879C9.44709 6.85551 9.59683 6.90597 9.7256 7.12616L9.74985 7.16744L9.70299 7.15696C9.66203 7.14778 9.61714 7.14516 9.60797 7.15106C9.59552 7.16187 9.59028 7.17072 9.58831 7.17695C9.58929 7.18219 9.58995 7.18743 9.5906 7.19267L9.55292 7.20709L9.55325 7.20742ZM9.36092 6.9407C9.3678 6.9407 9.375 6.94136 9.38189 6.94234C9.44086 6.95086 9.4982 6.99542 9.5526 7.07472C9.56177 7.08815 9.56963 7.10453 9.57586 7.12419C9.5775 7.12255 9.57914 7.12124 9.58077 7.11961C9.59781 7.10453 9.63386 7.10453 9.66531 7.10814C9.55325 6.93776 9.43333 6.89745 9.38352 6.9004C9.35371 6.90171 9.33012 6.92432 9.31406 6.94824C9.32946 6.943 9.34486 6.9407 9.36059 6.9407H9.36092Z" fill="#C09300"/>
<path d="M9.25409 6.85651C9.26293 6.82702 9.27735 6.79982 9.29504 6.78835C9.36058 6.74477 9.50573 6.75886 9.65088 6.79622C9.65088 6.79622 9.6381 6.73331 9.71641 6.73724C9.85501 6.7451 10.0657 6.80277 10.1312 6.8683C10.1466 6.88501 10.1646 6.90926 10.18 6.94661H10.1774C10.1453 6.90172 10.0542 6.90434 10.0323 6.90696C9.99754 6.9109 9.97559 6.90959 9.92939 6.92105C9.90744 6.9263 9.87402 6.93252 9.85632 6.94661C9.84223 6.95808 9.83077 7.00068 9.80881 7.00068C9.77408 7.00068 9.7767 6.99183 9.76785 6.98134C9.75639 6.96725 9.74983 6.94661 9.73837 6.94792C9.70232 6.95448 9.64466 6.92597 9.57126 6.8683C9.49819 6.81063 9.46969 6.79622 9.37466 6.80277C9.28095 6.81063 9.25146 6.86306 9.25146 6.86306L9.25409 6.85651Z" fill="#C09300"/>
<path d="M9.8091 7.02131C9.77634 7.02131 9.76519 7.01377 9.75504 6.9987L9.75176 6.99444C9.7475 6.9892 9.74357 6.98297 9.73997 6.97707C9.73865 6.97478 9.73669 6.9715 9.73505 6.96921C9.69344 6.97314 9.63577 6.94562 9.55844 6.88435C9.488 6.82864 9.46408 6.81718 9.37626 6.8234C9.29632 6.82996 9.27076 6.87157 9.26978 6.87353L9.23242 6.85551L9.23504 6.84896C9.24324 6.82209 9.25863 6.78736 9.28452 6.77098C9.36316 6.71855 9.52666 6.74476 9.63184 6.76999C9.6338 6.76049 9.63806 6.75033 9.64593 6.74116C9.66133 6.72314 9.68426 6.71462 9.71834 6.71659C9.86415 6.72478 10.0784 6.78507 10.1469 6.85387C10.1692 6.87812 10.1866 6.90564 10.2003 6.93907L10.2121 6.9679H10.1705L10.1617 6.95905C10.1391 6.92727 10.0653 6.92432 10.0358 6.92793C10.026 6.92891 10.0172 6.92956 10.0086 6.93022C9.98669 6.93186 9.96769 6.9335 9.93558 6.94136L9.92804 6.943C9.90904 6.94726 9.88282 6.95315 9.87037 6.96298C9.86841 6.96462 9.86349 6.97314 9.86022 6.97871C9.84973 6.99673 9.83564 7.02131 9.80976 7.02131H9.8091ZM9.73898 6.92694C9.75831 6.92694 9.76847 6.94333 9.77568 6.95512C9.7783 6.95938 9.78092 6.96397 9.7842 6.9679C9.78616 6.97019 9.78813 6.97281 9.78977 6.97544C9.79141 6.97773 9.79468 6.9797 9.8091 6.9797C9.81172 6.97806 9.81926 6.96495 9.82319 6.95807C9.82942 6.94726 9.83531 6.93743 9.84351 6.93055C9.86349 6.91482 9.89364 6.90794 9.91788 6.90237L9.92509 6.90073C9.96015 6.89188 9.98178 6.89024 10.0047 6.88861C10.0129 6.88795 10.0211 6.8873 10.0303 6.88631C10.0309 6.88631 10.0788 6.88074 10.125 6.89254C10.1223 6.88893 10.1194 6.88566 10.1161 6.88238C10.0555 6.82176 9.85071 6.76541 9.71539 6.7582C9.70228 6.75754 9.68525 6.75885 9.67705 6.76803C9.66886 6.7772 9.67149 6.79227 9.67149 6.7926L9.67738 6.82439L9.64593 6.81652C9.57581 6.7985 9.51191 6.78769 9.45785 6.78408C9.5011 6.79162 9.53321 6.81193 9.58433 6.85224C9.67968 6.9276 9.72129 6.93022 9.73472 6.9276C9.73603 6.9276 9.73734 6.9276 9.73898 6.9276V6.92694Z" fill="#C09300"/>
<path d="M9.79086 6.94134C9.81281 6.94134 9.82952 6.92463 9.82952 6.90268C9.82952 6.88072 9.81281 6.86401 9.79086 6.86401C9.77022 6.86401 9.7522 6.88072 9.7522 6.90268C9.7522 6.92463 9.77022 6.94134 9.79086 6.94134Z" fill="white"/>
<path d="M9.82917 10.6298L9.82 10.6222C9.42419 10.307 9.14371 9.88335 9.0097 9.3971C8.96579 9.23753 8.93827 9.076 8.92779 8.91741C8.92516 8.87908 8.92254 8.82894 8.9232 8.78045V8.76276L8.94089 8.76603C8.95072 8.76767 8.95859 8.76865 8.96612 8.76865C9.1673 8.76865 9.64339 8.6507 9.82786 8.51111L9.83737 8.50391L9.84654 8.51177C10.0294 8.66872 10.5061 8.76898 10.6945 8.76898C10.7037 8.76898 10.7122 8.76898 10.7214 8.76833L10.7371 8.76734V8.78307C10.7374 8.83287 10.7345 8.88333 10.7325 8.91708C10.7217 9.07633 10.6942 9.23786 10.6503 9.39678C10.5159 9.88335 10.2351 10.3073 9.839 10.6229L9.82983 10.6304L9.82917 10.6298ZM8.95269 8.79782C8.95269 8.84008 8.95531 8.88235 8.95727 8.91545C8.96743 9.07207 8.99496 9.23164 9.03821 9.38924C9.17156 9.87221 9.43729 10.2765 9.82885 10.5914C10.2207 10.2762 10.4868 9.87155 10.6205 9.38826C10.664 9.23098 10.6912 9.07174 10.7017 8.91446C10.7037 8.88465 10.7063 8.84205 10.7066 8.79847C10.7024 8.79847 10.6981 8.79847 10.6939 8.79847C10.4996 8.79847 10.0323 8.70116 9.83573 8.54191C9.63782 8.68412 9.17222 8.79847 8.96547 8.79847C8.96121 8.79847 8.95695 8.79847 8.95269 8.79782Z" fill="#C09300"/>
</g>
</svg>
