<svg width="42" height="42" viewBox="0 0 42 42" fill="none" xmlns="http://www.w3.org/2000/svg">
<g clip-path="url(#clip0_238_7529)">
<path d="M39.4727 0H2.77734C1.52051 0 0.5 1.02051 0.5 2.27734V38.9727C0.5 40.2295 1.52051 41.25 2.77734 41.25H21.125V24.9219H16.1943V18.9062H21.125V14.459C21.125 9.13086 24.8203 6.23047 29.5791 6.23047C31.8564 6.23047 34.3057 6.40234 34.875 6.47754V12.042H31.083C28.4941 12.042 28 13.2666 28 15.0713V18.9062H34.166L33.3604 24.9219H28V41.25H39.4727C40.7295 41.25 41.75 40.2295 41.75 38.9727V2.27734C41.75 1.02051 40.7295 0 39.4727 0Z" fill="#64CDC7"/>
</g>
<defs>
<clipPath id="clip0_238_7529">
<rect width="41.25" height="41.25" fill="white" transform="translate(0.5)"/>
</clipPath>
</defs>
</svg>
