<svg width="39" height="40" viewBox="0 0 39 40" fill="none" xmlns="http://www.w3.org/2000/svg">
<path d="M30.875 30.9688H8.125C7.37211 30.9645 6.65126 30.6635 6.11888 30.1311C5.58649 29.5987 5.28552 28.8779 5.28125 28.125V11.875C5.28552 11.1221 5.58649 10.4013 6.11888 9.86888C6.65126 9.33649 7.37211 9.03552 8.125 9.03125H30.875C31.6279 9.03552 32.3487 9.33649 32.8811 9.86888C33.4135 10.4013 33.7145 11.1221 33.7188 11.875V28.125C33.7145 28.8779 33.4135 29.5987 32.8811 30.1311C32.3487 30.6635 31.6279 30.9645 30.875 30.9688ZM8.125 11.4688C8.01726 11.4688 7.91392 11.5116 7.83774 11.5877C7.76155 11.6639 7.71875 11.7673 7.71875 11.875V28.125C7.71875 28.2327 7.76155 28.3361 7.83774 28.4123C7.91392 28.4884 8.01726 28.5312 8.125 28.5312H30.875C30.9827 28.5312 31.0861 28.4884 31.1623 28.4123C31.2384 28.3361 31.2812 28.2327 31.2812 28.125V11.875C31.2812 11.7673 31.2384 11.6639 31.1623 11.5877C31.0861 11.5116 30.9827 11.4688 30.875 11.4688H8.125Z" fill="#64CDC7"/>
<path d="M14.625 19.5938C13.9822 19.5938 13.3539 19.4031 12.8194 19.046C12.2849 18.6889 11.8684 18.1813 11.6224 17.5875C11.3764 16.9936 11.312 16.3401 11.4374 15.7097C11.5628 15.0793 11.8724 14.5002 12.3269 14.0457C12.7814 13.5911 13.3605 13.2816 13.991 13.1562C14.6214 13.0308 15.2749 13.0952 15.8687 13.3411C16.4626 13.5871 16.9702 14.0037 17.3273 14.5381C17.6844 15.0726 17.875 15.701 17.875 16.3438C17.875 17.2057 17.5326 18.0324 16.9231 18.6418C16.3136 19.2513 15.487 19.5938 14.625 19.5938ZM14.625 15.5313C14.4643 15.5313 14.3072 15.5789 14.1736 15.6682C14.04 15.7575 13.9358 15.8844 13.8743 16.0328C13.8129 16.1813 13.7968 16.3447 13.8281 16.5023C13.8595 16.6599 13.9368 16.8046 14.0505 16.9183C14.1641 17.0319 14.3089 17.1093 14.4665 17.1406C14.6241 17.172 14.7875 17.1559 14.9359 17.0944C15.0844 17.0329 15.2113 16.9288 15.3006 16.7952C15.3898 16.6615 15.4375 16.5044 15.4375 16.3438C15.4375 16.1283 15.3519 15.9216 15.1995 15.7692C15.0472 15.6169 14.8405 15.5313 14.625 15.5313ZM19.5 26.0938C19.1781 26.0895 18.8705 25.9598 18.6429 25.7321C18.4152 25.5045 18.2855 25.1969 18.2812 24.875C18.2812 23.77 18.005 22.8438 14.625 22.8438C11.245 22.8438 10.9688 23.77 10.9688 24.875C10.9688 25.1982 10.8403 25.5082 10.6118 25.7368C10.3832 25.9653 10.0732 26.0938 9.75 26.0938C9.42677 26.0938 9.11677 25.9653 8.88821 25.7368C8.65965 25.5082 8.53125 25.1982 8.53125 24.875C8.53125 20.4063 13.1137 20.4063 14.625 20.4063C16.1363 20.4063 20.7188 20.4063 20.7188 24.875C20.7145 25.1969 20.5848 25.5045 20.3571 25.7321C20.1295 25.9598 19.8219 26.0895 19.5 26.0938ZM27.625 17.9688H22.75C22.4268 17.9688 22.1168 17.8403 21.8882 17.6118C21.6597 17.3832 21.5312 17.0732 21.5312 16.75C21.5312 16.4268 21.6597 16.1168 21.8882 15.8882C22.1168 15.6597 22.4268 15.5313 22.75 15.5313H27.625C27.9482 15.5313 28.2582 15.6597 28.4868 15.8882C28.7153 16.1168 28.8438 16.4268 28.8438 16.75C28.8438 17.0732 28.7153 17.3832 28.4868 17.6118C28.2582 17.8403 27.9482 17.9688 27.625 17.9688ZM26 22.8438H22.75C22.4268 22.8438 22.1168 22.7153 21.8882 22.4868C21.6597 22.2582 21.5312 21.9482 21.5312 21.625C21.5312 21.3018 21.6597 20.9918 21.8882 20.7632C22.1168 20.5347 22.4268 20.4063 22.75 20.4063H26C26.3232 20.4063 26.6332 20.5347 26.8618 20.7632C27.0903 20.9918 27.2188 21.3018 27.2188 21.625C27.2188 21.9482 27.0903 22.2582 26.8618 22.4868C26.6332 22.7153 26.3232 22.8438 26 22.8438Z" fill="#64CDC7"/>
</svg>
