<svg width="42" height="42" viewBox="0 0 42 42" fill="none" xmlns="http://www.w3.org/2000/svg">
<g clip-path="url(#clip0_238_7533)">
<path d="M20.6341 10.0521C14.7807 10.0521 10.0593 14.7745 10.0593 20.6293C10.0593 26.484 14.7807 31.2064 20.6341 31.2064C26.4875 31.2064 31.2089 26.484 31.2089 20.6293C31.2089 14.7745 26.4875 10.0521 20.6341 10.0521ZM20.6341 27.5058C16.8515 27.5058 13.7591 24.4219 13.7591 20.6293C13.7591 16.8366 16.8423 13.7527 20.6341 13.7527C24.4259 13.7527 27.5091 16.8366 27.5091 20.6293C27.5091 24.4219 24.4167 27.5058 20.6341 27.5058ZM34.108 9.61944C34.108 10.9911 33.0036 12.0865 31.6415 12.0865C30.2701 12.0865 29.1749 10.9819 29.1749 9.61944C29.1749 8.25702 30.2793 7.15235 31.6415 7.15235C33.0036 7.15235 34.108 8.25702 34.108 9.61944ZM41.1118 12.1233C40.9554 8.81855 40.2007 5.89119 37.7802 3.47934C35.3689 1.06749 32.4422 0.31264 29.1381 0.14694C25.7328 -0.0463759 15.5262 -0.0463759 12.1209 0.14694C8.82603 0.303434 5.89933 1.05829 3.47881 3.47014C1.0583 5.88199 0.312815 8.80935 0.147152 12.1141C-0.046121 15.5202 -0.046121 25.7291 0.147152 29.1352C0.303611 32.44 1.0583 35.3673 3.47881 37.7792C5.89933 40.191 8.81683 40.9459 12.1209 41.1116C15.5262 41.3049 25.7328 41.3049 29.1381 41.1116C32.4422 40.9551 35.3689 40.2002 37.7802 37.7792C40.1915 35.3673 40.9462 32.44 41.1118 29.1352C41.3051 25.7291 41.3051 15.5294 41.1118 12.1233ZM36.7126 32.7898C35.9947 34.5941 34.605 35.9841 32.7919 36.7113C30.0769 37.7884 23.6344 37.5398 20.6341 37.5398C17.6338 37.5398 11.1821 37.7792 8.4763 36.7113C6.67242 35.9933 5.28269 34.6033 4.55562 32.7898C3.47881 30.0741 3.72731 23.6303 3.72731 20.6293C3.72731 17.6283 3.48802 11.1752 4.55562 8.46874C5.27349 6.66446 6.66322 5.27442 8.4763 4.54719C11.1913 3.47014 17.6338 3.71869 20.6341 3.71869C23.6344 3.71869 30.0861 3.47934 32.7919 4.54719C34.5958 5.26522 35.9855 6.65525 36.7126 8.46874C37.7894 11.1844 37.5409 17.6283 37.5409 20.6293C37.5409 23.6303 37.7894 30.0833 36.7126 32.7898Z" fill="#64CDC7"/>
</g>
<defs>
<clipPath id="clip0_238_7533">
<rect width="41.25" height="41.25" fill="white"/>
</clipPath>
</defs>
</svg>
