<svg width="41" height="41" viewBox="0 0 41 41" fill="none" xmlns="http://www.w3.org/2000/svg">
<path d="M37.7212 0H3.50299C1.63402 0 0 1.34566 0 3.19328V37.4863C0 39.3446 1.63402 41 3.50299 41H37.7105C39.5902 41 40.9999 39.3339 40.9999 37.4863V3.19328C41.0106 1.34566 39.5902 0 37.7212 0ZM12.709 34.1756H6.8351V15.913H12.709V34.1756ZM9.97498 13.1362H9.93226C8.05261 13.1362 6.8351 11.7372 6.8351 9.98567C6.8351 8.20214 8.08465 6.83511 10.007 6.83511C11.9294 6.83511 13.1042 8.19146 13.1469 9.98567C13.1469 11.7372 11.9294 13.1362 9.97498 13.1362ZM34.1755 34.1756H28.3016V24.1899C28.3016 21.7976 27.4472 20.1636 25.3219 20.1636C23.6986 20.1636 22.7374 21.2636 22.3102 22.3316C22.15 22.7161 22.1073 23.2394 22.1073 23.7734V34.1756H16.2334V15.913H22.1073V18.4548C22.9617 17.2373 24.2967 15.4858 27.4045 15.4858C31.2599 15.4858 34.1755 18.0276 34.1755 23.5064V34.1756Z" fill="#64CDC7"/>
</svg>
