<svg width="24" height="24" viewBox="0 0 24 24" fill="none" xmlns="http://www.w3.org/2000/svg">
<path fill-rule="evenodd" clip-rule="evenodd" d="M11.25 3.03V1.5H12.75V3.03C14.8708 3.20707 16.8603 4.12996 18.3652 5.63484C19.87 7.13971 20.7929 9.12917 20.97 11.25H22.5V12.75H20.97C20.7929 14.8708 19.87 16.8603 18.3652 18.3652C16.8603 19.87 14.8708 20.7929 12.75 20.97V22.5H11.25V20.97C9.12917 20.7929 7.13971 19.87 5.63484 18.3652C4.12996 16.8603 3.20707 14.8708 3.03 12.75H1.5V11.25H3.03C3.20707 9.12917 4.12996 7.13971 5.63484 5.63484C7.13971 4.12996 9.12917 3.20707 11.25 3.03ZM11.25 4.5375C9.52861 4.71049 7.91995 5.47327 6.69661 6.69661C5.47327 7.91995 4.71049 9.52861 4.5375 11.25H6V12.75H4.5375C4.71049 14.4714 5.47327 16.08 6.69661 17.3034C7.91995 18.5267 9.52861 19.2895 11.25 19.4625V18H12.75V19.4625C14.4714 19.2895 16.08 18.5267 17.3034 17.3034C18.5267 16.08 19.2895 14.4714 19.4625 12.75H18V11.25H19.4625C19.2895 9.52861 18.5267 7.91995 17.3034 6.69661C16.08 5.47327 14.4714 4.71049 12.75 4.5375V6H11.25V4.5375Z" fill="#385469"/>
<path d="M9 12C9 11.2044 9.31607 10.4413 9.87868 9.87868C10.4413 9.31607 11.2044 9 12 9C12.7956 9 13.5587 9.31607 14.1213 9.87868C14.6839 10.4413 15 11.2044 15 12C15 12.7956 14.6839 13.5587 14.1213 14.1213C13.5587 14.6839 12.7956 15 12 15C11.2044 15 10.4413 14.6839 9.87868 14.1213C9.31607 13.5587 9 12.7956 9 12Z" fill="#385469"/>
</svg>
