<svg width="270" height="57" viewBox="0 0 270 57" fill="none" xmlns="http://www.w3.org/2000/svg">
<g clip-path="url(#clip0_238_7496)">
<path d="M68.1526 39.8026V17.3507C68.1526 15.4271 69.2587 14.3096 71.13 14.3096C73.0013 14.3096 74.1074 15.4271 74.1074 17.3507V25.9706H86.9265V17.3507C86.9265 15.4271 88.0326 14.3096 89.9039 14.3096C91.7751 14.3096 92.8813 15.4271 92.8813 17.3507V39.8026C92.8813 41.7092 91.7751 42.8224 89.9039 42.8224C88.0326 42.8224 86.9265 41.7049 86.9265 39.8026V30.7604H74.1074V39.8026C74.1074 41.7092 73.0013 42.8224 71.13 42.8224C69.2587 42.8224 68.1526 41.7049 68.1526 39.8026Z" fill="white"/>
<path d="M96.2522 32.1082C96.2522 25.6251 99.5838 21.5092 104.87 21.5092C107.847 21.5092 110.234 22.8954 111.336 25.2242H111.572V24.2219C111.572 22.3751 112.735 21.4111 114.353 21.4111C115.97 21.4111 117.133 22.3751 117.133 24.239V39.9562C117.133 41.803 115.988 42.784 114.353 42.784C112.718 42.784 111.651 41.8585 111.572 40.1311V39.1117H111.336C110.252 41.4789 107.886 42.784 104.87 42.784C99.5838 42.784 96.2522 38.6681 96.2522 32.1082ZM111.458 32.1466C111.458 28.3932 109.627 26.009 106.763 26.009C103.899 26.009 102.15 28.3549 102.15 32.1466C102.15 35.9384 103.903 38.2629 106.763 38.2629C109.622 38.2629 111.458 35.9341 111.458 32.1466Z" fill="white"/>
<path d="M120.601 39.939V17.2184C120.601 15.2948 121.803 14.2754 123.477 14.2754C125.152 14.2754 126.359 15.2948 126.359 17.2184V39.939C126.359 41.8626 125.174 42.865 123.477 42.865C121.781 42.865 120.601 41.8626 120.601 39.939Z" fill="white"/>
<path d="M128.982 32.1082C128.982 25.6251 132.313 21.5092 137.599 21.5092C140.577 21.5092 142.964 22.8954 144.066 25.2242H144.302V24.2219C144.302 22.3751 145.465 21.4111 147.082 21.4111C148.7 21.4111 149.863 22.3751 149.863 24.239V39.9562C149.863 41.803 148.718 42.784 147.082 42.784C145.447 42.784 144.381 41.8585 144.302 40.1311V39.1117H144.066C142.981 41.4789 140.616 42.784 137.599 42.784C132.313 42.784 128.982 38.6681 128.982 32.1082ZM144.188 32.1466C144.188 28.3932 142.356 26.009 139.492 26.009C136.629 26.009 134.88 28.3549 134.88 32.1466C134.88 35.9384 136.633 38.2629 139.492 38.2629C142.352 38.2629 144.188 35.9341 144.188 32.1466Z" fill="white"/>
<path d="M154.095 39.9179V17.2186C154.095 15.3717 155.201 14.314 157.094 14.314C158.319 14.314 159.145 14.7959 160.054 16.0072L172.362 32.7822H172.519V17.2399C172.519 15.3717 173.586 14.314 175.379 14.314C177.171 14.314 178.221 15.3717 178.221 17.2399V39.9989C178.221 41.8074 177.176 42.8268 175.3 42.8268C174.019 42.8268 173.228 42.3832 172.323 41.1548L159.976 24.2817H159.796V39.9222C159.796 41.769 158.73 42.8268 156.955 42.8268C155.179 42.8268 154.095 41.769 154.095 39.9222V39.9179Z" fill="white"/>
<path d="M181.587 32.1082C181.587 25.6251 184.919 21.5092 190.205 21.5092C193.182 21.5092 195.569 22.8954 196.671 25.2242H196.907V24.2219C196.907 22.3751 198.07 21.4111 199.688 21.4111C201.305 21.4111 202.468 22.3751 202.468 24.239V39.9562C202.468 41.803 201.323 42.784 199.688 42.784C198.053 42.784 196.986 41.8585 196.907 40.1311V39.1117H196.671C195.587 41.4789 193.221 42.784 190.205 42.784C184.919 42.784 181.587 38.6681 181.587 32.1082ZM196.789 32.1466C196.789 28.3932 194.957 26.009 192.093 26.009C189.23 26.009 187.481 28.3549 187.481 32.1466C187.481 35.9384 189.234 38.2629 192.093 38.2629C194.953 38.2629 196.789 35.9341 196.789 32.1466Z" fill="white"/>
<path d="M205.852 39.9391V24.239C205.852 22.4902 206.897 21.4111 208.633 21.4111C210.369 21.4111 211.514 22.4902 211.514 24.2603V25.4161H211.632C212.756 22.857 214.885 21.4538 218.138 21.4538C222.829 21.4538 225.474 24.3413 225.474 29.1695V39.9434C225.474 41.867 224.272 42.8693 222.598 42.8693C220.923 42.8693 219.721 41.867 219.721 39.9434V30.3424C219.721 27.6511 218.418 26.1114 215.834 26.1114C213.25 26.1114 211.615 27.9582 211.615 30.6325V39.9434C211.615 41.867 210.43 42.8693 208.734 42.8693C207.037 42.8693 205.857 41.867 205.857 39.9434L205.852 39.9391Z" fill="white"/>
<path d="M228.596 39.9391V24.239C228.596 22.4902 229.641 21.4111 231.377 21.4111C233.113 21.4111 234.258 22.4902 234.258 24.2603V25.4161H234.376C235.5 22.857 237.629 21.4538 240.882 21.4538C245.573 21.4538 248.218 24.3413 248.218 29.1695V39.9434C248.218 41.867 247.016 42.8693 245.341 42.8693C243.667 42.8693 242.465 41.867 242.465 39.9434V30.3424C242.465 27.6511 241.162 26.1114 238.578 26.1114C235.994 26.1114 234.359 27.9582 234.359 30.6325V39.9434C234.359 41.867 233.174 42.8693 231.477 42.8693C229.781 42.8693 228.601 41.867 228.601 39.9434L228.596 39.9391Z" fill="white"/>
<path d="M250.26 47.4588C250.26 46.3242 251.069 45.612 252.372 45.612C252.765 45.612 252.984 45.6333 253.377 45.6333C254.383 45.6333 255.467 45.211 256.158 43.7651L256.455 43.0358L249.709 25.685C249.49 25.1092 249.372 24.4907 249.372 24.0301C249.372 22.5117 250.653 21.4155 252.35 21.4155C253.867 21.4155 254.658 22.051 255.13 23.6846L259.725 37.9602H259.826L264.421 23.6462C264.893 22.0894 265.724 21.4155 267.202 21.4155C268.859 21.4155 270.004 22.4733 270.004 23.9533C270.004 24.414 269.886 25.0708 269.69 25.6082L263.201 42.8055C261.229 48.1327 258.785 50.0947 254.151 50.0947C251.628 50.0947 250.264 49.1521 250.264 47.4588H250.26Z" fill="white"/>
<path opacity="0.12" d="M21.5196 49.3313C21.1524 49.4465 20.5534 49.1522 20.1555 49.02C16.4218 47.5826 13.4225 45.5566 11.2758 42.3663C8.14097 37.6874 8.94981 30.7735 13.8335 27.6343C17.4273 25.3567 21.2836 26.1074 24.4796 28.4831C25.2665 28.9906 26.141 29.6944 26.8493 29.6432C27.3608 29.6261 27.8111 29.3148 28.2483 29.0503C29.678 28.1632 31.1296 27.4296 32.5855 26.9135C34.7322 26.133 36.9226 25.9154 39.1961 26.0178C44.2328 26.1756 47.267 29.1229 47.6387 33.4392C47.7655 39.0949 43.4546 43.3302 37.5347 45.932C34.1288 47.2883 30.688 47.2712 27.0198 45.6633C23.8631 44.5117 22.4771 41.0057 26.6787 40.336C29.5075 39.982 32.4324 41.4748 35.1956 40.4597C37.8932 39.6664 39.5371 37.4442 40.5908 34.979C41.1679 33.8402 41.509 32.5777 42.4927 31.7971C43.096 31.3237 43.9311 31.0806 43.8306 30.9739C43.4546 30.7479 43.0042 30.9526 42.5583 30.7522C41.6795 30.3256 40.8313 30.1806 39.9612 30.6796C39.1961 31.0422 38.1249 31.4218 37.902 32.2236C37.6877 32.8421 37.6965 33.6141 37.4123 34.1387C36.9182 34.9918 36.0263 35.5804 35.3355 36.2884C34.6928 36.877 34.107 37.5893 33.2457 37.4144C31.781 37.295 29.1577 36.9623 27.5969 36.8727C26.1628 36.9111 24.1473 37.1286 22.7395 37.2224C22.4378 37.2523 22.1449 37.2779 21.865 37.3717C20.9644 37.7428 20.208 38.5276 19.4123 39.1077C18.7171 39.6323 18.5291 40.1398 18.5466 40.9161C18.5597 41.6028 18.5247 42.3407 18.6909 43.0018C19.2374 44.5117 20.5447 45.6846 21.0212 47.2286C21.2748 47.8897 21.6639 48.7513 21.6377 49.101C21.6333 49.1948 21.6115 49.2673 21.5371 49.3185L21.5153 49.3313H21.5196Z" fill="white"/>
<path opacity="0.12" d="M38.5053 9.9722C38.5491 15.0392 32.9965 18.5666 28.2658 16.5235C21.2355 13.4995 23.0106 3.33983 30.6924 2.79388C34.8328 2.47399 38.5447 5.86482 38.5053 9.90822V9.9722Z" fill="#CAFFFB"/>
<path d="M47.7347 21.9617C59.6662 30.3385 50.1262 46.3074 38.4527 50.291C31.3567 52.88 20.973 52.9141 17.1561 45.4245C15.193 41.573 17.0512 37.2438 21.1391 35.6444C22.4813 35.0814 23.946 34.8127 25.4063 34.7444C27.7585 34.6079 30.2069 35.1454 32.1743 34.8425C33.1406 34.7018 34.0412 34.3307 34.8326 33.7805C36.9968 32.2152 38.9861 29.4599 42.0815 29.8139C42.7286 29.8651 44.6611 30.121 44.1321 30.9271C43.3145 31.7119 41.9504 32.1981 41.0541 32.9914C39.7556 34.0193 38.7281 35.67 37.4558 36.8301C33.4466 40.8053 26.9628 37.2865 22.4638 39.7432C20.1291 41.091 20.4964 44.0937 22.4026 45.723C24.6237 47.7533 27.8853 48.3717 30.8583 48.2608C37.9586 47.9281 44.7879 43.3217 47.8658 37.1031C49.7546 33.2985 49.1031 28.2315 45.5005 25.6297C42.4094 23.3223 38.2822 23.7232 34.767 25.2288C31.9426 26.2311 29.2931 29.2935 26.0971 28.0523C24.6324 27.5192 23.1415 26.133 21.4364 25.1904C19.2285 23.9407 16.6664 23.3223 14.1962 23.591C10.834 23.9236 7.81726 25.8472 6.09027 28.6665C-1.05814 41.4195 15.6477 52.4492 27.1945 55.9893C30.8408 57.3116 26.1364 57.0087 24.663 56.8424C23.0322 56.6632 21.4058 56.3519 19.8231 55.9211C10.4056 53.3236 1.26783 46.0472 0.100474 36.1136C-0.485389 31.0764 1.56951 25.8771 5.5219 22.6484C9.41745 19.377 14.8695 18.2893 19.8756 19.8547C22.0572 20.4603 24.2739 21.9105 26.2107 22.4052C29.21 23.2967 31.9645 21.3688 34.6927 20.4091C38.9992 18.767 43.9222 19.1552 47.6822 21.919L47.739 21.9574L47.7347 21.9617Z" fill="white"/>
<path d="M20.4747 4.01367C19.1456 5.88609 18.5554 8.1765 19.1369 10.3475C19.2418 11.1493 21.2661 15.1074 21.7776 12.9023C21.9875 11.9938 21.8782 10.1172 22.5865 8.61155C23.8675 5.65577 27.5051 4.05632 30.6443 4.96481C32.8041 5.52781 34.6885 7.3064 34.9333 9.49018C35.3487 13.2947 31.5624 16.4638 28.091 17.5812C26.5214 18.14 25.3584 18.2978 24.9387 18.7371C24.9562 19.2617 27.4658 19.2233 28.6113 19.1594C30.4082 19.0271 32.192 18.5537 33.7922 17.7518C37.2812 16.0799 39.8651 12.3649 39.4891 8.50065C38.7633 0.294425 25.5289 -3.4035 20.5185 3.95822L20.4791 4.01367H20.4747Z" fill="white"/>
</g>
<defs>
<clipPath id="clip0_238_7496">
<rect width="270" height="57" fill="white"/>
</clipPath>
</defs>
</svg>
