<svg width="196" height="43" viewBox="0 0 196 43" fill="none" xmlns="http://www.w3.org/2000/svg">
<g clip-path="url(#clip0_238_7560)">
<path d="M49.4736 29.8031V13.3097C49.4736 11.8966 50.2766 11.0757 51.635 11.0757C52.9934 11.0757 53.7964 11.8966 53.7964 13.3097V19.642H63.1021V13.3097C63.1021 11.8966 63.905 11.0757 65.2634 11.0757C66.6218 11.0757 67.4248 11.8966 67.4248 13.3097V29.8031C67.4248 31.2037 66.6218 32.0215 65.2634 32.0215C63.905 32.0215 63.1021 31.2005 63.1021 29.8031V23.1606H53.7964V29.8031C53.7964 31.2037 52.9934 32.0215 51.635 32.0215C50.2766 32.0215 49.4736 31.2005 49.4736 29.8031Z" fill="#385469"/>
<path d="M69.8718 24.1507C69.8718 19.3882 72.2903 16.3646 76.1275 16.3646C78.2888 16.3646 80.0217 17.3829 80.8215 19.0937H80.9929V18.3574C80.9929 17.0007 81.8372 16.2925 83.0115 16.2925C84.1858 16.2925 85.0301 17.0007 85.0301 18.3699V29.9159C85.0301 31.2726 84.1985 31.9932 83.0115 31.9932C81.8245 31.9932 81.0501 31.3133 80.9929 30.0444V29.2955H80.8215C80.0344 31.0345 78.3174 31.9932 76.1275 31.9932C72.2903 31.9932 69.8718 28.9697 69.8718 24.1507ZM80.9104 24.1789C80.9104 21.4217 79.5806 19.6702 77.5017 19.6702C75.4229 19.6702 74.1533 21.3935 74.1533 24.1789C74.1533 26.9644 75.426 28.672 77.5017 28.672C79.5774 28.672 80.9104 26.9613 80.9104 24.1789Z" fill="#385469"/>
<path d="M87.5469 29.9034V13.2126C87.5469 11.7995 88.4197 11.0506 89.6353 11.0506C90.8508 11.0506 91.7268 11.7995 91.7268 13.2126V29.9034C91.7268 31.3165 90.8667 32.0528 89.6353 32.0528C88.4038 32.0528 87.5469 31.3165 87.5469 29.9034Z" fill="#385469"/>
<path d="M93.6311 24.1507C93.6311 19.3882 96.0496 16.3646 99.8867 16.3646C102.048 16.3646 103.781 17.3829 104.581 19.0937H104.752V18.3574C104.752 17.0007 105.596 16.2925 106.771 16.2925C107.945 16.2925 108.789 17.0007 108.789 18.3699V29.9159C108.789 31.2726 107.958 31.9932 106.771 31.9932C105.584 31.9932 104.809 31.3133 104.752 30.0444V29.2955H104.581C103.794 31.0345 102.077 31.9932 99.8867 31.9932C96.0496 31.9932 93.6311 28.9697 93.6311 24.1507ZM104.67 24.1789C104.67 21.4217 103.34 19.6702 101.261 19.6702C99.1821 19.6702 97.9126 21.3935 97.9126 24.1789C97.9126 26.9644 99.1853 28.672 101.261 28.672C103.337 28.672 104.67 26.9613 104.67 24.1789Z" fill="#385469"/>
<path d="M111.862 29.8877V13.2126C111.862 11.8559 112.665 11.0788 114.039 11.0788C114.927 11.0788 115.527 11.4329 116.187 12.3227L125.122 24.6458H125.236V13.2282C125.236 11.8559 126.011 11.0788 127.312 11.0788C128.613 11.0788 129.375 11.8559 129.375 13.2282V29.9472C129.375 31.2757 128.616 32.0246 127.255 32.0246C126.325 32.0246 125.75 31.6987 125.093 30.7964L116.13 18.4012H116V29.8908C116 31.2475 115.226 32.0246 113.937 32.0246C112.649 32.0246 111.862 31.2475 111.862 29.8908V29.8877Z" fill="#385469"/>
<path d="M131.819 24.1507C131.819 19.3882 134.237 16.3646 138.074 16.3646C140.236 16.3646 141.969 17.3829 142.768 19.0937H142.94V18.3574C142.94 17.0007 143.784 16.2925 144.958 16.2925C146.133 16.2925 146.977 17.0007 146.977 18.3699V29.9159C146.977 31.2726 146.145 31.9932 144.958 31.9932C143.771 31.9932 142.997 31.3133 142.94 30.0444V29.2955H142.768C141.981 31.0345 140.264 31.9932 138.074 31.9932C134.237 31.9932 131.819 28.9697 131.819 24.1507ZM142.854 24.1789C142.854 21.4217 141.524 19.6702 139.445 19.6702C137.366 19.6702 136.097 21.3935 136.097 24.1789C136.097 26.9644 137.37 28.672 139.445 28.672C141.521 28.672 142.854 26.9613 142.854 24.1789Z" fill="#385469"/>
<path d="M149.433 29.9034V18.3699C149.433 17.0853 150.192 16.2925 151.452 16.2925C152.712 16.2925 153.543 17.0853 153.543 18.3856V19.2347H153.629C154.445 17.3547 155.99 16.3239 158.352 16.3239C161.757 16.3239 163.678 18.4451 163.678 21.9919V29.9065C163.678 31.3196 162.805 32.0559 161.589 32.0559C160.374 32.0559 159.501 31.3196 159.501 29.9065V22.8536C159.501 20.8765 158.555 19.7454 156.679 19.7454C154.803 19.7454 153.616 21.1021 153.616 23.0666V29.9065C153.616 31.3196 152.756 32.0559 151.525 32.0559C150.293 32.0559 149.437 31.3196 149.437 29.9065L149.433 29.9034Z" fill="#385469"/>
<path d="M165.944 29.9034V18.3699C165.944 17.0853 166.702 16.2925 167.962 16.2925C169.222 16.2925 170.054 17.0853 170.054 18.3856V19.2347H170.139C170.955 17.3547 172.501 16.3239 174.862 16.3239C178.268 16.3239 180.188 18.4451 180.188 21.9919V29.9065C180.188 31.3196 179.315 32.0559 178.099 32.0559C176.884 32.0559 176.011 31.3196 176.011 29.9065V22.8536C176.011 20.8765 175.065 19.7454 173.189 19.7454C171.314 19.7454 170.127 21.1021 170.127 23.0666V29.9065C170.127 31.3196 169.267 32.0559 168.035 32.0559C166.804 32.0559 165.947 31.3196 165.947 29.9065L165.944 29.9034Z" fill="#385469"/>
<path d="M181.67 35.4273C181.67 34.5938 182.257 34.0706 183.203 34.0706C183.489 34.0706 183.647 34.0863 183.933 34.0863C184.663 34.0863 185.45 33.7761 185.952 32.7139L186.167 32.1781L181.27 19.4321C181.112 19.0091 181.026 18.5547 181.026 18.2164C181.026 17.1009 181.956 16.2957 183.187 16.2957C184.289 16.2957 184.863 16.7625 185.206 17.9626L188.542 28.4495H188.615L191.95 17.9344C192.293 16.7907 192.896 16.2957 193.969 16.2957C195.172 16.2957 196.003 17.0727 196.003 18.16C196.003 18.4984 195.918 18.9809 195.775 19.3757L191.065 32.0089C189.633 35.9223 187.859 37.3636 184.495 37.3636C182.664 37.3636 181.673 36.6712 181.673 35.4273H181.67Z" fill="#385469"/>
<path d="M15.6218 36.8028C15.3552 36.8874 14.9203 36.6712 14.6315 36.5741C11.9211 35.5182 9.74383 34.0299 8.18548 31.6862C5.90984 28.249 6.497 23.17 10.0422 20.8639C12.6511 19.1908 15.4504 19.7422 17.7704 21.4875C18.3417 21.8603 18.9765 22.3773 19.4907 22.3397C19.862 22.3272 20.1889 22.0984 20.5063 21.9042C21.5441 21.2525 22.5978 20.7136 23.6547 20.3344C25.2131 19.761 26.8032 19.6013 28.4536 19.6764C32.1098 19.7924 34.3125 21.9575 34.5822 25.1283C34.6743 29.283 31.5449 32.3943 27.2475 34.3056C24.7751 35.302 22.2773 35.2894 19.6144 34.1082C17.3229 33.2622 16.3168 30.6867 19.3669 30.1948C21.4204 29.9347 23.5436 31.0313 25.5495 30.2856C27.5078 29.7028 28.7011 28.0704 29.466 26.2594C29.885 25.4228 30.1325 24.4954 30.8466 23.922C31.2846 23.5742 31.8908 23.3956 31.8178 23.3173C31.5449 23.1512 31.218 23.3016 30.8942 23.1544C30.2563 22.841 29.6406 22.7345 29.009 23.1011C28.4536 23.3674 27.676 23.6463 27.5141 24.2353C27.3586 24.6896 27.3649 25.2568 27.1586 25.6422C26.8 26.2688 26.1525 26.7012 25.6511 27.2213C25.1845 27.6537 24.7592 28.177 24.134 28.0485C23.0707 27.9608 21.1664 27.7164 20.0334 27.6506C18.9924 27.6788 17.5292 27.8386 16.5073 27.9075C16.2883 27.9294 16.0756 27.9482 15.8725 28.0172C15.2187 28.2897 14.6696 28.8663 14.092 29.2924C13.5873 29.6778 13.4509 30.0506 13.4636 30.6209C13.4731 31.1253 13.4477 31.6674 13.5683 32.153C13.965 33.2622 14.914 34.1239 15.2599 35.2581C15.444 35.7437 15.7265 36.3767 15.7075 36.6336C15.7043 36.7025 15.6884 36.7558 15.6345 36.7934L15.6186 36.8028H15.6218Z" fill="#CAFFFB"/>
<path d="M27.952 7.88917C27.9837 11.6115 23.953 14.2027 20.5189 12.7018C15.4154 10.4804 16.7039 3.01697 22.2803 2.61591C25.286 2.38092 27.9806 4.87185 27.952 7.84217V7.88917Z" fill="#CAFFFB"/>
<path d="M34.6519 16.6967C43.3133 22.8504 36.388 34.5813 27.9138 37.5078C22.7627 39.4096 15.2249 39.4347 12.4541 33.9327C11.0291 31.1034 12.3779 27.9232 15.3455 26.7482C16.3198 26.3346 17.3831 26.1372 18.4431 26.0871C20.1506 25.9868 21.928 26.3816 23.3562 26.1591C24.0576 26.0557 24.7114 25.7831 25.2859 25.379C26.857 24.2291 28.301 22.205 30.5481 22.465C31.0178 22.5026 32.4207 22.6906 32.0366 23.2828C31.4431 23.8593 30.4529 24.2165 29.8023 24.7993C28.8596 25.5544 28.1138 26.767 27.1902 27.6192C24.2798 30.5394 19.573 27.9545 16.3071 29.7592C14.6123 30.7493 14.8789 32.9552 16.2627 34.1521C17.875 35.6435 20.2427 36.0978 22.4009 36.0163C27.5552 35.7719 32.5127 32.388 34.7471 27.8198C36.1182 25.0249 35.6453 21.3026 33.0301 19.3913C30.7862 17.6962 27.7901 17.9908 25.2383 19.0968C23.188 19.8331 21.2647 22.0828 18.9446 21.171C17.8814 20.7793 16.7991 19.761 15.5613 19.0686C13.9585 18.1506 12.0986 17.6962 10.3054 17.8936C7.86474 18.138 5.6748 19.5511 4.42113 21.6222C-0.768081 30.9906 11.3591 39.0932 19.7412 41.6938C22.3882 42.6651 18.9732 42.4426 17.9036 42.3204C16.7197 42.1888 15.5391 41.9601 14.3901 41.6437C7.55371 39.7355 0.920397 34.3902 0.072984 27.0928C-0.35231 23.3925 1.13939 19.573 4.00854 17.2012C6.83642 14.798 10.7942 13.999 14.4282 15.1489C16.012 15.5938 17.6211 16.6591 19.0271 17.0226C21.2044 17.6774 23.2039 16.2612 25.1843 15.5562C28.3106 14.3499 31.8843 14.6351 34.6138 16.6654L34.6551 16.6936L34.6519 16.6967Z" fill="#64CDC7"/>
<path d="M14.863 3.51202C13.8981 4.88752 13.4697 6.57007 13.8918 8.1649C13.9679 8.75395 15.4374 11.6616 15.8088 10.0417C15.9611 9.37433 15.8818 7.9957 16.3959 6.88967C17.3259 4.71832 19.9665 3.54336 22.2453 4.21074C23.8132 4.62433 25.1811 5.93089 25.3588 7.53511C25.6603 10.33 22.9118 12.658 20.3918 13.4789C19.2524 13.8893 18.4081 14.0053 18.1034 14.328C18.1161 14.7134 19.9379 14.6852 20.7695 14.6382C22.0739 14.5411 23.3688 14.1933 24.5305 13.6042C27.0632 12.376 28.9389 9.64692 28.666 6.8082C28.1391 0.779831 18.5319 -1.9367 14.8947 3.47129L14.8661 3.51202H14.863Z" fill="#64CDC7"/>
</g>
<defs>
<clipPath id="clip0_238_7560">
<rect width="196" height="41.8727" fill="white" transform="translate(0 0.563637)"/>
</clipPath>
</defs>
</svg>
