<svg width="16" height="19" viewBox="0 0 16 19" fill="none" xmlns="http://www.w3.org/2000/svg">
<path d="M14.8773 7.91521C14.8773 12.2458 10.0732 16.7559 8.45992 18.1489C8.30963 18.2619 8.12669 18.323 7.93865 18.323C7.75061 18.323 7.56767 18.2619 7.41738 18.1489C5.80415 16.7559 1 12.2458 1 7.91521C1 6.07497 1.73103 4.3101 3.03228 3.00885C4.33353 1.7076 6.09841 0.976563 7.93865 0.976562C9.77889 0.976563 11.5438 1.7076 12.845 3.00885C14.1463 4.3101 14.8773 6.07497 14.8773 7.91521Z" stroke="#64CDC7" stroke-width="1.21426" stroke-linecap="round" stroke-linejoin="round"/>
<path d="M7.93793 10.5165C9.37497 10.5165 10.5399 9.35154 10.5399 7.91449C10.5399 6.47745 9.37497 5.3125 7.93793 5.3125C6.50089 5.3125 5.33594 6.47745 5.33594 7.91449C5.33594 9.35154 6.50089 10.5165 7.93793 10.5165Z" stroke="#64CDC7" stroke-width="1.21426" stroke-linecap="round" stroke-linejoin="round"/>
</svg>
