<svg width="1645" height="233" viewBox="0 0 1645 233" fill="none" xmlns="http://www.w3.org/2000/svg">
<rect width="1650" height="233" fill="#385469"/>
<mask id="mask0_331_10064" style="mask-type:alpha" maskUnits="userSpaceOnUse" x="0" y="-106" width="1650" height="339">
<rect y="-106" width="1650" height="339" fill="#385469"/>
</mask>
<g mask="url(#mask0_331_10064)">
<path d="M858.282 -566.973H975.138C975.138 -566.973 977.824 -564.289 978.495 -562.947C980.51 -557.578 982.525 -552.209 984.54 -546.841C990.584 -530.063 997.3 -511.944 1002 -494.495C1004.69 -483.757 1007.37 -473.02 1010.06 -462.953C1012.07 -455.571 1013.42 -448.86 1015.43 -441.478C1020.81 -419.332 1030.21 -401.884 1044.98 -386.449C1049.01 -382.422 1053.04 -378.395 1057.07 -373.698C1063.79 -366.987 1070.5 -360.276 1076.55 -353.565C1094.68 -331.419 1104.75 -304.575 1108.11 -270.349V-262.967C1110.13 -245.518 1112.14 -227.399 1115.5 -209.95C1122.89 -170.355 1128.26 -129.419 1130.94 -84.4551C1131.62 -72.3754 1133.63 -56.9402 1139 -42.176C1146.39 -23.3854 1159.15 -11.3057 1176.61 -7.9502C1181.31 -7.27905 1185.34 -6.60797 1190.04 -6.60797C1204.15 -6.60797 1217.58 -11.3057 1230.34 -21.3721C1248.47 -34.794 1261.23 -54.9269 1270.63 -81.7708C1278.69 -104.588 1279.36 -128.747 1280.04 -149.551C1280.04 -165.658 1281.38 -182.435 1284.07 -199.213C1290.11 -235.452 1306.9 -265.651 1333.76 -287.797C1343.84 -296.522 1355.25 -303.904 1366 -311.286L1373.39 -316.654C1419.05 -348.196 1413.01 -402.555 1408.31 -424.03C1406.96 -430.07 1403.61 -434.767 1400.25 -439.465C1390.85 -451.545 1377.42 -454.9 1365.33 -456.243C1355.92 -457.585 1345.85 -457.585 1339.14 -457.585C1335.11 -457.585 1331.75 -457.585 1327.72 -457.585C1323.69 -457.585 1320.33 -457.585 1316.3 -457.585H1310.26C1299.51 -457.585 1290.78 -458.927 1282.05 -460.94C1246.46 -470.336 1215.56 -490.468 1187.36 -522.681C1178.63 -532.748 1171.24 -546.169 1164.52 -562.947C1163.18 -565.631 1163.18 -566.973 1164.52 -567.645H1219.59C1219.59 -567.645 1222.95 -564.289 1224.29 -561.605C1233.03 -544.827 1242.43 -532.076 1253.17 -522.681C1274.66 -504.561 1300.18 -495.837 1332.42 -495.837C1337.79 -495.837 1343.84 -495.837 1349.88 -496.508C1366.67 -497.85 1384.13 -499.193 1401.59 -501.206C1413.01 -502.548 1424.43 -503.89 1435.84 -506.575C1445.92 -509.259 1451.96 -515.299 1455.99 -525.365C1459.35 -534.09 1461.36 -544.156 1463.38 -556.907V-558.92C1463.38 -558.92 1464.05 -564.96 1466.06 -566.973H1517.78C1517.78 -566.973 1521.13 -563.618 1522.48 -561.605C1530.54 -550.196 1539.27 -542.814 1549.34 -538.116C1558.74 -534.09 1568.82 -531.405 1578.22 -528.721C1578.22 -528.721 1584.26 -526.708 1587.62 -526.037C1599.71 -522.681 1612.47 -519.326 1624.56 -513.957C1642.02 -505.904 1652.76 -497.179 1659.48 -484.429C1671.57 -462.953 1675.6 -438.794 1672.24 -413.963C1666.87 -376.382 1649.41 -349.538 1619.19 -332.761C1593.66 -318.668 1567.47 -310.615 1546.65 -304.575C1542.62 -303.233 1538.6 -302.561 1535.24 -301.219C1521.81 -297.864 1508.37 -293.837 1495.61 -287.797C1472.78 -277.731 1458.68 -259.611 1453.98 -234.11C1451.29 -222.03 1451.29 -209.279 1451.29 -197.199V-190.488C1451.29 -179.08 1453.3 -167 1456.66 -152.907C1466.74 -115.997 1488.9 -85.7973 1524.49 -61.6378C1543.97 -48.887 1564.12 -38.8206 1584.93 -28.7542C1589.64 -26.0698 1595.01 -24.0565 1599.71 -21.3721C1618.51 -11.9767 1637.99 -1.2392 1656.79 12.1827C1665.52 18.2226 1674.25 25.6047 1679.63 35.6711V161.166C1679.63 161.166 1677.61 159.824 1676.94 159.153C1676.94 159.153 1675.6 157.811 1674.93 157.811C1660.15 144.389 1648.06 133.651 1637.32 123.585C1616.5 103.452 1598.37 80.6346 1576.88 53.7907C1558.07 30.3024 1542.62 12.8538 1526.51 -2.58142C1522.48 -5.93689 1518.45 -9.96344 1515.09 -13.3189C1500.99 -26.0698 1486.88 -40.1628 1473.45 -54.2559C1460.02 -69.02 1447.93 -86.4684 1437.86 -107.272C1424.43 -134.116 1418.38 -163.645 1413.68 -189.146V-192.502C1410.99 -205.924 1408.98 -219.345 1403.61 -232.096C1398.91 -243.505 1390.18 -250.216 1379.43 -250.216C1377.42 -250.216 1374.73 -250.216 1372.71 -249.545C1367.34 -248.203 1361.97 -246.189 1355.92 -242.834C1337.79 -232.767 1329.73 -215.319 1324.36 -199.213C1317.64 -180.422 1316.3 -160.96 1314.29 -141.498V-132.774C1310.26 -96.5349 1300.18 -62.309 1282.72 -32.1096C1269.29 -9.29236 1252.5 8.82727 1233.03 20.907C1215.56 31.6445 1196.09 37.0133 1173.93 37.0133C1165.2 37.0133 1155.79 36.3422 1145.72 34.3289C1125.57 30.9734 1112.14 19.5648 1106.1 0.102966C1102.74 -11.3057 1102.07 -23.3854 1101.39 -33.4518C1101.39 -43.5183 1100.72 -53.5847 1100.05 -63.6512C1100.05 -75.0598 1100.05 -86.4684 1098.71 -97.8771C1097.37 -122.037 1092.66 -145.525 1084.61 -168.342C1076.55 -191.159 1065.8 -214.648 1051.03 -243.505C1036.92 -270.349 1020.13 -289.14 998.643 -299.877C987.898 -305.246 978.495 -309.272 969.765 -309.272C958.348 -309.272 948.946 -302.561 938.872 -286.455C922.754 -261.625 905.965 -240.15 888.503 -220.017C872.385 -201.897 854.253 -184.448 827.389 -162.973C804.556 -144.854 789.109 -126.734 778.364 -105.93C775.006 -99.8904 772.32 -93.1794 769.633 -87.1395C765.604 -79.0864 761.574 -70.3621 756.873 -61.6378C740.084 -30.7674 718.593 -11.3057 691.058 -1.91028C682.328 0.774109 673.597 3.4585 664.867 6.14288C652.778 9.49835 640.69 13.525 628.601 18.2226C589.649 32.9868 564.801 57.8173 552.712 92.7142C544.653 116.203 542.638 136.336 545.996 155.797C549.354 173.246 556.742 190.023 569.502 204.787C594.35 234.987 615.169 264.515 633.302 295.385C640.018 306.123 645.391 314.847 651.435 322.229C664.195 336.993 677.627 344.375 693.745 344.375H695.759C718.593 343.704 739.412 333.638 760.903 312.834C777.692 297.399 787.766 276.595 797.84 256.462V255.12C813.286 225.591 831.419 200.761 853.581 181.299C875.072 161.837 896.562 142.375 918.053 122.914C930.141 112.176 942.23 101.439 954.318 90.0299C979.167 67.8837 1004.02 57.1462 1030.88 57.1462C1032.89 57.1462 1034.91 57.1462 1036.92 57.1462C1055.73 58.4884 1068.49 63.8571 1078.56 75.9368C1085.28 83.99 1090.65 92.7142 1096.02 103.452C1098.71 108.821 1101.4 114.86 1104.08 120.229C1112.81 139.691 1122.89 159.153 1134.3 177.272C1147.06 197.405 1160.49 210.827 1175.94 220.223C1189.37 228.276 1202.8 232.302 1215.56 232.302C1224.29 232.302 1232.35 230.289 1241.08 226.934C1249.81 223.578 1257.2 219.552 1263.92 215.525C1268.62 212.841 1272.65 210.156 1277.35 207.472C1288.09 200.761 1299.51 193.379 1311.6 187.339C1329.06 178.615 1346.52 174.588 1364.66 174.588C1372.04 174.588 1380.1 175.259 1388.16 177.272C1422.41 183.983 1446.59 210.156 1452.63 247.066C1455.32 260.488 1455.32 275.924 1452.63 294.043C1449.27 324.914 1429.8 347.06 1401.59 353.771C1385.47 357.126 1369.36 357.797 1353.24 358.468C1345.85 358.468 1338.46 358.469 1331.75 359.811C1327.72 359.811 1323.69 359.811 1319.66 359.811C1313.61 359.811 1306.9 359.811 1300.18 361.153C1270.63 365.179 1248.47 378.601 1233.03 400.747C1227.65 408.801 1222.95 417.525 1218.25 428.934C1216.91 431.618 1215.56 433.631 1213.55 434.973H1143.03C1143.03 434.973 1141.69 432.96 1141.69 432.289C1141.69 429.605 1141.69 426.92 1141.02 424.236C1141.02 421.552 1141.02 418.867 1141.02 415.512C1141.02 395.379 1141.69 371.219 1146.39 347.731C1149.08 332.967 1146.39 318.874 1138.33 304.781C1130.94 290.688 1123.56 275.253 1116.17 255.791C1113.48 249.08 1110.8 241.698 1108.11 234.987C1100.72 215.525 1092.66 195.392 1083.26 176.601C1073.86 157.811 1065.13 144.389 1055.06 133.651C1042.97 120.9 1028.86 114.189 1012.75 114.189C1012.07 114.189 1010.73 114.189 1010.06 114.189C995.957 114.86 982.525 119.558 969.093 128.282C950.289 140.362 932.828 154.455 915.367 167.877L903.95 176.601C887.16 189.352 871.714 204.787 857.611 221.565C841.493 241.027 831.419 264.515 822.688 286.661C808.585 321.558 789.109 353.1 761.574 383.97C750.829 396.05 739.412 410.814 734.711 430.947C734.711 433.631 733.368 434.973 731.353 436.316H650.763C650.763 436.316 648.077 432.96 647.405 431.618C641.361 414.841 630.616 400.747 614.498 388.668L607.782 383.299C593.679 372.561 578.904 361.153 566.144 348.402C546.668 328.94 529.207 307.465 512.417 281.963C497.643 259.146 480.853 241.698 461.377 226.934C452.646 220.223 443.916 212.169 433.842 201.432C417.724 184.654 402.278 165.864 387.503 147.744C382.802 141.704 378.101 136.336 373.4 130.296C359.968 113.518 349.894 98.7542 342.507 83.3189C324.374 45.7375 320.345 5.4718 319.002 -29.4252C317.658 -52.9136 320.345 -77.7442 327.732 -107.944C332.433 -126.734 336.463 -147.538 335.791 -169.013C335.12 -201.226 326.389 -230.754 310.943 -256.927C295.496 -282.429 271.991 -295.179 241.77 -295.179C240.426 -295.179 239.083 -295.179 237.069 -295.179C217.593 -294.508 197.445 -288.468 177.969 -278.402C161.851 -270.349 147.748 -259.611 130.959 -246.86C97.3794 -220.688 59.0993 -203.91 14.7748 -195.857C14.7748 -195.857 13.4316 -195.857 12.7601 -195.857C11.4169 -195.857 10.0737 -195.857 9.40215 -195.857C8.73057 -195.857 8.05899 -195.857 7.38741 -195.857V-265.651C7.38741 -265.651 9.40215 -266.993 10.0737 -266.993H6.71582C10.7453 -266.993 14.1032 -266.993 16.7896 -267.664C19.4759 -267.664 22.1622 -267.664 24.177 -268.336C38.9518 -269.007 53.055 -271.02 65.8151 -275.047C82.6046 -279.744 98.7226 -287.797 114.169 -295.179C119.542 -297.864 124.243 -299.877 128.944 -302.561C164.538 -319.339 198.117 -327.392 231.696 -327.392C241.098 -327.392 250.5 -327.392 259.902 -325.379C289.452 -321.352 312.286 -305.917 327.732 -277.731C341.164 -254.914 350.566 -227.399 357.953 -191.831C362.654 -170.355 363.326 -150.894 360.64 -132.774C358.625 -120.023 355.939 -107.944 353.252 -95.8638C351.909 -91.1661 351.238 -87.1395 349.894 -82.4418C343.179 -53.5847 341.835 -27.4119 345.193 -1.2392C352.581 52.4485 378.101 93.3854 421.754 118.887C433.171 125.598 443.916 128.953 453.318 128.953C468.093 128.953 480.853 120.9 492.941 105.465C501 94.7276 508.388 82.6478 515.104 71.2392C517.79 67.2126 520.476 62.515 522.491 58.4883C540.624 28.9601 566.144 6.14288 597.708 -9.2923C610.468 -15.3322 623.9 -20.7009 637.332 -26.0697C645.391 -29.4252 652.778 -32.1096 660.837 -35.4651C697.774 -51.5714 717.922 -77.7442 723.966 -116.668C726.652 -134.787 727.995 -153.578 727.324 -172.369C727.324 -179.08 727.324 -186.462 730.01 -193.173C733.368 -206.595 741.427 -213.977 754.187 -215.99C759.56 -217.332 765.604 -217.332 770.976 -217.332H779.035C801.198 -217.332 822.017 -227.399 836.792 -244.847C852.91 -264.309 860.297 -289.811 856.267 -315.312C851.566 -346.183 840.149 -374.369 829.404 -399.199C827.389 -403.897 825.375 -408.595 823.36 -413.292C816.644 -429.399 809.257 -445.505 804.556 -462.953C797.168 -487.784 799.183 -507.246 811.271 -524.694C817.987 -534.761 826.718 -542.814 834.777 -550.196C836.792 -552.209 839.478 -554.223 841.493 -556.236C846.194 -560.934 850.895 -565.631 856.939 -567.645M858.282 -569.658C848.208 -566.973 842.164 -557.578 834.777 -551.538C826.046 -544.156 817.316 -536.103 810.6 -526.037C797.168 -505.904 797.168 -484.429 803.884 -462.282C810.6 -440.136 820.002 -420.003 828.733 -398.528C839.478 -371.684 850.895 -344.169 854.924 -314.641C862.312 -264.98 826.718 -220.017 780.379 -220.017H772.32C766.275 -220.017 760.903 -220.017 755.53 -218.674C741.427 -215.99 733.368 -207.937 729.338 -193.844C727.324 -187.133 726.652 -179.751 726.652 -172.369C726.652 -153.578 725.98 -135.458 723.294 -116.668C717.25 -77.0731 695.759 -52.2426 661.509 -37.4785C640.69 -28.7542 619.199 -21.3721 598.38 -11.3057C566.815 4.12952 541.295 26.2758 521.819 57.1462C512.417 72.5814 503.015 89.3588 492.27 104.123C480.853 119.558 468.764 126.94 455.333 126.94C445.931 126.94 435.857 123.585 425.112 117.545C381.459 92.0432 356.61 52.4485 349.894 -0.568176C346.536 -28.0831 348.551 -54.2558 354.595 -81.0997C358.625 -97.8771 362.654 -114.654 365.341 -131.432C368.027 -151.565 366.684 -171.698 362.654 -191.159C356.61 -221.359 347.88 -250.887 332.433 -277.731C316.315 -305.246 293.481 -322.023 262.589 -326.05C253.187 -327.392 243.113 -328.063 233.711 -328.063C198.117 -328.063 163.195 -318.668 129.615 -303.233C108.796 -293.837 88.6489 -282.429 66.4866 -276.389C53.055 -272.362 38.9518 -270.349 25.5201 -269.678C19.4759 -269.678 14.1032 -268.336 8.05899 -268.336C8.05899 -268.336 4.02949 -266.993 2.68633 -265.651V-193.173C2.68633 -193.173 6.04424 -191.159 7.38741 -191.159C9.40215 -191.159 11.4169 -191.831 13.4316 -192.502C56.4129 -200.555 95.3647 -216.661 130.959 -244.176C145.733 -255.585 161.18 -266.993 177.969 -275.718C196.102 -285.113 215.578 -291.824 235.725 -292.495C237.069 -292.495 238.412 -292.495 240.426 -292.495C267.961 -292.495 290.795 -281.758 306.913 -255.585C323.031 -229.412 330.418 -200.555 331.762 -169.013C332.433 -148.209 328.404 -128.747 323.703 -109.286C317.658 -83.1129 313.629 -56.9402 314.972 -30.0963C316.987 9.49835 321.688 48.4219 339.149 83.99C347.208 101.439 358.625 116.874 370.042 131.638C390.189 155.797 408.994 180.628 430.484 202.774C439.215 212.169 448.617 220.894 458.691 228.276C478.838 243.04 494.956 261.159 509.059 282.635C525.177 306.794 542.638 328.94 563.458 349.744C578.232 364.508 595.022 377.259 611.812 390.01C625.915 400.748 637.332 414.169 644.047 431.618C645.391 434.302 647.405 436.316 649.42 438.329H732.025C732.025 438.329 736.054 434.302 736.726 430.947C741.427 412.827 751.501 398.063 762.917 385.312C788.438 356.455 809.928 324.243 824.703 287.332C834.105 264.515 844.179 241.698 859.625 222.907C873.057 206.13 888.503 191.365 905.293 178.615C926.784 161.837 947.603 145.06 970.436 130.296C982.525 122.243 995.957 117.545 1010.06 116.874C1010.73 116.874 1012.07 116.874 1012.75 116.874C1028.19 116.874 1042.3 123.585 1053.04 135.664C1064.46 147.744 1073.19 162.508 1081.25 177.944C1094.01 203.445 1103.41 230.289 1114.16 257.133C1120.87 273.91 1128.26 290.688 1136.99 306.794C1144.38 319.545 1147.06 332.967 1144.38 348.402C1140.35 371.219 1139.68 394.036 1139 416.854C1139 422.894 1140.35 428.262 1140.35 433.631C1140.35 436.316 1141.69 437.658 1143.03 439H1215.56C1215.56 439 1220.27 434.973 1221.61 431.618C1225.64 422.223 1230.34 412.156 1236.38 404.103C1252.5 380.615 1275.33 369.206 1301.53 365.179C1311.6 363.837 1322.35 365.179 1333.09 363.837C1356.6 361.824 1380.1 363.166 1403.61 357.797C1432.48 351.086 1453.3 328.94 1456.66 296.056C1458.68 279.95 1459.35 263.844 1456.66 247.738C1449.95 210.156 1425.77 182.641 1390.18 175.259C1382.12 173.246 1374.06 172.575 1366.67 172.575C1347.87 172.575 1330.4 177.272 1312.94 185.997C1296.15 194.05 1281.38 204.787 1265.26 214.183C1257.87 218.88 1250.49 222.236 1242.43 225.591C1234.37 228.947 1226.31 230.96 1218.25 230.96C1204.82 230.96 1192.73 226.934 1179.97 218.88C1163.18 208.814 1150.42 194.05 1139 177.272C1124.23 153.784 1112.81 128.282 1100.72 103.452C1096.02 93.3853 1089.98 83.9901 1082.59 75.2657C1070.5 61.1727 1055.73 56.475 1038.94 55.804C1036.92 55.804 1034.91 55.804 1032.22 55.804C1002 55.804 976.481 69.2259 953.647 89.3588C920.068 119.558 886.489 149.758 852.91 179.957C830.076 200.761 811.943 226.262 797.84 254.448C787.766 275.252 777.021 296.056 760.903 311.492C742.77 328.94 722.622 341.691 697.774 342.362H695.759C679.641 342.362 666.21 334.309 655.464 321.558C648.748 313.505 642.704 304.781 637.332 295.385C618.527 263.173 596.365 232.973 572.86 204.787C561.443 190.694 553.384 175.259 550.026 157.14C546.668 135.664 550.026 115.532 556.742 95.3987C570.173 57.1462 597.037 35.6711 631.287 22.2491C652.106 14.196 672.925 9.49835 693.745 2.11627C723.966 -8.62128 745.456 -30.0964 760.903 -58.9535C768.962 -73.0465 775.006 -88.4818 782.393 -103.246C793.81 -126.063 811.271 -143.512 830.747 -158.947C852.238 -176.395 873.729 -195.186 891.861 -216.661C909.994 -237.465 926.784 -260.282 942.23 -283.771C952.304 -299.206 961.034 -305.246 971.108 -305.246C979.167 -305.246 987.898 -301.89 998.643 -295.85C1022.15 -283.771 1037.59 -264.309 1049.68 -240.15C1062.44 -215.99 1073.86 -191.831 1083.26 -165.658C1091.32 -142.841 1096.02 -120.023 1097.37 -95.8638C1098.71 -74.3887 1098.71 -52.9136 1100.05 -31.4385C1100.05 -20.0299 1102.07 -8.62128 1105.42 2.78735C1111.47 24.2625 1126.92 36.3422 1147.06 39.0266C1156.46 40.3687 1166.54 41.7109 1175.94 41.7109C1196.76 41.7109 1217.58 37.0132 1236.38 25.6046C1257.87 12.1827 1273.99 -5.93689 1287.42 -28.0831C1305.56 -58.9535 1315.63 -93.1794 1318.99 -129.419C1321 -151.565 1321.67 -173.711 1329.73 -195.186C1335.78 -212.635 1343.84 -228.07 1359.95 -237.465C1365.33 -240.15 1370.03 -242.834 1376.07 -244.176C1378.09 -244.176 1380.1 -244.176 1382.12 -244.176C1392.19 -244.176 1399.58 -238.807 1403.61 -228.07C1408.98 -214.648 1410.99 -199.884 1413.68 -185.791C1418.38 -156.934 1424.43 -128.748 1437.86 -103.246C1447.93 -83.7841 1459.35 -65.6645 1474.12 -50.2292C1490.91 -31.4385 1509.72 -15.3322 1527.85 1.44519C1545.98 18.2226 1562.1 37.6844 1577.55 57.1462C1596.35 81.9768 1616.5 106.136 1637.99 127.611C1650.08 139.691 1662.84 151.1 1675.6 162.508C1677.61 163.85 1679.63 167.206 1682.31 167.206C1682.99 167.206 1683.66 167.206 1685 166.535V38.3555C1678.96 27.618 1670.23 20.2358 1660.82 13.5249C1642.69 0.102966 1623.21 -10.6345 1603.74 -20.701C1578.22 -33.4518 1552.7 -44.8605 1529.19 -60.9668C1496.96 -82.4419 1472.78 -110.628 1462.03 -150.223C1458.68 -162.302 1456.66 -174.382 1456.66 -187.133C1456.66 -201.226 1456.66 -215.99 1459.35 -230.083C1464.05 -255.585 1477.48 -272.362 1499.64 -282.429C1516.43 -289.811 1533.89 -293.837 1550.68 -299.206C1575.53 -306.588 1600.38 -315.312 1623.89 -328.063C1656.12 -345.512 1672.91 -373.698 1678.28 -410.608C1681.64 -436.11 1678.28 -460.269 1665.52 -483.086C1657.47 -498.522 1644.03 -507.246 1629.26 -513.957C1614.48 -520.668 1598.37 -524.023 1582.92 -528.721C1572.85 -531.405 1563.44 -534.09 1553.37 -538.116C1542.62 -542.814 1534.57 -550.867 1527.85 -560.262C1525.83 -562.947 1523.82 -565.631 1521.81 -566.973H1468.08C1464.72 -563.618 1464.72 -558.92 1464.05 -554.223C1462.71 -543.485 1460.69 -533.419 1457.33 -523.352C1453.98 -513.957 1447.93 -508.588 1439.2 -506.575C1427.78 -503.219 1417.04 -502.548 1405.62 -501.206C1388.16 -499.193 1370.7 -497.85 1353.91 -496.508C1348.54 -496.508 1342.49 -495.837 1337.12 -495.837C1308.91 -495.837 1282.72 -501.877 1259.22 -522.01C1247.13 -532.748 1238.4 -545.498 1231.01 -560.262C1229.67 -563.618 1227.65 -566.302 1224.97 -567.645H1168.55C1168.55 -567.645 1166.54 -562.276 1167.88 -559.591C1173.25 -544.827 1180.64 -530.063 1190.72 -517.983C1217.58 -487.784 1248.47 -465.638 1286.75 -455.571C1296.15 -452.887 1305.56 -452.216 1315.63 -452.216C1317.64 -452.216 1319.66 -452.216 1321.67 -452.216C1329.06 -452.216 1337.12 -452.216 1344.51 -452.216C1353.24 -452.216 1361.97 -452.216 1370.7 -450.874C1383.46 -448.86 1395.55 -446.176 1404.28 -434.767C1407.64 -430.741 1410.32 -426.043 1411.67 -420.674C1419.72 -384.435 1414.35 -341.485 1378.09 -315.983C1364.66 -306.588 1351.22 -297.864 1338.46 -287.126C1310.26 -264.309 1294.14 -233.439 1287.42 -196.528C1284.74 -179.751 1284.07 -162.973 1283.39 -146.196C1283.39 -123.379 1281.38 -100.561 1273.99 -79.0864C1265.93 -55.598 1254.52 -34.7941 1235.04 -20.0299C1222.95 -10.6346 1210.19 -5.93689 1196.09 -5.93689C1192.06 -5.93689 1187.36 -5.93689 1183.33 -7.27905C1165.87 -11.3057 1154.45 -23.3854 1147.73 -40.1628C1142.36 -53.5847 1140.35 -67.6777 1139.68 -81.7708C1136.99 -124.05 1132.29 -165.658 1124.23 -207.937C1120.87 -228.07 1118.86 -248.203 1117.51 -268.336C1114.83 -299.877 1105.42 -328.734 1085.28 -352.894C1075.2 -364.302 1064.46 -375.04 1053.71 -385.777C1039.61 -401.213 1030.21 -418.661 1024.83 -439.465C1020.13 -456.914 1016.78 -475.033 1012.07 -492.482C1005.36 -515.97 996.628 -538.116 988.569 -561.605C987.226 -564.289 985.883 -566.302 983.197 -567.645H864.998L858.282 -569.658Z" fill="#4C6F88"/>
<path d="M7.38741 39.6977C7.38741 39.6977 8.05899 39.6977 8.73057 39.6977C24.8485 41.7109 36.937 43.7242 48.3539 45.7375C94.6931 54.4618 132.973 77.9502 161.18 114.189C169.239 124.256 175.955 134.322 181.327 144.389C198.117 176.601 203.489 210.827 206.176 243.711V245.724C208.191 266.528 210.205 288.674 216.25 309.478C222.965 333.638 233.039 351.086 248.485 363.166C259.231 371.89 270.648 379.272 282.065 386.654C286.094 389.339 290.795 392.023 294.825 394.708C308.256 403.432 319.673 414.841 329.747 428.262C331.762 430.947 332.433 432.289 331.762 433.631H268.633C264.603 432.289 260.574 431.618 257.216 430.947C254.53 430.947 251.843 429.605 249.157 428.934C244.456 427.591 239.755 426.92 235.054 426.92C226.323 426.92 218.264 428.934 210.205 433.631C141.704 433.631 73.2025 433.631 5.37266 433.631C4.02949 433.631 4.02949 433.631 3.35791 433.631C3.35791 433.631 3.35791 433.631 3.35791 431.618C3.35791 422.223 3.35791 412.156 3.35791 402.761V391.352C3.35791 391.352 5.37266 390.01 7.38741 390.01C8.73057 390.01 9.40215 390.01 10.7453 390.01C16.118 390.681 21.4906 390.681 26.1917 390.681H45.6676C57.7561 390.681 70.5161 390.681 83.2762 389.339C100.066 387.997 119.542 385.312 137.674 379.272C153.121 373.904 163.195 362.495 167.224 345.047C171.253 326.256 172.597 307.465 173.268 285.99C173.94 266.528 175.283 247.738 173.268 228.276C171.253 196.063 164.538 171.233 153.121 149.758C136.331 118.887 113.497 98.0831 83.2762 87.3455C66.4866 81.3057 50.3687 80.6346 38.2802 80.6346C30.8928 80.6346 24.177 80.6346 16.7896 80.6346H12.7601C12.7601 80.6346 11.4169 80.6346 10.7453 80.6346C9.40215 80.6346 8.73057 80.6346 8.05899 80.6346C6.04424 80.6346 5.37266 80.6345 4.02949 79.2924V38.3555C4.02949 38.3555 6.04424 37.0133 7.38741 37.0133M7.38741 37.0133C7.38741 37.0133 3.35791 37.6844 1.34316 39.6977V82.6479C1.34316 82.6479 5.37266 85.3323 8.05899 85.3323C10.0737 85.3323 11.4169 85.3323 13.4316 85.3323C22.1622 85.3323 30.2212 84.6611 38.9518 84.6611C53.7266 84.6611 68.5014 86.0034 83.2762 90.701C114.169 101.439 136.331 122.243 151.778 151.771C164.538 175.93 169.91 202.103 171.925 229.618C173.268 249.08 171.925 267.87 171.925 287.332C171.253 306.794 169.91 326.256 165.881 345.718C161.851 361.824 153.121 372.561 138.346 377.93C120.885 383.97 102.752 385.983 84.6194 387.997C71.8593 389.339 59.7708 389.339 47.0108 389.339C40.2949 389.339 34.2507 389.339 27.5349 389.339C22.1622 389.339 17.4611 389.339 12.0885 388.668C10.7453 388.668 9.40215 388.668 8.73057 388.668C6.04424 388.668 4.02949 388.668 2.01475 392.023C2.01475 405.445 2.01475 419.538 2.01475 432.96C2.01475 436.987 2.68633 437.658 6.71582 437.658C75.2172 437.658 143.719 437.658 212.22 437.658C220.279 432.96 228.338 430.947 236.397 430.947C241.098 430.947 245.799 430.947 249.829 432.96C256.544 434.973 263.26 435.645 269.976 437.658H335.12C337.806 433.631 335.12 430.947 333.776 428.262C323.703 414.841 311.614 402.761 298.183 394.037C282.736 383.299 266.618 373.904 251.843 361.824C235.725 348.402 226.323 330.282 220.951 309.478C214.906 288.003 212.892 266.528 210.877 244.382C207.519 209.485 202.146 175.259 185.357 143.718C179.312 132.98 172.597 122.243 165.209 112.847C134.988 74.5947 96.0363 52.4485 50.3687 43.7243C36.937 41.0399 23.5054 39.0267 10.0737 37.6844C10.0737 37.6844 8.73057 37.6844 8.05899 37.6844H7.38741V37.0133Z" fill="#4C6F88"/>
<path d="M360.64 -566.973H385.488C385.488 -566.973 388.175 -563.618 388.846 -559.591C392.876 -540.801 400.263 -521.339 413.023 -497.85C419.067 -487.113 424.44 -476.375 430.484 -466.309C439.886 -449.532 449.289 -432.083 458.691 -415.306C469.436 -395.173 480.853 -374.369 498.314 -358.262C519.805 -338.801 540.624 -329.405 562.114 -329.405C564.129 -329.405 566.144 -329.405 568.159 -329.405C588.306 -330.747 604.424 -339.472 616.513 -356.249C631.959 -377.053 637.332 -401.884 640.69 -423.359C643.376 -440.136 644.047 -457.585 645.391 -474.362V-483.086C647.405 -508.588 651.435 -533.419 654.793 -558.249V-562.276C654.793 -562.276 656.807 -565.631 658.151 -567.644H716.578C713.892 -554.223 709.862 -541.472 703.818 -528.721C689.715 -499.864 679.641 -468.322 672.926 -432.083L671.582 -426.714C667.553 -403.226 662.852 -379.738 654.793 -356.92C650.763 -344.169 645.391 -330.747 636.66 -320.681C621.885 -304.575 603.753 -296.522 580.247 -296.522C574.874 -296.522 569.502 -296.522 563.458 -297.864C523.834 -303.904 490.255 -325.379 460.706 -364.973C447.274 -382.422 436.529 -401.884 425.783 -421.345L424.44 -424.03C420.411 -430.741 416.381 -437.452 412.352 -444.163C399.591 -466.309 386.16 -488.455 376.086 -513.286C367.356 -534.09 362.654 -550.867 360.64 -567.644M357.953 -569.658C359.968 -549.525 366.684 -530.063 374.071 -511.272C387.503 -479.731 405.636 -451.545 422.425 -422.017C433.842 -401.884 445.259 -381.751 459.362 -362.96C486.226 -326.721 520.476 -301.219 564.129 -294.508C570.173 -293.837 575.546 -293.166 581.59 -293.166C603.081 -293.166 623.228 -299.877 640.018 -317.997C649.42 -328.734 654.121 -341.485 658.822 -354.907C666.881 -379.066 671.582 -405.239 676.283 -430.07C682.328 -463.625 692.401 -495.166 707.176 -526.037C713.892 -539.458 718.593 -553.551 721.279 -568.316H658.822C658.822 -568.316 655.464 -564.289 654.793 -560.934C650.763 -534.761 646.734 -507.917 645.391 -481.073C644.047 -460.94 643.376 -441.478 640.018 -422.017C636.66 -398.528 630.616 -375.711 616.513 -356.249C604.424 -340.143 588.306 -332.09 569.502 -330.747C567.487 -330.747 565.472 -330.747 563.458 -330.747C539.281 -330.747 519.133 -342.156 501 -358.934C484.211 -374.369 472.122 -395.173 461.377 -415.306C446.602 -443.492 431.156 -470.336 415.709 -498.522C405.636 -517.983 396.234 -537.445 392.204 -558.92C391.533 -562.947 390.189 -566.973 386.831 -568.316H358.625L357.953 -569.658Z" fill="#4C6F88"/>
<path d="M108.796 -566.973H186.7C184.014 -558.249 181.999 -549.525 177.969 -541.472C163.866 -510.601 142.375 -485.1 114.169 -464.967C96.7078 -452.887 77.9035 -446.176 58.4277 -446.176C53.055 -446.176 47.0108 -446.176 41.6381 -447.518L11.4169 -452.887L4.02949 -454.229V-543.485C4.02949 -543.485 8.05899 -545.498 10.7453 -545.498C12.7601 -545.498 14.1032 -545.498 16.118 -545.498C17.4611 -545.498 18.8043 -545.498 20.1475 -545.498H26.8633C34.2507 -544.827 42.3097 -544.156 50.3687 -544.156C55.0697 -544.156 58.4277 -544.156 62.4572 -544.156C79.2467 -545.498 92.6784 -551.538 102.752 -562.276C104.767 -564.289 106.782 -565.631 108.796 -566.973ZM108.125 -569.658C108.125 -569.658 102.752 -566.302 100.737 -564.289C89.992 -552.88 76.5604 -548.183 62.4572 -546.841C58.4277 -546.841 54.3982 -546.841 50.3687 -546.841C40.2949 -546.841 30.2212 -547.512 20.1475 -548.183C17.4611 -548.183 14.1032 -548.854 10.7453 -548.854C7.38741 -548.854 4.02949 -548.854 1.34316 -545.498V-452.216C14.7748 -450.203 28.2065 -447.518 41.6381 -445.505C47.6823 -444.834 53.055 -444.163 59.0992 -444.163C79.2467 -444.163 98.7226 -450.874 116.855 -462.953C145.062 -482.415 167.224 -507.917 181.327 -540.801C185.357 -550.196 188.043 -560.262 190.729 -570.329H108.125V-569.658Z" fill="#4C6F88"/>
<path d="M1677.61 264.515V351.086C1677.61 351.086 1676.27 353.1 1676.27 354.442C1675.6 356.455 1674.25 358.468 1673.58 359.14C1664.85 366.522 1654.78 375.246 1643.36 381.957C1628.59 390.681 1611.8 396.721 1596.35 402.09C1591.65 404.103 1586.28 405.445 1581.58 407.459C1568.14 412.156 1556.73 416.854 1547.33 426.249C1543.97 429.605 1540.61 432.289 1536.58 434.302H1482.18C1483.53 408.801 1498.3 388.668 1521.13 379.944C1529.86 376.588 1538.6 373.904 1547.33 371.219C1556.73 367.864 1566.13 365.179 1575.53 361.824C1597.69 353.771 1617.17 341.691 1631.95 326.256C1641.35 316.189 1649.41 305.452 1656.79 294.043L1661.49 288.003C1661.49 288.003 1665.52 281.964 1667.54 278.608C1670.9 273.91 1673.58 269.213 1676.94 264.515M1680.3 257.133C1672.24 265.857 1666.2 276.595 1659.48 285.99C1650.08 298.741 1641.35 312.163 1630.6 323.571C1614.48 339.678 1595.68 351.086 1574.86 358.468C1556.73 365.179 1537.92 370.548 1519.79 376.588C1494.94 385.312 1479.5 408.801 1478.82 435.644H1536.58C1541.28 433.631 1544.64 430.276 1548.67 426.92C1558.74 418.196 1570.16 413.498 1582.25 408.801C1603.07 400.748 1624.56 394.708 1644.71 383.299C1656.12 376.588 1665.52 368.535 1674.93 360.482C1677.61 357.797 1678.28 354.442 1680.3 351.086V256.462V257.133Z" fill="#4C6F88"/>
<path d="M979.839 -566.973H1035.58C1035.58 -566.973 1039.61 -562.276 1040.28 -558.92V-556.907C1047 -542.814 1055.06 -530.063 1066.47 -517.983C1069.83 -514.628 1073.86 -510.601 1079.23 -510.601C1080.58 -510.601 1081.92 -510.601 1083.26 -510.601C1089.98 -513.286 1091.32 -519.326 1091.99 -524.694V-526.037C1094.01 -533.419 1094.01 -540.801 1093.34 -548.183C1093.34 -552.209 1093.34 -555.565 1093.34 -559.591V-560.934C1093.34 -560.934 1093.34 -564.96 1094.68 -566.302H1159.15C1162.51 -554.894 1167.88 -542.814 1175.94 -530.734C1188.03 -511.944 1205.49 -495.837 1229 -480.402C1251.83 -465.638 1273.99 -456.914 1296.15 -454.9C1304.88 -454.229 1313.61 -453.558 1319.66 -453.558C1323.02 -453.558 1327.05 -453.558 1330.4 -453.558H1348.54C1360.63 -453.558 1370.03 -452.216 1378.09 -449.532C1393.53 -444.834 1402.94 -434.096 1405.62 -417.319C1407.64 -406.581 1408.31 -395.844 1406.96 -381.751C1404.95 -356.249 1394.88 -336.116 1375.4 -320.681C1368.01 -314.641 1359.95 -309.272 1351.9 -303.904C1347.87 -301.219 1343.84 -297.864 1339.14 -295.179C1308.24 -273.033 1288.77 -241.492 1280.71 -202.568C1277.35 -184.449 1276.68 -166.329 1276.01 -148.88C1276.01 -142.841 1276.01 -136.13 1275.33 -130.09C1273.99 -101.233 1267.95 -78.4153 1257.87 -58.9535C1241.76 -28.7542 1222.28 -12.6478 1196.09 -7.95013C1193.4 -7.95013 1190.72 -7.95013 1188.03 -7.95013C1165.87 -7.95013 1146.39 -22.7143 1139.68 -44.8605C1133.63 -62.98 1132.29 -81.7708 1130.94 -98.5482V-109.286C1128.93 -126.063 1127.59 -142.841 1124.9 -159.618C1118.86 -195.857 1112.14 -238.136 1108.11 -280.415C1104.75 -311.957 1092.66 -340.143 1070.5 -362.96C1067.14 -366.316 1063.11 -370.342 1059.76 -373.698C1053.71 -379.738 1047.67 -385.777 1041.62 -392.488C1033.57 -401.213 1026.85 -411.95 1022.82 -423.359C1016.78 -438.794 1013.42 -455.571 1009.39 -471.678C1003.34 -498.522 993.942 -524.023 985.211 -548.854C983.197 -554.894 980.51 -561.605 978.495 -567.645M975.809 -569.658C987.226 -536.774 1000.66 -505.233 1008.05 -471.007C1011.4 -454.229 1015.43 -438.123 1021.48 -422.017C1026.18 -409.937 1032.22 -399.87 1040.95 -390.475C1050.35 -380.409 1059.76 -370.342 1069.16 -360.947C1090.65 -338.801 1103.41 -311.957 1106.1 -280.415C1110.13 -240.15 1116.17 -199.884 1122.89 -159.618C1126.24 -139.485 1127.59 -118.681 1128.93 -98.5482C1130.27 -80.4286 1131.62 -61.6379 1137.66 -44.1894C1145.05 -20.701 1165.87 -5.93689 1188.7 -5.93689C1191.39 -5.93689 1194.07 -5.93683 1197.43 -6.60791C1227.65 -11.9767 1247.13 -32.1096 1261.23 -58.9535C1273.32 -81.0997 1278.02 -105.259 1279.36 -130.761C1280.71 -154.92 1280.04 -179.08 1284.74 -203.239C1292.12 -242.163 1311.6 -272.362 1341.82 -294.508C1353.91 -303.233 1366 -311.286 1378.09 -320.681C1397.56 -336.116 1408.98 -356.92 1410.99 -383.764C1411.67 -395.844 1411.67 -407.924 1409.65 -420.003C1406.29 -438.123 1395.55 -448.86 1380.1 -454.229C1370.03 -457.585 1359.95 -458.256 1349.88 -458.256C1347.19 -458.256 1345.18 -458.256 1342.49 -458.256C1335.11 -458.256 1328.39 -458.256 1321 -458.256C1312.94 -458.256 1305.56 -458.256 1297.5 -458.927C1273.32 -461.611 1251.83 -471.007 1231.68 -484.429C1211.53 -497.851 1192.73 -513.286 1179.3 -534.09C1171.91 -545.498 1165.87 -557.578 1162.51 -571H1094.68C1094.68 -571 1091.99 -564.96 1091.99 -561.605C1091.99 -550.196 1093.34 -539.458 1090.65 -528.05C1089.31 -522.681 1089.31 -516.641 1083.26 -514.628C1081.92 -514.628 1081.25 -514.628 1079.9 -514.628C1075.2 -514.628 1071.85 -517.983 1069.16 -521.339C1058.41 -532.748 1050.35 -544.827 1044.31 -558.92C1042.3 -563.618 1041.62 -568.316 1036.92 -571H976.481L975.809 -569.658Z" fill="#4C6F88"/>
<path d="M1010.06 114.86C1021.48 114.86 1031.55 118.216 1040.28 124.927C1049.01 131.638 1056.4 140.362 1064.46 151.771C1079.9 175.259 1089.98 201.432 1100.05 227.605L1102.74 234.316V237C1112.81 259.817 1122.21 283.977 1134.3 306.123C1141.69 318.874 1143.7 332.296 1141.02 346.389C1137.66 367.193 1135.65 390.681 1135.65 416.183C1135.65 418.867 1135.65 422.223 1135.65 424.907C1135.65 427.591 1135.65 430.947 1135.65 434.302H1057.74C1057.74 434.302 1053.04 428.934 1051.03 425.578C1050.35 424.236 1049.68 422.894 1049.01 421.552C1040.95 408.801 1033.57 396.721 1028.86 382.628C1016.1 345.718 1012.07 304.781 1015.43 257.804V251.093C1016.78 239.013 1018.12 226.262 1015.43 213.512C1012.75 194.721 998.643 181.97 981.182 181.97C979.167 181.97 977.824 181.97 975.809 181.97C956.333 184.654 936.857 192.037 914.695 205.458C902.607 212.841 891.861 222.236 882.459 232.973C867.684 250.422 856.267 271.897 848.88 296.728C835.448 343.704 824.703 385.983 817.316 425.578V426.92C816.644 430.276 815.973 432.96 813.958 433.631H730.682C734.039 420.209 738.069 409.472 744.785 400.747C752.172 390.01 760.231 380.615 767.619 371.89C782.393 354.442 793.81 338.336 803.212 320.887C810.6 307.465 816.644 293.372 822.688 279.95C826.718 271.226 830.747 261.831 834.777 253.106C845.522 230.96 860.297 211.498 880.444 193.379C905.965 170.561 934.171 149.757 960.363 131.638C971.108 123.585 981.853 118.887 993.27 116.203C998.643 114.86 1004.02 114.189 1008.72 114.189M1010.06 112.176C1004.69 112.176 999.314 112.847 993.942 114.189C981.853 116.874 970.436 122.242 960.363 129.625C932.828 149.086 905.293 169.219 879.773 192.037C860.969 208.814 844.851 228.947 833.434 252.435C822.688 275.252 813.958 298.741 801.869 320.216C791.796 338.336 779.707 355.113 766.947 370.548C758.888 379.943 750.829 389.339 744.113 399.405C736.054 410.814 732.025 422.894 729.338 436.316H816.644C820.674 434.302 821.345 430.276 822.017 426.249C830.076 382.628 841.493 340.349 853.581 298.07C860.297 274.581 871.042 253.106 886.489 234.987C895.891 224.249 906.636 215.525 918.053 208.143C936.857 196.734 956.333 188.01 978.495 184.654C979.839 184.654 981.853 184.654 983.197 184.654C999.315 184.654 1012.07 196.063 1014.76 214.183C1017.45 228.947 1014.76 243.04 1014.76 257.804C1011.4 300.754 1014.09 343.033 1028.19 383.97C1032.89 398.063 1040.95 410.814 1049.01 423.565C1051.7 428.262 1054.38 434.302 1059.09 436.987H1140.35C1140.35 429.605 1139 422.894 1139 416.183C1139 392.694 1140.35 369.206 1144.38 346.389C1147.06 331.625 1144.38 317.532 1136.99 304.11C1124.9 281.292 1115.5 257.133 1106.1 232.973C1094.68 204.787 1084.61 175.93 1067.82 150.429C1061.1 139.691 1053.04 130.296 1042.97 122.914C1032.89 115.532 1022.15 112.176 1010.73 112.176H1010.06Z" fill="#4C6F88"/>
<path d="M235.725 429.605C243.784 429.605 251.172 430.947 258.559 434.302H216.921C216.921 434.302 220.951 431.618 222.965 430.947C226.995 430.276 231.696 429.605 235.725 429.605ZM235.725 426.92C231.024 426.92 226.995 426.92 222.294 428.262C217.593 428.934 214.235 432.96 210.877 436.987H268.633C257.888 430.276 247.142 426.92 235.054 426.92H235.725Z" fill="#4C6F88"/>
<path d="M1362.64 208.814V211.498C1380.1 211.498 1393.53 218.88 1402.94 233.644C1413.68 250.422 1415.02 285.319 1388.83 305.452C1375.4 316.189 1359.28 318.203 1344.51 318.203C1323.69 318.203 1306.9 313.505 1292.8 306.123C1286.08 302.767 1280.04 298.741 1278.69 290.688C1277.35 281.292 1278.69 272.568 1283.39 265.186C1287.42 258.475 1291.45 253.106 1296.15 247.738C1314.29 225.591 1333.09 214.183 1354.58 212.169C1357.27 212.169 1359.95 212.169 1362.64 212.169V209.485M1362.64 208.814C1362.64 208.814 1357.27 208.814 1353.91 208.814C1329.06 212.169 1310.26 226.262 1294.14 245.724C1289.44 251.093 1285.41 257.133 1281.38 263.173C1276.01 271.226 1274.66 281.292 1276.01 290.688C1277.35 299.412 1284.74 304.11 1291.45 308.136C1308.24 316.86 1326.38 319.545 1344.51 320.216C1360.63 320.216 1376.74 317.532 1390.18 306.794C1417.04 285.99 1416.37 249.751 1404.95 231.631C1394.2 214.854 1379.43 208.814 1362.64 208.814Z" fill="#4C6F88"/>
<path d="M1369.36 -98.5482C1369.36 -98.5482 1374.73 -97.8771 1378.09 -95.8638C1387.49 -91.1662 1394.2 -82.4419 1400.92 -74.3887L1404.28 -70.3622C1419.72 -50.9004 1436.51 -30.0964 1453.98 -10.6346C1459.35 -4.59473 1464.72 0.774048 1470.09 6.81396C1490.91 28.9601 1513.08 51.7774 1531.21 77.2791C1541.28 91.3721 1552.03 104.794 1562.1 118.216C1576.2 137.007 1590.98 155.797 1604.41 175.93C1618.51 196.734 1623.89 214.183 1621.2 232.973C1615.83 273.239 1591.65 303.438 1557.4 311.492C1552.7 312.834 1548 313.505 1543.3 313.505C1531.21 313.505 1509.72 309.478 1500.99 280.621C1497.63 269.884 1494.94 259.146 1492.93 248.409C1491.58 243.04 1490.24 237.671 1488.9 231.631C1479.5 193.379 1460.02 167.206 1429.8 153.113C1406.97 142.375 1382.12 137.007 1353.91 137.007C1343.16 137.007 1331.75 137.678 1320.33 139.02C1299.51 141.704 1280.71 150.429 1262.57 158.482C1250.49 163.85 1237.05 169.219 1222.28 169.89C1199.45 169.89 1175.94 150.429 1169.9 126.94C1166.54 114.86 1171.24 102.781 1181.31 95.3986C1188.7 90.0298 1197.43 85.3322 1206.83 81.9767C1241.08 69.897 1269.96 47.0797 1292.8 12.1827C1306.23 -7.9502 1318.99 -29.4253 1333.76 -56.2691L1336.45 -61.6379C1342.49 -73.0465 1348.54 -83.7841 1357.27 -93.1794C1361.3 -97.206 1364.66 -99.2193 1368.01 -99.2193M1369.36 -101.233C1364.66 -101.233 1361.3 -99.2193 1356.6 -94.5216C1346.52 -83.7841 1339.81 -70.3622 1333.09 -57.6113C1320.33 -34.123 1306.9 -11.3057 1292.12 10.8405C1270.63 43.0531 1243.1 67.2126 1207.51 79.9634C1198.1 83.3189 1189.37 87.3455 1181.31 93.3853C1170.57 101.438 1165.2 114.189 1169.22 127.611C1175.27 152.442 1200.12 172.575 1223.62 172.575C1238.4 172.575 1251.83 167.206 1265.26 161.166C1284.07 153.113 1302.2 144.389 1322.35 141.704C1333.76 140.362 1344.51 139.691 1355.92 139.691C1381.44 139.691 1406.97 144.389 1431.14 155.797C1462.03 170.561 1480.17 198.076 1488.9 232.302C1492.93 248.409 1496.29 265.186 1500.99 281.292C1508.37 306.123 1526.51 315.518 1545.31 315.518C1550.01 315.518 1555.38 315.518 1560.09 313.505C1598.37 304.11 1621.2 270.555 1625.9 232.302C1628.59 210.156 1620.53 190.694 1608.44 173.246C1585.61 139.02 1559.41 108.149 1535.24 75.2657C1511.73 43.0531 1484.2 15.5382 1457.33 -12.6479C1439.87 -31.4385 1423.75 -51.5715 1407.64 -72.3755C1399.58 -82.4419 1392.19 -93.1794 1380.77 -99.2193C1376.74 -101.233 1374.06 -101.904 1370.7 -101.904L1369.36 -101.233Z" fill="#4C6F88"/>
<path d="M984.54 183.983C991.927 183.983 997.971 186.668 1004.02 192.036C1016.1 204.116 1016.78 218.88 1016.1 236.329C1016.1 243.711 1015.43 251.093 1014.76 258.475C1014.76 267.199 1013.42 275.924 1012.75 284.648C1012.75 302.767 1014.09 320.887 1016.1 336.993C1020.13 365.85 1028.19 390.01 1040.95 410.814C1042.3 412.827 1043.64 414.84 1044.31 416.183C1047.67 421.551 1051.7 427.591 1054.38 434.302H819.331C824.703 402.09 832.762 370.548 840.821 339.678L845.522 322.229C854.924 285.99 867.684 249.08 897.906 222.907C924.097 200.09 950.961 188.01 980.51 184.654C981.853 184.654 983.197 184.654 983.868 184.654M984.54 181.299C984.54 181.299 981.853 181.299 980.51 181.299C948.946 184.654 920.739 198.747 896.562 220.223C866.341 246.395 852.91 282.635 843.507 320.887C834.105 358.468 824.031 395.379 817.316 433.631C817.316 434.302 817.316 435.645 816.644 436.316L1058.41 436.316C1055.06 425.578 1049.01 417.525 1043.64 408.801C1030.21 386.654 1022.82 361.824 1019.46 336.322C1016.78 318.874 1015.43 301.425 1015.43 283.977C1015.43 267.87 1018.12 251.764 1018.79 235.658C1018.79 218.88 1018.79 202.103 1006.03 189.352C999.986 183.312 992.599 180.628 985.211 180.628L984.54 181.299Z" fill="#4C6F88"/>
<path d="M1599.71 -272.362C1609.78 -272.362 1620.53 -271.691 1631.95 -269.678C1642.02 -268.336 1652.09 -264.309 1662.17 -260.954C1666.87 -258.94 1672.24 -256.927 1677.61 -255.585V-99.8904C1670.9 -97.8771 1663.51 -96.5349 1656.79 -94.5216C1637.32 -89.8239 1619.19 -87.1396 1602.4 -87.1396C1586.95 -87.1396 1572.17 -89.1529 1558.07 -93.1794C1525.83 -102.575 1489.57 -134.787 1485.54 -177.738C1482.85 -211.292 1496.29 -240.821 1522.48 -253.571C1546.65 -265.651 1571.5 -271.691 1600.38 -271.691M1599.71 -275.047C1572.85 -275.047 1545.98 -269.678 1520.46 -256.256C1492.26 -242.163 1479.5 -210.621 1482.18 -177.738C1486.21 -136.13 1520.46 -101.233 1556.73 -91.1661C1571.5 -87.1395 1586.95 -85.1263 1601.72 -85.1263C1619.86 -85.1263 1638.66 -87.8107 1656.79 -92.5083C1664.18 -94.5216 1672.24 -96.5349 1679.63 -98.5482V-258.269C1663.51 -262.967 1648.73 -271.02 1631.95 -273.033C1621.2 -274.375 1610.45 -275.718 1599.71 -275.718V-275.047Z" fill="#4C6F88"/>
<path d="M53.7266 119.558C59.0992 119.558 63.8003 119.558 68.5014 120.9C102.752 126.94 125.586 150.429 136.331 189.352C143.047 214.183 142.375 241.698 134.316 273.239C125.586 307.465 106.11 328.269 75.2172 336.322C53.7266 342.362 32.236 342.362 6.71582 342.362H4.02949V291.359C4.02949 291.359 6.71582 290.017 9.40215 290.017H10.0737C10.0737 290.017 14.1032 290.017 16.118 290.017H19.4759C26.8633 290.017 33.5791 290.017 40.9665 288.674C79.2467 281.963 102.752 251.093 101.409 210.827C100.737 185.326 85.291 167.206 62.4572 163.179C59.7708 163.179 57.0845 163.179 54.3982 163.179C51.0403 163.179 47.6823 163.179 44.3244 163.85C32.236 165.864 21.4906 169.219 8.73057 172.575H8.05899C8.05899 172.575 6.04424 173.246 5.37266 173.246C5.37266 173.246 4.70108 173.246 4.02949 173.246V126.94C10.0737 126.269 16.7896 124.927 22.8338 123.585C30.8928 122.242 42.3097 120.229 53.055 120.229M53.7266 116.874C43.6528 116.874 32.9075 118.216 22.8338 120.229C16.118 121.571 8.73057 122.914 1.34316 123.585V173.246C1.34316 173.246 4.02949 175.259 5.37266 175.259C6.71582 175.259 8.05899 175.259 10.0737 173.917C21.4906 170.561 33.5791 166.535 44.996 165.193C48.3539 165.193 51.7118 164.522 55.0698 164.522C57.7561 164.522 59.7708 164.522 62.4572 164.522C84.6194 167.877 98.7226 185.326 99.3942 209.485C100.737 248.409 77.9035 277.937 40.9665 284.648C34.2507 285.99 26.8633 285.99 20.1475 285.99H16.7896C16.7896 285.99 12.7601 285.99 10.7453 285.99C7.38741 285.99 4.02949 285.99 2.01475 289.345V344.375H7.38741C30.8928 344.375 53.7266 344.375 76.5604 337.664C108.796 328.94 128.944 306.794 137.674 272.568C145.062 244.382 147.077 215.525 139.689 187.339C129.615 149.757 107.453 123.585 69.8446 116.874C64.4719 116.203 59.7708 115.532 54.3982 115.532L53.7266 116.874Z" fill="#4C6F88"/>
<path d="M1157.14 -442.821V-440.136C1177.96 -440.136 1196.09 -433.425 1218.25 -424.701C1243.1 -414.635 1272.65 -403.226 1302.87 -396.515C1307.57 -395.844 1313.61 -394.502 1317.64 -391.817C1329.73 -383.764 1331.75 -378.395 1326.38 -365.645C1324.36 -360.276 1321.67 -356.249 1318.99 -352.894L1316.3 -349.538C1308.24 -339.472 1300.18 -329.405 1292.12 -318.668C1270.63 -291.153 1255.86 -264.98 1247.13 -236.794C1239.74 -214.648 1237.05 -189.146 1238.4 -160.96C1238.4 -156.262 1238.4 -151.565 1238.4 -147.538C1238.4 -139.485 1238.4 -133.445 1238.4 -127.405C1238.4 -113.983 1236.38 -98.5482 1229 -83.7841C1224.97 -75.7309 1219.59 -69.0199 1212.88 -64.3223C1208.18 -60.9668 1202.8 -58.9535 1198.1 -58.9535C1188.03 -58.9535 1179.3 -66.3356 1174.6 -79.0864C1169.9 -91.1661 1169.22 -104.588 1168.55 -118.01V-120.694C1168.55 -130.761 1168.55 -140.827 1168.55 -150.894C1168.55 -161.631 1168.55 -173.04 1168.55 -184.449C1167.21 -209.95 1167.21 -236.123 1167.21 -260.954V-275.718C1167.21 -290.482 1165.87 -305.917 1162.51 -324.708C1160.49 -338.13 1157.14 -351.552 1153.78 -364.302C1151.76 -371.013 1150.42 -377.724 1149.08 -383.764C1148.41 -387.12 1147.73 -389.804 1146.39 -393.159C1143.7 -403.226 1141.02 -413.292 1141.69 -424.03C1141.69 -430.741 1144.38 -438.123 1155.12 -438.794H1158.48V-441.478M1157.14 -442.821C1157.14 -442.821 1154.45 -442.821 1153.11 -442.821C1143.03 -442.821 1137.66 -436.11 1136.99 -426.043C1136.99 -411.95 1141.02 -398.528 1144.38 -385.106C1149.08 -365.645 1155.12 -346.183 1158.48 -326.05C1161.17 -309.944 1163.18 -293.837 1163.18 -277.06C1163.18 -246.86 1163.18 -215.99 1164.52 -185.791C1165.87 -164.316 1164.52 -143.512 1165.87 -122.037C1166.54 -107.944 1167.21 -93.1794 1171.91 -79.7575C1177.28 -64.9933 1187.36 -57.6113 1198.1 -57.6113C1203.48 -57.6113 1208.85 -59.6246 1214.22 -62.9801C1221.61 -67.6777 1226.98 -75.0598 1231.68 -83.113C1239.07 -97.206 1241.08 -112.641 1241.76 -128.076C1241.76 -137.472 1241.76 -147.538 1241.76 -161.631C1241.08 -183.777 1242.43 -210.621 1250.49 -236.794C1259.89 -266.993 1276.01 -293.166 1294.81 -317.326C1303.54 -328.734 1312.94 -340.143 1321.67 -351.551C1325.03 -355.578 1327.05 -360.276 1329.06 -364.973C1334.43 -378.395 1333.09 -385.777 1318.99 -394.502C1314.29 -397.186 1308.91 -398.528 1303.54 -399.87C1274.66 -406.581 1246.46 -416.648 1218.92 -428.056C1198.77 -436.11 1178.63 -444.163 1156.46 -444.163L1157.14 -442.821Z" fill="#4C6F88"/>
<path d="M55.7413 164.522C55.7413 164.522 57.0845 164.522 57.7561 164.522C75.8888 164.522 90.6636 177.272 96.7078 195.392C102.081 214.183 99.3942 235.658 89.3204 253.106C79.9183 269.884 64.4719 281.292 47.0108 285.319C36.937 287.332 26.8633 288.003 16.118 288.003H11.4169C11.4169 288.003 6.71582 288.003 4.02949 288.003V175.93C4.02949 175.93 8.05899 174.588 10.7453 173.917H12.7601C26.8633 169.219 40.9665 164.522 56.4129 164.522M55.7413 161.837C39.6234 161.837 24.8485 166.535 9.40215 171.232C6.71582 171.904 4.02949 172.575 1.34316 173.246V290.017C1.34316 290.017 8.05899 290.017 11.4169 290.017H16.118C26.8633 290.017 36.937 290.017 47.6823 287.332C86.6341 278.608 111.483 233.644 99.3942 194.05C93.35 175.259 77.232 162.508 58.4277 161.837C57.7561 161.837 57.0845 161.837 55.7413 161.837Z" fill="#4C6F88"/>
<path d="M425.783 -283.771C425.783 -283.771 430.484 -283.771 433.171 -282.429C445.931 -279.073 457.348 -271.691 468.764 -264.309L471.451 -262.296C495.628 -246.86 519.133 -231.425 541.967 -215.99C557.413 -205.924 572.86 -195.186 584.948 -181.093C597.708 -166.329 603.753 -151.565 602.409 -134.787C603.081 -122.037 599.051 -110.628 588.978 -99.2193C576.218 -85.1263 560.1 -75.0598 548.011 -68.3489L538.609 -62.9801C520.476 -52.9136 501.672 -42.1761 484.211 -30.0964C476.823 -24.7276 470.108 -20.701 464.063 -18.0166C460.034 -16.0034 456.676 -15.3322 453.318 -15.3322C444.588 -15.3322 438.543 -22.7144 437.872 -34.7941C437.872 -42.1761 437.872 -50.2292 439.886 -59.6246C444.588 -89.1528 443.244 -115.997 437.2 -142.169C434.514 -154.249 430.484 -167 427.126 -178.409C423.097 -191.831 419.067 -205.253 416.381 -219.346C413.695 -232.767 411.008 -247.532 411.008 -262.296C411.008 -275.047 416.381 -281.758 425.783 -281.758M425.783 -286.455C415.038 -286.455 408.994 -279.073 408.322 -264.309C408.322 -249.545 410.337 -234.781 413.695 -220.017C419.739 -193.844 428.47 -169.013 434.514 -142.841C441.23 -115.997 441.23 -88.4818 437.2 -60.9668C435.857 -52.9136 434.514 -44.1894 435.185 -35.4651C435.185 -21.3721 442.573 -13.319 453.318 -13.319C456.676 -13.319 460.705 -13.9901 464.735 -16.0034C472.122 -19.3588 478.838 -24.0565 485.554 -28.7542C505.702 -42.8472 527.192 -54.9269 548.683 -67.0067C564.129 -75.7309 578.232 -85.1263 590.321 -98.5482C599.723 -109.286 605.767 -120.694 604.424 -135.459C605.096 -154.92 597.708 -170.355 586.291 -183.106C573.531 -197.199 558.085 -207.937 542.639 -218.003C519.133 -233.439 496.299 -249.545 472.122 -264.309C460.034 -272.362 447.274 -280.415 433.171 -283.771C430.484 -284.442 427.126 -285.113 425.112 -285.113L425.783 -286.455Z" fill="#4C6F88"/>
<path d="M924.097 288.674C924.097 288.674 928.127 290.017 930.813 292.03C939.544 300.754 942.23 316.189 936.186 326.927C932.156 334.309 928.127 337.664 922.083 338.336C919.396 338.336 916.71 336.993 914.024 334.98C906.636 328.94 905.965 320.216 906.636 314.847C906.636 304.781 912.68 294.043 918.725 290.017C920.739 288.674 922.083 288.674 924.097 288.674ZM924.097 285.99C924.097 285.99 920.068 286.661 917.381 288.003C905.293 294.714 895.891 324.242 912.68 336.993C915.367 339.678 918.725 340.349 922.083 341.02C930.142 340.349 934.843 334.309 938.201 328.269C944.916 316.86 941.558 299.412 932.156 290.688C929.47 288.003 926.784 286.661 924.097 286.661V285.99Z" fill="#4C6F88"/>
<path d="M461.377 417.525C461.377 417.525 467.421 417.525 470.779 419.538C480.181 422.894 487.569 428.262 492.941 434.973H441.901C441.901 434.973 441.901 434.302 441.901 433.631C444.587 426.249 449.96 417.525 461.377 417.525ZM461.377 414.841C451.303 414.841 443.916 420.88 439.886 432.289C439.886 434.302 438.543 435.644 437.872 436.987L498.314 436.987C491.598 426.92 482.868 420.209 472.122 416.854C468.764 415.512 465.407 414.841 462.049 414.841H461.377Z" fill="#4C6F88"/>
<path d="M228.338 -201.226C235.725 -201.226 243.113 -197.199 247.814 -189.146C250.5 -185.12 251.843 -181.093 253.187 -175.053C255.873 -160.96 254.53 -146.196 253.187 -132.103C253.187 -128.076 252.515 -124.05 251.843 -120.023C249.829 -97.8771 249.157 -79.7575 250.5 -63.6512V-50.9003C252.515 -33.4518 253.858 -16.0034 253.858 1.44513C253.858 21.578 251.843 38.3555 246.471 53.1196C242.441 63.186 237.069 68.5547 228.338 68.5547C225.652 68.5547 222.965 68.5547 220.279 67.2125C211.548 64.5281 202.818 59.8305 192.744 53.1196L189.386 50.4351C163.194 32.3156 137.003 12.8538 110.811 -5.93695C101.409 -12.6479 92.0068 -20.0299 84.6194 -29.4253C65.8151 -52.2426 65.1435 -71.7043 80.5899 -93.1794C85.291 -99.2193 90.6636 -104.588 96.7078 -109.286C107.453 -117.339 118.198 -125.392 128.272 -132.774C146.405 -146.196 165.209 -159.618 182.67 -175.053C192.744 -183.777 205.504 -193.844 221.622 -199.213C224.308 -199.884 226.995 -200.555 229.681 -200.555M228.338 -203.91C228.338 -203.91 222.294 -203.91 219.607 -202.568C204.833 -197.87 192.073 -188.475 179.984 -177.738C152.449 -153.578 122.228 -134.116 93.3499 -111.97C87.3057 -107.272 81.2615 -101.904 76.5604 -95.1927C58.4277 -71.0333 63.1287 -49.5582 80.5899 -28.0831C88.6489 -18.6877 98.051 -11.3057 107.453 -4.59473C134.988 15.5381 162.523 35 190.058 54.4618C198.788 60.5016 208.191 65.8704 218.264 69.2259C221.622 69.897 224.308 70.5681 226.995 70.5681C236.397 70.5681 243.784 64.5282 247.814 53.7906C253.858 37.0132 255.873 18.8936 255.201 1.44513C255.201 -20.03 253.187 -42.1761 251.843 -63.6512C250.5 -82.4419 251.843 -101.233 253.187 -120.023C254.53 -138.814 258.559 -156.934 255.201 -175.724C254.53 -181.093 252.515 -186.462 249.829 -191.159C244.456 -199.213 237.069 -203.91 228.338 -203.91Z" fill="#4C6F88"/>
<path d="M957.005 -144.854C957.005 -144.854 961.706 -144.854 964.392 -143.512H965.735C976.481 -140.827 986.554 -133.445 992.599 -122.708C998.643 -111.299 1000.66 -98.5482 996.628 -87.1395C993.27 -77.0731 987.898 -68.3488 980.51 -60.2957C973.123 -52.2425 965.735 -45.5316 958.348 -38.1495C954.318 -34.1229 950.289 -30.0963 946.259 -26.0698C924.097 -3.92358 901.935 21.5781 875.072 54.4618C860.969 71.9103 843.507 91.3721 820.002 104.794C805.899 113.518 793.139 117.545 780.379 118.216C779.707 118.216 779.035 118.216 778.364 118.216C770.977 118.216 765.604 115.532 762.246 110.163C758.216 104.123 759.56 98.7541 762.917 90.7009C766.275 83.3189 770.305 75.2658 775.006 68.5548C799.183 37.6844 817.987 4.12958 830.747 -32.1096C840.15 -58.2824 852.238 -79.0864 868.356 -94.5216C884.474 -111.299 903.95 -125.392 924.769 -136.13C936.186 -142.169 946.26 -144.854 955.662 -145.525C955.662 -145.525 956.333 -145.525 957.005 -145.525M957.005 -147.538C957.005 -147.538 955.662 -147.538 954.99 -147.538C943.573 -147.538 932.828 -142.841 922.754 -137.472C901.935 -126.063 883.131 -112.641 865.67 -95.1927C848.208 -77.7442 836.12 -55.598 827.389 -31.4385C814.629 5.4718 795.825 38.3555 772.32 68.5548C766.947 75.2658 763.589 82.6478 759.56 90.7009C756.202 98.083 753.515 105.465 758.888 112.847C763.589 119.558 770.305 121.571 777.021 121.571C777.692 121.571 778.364 121.571 779.707 121.571C794.482 120.9 807.914 114.86 820.002 107.478C841.493 94.7275 858.954 76.608 875.743 56.4751C898.577 28.9601 922.083 1.44519 946.931 -23.3854C958.348 -34.794 970.436 -45.5316 981.182 -57.6113C988.569 -65.6645 993.942 -75.0598 997.971 -85.7974C1006.03 -110.628 989.912 -140.156 965.064 -145.525C961.706 -146.196 959.02 -147.538 955.662 -147.538H957.005Z" fill="#4C6F88"/>
<path d="M1376.74 -3.92358C1383.46 -3.92358 1391.52 -1.23926 1400.92 5.47174C1422.41 20.2358 1440.54 38.3555 1454.65 60.5016C1462.03 71.9103 1466.06 81.3056 1468.08 90.7009C1468.75 94.7275 1468.08 98.7541 1466.06 101.438C1464.05 104.123 1461.36 106.136 1458.01 106.807C1453.3 107.478 1449.27 108.149 1445.25 108.149C1445.25 108.149 1443.9 108.149 1443.23 108.149C1422.41 106.807 1402.26 104.123 1383.46 100.767C1368.68 98.083 1352.57 94.7275 1338.46 86.6744C1327.72 80.6345 1323.02 69.2259 1326.38 56.4751C1330.4 40.3688 1337.12 26.2757 1345.85 16.2092C1357.27 2.11621 1366.67 -3.92358 1376.74 -3.92358ZM1376.74 -6.60797C1365.33 -6.60797 1354.58 0.774048 1343.84 14.196C1333.76 26.2757 1327.72 40.3687 1323.69 55.804C1320.33 69.897 1325.7 81.9767 1337.12 88.6877C1351.22 96.7409 1366.67 100.096 1382.79 103.452C1402.94 106.807 1423.08 109.492 1443.23 110.834C1443.9 110.834 1444.57 110.834 1445.25 110.834C1449.95 110.834 1453.98 110.163 1458.68 109.492C1467.41 108.149 1472.78 99.4252 1470.77 90.7009C1468.75 79.2923 1463.38 69.2259 1456.66 59.8305C1441.89 37.6843 1423.75 18.8937 1402.26 4.12958C1392.86 -2.58136 1384.13 -5.93689 1376.74 -5.93689V-6.60797Z" fill="#4C6F88"/>
</g>
</svg>
