<svg width="15" height="20" viewBox="0 0 15 20" fill="none" xmlns="http://www.w3.org/2000/svg">
<path d="M7.68387 13.7701C8.77913 13.7689 9.82921 13.3333 10.6037 12.5589C11.3782 11.7844 11.8138 10.7343 11.8149 9.63905V4.13102C11.8149 3.03541 11.3797 1.98467 10.6049 1.20995C9.83022 0.435231 8.77948 0 7.68387 0C6.58825 0 5.53751 0.435231 4.76279 1.20995C3.98808 1.98467 3.55284 3.03541 3.55284 4.13102V9.63905C3.55398 10.7343 3.98958 11.7844 4.76405 12.5589C5.53852 13.3333 6.5886 13.7689 7.68387 13.7701ZM4.92985 4.13102C4.92985 3.40061 5.22001 2.70012 5.73648 2.18364C6.25296 1.66716 6.95346 1.37701 7.68387 1.37701C8.41428 1.37701 9.11477 1.66716 9.63125 2.18364C10.1477 2.70012 10.4379 3.40061 10.4379 4.13102V9.63905C10.4379 10.3695 10.1477 11.07 9.63125 11.5864C9.11477 12.1029 8.41428 12.3931 7.68387 12.3931C6.95346 12.3931 6.25296 12.1029 5.73648 11.5864C5.22001 11.07 4.92985 10.3695 4.92985 9.63905V4.13102ZM8.37237 16.4897V19.2781C8.37237 19.4607 8.29983 19.6358 8.17071 19.765C8.04159 19.8941 7.86647 19.9666 7.68387 19.9666C7.50126 19.9666 7.32614 19.8941 7.19702 19.765C7.0679 19.6358 6.99536 19.4607 6.99536 19.2781V16.4897C5.29789 16.3169 3.72477 15.5209 2.5802 14.2555C1.43563 12.9901 0.800925 11.3453 0.798828 9.63905C0.798828 9.45645 0.871367 9.28133 1.00049 9.15221C1.12961 9.02309 1.30473 8.95055 1.48733 8.95055C1.66993 8.95055 1.84506 9.02309 1.97418 9.15221C2.1033 9.28133 2.17584 9.45645 2.17584 9.63905C2.17584 11.0999 2.75614 12.5009 3.7891 13.5338C4.82206 14.5668 6.22305 15.1471 7.68387 15.1471C9.14469 15.1471 10.5457 14.5668 11.5786 13.5338C12.6116 12.5009 13.1919 11.0999 13.1919 9.63905C13.1919 9.45645 13.2644 9.28133 13.3936 9.15221C13.5227 9.02309 13.6978 8.95055 13.8804 8.95055C14.063 8.95055 14.2381 9.02309 14.3672 9.15221C14.4964 9.28133 14.5689 9.45645 14.5689 9.63905C14.5668 11.3453 13.9321 12.9901 12.7875 14.2555C11.643 15.5209 10.0698 16.3169 8.37237 16.4897Z" fill="#64CDC7"/>
</svg>
