<svg width="24" height="24" viewBox="0 0 24 24" fill="none" xmlns="http://www.w3.org/2000/svg">
<path d="M2.49219 6.857C2.49219 5.70081 2.94968 4.59238 3.76338 3.77543C4.57702 2.95855 5.68012 2.5 6.82991 2.5H11.9525C12.0834 2.5 12.2094 2.55219 12.3026 2.64574C12.3958 2.73936 12.4485 2.86675 12.4485 3C12.4485 3.13325 12.3958 3.26064 12.3026 3.35426C12.2094 3.44781 12.0834 3.5 11.9525 3.5H6.82991C5.94195 3.5 5.09075 3.85417 4.46347 4.48395C3.83626 5.11366 3.48425 5.96731 3.48425 6.857V17.143C3.48425 18.0327 3.83626 18.8863 4.46347 19.5161C5.09075 20.1458 5.94195 20.5 6.82991 20.5H17.0751C17.9631 20.5 18.8143 20.1458 19.4415 19.5161C20.0688 18.8863 20.4208 18.0327 20.4208 17.143V12C20.4208 11.8668 20.4735 11.7394 20.5667 11.6457C20.6599 11.5522 20.7859 11.5 20.9168 11.5C21.0477 11.5 21.1737 11.5522 21.2668 11.6457C21.3601 11.7394 21.4128 11.8668 21.4128 12V17.143C21.4128 18.2992 20.9553 19.4076 20.1416 20.2246C19.328 21.0414 18.2249 21.5 17.0751 21.5H6.82991C5.68012 21.5 4.57702 21.0414 3.76338 20.2246C2.94968 19.4076 2.49219 18.2992 2.49219 17.143V6.857Z" fill="#64CDC7" stroke="#64CDC7"/>
<path d="M19.4138 6.12898C19.3675 6.18302 19.3193 6.23538 19.2693 6.28598L19.4138 6.12898ZM19.4138 6.12898C19.4281 6.11217 19.4428 6.09464 19.4576 6.07644L19.4138 6.12898ZM12.1562 14.3187C10.8983 14.6476 9.63867 13.3875 10.1752 12.0354L10.1752 12.0353L10.9969 9.96331L10.9972 9.96272C11.1322 9.62093 11.3353 9.31055 11.5939 9.05056L11.5945 9.04986L16.513 4.08483L16.5139 4.08386L16.5419 4.05583L16.5419 4.05584L16.5454 4.05223C16.6914 3.90264 17.1449 3.4384 17.6822 3.11034C17.977 2.93212 18.4186 2.7148 18.9496 2.67347L18.9507 2.67339C19.5534 2.62514 20.1918 2.81415 20.6971 3.32397L20.6971 3.32399L20.7001 3.32699C21.0904 3.71408 21.3364 4.22452 21.3964 4.77268C21.4374 5.20683 21.371 5.64438 21.2033 6.04654L21.2033 6.04653L21.201 6.05214C20.9489 6.67801 20.521 7.14877 20.3274 7.34313L20.3265 7.34405L15.3367 12.3798C15.3367 12.3798 15.3366 12.3799 15.3366 12.3799C15.1793 12.5383 15.0056 12.6754 14.8145 12.7916C14.8144 12.7917 14.8143 12.7917 14.8142 12.7918L13.048 13.8614L12.534 13.0056L14.3041 11.9337L14.3138 11.9278L14.3175 11.9254C14.4328 11.8545 14.5391 11.7701 14.6344 11.6739C14.6344 11.6739 14.6345 11.6738 14.6345 11.6738L19.6245 6.63791L19.625 6.63738C19.6521 6.60999 19.6787 6.58216 19.7048 6.5539C19.7173 6.54837 19.7294 6.54251 19.7409 6.53637C19.754 6.52944 19.7662 6.52223 19.7778 6.51485C19.7836 6.51116 19.7892 6.50744 19.7945 6.50369L19.8025 6.49806L19.8063 6.49524L19.8082 6.49383L19.8092 6.49312L19.8097 6.49277L19.8099 6.49259C19.8099 6.49256 19.81 6.49252 19.787 6.46185C19.787 6.46182 19.787 6.46179 19.787 6.46176L19.8101 6.49242L19.7898 6.45853C19.7911 6.45708 19.7923 6.45562 19.7936 6.45417L19.794 6.45371C19.9765 6.23997 20.2349 5.8874 20.3533 5.47174C20.48 5.02715 20.447 4.48625 19.9962 4.03119C19.5651 3.59585 19.0334 3.61236 18.6201 3.76039C18.2295 3.90033 17.8771 4.17329 17.6326 4.38919L17.6321 4.38958C17.4988 4.50758 17.3704 4.63104 17.2472 4.75964L17.2168 4.79012L17.216 4.79103L12.2964 9.75513C12.1315 9.92003 12.0023 10.1172 11.9168 10.3342C11.9167 10.3344 11.9166 10.3346 11.9165 10.3348L11.0966 12.4057C11.0965 12.406 11.0964 12.4063 11.0962 12.4067C11.0422 12.5427 11.0322 12.6921 11.0674 12.8341C11.1027 12.9765 11.1819 13.1043 11.294 13.1994C11.3744 13.2677 11.4689 13.3165 11.5701 13.3429L12.1562 14.3187Z" fill="#64CDC7" stroke="#64CDC7"/>
</svg>
