<svg width="48" height="36" viewBox="0 0 48 36" fill="none" xmlns="http://www.w3.org/2000/svg">
<path fill-rule="evenodd" clip-rule="evenodd" d="M5.93127 0C4.3582 0 2.84956 0.628829 1.73723 1.74815C0.624899 2.86748 0 4.38561 0 5.96857V14.9214C0 16.5044 0.624899 18.0225 1.73723 19.1418C2.84956 20.2612 4.3582 20.89 5.93127 20.89H14.8282C14.8282 23.2644 13.8908 25.5416 12.2223 27.2206C10.5538 28.8996 8.29087 29.8428 5.93127 29.8428H2.96563C2.1791 29.8428 1.42478 30.1573 0.868614 30.7169C0.31245 31.2766 0 32.0356 0 32.8271C0 33.6186 0.31245 34.3777 0.868614 34.9373C1.42478 35.497 2.1791 35.8114 2.96563 35.8114H5.93127C9.86394 35.8114 13.6355 34.2393 16.4164 31.441C19.1972 28.6427 20.7594 24.8474 20.7594 20.89V5.96857C20.7594 4.38561 20.1345 2.86748 19.0222 1.74815C17.9099 0.628829 16.4012 0 14.8282 0H5.93127ZM32.622 0C31.0489 0 29.5403 0.628829 28.4279 1.74815C27.3156 2.86748 26.6907 4.38561 26.6907 5.96857V14.9214C26.6907 16.5044 27.3156 18.0225 28.4279 19.1418C29.5403 20.2612 31.0489 20.89 32.622 20.89H41.5189C41.5189 23.2644 40.5815 25.5416 38.913 27.2206C37.2445 28.8996 34.9816 29.8428 32.622 29.8428H29.6563C28.8698 29.8428 28.1155 30.1573 27.5593 30.7169C27.0031 31.2766 26.6907 32.0356 26.6907 32.8271C26.6907 33.6186 27.0031 34.3777 27.5593 34.9373C28.1155 35.497 28.8698 35.8114 29.6563 35.8114H32.622C36.5546 35.8114 40.3262 34.2393 43.1071 31.441C45.8879 28.6427 47.4501 24.8474 47.4501 20.89V5.96857C47.4501 4.38561 46.8252 2.86748 45.7129 1.74815C44.6006 0.628829 43.0919 0 41.5189 0H32.622Z" fill="#E2E3E5"/>
</svg>
