<svg width="144" height="22" viewBox="0 0 144 22" fill="none" xmlns="http://www.w3.org/2000/svg">
<path d="M4.36474 21.7495L6.24204 13.7058L0 8.298L8.2223 7.58644L11.4425 0L14.6627 7.58492L22.8835 8.29648L16.6414 13.7043L18.5202 21.748L11.4425 17.4786L4.36474 21.7495Z" fill="#FFAC49"/>
<path d="M34.6382 21.7494L36.5155 13.7057L30.2734 8.29788L38.4957 7.58631L41.7159 -0.00012207L44.9361 7.5848L53.1569 8.29636L46.9149 13.7042L48.7937 21.7479L41.7159 17.4785L34.6382 21.7494Z" fill="#FFAC49"/>
<path d="M64.9272 21.7494L66.8045 13.7057L60.5625 8.29788L68.7848 7.58631L72.005 -0.00012207L75.2252 7.5848L83.446 8.29636L77.2039 13.7042L79.0827 21.7479L72.005 17.4785L64.9272 21.7494Z" fill="#FFAC49"/>
<path d="M95.2007 21.7494L97.078 13.7057L90.8359 8.29788L99.0582 7.58631L102.278 -0.00012207L105.499 7.5848L113.719 8.29636L107.477 13.7042L109.356 21.7479L102.278 17.4785L95.2007 21.7494Z" fill="#F4F4F4"/>
<path d="M125.482 21.7494L127.359 13.7057L121.117 8.29788L129.339 7.58631L132.56 -0.00012207L135.78 7.5848L144.001 8.29636L137.759 13.7042L139.637 21.7479L132.56 17.4785L125.482 21.7494Z" fill="#F4F4F4"/>
</svg>
