<svg width="104" height="104" viewBox="0 0 104 104" fill="none" xmlns="http://www.w3.org/2000/svg">
<path d="M43.9794 32.0677L41.9343 37.5927C39.2551 44.8378 37.9154 48.4604 35.2718 51.104C32.6282 53.7476 29.0057 55.0872 21.7606 57.7665L16.2356 59.8116L21.7606 61.8567C29.0057 64.536 32.6282 65.8796 35.2718 68.5192C37.9154 71.1588 39.2551 74.7854 41.9343 82.0305L43.9794 87.5554L46.0246 82.0305C48.7038 74.7854 50.0474 71.1628 52.6871 68.5192C55.3267 65.8756 58.9532 64.536 66.1983 61.8567L71.7233 59.8116L66.1983 57.7665C58.9532 55.0872 55.3306 53.7476 52.6871 51.104C50.0435 48.4604 48.7038 44.8378 46.0246 37.5927L43.9794 32.0677ZM75.6867 16.2141L74.8108 18.5803C73.6614 21.6876 73.0867 23.2412 71.9571 24.3708C70.8236 25.5043 69.2699 26.079 66.1626 27.2245L63.7965 28.1043L66.1666 28.9802C69.2699 30.1296 70.8236 30.7043 71.9532 31.8339C73.0867 32.9674 73.6614 34.5211 74.8068 37.6284L75.6867 39.9946L76.5626 37.6284C77.712 34.5211 78.2867 32.9674 79.4163 31.8379C80.5498 30.7043 82.1035 30.1296 85.2108 28.9842L87.5769 28.1043L85.2068 27.2284C82.1035 26.079 80.5498 25.5043 79.4202 24.3748C78.2867 23.2412 77.712 21.6876 76.5666 18.5803L75.6867 16.2141Z" stroke="#64CDC7" stroke-width="3.77343" stroke-linecap="round" stroke-linejoin="round"/>
</svg>
