<svg width="76" height="75" viewBox="0 0 76 75" fill="none" xmlns="http://www.w3.org/2000/svg">
<path d="M41.413 5.57531C39.7503 5.5706 37.9815 5.56824 36.1066 5.56824C20.2653 5.56824 12.3411 5.56824 7.4203 10.489C2.49951 15.4098 2.49951 23.3305 2.49951 39.1753C2.49951 55.0166 2.49951 62.9408 7.4203 67.8616C12.3411 72.7824 20.2617 72.7824 36.1066 72.7824C51.9479 72.7824 59.8721 72.7824 64.7929 67.8616C69.7137 62.9408 69.7137 55.0202 69.7137 39.1753C69.7137 37.3004 69.7113 35.5316 69.7066 33.8689" stroke="#64CDC7" stroke-width="3.77343" stroke-linecap="round" stroke-linejoin="round"/>
<path d="M20.187 56.8632C28.4367 48.2245 43.6872 47.8176 52.0253 56.8632M60.8693 2.03064L61.782 4.49634C62.9777 7.72969 63.5755 9.34637 64.7535 10.5244C65.9351 11.7059 67.5518 12.3038 70.7851 13.4995L73.2508 14.4122L70.7851 15.3249C67.5518 16.5206 65.9351 17.1185 64.7571 18.2965C63.5755 19.478 62.9777 21.0947 61.782 24.3281L60.8693 26.7938L59.9566 24.3281C58.7609 21.0947 58.163 19.478 56.985 18.3C55.8034 17.1185 54.1868 16.5206 50.9534 15.3249L48.4877 14.4122L50.9534 13.4995C54.1868 12.3038 55.8034 11.7059 56.9814 10.5279C58.163 9.34637 58.7609 7.72969 59.9566 4.49634L60.8693 2.03064ZM44.9324 30.3313C44.9324 35.2132 40.9703 39.1753 36.0779 39.1753C34.9153 39.1772 33.7637 38.9498 32.6891 38.5062C31.6144 38.0626 30.6378 37.4114 29.8151 36.59C28.9923 35.7686 28.3396 34.793 27.8943 33.719C27.449 32.6451 27.2197 31.4939 27.2197 30.3313C27.2197 25.4495 31.1818 21.4874 36.0779 21.4874C37.2402 21.486 38.3913 21.7137 39.4656 22.1575C40.5398 22.6014 41.516 23.2526 42.3383 24.074C43.1607 24.8953 43.8131 25.8708 44.2582 26.9444C44.7033 28.0181 44.9324 29.169 44.9324 30.3313Z" stroke="#64CDC7" stroke-width="3.77343" stroke-linecap="round" stroke-linejoin="round"/>
</svg>
