<svg width="138" height="137" viewBox="0 0 138 137" fill="none" xmlns="http://www.w3.org/2000/svg">
<g clip-path="url(#clip0_238_7382)">
<path d="M97.9365 101.218C93.4704 99.1365 89.7051 96.1034 86.787 92.4574H73.577C72.7089 92.4574 72.0081 91.7493 72.0081 90.8721C72.0081 89.9949 72.7089 89.2869 73.577 89.2869H84.5592C83.7329 87.9447 83.0112 86.5497 82.3941 85.1018C81.6201 83.2841 81.003 81.3818 80.5847 79.4372H23.2473V83.8336C23.2473 85.3343 23.854 86.6976 24.8371 87.6805C25.8098 88.6739 27.1591 89.2869 28.6443 89.2869H68.0232C68.8913 89.2869 69.592 89.9949 69.592 90.8721C69.592 91.7493 68.8913 92.4574 68.0232 92.4574H28.6443C26.3014 92.4574 24.1677 91.4851 22.6198 89.921C21.0718 88.378 20.0991 86.2221 20.0991 83.8442V58.3112C20.0991 57.434 20.7999 56.726 21.668 56.726C22.5361 56.726 23.2369 57.434 23.2369 58.3112V67.3471H80.2604C80.5219 65.7619 80.9194 64.1766 81.4319 62.6125C81.662 61.915 82.3209 61.4923 83.0112 61.5345C85.0717 61.5557 87.3518 61.3549 89.8515 60.911C92.4036 60.4566 95.1648 59.7696 98.1247 58.8502C98.4385 58.7551 98.7523 58.7551 99.0452 58.8502C100.447 59.2835 101.796 59.6745 103.103 60.0021V44.044C103.103 42.5433 102.497 41.18 101.514 40.1972C100.541 39.2143 99.1811 38.5908 97.7064 38.5908H28.6443C27.1591 38.5908 25.8098 39.2037 24.8371 40.1972C23.8644 41.18 23.2473 42.5539 23.2473 44.044V46.9186C23.2473 47.7958 22.5466 48.5038 21.6785 48.5038C20.8103 48.5038 20.0991 47.7958 20.0991 46.9186V44.044C20.0991 41.6661 21.0718 39.5102 22.6093 37.9461C24.1573 36.3926 26.291 35.4203 28.6443 35.4203H97.7168C100.07 35.4203 102.204 36.3926 103.752 37.9461C105.3 39.5102 106.252 41.6661 106.252 44.044V60.7208C106.618 60.7948 106.973 60.8582 107.329 60.9216C109.86 61.3654 112.171 61.5768 114.253 61.5451C114.943 61.5451 115.539 61.989 115.748 62.6231C118.269 70.2428 117.757 78.2113 114.807 85.1124C111.858 92.0135 106.471 97.8577 99.2543 101.229C98.8255 101.43 98.3444 101.419 97.9469 101.229L97.9365 101.218ZM80.0408 76.2773C79.8211 74.3856 79.7688 72.4621 79.8944 70.5176H23.2369V76.2773H80.0303H80.0408ZM23.2369 52.6783C23.2369 53.5555 22.5361 54.2636 21.668 54.2636C20.7999 54.2636 20.0991 53.5555 20.0991 52.6783V52.5409C20.0991 51.6638 20.7999 50.9557 21.668 50.9557C22.5361 50.9557 23.2369 51.6638 23.2369 52.5409V52.6783ZM92.5709 78.6869C91.9957 78.0316 92.0584 77.0382 92.7069 76.457C93.3553 75.8757 94.3385 75.9391 94.9138 76.5943L98.0934 80.2298L103.417 72.8849C103.93 72.1768 104.913 72.0289 105.603 72.5467C106.304 73.0645 106.45 74.058 105.938 74.7555L99.474 83.6857L99.2439 83.9287C98.5954 84.51 97.6122 84.4466 97.037 83.7914L92.5604 78.6869H92.5709ZM85.2704 83.8548C87.8329 89.8576 92.4454 94.962 98.6059 98.0268C104.766 94.9515 109.368 89.847 111.941 83.8548C114.462 77.9682 115.006 71.2151 113.134 64.6945C111.167 64.6522 109.065 64.4302 106.816 64.0392C104.285 63.5954 101.545 62.919 98.6059 62.0207C95.6773 62.9296 92.937 63.5954 90.3954 64.0392C88.1571 64.4408 86.0444 64.6522 84.078 64.6945C82.1954 71.2151 82.7497 77.9682 85.2704 83.8548Z" fill="#64CDC7"/>
<path fill-rule="evenodd" clip-rule="evenodd" d="M42.0535 57.2226C43.9361 54.7179 43.9361 51.2515 42.0535 48.7468C43.5491 47.8908 45.3795 47.9013 46.8647 48.7679C48.3499 49.6451 49.2599 51.2515 49.2599 52.9847C49.2599 54.7179 48.3394 56.3243 46.8647 57.2014C45.3795 58.0786 43.5491 58.0892 42.0535 57.2226Z" fill="#64CDC7"/>
<path fill-rule="evenodd" clip-rule="evenodd" d="M41.3001 52.9848C41.3001 54.253 40.819 55.4789 39.9404 56.3878C39.8672 56.4618 39.8044 56.5252 39.7312 56.5992C38.3192 57.8991 36.2797 58.2373 34.5225 57.4446C32.7758 56.6626 31.6462 54.9188 31.6462 52.9848C31.6462 51.0508 32.7758 49.307 34.5225 48.525C36.2692 47.7429 38.3087 48.0811 39.7312 49.3705L39.7521 49.3916C40.7457 50.3216 41.3105 51.6215 41.3001 52.9848Z" fill="white"/>
<path fill-rule="evenodd" clip-rule="evenodd" d="M40.4627 47.1936C42.5964 45.7034 45.3681 45.5238 47.6691 46.7391C49.9701 47.9545 51.4135 50.364 51.4135 52.985C51.4135 55.6059 49.9701 58.0155 47.6691 59.2308C45.3681 60.4462 42.5859 60.2665 40.4627 58.7764C38.4441 60.1926 35.8502 60.4356 33.6224 59.4211C31.3841 58.4065 29.8466 56.2823 29.5538 53.8304C29.2609 51.368 30.265 48.9373 32.2104 47.4261C34.1454 45.9042 36.7288 45.5238 39.0089 46.4221C39.5319 46.6229 40.013 46.8871 40.4732 47.2041L40.4627 47.1936Z" fill="#64CDC7"/>
</g>
<defs>
<clipPath id="clip0_238_7382">
<rect width="97.2705" height="65.9461" fill="white" transform="translate(20.0991 35.4203)"/>
</clipPath>
</defs>
</svg>
