<svg width="19" height="19" viewBox="0 0 19 19" fill="none" xmlns="http://www.w3.org/2000/svg">
<path d="M9.85876 0.917969C8.0885 0.917969 6.35801 1.44291 4.8861 2.42641C3.41419 3.40991 2.26697 4.80779 1.58953 6.44329C0.912081 8.07879 0.734831 9.87845 1.08019 11.6147C1.42555 13.3509 2.27801 14.9458 3.52976 16.1975C4.78152 17.4493 6.37635 18.3017 8.11259 18.6471C9.84883 18.9924 11.6485 18.8152 13.284 18.1377C14.9195 17.4603 16.3174 16.3131 17.3009 14.8412C18.2844 13.3693 18.8093 11.6388 18.8093 9.86852C18.8068 7.49545 17.863 5.2203 16.185 3.54229C14.507 1.86428 12.2318 0.920475 9.85876 0.917969ZM9.85876 17.4421C8.36085 17.4421 6.89658 16.9979 5.65112 16.1657C4.40566 15.3335 3.43494 14.1507 2.86172 12.7668C2.28849 11.3829 2.13851 9.86012 2.43074 8.39099C2.72296 6.92187 3.44427 5.57239 4.50345 4.51322C5.56263 3.45404 6.91211 2.73273 8.38123 2.4405C9.85036 2.14827 11.3731 2.29825 12.757 2.87148C14.1409 3.4447 15.3237 4.41542 16.1559 5.66088C16.9881 6.90635 17.4323 8.37061 17.4323 9.86852C17.43 11.8764 16.6314 13.8015 15.2115 15.2213C13.7917 16.6411 11.8667 17.4398 9.85876 17.4421ZM5.72773 8.14726C5.72773 7.943 5.7883 7.74333 5.90178 7.57349C6.01526 7.40366 6.17656 7.27128 6.36527 7.19312C6.55398 7.11495 6.76164 7.0945 6.96197 7.13435C7.16231 7.1742 7.34632 7.27256 7.49076 7.41699C7.63519 7.56142 7.73355 7.74544 7.7734 7.94578C7.81325 8.14611 7.7928 8.35377 7.71463 8.54248C7.63646 8.73119 7.50409 8.89248 7.33426 9.00596C7.16442 9.11944 6.96475 9.18001 6.76049 9.18001C6.48659 9.18001 6.2239 9.07121 6.03022 8.87753C5.83654 8.68385 5.72773 8.42116 5.72773 8.14726ZM13.9898 8.14726C13.9898 8.35152 13.9292 8.55119 13.8157 8.72103C13.7022 8.89086 13.541 9.02323 13.3522 9.1014C13.1635 9.17957 12.9559 9.20002 12.7555 9.16017C12.5552 9.12032 12.3712 9.02196 12.2268 8.87753C12.0823 8.73309 11.984 8.54907 11.9441 8.34874C11.9043 8.1484 11.9247 7.94075 12.0029 7.75204C12.081 7.56333 12.2134 7.40203 12.3833 7.28855C12.5531 7.17507 12.7528 7.1145 12.957 7.1145C13.2309 7.1145 13.4936 7.22331 13.6873 7.41699C13.881 7.61067 13.9898 7.87335 13.9898 8.14726ZM13.8977 12.2783C13.0121 13.8093 11.5396 14.688 9.85876 14.688C8.17795 14.688 6.70627 13.8102 5.82068 12.2783C5.77087 12.1999 5.73742 12.1123 5.72235 12.0207C5.70727 11.929 5.71089 11.8353 5.73299 11.7451C5.75508 11.6549 5.79519 11.5701 5.8509 11.4958C5.90661 11.4216 5.97677 11.3593 6.05716 11.3128C6.13756 11.2664 6.22652 11.2366 6.3187 11.2254C6.41088 11.2142 6.50437 11.2218 6.59355 11.2477C6.68273 11.2735 6.76576 11.3172 6.83764 11.376C6.90951 11.4348 6.96875 11.5075 7.01179 11.5898C7.65468 12.7009 8.66506 13.311 9.85876 13.311C11.0525 13.311 12.0628 12.7 12.7049 11.5898C12.7962 11.4316 12.9466 11.3162 13.123 11.2689C13.2994 11.2216 13.4873 11.2463 13.6455 11.3376C13.8037 11.4289 13.9191 11.5793 13.9664 11.7557C14.0137 11.9321 13.989 12.1201 13.8977 12.2783Z" fill="#64CDC7"/>
</svg>
