<svg width="243" height="27" viewBox="0 0 243 27" fill="none" xmlns="http://www.w3.org/2000/svg">
<rect width="243" height="27" rx="6" fill="#F4F4F4"/>
<path d="M44.4059 18.0708L40.7855 20.2518C40.6256 20.3536 40.4584 20.3972 40.2839 20.3826C40.1094 20.3681 39.9567 20.3099 39.8259 20.2082C39.695 20.1064 39.5932 19.9793 39.5205 19.8269C39.4478 19.6746 39.4333 19.5036 39.4769 19.314L40.4365 15.1919L37.2305 12.4221C37.0851 12.2912 36.9944 12.1421 36.9583 11.9746C36.9223 11.8071 36.933 11.6436 36.9906 11.4843C37.0482 11.3249 37.1354 11.1941 37.2523 11.0917C37.3692 10.9893 37.5292 10.9239 37.7321 10.8954L41.9632 10.5246L43.599 6.64251C43.6717 6.46804 43.7845 6.33718 43.9374 6.24994C44.0904 6.1627 44.2466 6.11908 44.4059 6.11908C44.5653 6.11908 44.7214 6.1627 44.8744 6.24994C45.0273 6.33718 45.1402 6.46804 45.2129 6.64251L46.8486 10.5246L51.0797 10.8954C51.2832 10.9245 51.4432 10.9899 51.5595 11.0917C51.6758 11.1935 51.7631 11.3243 51.8212 11.4843C51.8794 11.6442 51.8904 11.8079 51.8544 11.9754C51.8183 12.1429 51.7273 12.2918 51.5813 12.4221L48.3753 15.1919L49.3349 19.314C49.3785 19.503 49.364 19.674 49.2913 19.8269C49.2186 19.9799 49.1168 20.107 48.986 20.2082C48.8551 20.3094 48.7024 20.3675 48.528 20.3826C48.3535 20.3978 48.1863 20.3541 48.0263 20.2518L44.4059 18.0708Z" fill="#64CDC7"/>
<path d="M22.4684 18.0708L18.848 20.2518C18.6881 20.3536 18.5209 20.3972 18.3464 20.3826C18.1719 20.3681 18.0192 20.3099 17.8884 20.2082C17.7575 20.1064 17.6557 19.9793 17.583 19.8269C17.5103 19.6746 17.4958 19.5036 17.5394 19.314L18.499 15.1919L15.293 12.4221C15.1476 12.2912 15.0569 12.1421 15.0208 11.9746C14.9848 11.8071 14.9955 11.6436 15.0531 11.4843C15.1107 11.3249 15.1979 11.1941 15.3148 11.0917C15.4317 10.9893 15.5917 10.9239 15.7946 10.8954L20.0257 10.5246L21.6615 6.64251C21.7342 6.46804 21.847 6.33718 21.9999 6.24994C22.1529 6.1627 22.3091 6.11908 22.4684 6.11908C22.6278 6.11908 22.7839 6.1627 22.9369 6.24994C23.0898 6.33718 23.2027 6.46804 23.2754 6.64251L24.9111 10.5246L29.1422 10.8954C29.3457 10.9245 29.5057 10.9899 29.622 11.0917C29.7383 11.1935 29.8256 11.3243 29.8837 11.4843C29.9419 11.6442 29.9529 11.8079 29.9169 11.9754C29.8808 12.1429 29.7898 12.2918 29.6438 12.4221L26.4378 15.1919L27.3974 19.314C27.441 19.503 27.4265 19.674 27.3538 19.8269C27.2811 19.9799 27.1793 20.107 27.0485 20.2082C26.9176 20.3094 26.7649 20.3675 26.5905 20.3826C26.416 20.3978 26.2488 20.3541 26.0888 20.2518L22.4684 18.0708Z" fill="#64CDC7"/>
<path d="M66.3434 18.0708L62.723 20.2518C62.5631 20.3536 62.3959 20.3972 62.2214 20.3826C62.0469 20.3681 61.8942 20.3099 61.7634 20.2082C61.6325 20.1064 61.5307 19.9793 61.458 19.8269C61.3853 19.6746 61.3708 19.5036 61.4144 19.314L62.374 15.1919L59.168 12.4221C59.0226 12.2912 58.9319 12.1421 58.8958 11.9746C58.8598 11.8071 58.8705 11.6436 58.9281 11.4843C58.9857 11.3249 59.0729 11.1941 59.1898 11.0917C59.3067 10.9893 59.4667 10.9239 59.6696 10.8954L63.9007 10.5246L65.5365 6.64251C65.6092 6.46804 65.722 6.33718 65.8749 6.24994C66.0279 6.1627 66.1841 6.11908 66.3434 6.11908C66.5028 6.11908 66.6589 6.1627 66.8119 6.24994C66.9648 6.33718 67.0777 6.46804 67.1504 6.64251L68.7861 10.5246L73.0172 10.8954C73.2207 10.9245 73.3807 10.9899 73.497 11.0917C73.6133 11.1935 73.7006 11.3243 73.7587 11.4843C73.8169 11.6442 73.8279 11.8079 73.7919 11.9754C73.7558 12.1429 73.6648 12.2918 73.5188 12.4221L70.3128 15.1919L71.2724 19.314C71.316 19.503 71.3015 19.674 71.2288 19.8269C71.1561 19.9799 71.0543 20.107 70.9235 20.2082C70.7926 20.3094 70.6399 20.3675 70.4655 20.3826C70.291 20.3978 70.1238 20.3541 69.9638 20.2518L66.3434 18.0708Z" fill="#64CDC7"/>
<path d="M83.1571 19.2685L83.157 19.269C83.1049 19.4956 83.12 19.7137 83.215 19.9129C83.3009 20.0928 83.4222 20.2447 83.5781 20.3659L83.7009 20.208L83.5781 20.3659C83.7413 20.4929 83.9314 20.5643 84.1423 20.5818C84.3632 20.6002 84.5727 20.544 84.7657 20.4218L88.2809 18.3042L91.7959 20.4216C91.989 20.5446 92.1989 20.6009 92.4202 20.5818C92.6306 20.5635 92.8203 20.4923 92.9833 20.3663C93.1396 20.2454 93.2611 20.0933 93.3469 19.9127C93.4418 19.7131 93.457 19.4951 93.4048 19.2689L93.4047 19.2685L92.4725 15.2641L95.5871 12.5733L95.5871 12.5733L95.5895 12.5712C95.7624 12.4169 95.8787 12.232 95.9249 12.0174C95.9688 11.8134 95.9553 11.6114 95.8842 11.4158C95.8157 11.2274 95.7104 11.0672 95.5662 10.9411C95.4126 10.8066 95.2125 10.7301 94.983 10.6973L94.983 10.697L94.9721 10.6961L90.8611 10.3358L89.2725 6.56547C89.2724 6.5653 89.2723 6.56513 89.2723 6.56495C89.1839 6.35308 89.0426 6.18681 88.8485 6.07609C88.6686 5.97348 88.4786 5.91896 88.2809 5.91896C88.0833 5.91896 87.8933 5.97348 87.7134 6.07609C87.5192 6.18684 87.3779 6.35317 87.2895 6.56514C87.2894 6.56525 87.2894 6.56536 87.2893 6.56547L85.7007 10.3358L81.5897 10.6961L81.5897 10.6958L81.5793 10.6972C81.3499 10.7294 81.1497 10.8061 80.9956 10.9411C80.8509 11.0677 80.7455 11.228 80.6775 11.4162C80.607 11.6112 80.594 11.8128 80.6378 12.0165C80.6839 12.2308 80.7997 12.4158 80.9717 12.5706L80.9717 12.5707L80.9748 12.5733L84.0894 15.2641L83.1571 19.2685Z" fill="#D5D5D5" stroke="white" stroke-width="0.4"/>
<path d="M105.095 19.2685L105.095 19.269C105.042 19.4956 105.057 19.7137 105.153 19.9129C105.238 20.0928 105.36 20.2447 105.516 20.3659L105.638 20.208L105.516 20.3659C105.679 20.4929 105.869 20.5643 106.08 20.5818C106.301 20.6002 106.51 20.544 106.703 20.4218L110.218 18.3042L113.733 20.4216C113.927 20.5446 114.136 20.6009 114.358 20.5818C114.568 20.5635 114.758 20.4923 114.921 20.3663C115.077 20.2454 115.199 20.0933 115.284 19.9127C115.379 19.7131 115.395 19.4951 115.342 19.2689L115.342 19.2685L114.41 15.2641L117.525 12.5733L117.525 12.5733L117.527 12.5712C117.7 12.4169 117.816 12.232 117.862 12.0174C117.906 11.8134 117.893 11.6114 117.822 11.4158C117.753 11.2274 117.648 11.0672 117.504 10.9411C117.35 10.8066 117.15 10.7301 116.92 10.6973L116.921 10.697L116.91 10.6961L112.799 10.3358L111.21 6.56547C111.21 6.56537 111.21 6.56528 111.21 6.56518C111.121 6.3532 110.98 6.18685 110.786 6.07609C110.606 5.97348 110.416 5.91896 110.218 5.91896C110.021 5.91896 109.831 5.97348 109.651 6.07609C109.457 6.18682 109.315 6.35312 109.227 6.56503C109.227 6.56517 109.227 6.56532 109.227 6.56547L107.638 10.3358L103.527 10.6961L103.527 10.6958L103.517 10.6972C103.287 10.7294 103.087 10.8061 102.933 10.9411C102.788 11.0677 102.683 11.228 102.615 11.4162C102.545 11.6112 102.531 11.8128 102.575 12.0165C102.621 12.2308 102.737 12.4158 102.909 12.5706L102.909 12.5707L102.912 12.5733L106.027 15.2641L105.095 19.2685Z" fill="#D5D5D5" stroke="white" stroke-width="0.4"/>
<path d="M127.032 19.2685L127.032 19.269C126.98 19.4956 126.995 19.7137 127.09 19.9129C127.176 20.0928 127.297 20.2447 127.453 20.3659L127.576 20.208L127.453 20.3659C127.616 20.4929 127.806 20.5643 128.017 20.5818C128.238 20.6002 128.448 20.544 128.641 20.4218L132.156 18.3042L135.671 20.4216C135.864 20.5446 136.074 20.6009 136.295 20.5818C136.506 20.5635 136.695 20.4923 136.858 20.3663C137.015 20.2454 137.136 20.0933 137.222 19.9127C137.317 19.7131 137.332 19.4951 137.28 19.2689L137.28 19.2685L136.347 15.2641L139.462 12.5733L139.462 12.5733L139.464 12.5712C139.637 12.4169 139.754 12.232 139.8 12.0174C139.844 11.8134 139.83 11.6114 139.759 11.4158C139.691 11.2274 139.585 11.0672 139.441 10.9411C139.288 10.8066 139.087 10.7301 138.858 10.6973L138.858 10.697L138.847 10.6961L134.736 10.3358L133.147 6.56547C133.147 6.56537 133.147 6.56528 133.147 6.56518C133.059 6.3532 132.918 6.18685 132.723 6.07609C132.544 5.97348 132.354 5.91896 132.156 5.91896C131.958 5.91896 131.768 5.97348 131.588 6.07609C131.394 6.18682 131.253 6.35312 131.165 6.56503C131.164 6.56517 131.164 6.56532 131.164 6.56547L129.576 10.3358L125.465 10.6961L125.465 10.6958L125.454 10.6972C125.225 10.7294 125.025 10.8061 124.871 10.9411C124.726 11.0677 124.621 11.228 124.553 11.4162C124.482 11.6112 124.469 11.8128 124.513 12.0165C124.559 12.2308 124.675 12.4158 124.847 12.5706L124.847 12.5707L124.85 12.5733L127.964 15.2641L127.032 19.2685Z" fill="#D5D5D5" stroke="white" stroke-width="0.4"/>
<path d="M148.97 19.2685L148.97 19.269C148.917 19.4956 148.932 19.7137 149.028 19.9129C149.113 20.0928 149.235 20.2447 149.391 20.3659L149.513 20.208L149.391 20.3659C149.554 20.4929 149.744 20.5643 149.955 20.5818C150.176 20.6002 150.385 20.544 150.578 20.4218L154.093 18.3042L157.608 20.4216C157.802 20.5446 158.011 20.6009 158.233 20.5818C158.443 20.5635 158.633 20.4923 158.796 20.3663C158.952 20.2454 159.074 20.0933 159.159 19.9127C159.254 19.7131 159.27 19.4951 159.217 19.2689L159.217 19.2685L158.285 15.2641L161.4 12.5733L161.4 12.5733L161.402 12.5712C161.575 12.4169 161.691 12.232 161.737 12.0174C161.781 11.8134 161.768 11.6114 161.697 11.4158C161.628 11.2274 161.523 11.0672 161.379 10.9411C161.225 10.8066 161.025 10.7301 160.795 10.6973L160.796 10.697L160.785 10.6961L156.674 10.3358L155.085 6.56547C155.085 6.56537 155.085 6.56528 155.085 6.56518C154.996 6.3532 154.855 6.18685 154.661 6.07609C154.481 5.97348 154.291 5.91896 154.093 5.91896C153.896 5.91896 153.706 5.97348 153.526 6.07609C153.332 6.18682 153.19 6.35312 153.102 6.56503C153.102 6.56517 153.102 6.56532 153.102 6.56547L151.513 10.3358L147.402 10.6961L147.402 10.6958L147.392 10.6972C147.162 10.7294 146.962 10.8061 146.808 10.9411C146.663 11.0677 146.558 11.228 146.49 11.4162C146.42 11.6112 146.406 11.8128 146.45 12.0165C146.496 12.2308 146.612 12.4158 146.784 12.5706L146.784 12.5707L146.787 12.5733L149.902 15.2641L148.97 19.2685Z" fill="#D5D5D5" stroke="white" stroke-width="0.4"/>
<path d="M170.907 19.2685L170.907 19.269C170.855 19.4956 170.87 19.7137 170.965 19.9129C171.051 20.0928 171.172 20.2447 171.328 20.3659L171.451 20.208L171.328 20.3659C171.491 20.4929 171.681 20.5643 171.892 20.5818C172.113 20.6002 172.323 20.544 172.516 20.4218L176.031 18.3042L179.546 20.4216C179.739 20.5446 179.949 20.6009 180.17 20.5818C180.381 20.5635 180.57 20.4923 180.733 20.3663C180.89 20.2454 181.011 20.0933 181.097 19.9127C181.192 19.7131 181.207 19.4951 181.155 19.2689L181.155 19.2685L180.222 15.2641L183.337 12.5733L183.337 12.5733L183.339 12.5712C183.512 12.4169 183.629 12.232 183.675 12.0174C183.719 11.8134 183.705 11.6114 183.634 11.4158C183.566 11.2274 183.46 11.0672 183.316 10.9411C183.163 10.8066 182.962 10.7301 182.733 10.6973L182.733 10.697L182.722 10.6961L178.611 10.3358L177.022 6.56547C177.022 6.56537 177.022 6.56528 177.022 6.56518C176.934 6.3532 176.793 6.18685 176.598 6.07609C176.419 5.97348 176.229 5.91896 176.031 5.91896C175.833 5.91896 175.643 5.97348 175.463 6.07609C175.269 6.18682 175.128 6.35312 175.04 6.56503C175.039 6.56517 175.039 6.56532 175.039 6.56547L173.451 10.3358L169.34 10.6961L169.34 10.6958L169.329 10.6972C169.1 10.7294 168.9 10.8061 168.746 10.9411C168.601 11.0677 168.496 11.228 168.428 11.4162C168.357 11.6112 168.344 11.8128 168.388 12.0165C168.434 12.2308 168.55 12.4158 168.722 12.5706L168.722 12.5707L168.725 12.5733L171.839 15.2641L170.907 19.2685Z" fill="#D5D5D5" stroke="white" stroke-width="0.4"/>
<path d="M192.845 19.2685L192.845 19.269C192.792 19.4956 192.807 19.7137 192.903 19.9129C192.988 20.0928 193.11 20.2447 193.266 20.3659L193.388 20.208L193.266 20.3659C193.429 20.4929 193.619 20.5643 193.83 20.5818C194.051 20.6002 194.26 20.544 194.453 20.4218L197.968 18.3042L201.483 20.4216C201.677 20.5446 201.886 20.6009 202.108 20.5818C202.318 20.5635 202.508 20.4923 202.671 20.3663C202.827 20.2454 202.949 20.0933 203.034 19.9127C203.129 19.7131 203.145 19.4951 203.092 19.2689L203.092 19.2685L202.16 15.2641L205.275 12.5733L205.275 12.5733L205.277 12.5712C205.45 12.4169 205.566 12.232 205.612 12.0174C205.656 11.8134 205.643 11.6114 205.572 11.4158C205.503 11.2274 205.398 11.0672 205.254 10.9411C205.1 10.8066 204.9 10.7301 204.67 10.6973L204.671 10.697L204.66 10.6961L200.549 10.3358L198.96 6.56547C198.96 6.56537 198.96 6.56528 198.96 6.56518C198.871 6.3532 198.73 6.18685 198.536 6.07609C198.356 5.97348 198.166 5.91896 197.968 5.91896C197.771 5.91896 197.581 5.97348 197.401 6.07609C197.207 6.18682 197.065 6.35312 196.977 6.56503C196.977 6.56517 196.977 6.56532 196.977 6.56547L195.388 10.3358L191.277 10.6961L191.277 10.6958L191.267 10.6972C191.037 10.7294 190.837 10.8061 190.683 10.9411C190.538 11.0677 190.433 11.228 190.365 11.4162C190.295 11.6112 190.281 11.8128 190.325 12.0165C190.371 12.2308 190.487 12.4158 190.659 12.5706L190.659 12.5707L190.662 12.5733L193.777 15.2641L192.845 19.2685Z" fill="#D5D5D5" stroke="white" stroke-width="0.4"/>
<path d="M214.782 19.2685L214.782 19.269C214.73 19.4956 214.745 19.7137 214.84 19.9129C214.926 20.0928 215.047 20.2447 215.203 20.3659L215.326 20.208L215.203 20.3659C215.366 20.4929 215.556 20.5643 215.767 20.5818C215.988 20.6002 216.198 20.544 216.391 20.4218L219.906 18.3042L223.421 20.4216C223.614 20.5446 223.824 20.6009 224.045 20.5818C224.256 20.5635 224.445 20.4923 224.608 20.3663C224.765 20.2454 224.886 20.0933 224.972 19.9127C225.067 19.7131 225.082 19.4951 225.03 19.2689L225.03 19.2685L224.097 15.2641L227.212 12.5733L227.212 12.5733L227.214 12.5712C227.387 12.4169 227.504 12.232 227.55 12.0174C227.594 11.8134 227.58 11.6114 227.509 11.4158C227.441 11.2274 227.335 11.0672 227.191 10.9411C227.038 10.8066 226.837 10.7301 226.608 10.6973L226.608 10.697L226.597 10.6961L222.486 10.3358L220.897 6.56547C220.897 6.56537 220.897 6.56528 220.897 6.56518C220.809 6.3532 220.668 6.18685 220.473 6.07609C220.294 5.97348 220.104 5.91896 219.906 5.91896C219.708 5.91896 219.518 5.97348 219.338 6.07609C219.144 6.18682 219.003 6.35312 218.915 6.56503C218.914 6.56517 218.914 6.56532 218.914 6.56547L217.326 10.3358L213.215 10.6961L213.215 10.6958L213.204 10.6972C212.975 10.7294 212.775 10.8061 212.621 10.9411C212.476 11.0677 212.371 11.228 212.303 11.4162C212.232 11.6112 212.219 11.8128 212.263 12.0165C212.309 12.2308 212.425 12.4158 212.597 12.5706L212.597 12.5707L212.6 12.5733L215.714 15.2641L214.782 19.2685Z" fill="#D5D5D5" stroke="white" stroke-width="0.4"/>
</svg>
