<svg width="89" height="122" viewBox="0 0 89 122" fill="none" xmlns="http://www.w3.org/2000/svg">
<g clip-path="url(#clip0_238_7321)">
<path d="M4.98112 9.5677H86.1455C87.7184 9.5677 88.9943 10.8217 88.9943 12.3718V119.202C88.9943 120.752 87.7184 122.006 86.1455 122.006H4.98112C3.40816 122.006 2.13232 120.752 2.13232 119.202V12.366C2.13232 10.8159 3.40816 9.56189 4.98112 9.56189V9.5677Z" fill="#A8ECE8"/>
<path d="M3.26823 7.91309H84.4384C86.0114 7.91309 87.2872 9.16711 87.2872 10.7114V117.547C87.2872 119.097 86.0114 120.345 84.4384 120.345H3.26823C1.69527 120.345 0.419434 119.091 0.419434 117.547V10.7114C0.419434 9.16711 1.69527 7.91309 3.26823 7.91309Z" stroke="#72908F" stroke-width="1.43"/>
<path d="M80.2555 17.2834H7.64334C7.13176 17.2834 6.71704 17.6967 6.71704 18.2065V112.322C6.71704 112.832 7.13176 113.245 7.64334 113.245H80.2555C80.7671 113.245 81.1818 112.832 81.1818 112.322V18.2065C81.1818 17.6967 80.7671 17.2834 80.2555 17.2834Z" fill="white"/>
<path d="M56.9642 41.5336C56.9642 48.7326 51.0744 54.5673 43.798 54.5673C36.5217 54.5673 30.6318 48.7268 30.6318 41.5336C30.6318 34.3404 36.5217 28.4999 43.798 28.4999C51.0744 28.4999 56.9642 34.3404 56.9642 41.5336Z" fill="#A8ECE8" stroke="#72908F" stroke-width="1.43"/>
<path d="M46.8798 36.8659C47.0371 36.8949 47.1885 36.7962 47.2235 36.6395C47.6313 34.6539 46.338 32.7148 44.3456 32.3084C44.1009 32.262 43.8562 32.233 43.6057 32.233C41.5725 32.233 39.9238 33.876 39.9238 35.9021C39.9238 36.1924 39.9588 36.4769 40.0229 36.7556C40.0578 36.9123 40.2151 37.0052 40.3724 36.9704C40.5297 36.9356 46.7167 36.831 46.8739 36.8659H46.8798Z" fill="white"/>
<path d="M40.3958 36.5176C39.9705 34.7526 41.0658 32.9761 42.8368 32.5523C43.0873 32.4942 43.3436 32.4594 43.6058 32.4594C45.4292 32.4594 46.9148 33.9282 46.9148 35.7454C46.9148 35.966 46.8915 36.1866 46.8507 36.4073C46.8158 36.5756 46.9206 36.7382 47.0896 36.773C47.2585 36.8078 47.4217 36.7033 47.4566 36.535C47.4566 36.535 47.4566 36.5292 47.4566 36.5234C47.8877 34.4043 46.5187 32.3375 44.3923 31.9079C44.1359 31.8556 43.8679 31.8266 43.6058 31.8266C41.4386 31.8266 39.6851 33.5799 39.6851 35.7338C39.6851 36.0415 39.72 36.3492 39.7957 36.6453C39.8249 36.8137 39.988 36.924 40.1569 36.8891C40.3259 36.8601 40.4366 36.6975 40.4016 36.5292C40.4016 36.5176 40.4016 36.506 40.3958 36.5001V36.5176Z" fill="#72908F"/>
<path d="M50.917 42.9096C50.9228 46.9329 47.6546 50.1957 43.6115 50.2015C39.5684 50.2015 36.2885 46.9445 36.2827 42.9212C36.2827 38.8979 39.551 35.6351 43.5882 35.6293C47.6313 35.6293 50.9112 38.8862 50.917 42.9096Z" fill="white"/>
<path fill-rule="evenodd" clip-rule="evenodd" d="M43.6174 50.2015C47.6488 50.2015 50.917 46.9387 50.917 42.9212C50.917 42.9212 50.917 42.9154 50.917 42.9096C50.9112 38.8862 47.6313 35.6293 43.5882 35.6293C39.5568 35.6293 36.2828 38.8921 36.2886 42.9096C36.2886 42.9096 36.2886 42.9154 36.2886 42.9212C36.2944 46.9445 39.5743 50.2073 43.6174 50.2015ZM43.5882 36.2563C47.2876 36.2563 50.2879 39.2346 50.2937 42.9154C50.2995 46.5962 47.3109 49.5803 43.6232 49.5861C43.6232 49.5861 43.6174 49.5861 43.6116 49.5861C39.9122 49.5861 36.9119 46.6078 36.9061 42.927C36.9003 39.2462 39.8889 36.2621 43.5882 36.2563Z" fill="#72908F"/>
<path d="M37.7159 39.0372C37.7626 39.1708 37.8616 39.3914 38.0422 39.6584C38.3393 40.0939 38.7471 40.5293 39.2947 40.9357C39.755 41.2724 40.2909 41.5743 40.9143 41.8298C41.6076 42.1142 42.4756 42.271 44.3107 42.4916C44.3515 42.4916 44.9748 42.5729 45.1554 42.5961C45.4817 42.6367 45.7555 42.6716 46.0176 42.7064C49.3441 43.1534 51.0744 43.8327 51.523 45.1796C51.7327 45.8124 51.354 46.5672 50.853 46.6775C50.6841 46.7181 50.5792 46.8807 50.62 47.049C50.6549 47.2116 50.8181 47.3161 50.9812 47.2871C51.8609 47.1013 52.4376 45.9576 52.1172 44.988C51.5579 43.3102 49.6704 42.5787 46.105 42.0968C45.8137 42.0562 45.5283 42.0213 45.237 41.9865L44.3923 41.882C42.6212 41.6672 41.7765 41.5162 41.159 41.2608C40.6347 41.0518 40.1336 40.7731 39.6734 40.4422C39.184 40.0823 38.8228 39.6991 38.5665 39.3217C38.4908 39.2056 38.4209 39.0895 38.3626 38.9676C38.3451 38.9327 38.3277 38.8921 38.316 38.8515C38.2636 38.6889 38.0888 38.6018 37.9257 38.6541C37.7626 38.7063 37.6752 38.8805 37.7276 39.043L37.7159 39.0372ZM42.2542 44.4771C42.2542 44.7848 42.0037 45.0287 41.7008 45.0287C41.3978 45.0287 41.1473 44.779 41.1473 44.4771C41.1473 44.1752 41.3978 43.9256 41.7008 43.9256C42.0037 43.9256 42.2542 44.1752 42.2542 44.4771Z" fill="#72908F"/>
<path d="M45.9477 44.4713C45.9477 44.779 45.6972 45.0229 45.3943 45.0229C45.0913 45.0229 44.8408 44.7732 44.8408 44.4713C44.8408 44.1694 45.0913 43.9198 45.3943 43.9198C45.6972 43.9198 45.9477 44.1694 45.9477 44.4713ZM44.7301 46.4801C44.7301 47.0665 44.2524 47.5483 43.6582 47.5483C43.0698 47.5483 42.5862 47.0723 42.5862 46.4859C42.5979 46.3175 42.4639 46.1666 42.2891 46.1608C42.1202 46.1492 41.9687 46.2827 41.9629 46.4569C41.9629 46.4685 41.9629 46.4801 41.9629 46.4917C41.9629 47.4206 42.7202 48.1753 43.6582 48.1753C44.5903 48.1753 45.3477 47.4206 45.3477 46.4859C45.3593 46.3175 45.2253 46.1666 45.0505 46.1608C44.8816 46.1492 44.7301 46.2827 44.7243 46.4569C44.7243 46.4685 44.7243 46.4801 44.7243 46.4917L44.7301 46.4801Z" fill="#72908F"/>
<path d="M14.844 65.569L17.285 69.604L22.7612 60.7678" stroke="#72908F" stroke-width="2.38" stroke-linecap="round" stroke-linejoin="round"/>
<path d="M33.2591 63.061C34.0864 63.061 34.7389 63.2584 35.2108 63.6532C35.6827 64.0479 35.9157 64.5937 35.9157 65.2845C35.9157 65.9754 35.6827 66.5153 35.2108 66.9101C34.7389 67.2991 34.0922 67.4907 33.2591 67.4907H31.5114V69.5343H30.824V63.0552H33.2533L33.2591 63.061ZM33.2417 66.8927C33.8825 66.8927 34.3777 66.7534 34.7156 66.4747C35.0535 66.1902 35.2282 65.7954 35.2282 65.2787C35.2282 64.762 35.0593 64.3556 34.7156 64.077C34.3719 63.7925 33.8825 63.6532 33.2417 63.6532H31.5172V66.8927H33.2417ZM38.9218 64.6343C39.5626 64.6343 40.052 64.7969 40.3899 65.1162C40.7278 65.4297 40.9025 65.8999 40.9025 66.5211V69.5401H40.2733V68.7795C40.1219 69.035 39.9063 69.2266 39.615 69.3717C39.3296 69.5111 38.9917 69.5865 38.5955 69.5865C38.0479 69.5865 37.6168 69.4588 37.2964 69.1976C36.976 68.9363 36.8128 68.5938 36.8128 68.17C36.8128 67.7461 36.9585 67.421 37.2556 67.1714C37.5585 66.9159 38.0363 66.794 38.6946 66.794H40.2442V66.4979C40.2442 66.0799 40.1277 65.7606 39.8888 65.5458C39.6558 65.3252 39.3121 65.2149 38.8577 65.2149C38.5489 65.2149 38.2518 65.2671 37.9663 65.3716C37.6809 65.4703 37.4362 65.6097 37.2323 65.7896L36.9352 65.2962C37.1973 65.0813 37.5003 64.913 37.8265 64.8143C38.1761 64.6982 38.5373 64.6401 38.9218 64.6401V64.6343ZM38.6887 69.064C39.0616 69.064 39.3762 68.9827 39.6442 68.8144C39.9121 68.6402 40.1102 68.3964 40.2384 68.0771V67.2817H38.7062C37.8731 67.2817 37.4537 67.572 37.4537 68.1525C37.4537 68.437 37.5644 68.6634 37.7799 68.826C37.9955 68.9886 38.2984 69.064 38.6887 69.064ZM44.0018 69.5807C43.6057 69.5807 43.227 69.5285 42.86 69.4124C42.4988 69.2962 42.2191 69.1511 42.0152 68.9769L42.3124 68.4602C42.5163 68.6228 42.7726 68.7505 43.0814 68.8608C43.3901 68.9595 43.7105 69.0118 44.0484 69.0118C44.4912 69.0118 44.8233 68.9421 45.033 68.8086C45.2427 68.6867 45.365 68.4602 45.3592 68.2164C45.3592 68.0364 45.301 67.8971 45.1844 67.7984C45.0563 67.6881 44.9048 67.6068 44.7417 67.5662C44.5611 67.5081 44.3222 67.4559 44.0251 67.4094C43.7047 67.3514 43.3843 67.2817 43.0697 67.1888C42.8308 67.1133 42.6153 66.974 42.4463 66.7882C42.2774 66.6024 42.1958 66.347 42.1958 66.0219C42.1958 65.6155 42.3648 65.2787 42.7085 65.0233C43.0522 64.7678 43.5241 64.6343 44.13 64.6343C44.4446 64.6343 44.7592 64.675 45.0796 64.762C45.3942 64.8433 45.6563 64.9478 45.8602 65.0872L45.5748 65.6155C45.1728 65.3368 44.6951 65.1975 44.1358 65.1975C43.7164 65.1975 43.3959 65.2729 43.1804 65.4181C42.9707 65.569 42.8658 65.7606 42.8658 65.9986C42.8658 66.1844 42.9241 66.3296 43.0406 66.4399C43.1629 66.5502 43.3144 66.6373 43.495 66.6895C43.6756 66.7418 43.9203 66.794 44.2407 66.8463C44.631 66.9217 44.9398 66.9914 45.1786 67.0669C45.4117 67.1423 45.6156 67.2643 45.7845 67.4442C45.9534 67.6242 46.035 67.8681 46.035 68.1874C46.035 68.6112 45.8544 68.9537 45.4932 69.2034C45.1378 69.4472 44.6485 69.5749 44.0193 69.5749L44.0018 69.5807ZM48.5401 69.5807C48.1439 69.5807 47.7653 69.5285 47.3982 69.4124C47.037 69.2962 46.7574 69.1511 46.5535 68.9769L46.8506 68.4602C47.0545 68.6228 47.3108 68.7505 47.6196 68.8608C47.9284 68.9595 48.2488 69.0118 48.5867 69.0118C49.0294 69.0118 49.3615 68.9421 49.5712 68.8086C49.7751 68.6808 49.9033 68.4602 49.8975 68.2164C49.8975 68.0364 49.8392 67.8971 49.7227 67.7984C49.5945 67.6881 49.4431 67.6068 49.2741 67.5662C49.0935 67.5081 48.8547 67.4559 48.5576 67.4094C48.2371 67.3514 47.9167 67.2817 47.6021 67.1888C47.3633 67.1133 47.1477 66.974 46.9788 66.7882C46.8098 66.6024 46.7283 66.347 46.7283 66.0219C46.7283 65.6155 46.8972 65.2787 47.2409 65.0233C47.5788 64.7678 48.0565 64.6343 48.6624 64.6343C48.977 64.6343 49.2916 64.675 49.612 64.762C49.9266 64.8433 50.1888 64.9478 50.3927 65.0872L50.1072 65.6155C49.7052 65.3368 49.2275 65.1975 48.6682 65.1975C48.2488 65.1975 47.9284 65.2729 47.7128 65.4181C47.5031 65.569 47.3982 65.7606 47.3982 65.9986C47.3982 66.1844 47.4565 66.3296 47.573 66.4399C47.6954 66.5502 47.8468 66.6373 48.0274 66.6895C48.208 66.7418 48.4527 66.794 48.7731 66.8463C49.1634 66.9217 49.4722 66.9914 49.7111 67.0669C49.9499 67.1423 50.148 67.2643 50.3169 67.4442C50.4859 67.6242 50.5674 67.8681 50.5674 68.1874C50.5674 68.6112 50.3868 68.9537 50.0315 69.2034C49.6761 69.4472 49.1867 69.5749 48.5576 69.5749L48.5401 69.5807ZM56.0262 67.3107H51.9423C51.9773 67.8158 52.1754 68.228 52.5249 68.5415C52.8803 68.8492 53.323 69.006 53.8648 69.006C54.1678 69.006 54.4474 68.9537 54.6979 68.8492C54.9542 68.7389 55.1698 68.5763 55.3562 68.3673L55.7291 68.7912C55.5135 69.0524 55.2397 69.2498 54.9135 69.3833C54.5756 69.5227 54.2144 69.5923 53.8473 69.5865C53.3463 69.5865 52.8977 69.482 52.5074 69.273C52.1287 69.064 51.82 68.7563 51.6044 68.3848C51.3831 67.9958 51.2724 67.5546 51.2782 67.1075C51.2782 66.6315 51.3831 66.2076 51.587 65.8303C51.785 65.4645 52.0821 65.1626 52.4433 64.9536C52.8162 64.7388 53.2415 64.6343 53.6667 64.6401C54.1153 64.6401 54.5231 64.7446 54.8843 64.9536C55.2455 65.1626 55.5252 65.4529 55.7291 65.8303C55.933 66.2018 56.0378 66.6256 56.0378 67.1075L56.0262 67.3107ZM53.6667 65.1975C53.1949 65.1975 52.7987 65.3484 52.4783 65.6503C52.1637 65.9464 51.9831 66.3354 51.9365 66.8172H55.397C55.3562 66.3354 55.1698 65.9464 54.8494 65.6503C54.5348 65.3484 54.1386 65.1975 53.6609 65.1975H53.6667ZM61.8344 62.672V69.5343H61.2053V68.5705C61.0188 68.8899 60.745 69.1453 60.413 69.3195C60.0751 69.4936 59.6964 69.5865 59.3177 69.5749C58.8808 69.5807 58.4555 69.4704 58.071 69.2614C57.704 69.0524 57.4011 68.7505 57.1971 68.3848C56.9874 68.0074 56.8826 67.5778 56.8826 67.1017C56.8826 66.6256 56.9874 66.1902 57.1971 65.8187C57.4069 65.4413 57.6982 65.151 58.071 64.9478C58.4439 64.7388 58.8575 64.6343 59.3177 64.6343C59.7139 64.6343 60.0692 64.7156 60.3838 64.884C60.7043 65.0465 60.9664 65.2787 61.1703 65.598V62.6778H61.8286L61.8344 62.672ZM59.376 69.0002C59.7139 69.0002 60.0226 68.9247 60.2964 68.7679C60.5761 68.6054 60.7916 68.3848 60.9431 68.0945C61.1062 67.8042 61.1878 67.4733 61.1878 67.1017C61.1878 66.7302 61.1062 66.405 60.9431 66.1089C60.7975 65.8303 60.5703 65.598 60.2964 65.4413C60.0168 65.2787 59.7022 65.1975 59.376 65.2033C59.0264 65.2033 58.7177 65.2845 58.438 65.4413C58.1642 65.598 57.937 65.8303 57.7856 66.1089C57.6283 66.4166 57.5467 66.7534 57.5525 67.1017C57.5525 67.4733 57.6283 67.7984 57.7856 68.0887C57.9487 68.379 58.1642 68.6054 58.438 68.7621C58.7235 68.9189 59.0497 69.0002 59.376 68.9944V69.0002ZM33.2591 80.5476C34.0864 80.5476 34.7389 80.745 35.2108 81.1398C35.6827 81.5346 35.9157 82.0803 35.9157 82.7712C35.9157 83.462 35.6827 84.002 35.2108 84.3968C34.7389 84.7857 34.0922 84.9773 33.2591 84.9773H31.5114V87.0209H30.824V80.5418H33.2533L33.2591 80.5476ZM33.2417 84.3793C33.8825 84.3793 34.3777 84.24 34.7156 83.9613C35.0535 83.6768 35.2282 83.2821 35.2282 82.7654C35.2282 82.2487 35.0593 81.8423 34.7156 81.5636C34.3719 81.2791 33.8825 81.1398 33.2417 81.1398H31.5172V84.3793H33.2417ZM38.9218 82.1209C39.5626 82.1209 40.052 82.2835 40.3899 82.6028C40.7278 82.9163 40.9025 83.3866 40.9025 84.0078V87.0267H40.2733V86.2662C40.1219 86.5216 39.9063 86.719 39.615 86.8584C39.3296 86.9977 38.9917 87.0732 38.5955 87.0732C38.0479 87.0732 37.6168 86.9454 37.2964 86.6842C36.976 86.4229 36.8128 86.0804 36.8128 85.6566C36.8128 85.2328 36.9585 84.9077 37.2556 84.658C37.5585 84.4026 38.0363 84.2806 38.6946 84.2806H40.2442V83.9846C40.2442 83.5665 40.1277 83.2472 39.8888 83.0324C39.6558 82.8118 39.3121 82.7015 38.8577 82.7015C38.5489 82.7015 38.2518 82.7538 37.9663 82.8583C37.6809 82.957 37.4362 83.0963 37.2323 83.2763L36.9352 82.7886C37.1973 82.568 37.5003 82.4054 37.8265 82.3067C38.1761 82.1906 38.5373 82.1325 38.9218 82.1325V82.1209ZM38.6887 86.5507C39.0616 86.5507 39.3762 86.4694 39.6442 86.301C39.9121 86.1268 40.1102 85.883 40.2384 85.5637V84.7683H38.7062C37.8731 84.7683 37.4537 85.0586 37.4537 85.6392C37.4537 85.9236 37.5644 86.1501 37.7799 86.3126C37.9955 86.4752 38.2984 86.5507 38.6887 86.5507ZM44.0018 87.0732C43.6057 87.0732 43.227 87.0151 42.86 86.9048C42.4988 86.7887 42.2191 86.6435 42.0152 86.4694L42.3124 85.9527C42.5163 86.1152 42.7726 86.243 43.0814 86.3533C43.3901 86.452 43.7105 86.5042 44.0484 86.5042C44.4912 86.5042 44.8233 86.4345 45.033 86.301C45.2427 86.1791 45.365 85.9527 45.3592 85.7088C45.3592 85.5289 45.301 85.3895 45.1844 85.2908C45.0563 85.1805 44.9048 85.0992 44.7417 85.0586C44.5611 85.0005 44.3222 84.9483 44.0251 84.9018C43.7047 84.8438 43.3843 84.7683 43.0697 84.6812C42.8308 84.6058 42.6153 84.4664 42.4463 84.2806C42.2774 84.0949 42.1958 83.8394 42.1958 83.5143C42.1958 83.1079 42.3648 82.7712 42.7085 82.5157C43.0522 82.2603 43.5241 82.1267 44.13 82.1267C44.4446 82.1267 44.7592 82.1674 45.0796 82.2545C45.3942 82.3357 45.6563 82.4403 45.8602 82.5796L45.5748 83.1079C45.1728 82.8292 44.6951 82.6899 44.1358 82.6899C43.7164 82.6899 43.3959 82.7654 43.1804 82.9105C42.9707 83.0615 42.8658 83.253 42.8658 83.4911C42.8658 83.6769 42.9241 83.822 43.0406 83.9323C43.1629 84.0426 43.3144 84.1297 43.495 84.1819C43.6756 84.2342 43.9203 84.2864 44.2407 84.3387C44.631 84.4142 44.9398 84.4896 45.1786 84.5593C45.4117 84.6348 45.6156 84.7625 45.7845 84.9367C45.9534 85.1167 46.035 85.3605 46.035 85.6798C46.035 86.1036 45.8544 86.4461 45.4932 86.6958C45.1378 86.9396 44.6485 87.0674 44.0193 87.0674L44.0018 87.0732ZM48.5401 87.0732C48.1439 87.0732 47.7653 87.0151 47.3982 86.9048C47.037 86.7887 46.7574 86.6435 46.5535 86.4694L46.8506 85.9527C47.0545 86.1152 47.3108 86.243 47.6196 86.3533C47.9284 86.452 48.2488 86.5042 48.5867 86.5042C49.0294 86.5042 49.3615 86.4345 49.5712 86.301C49.781 86.1733 49.9033 85.9527 49.8975 85.7088C49.8975 85.5289 49.8392 85.3895 49.7227 85.2908C49.5945 85.1805 49.4431 85.0992 49.2741 85.0586C49.0935 85.0005 48.8547 84.9483 48.5576 84.9018C48.2371 84.8438 47.9167 84.7683 47.6021 84.6812C47.3633 84.6058 47.1477 84.4664 46.9788 84.2806C46.8098 84.0949 46.7283 83.8394 46.7283 83.5143C46.7283 83.1079 46.8972 82.7712 47.2409 82.5157C47.5788 82.2603 48.0565 82.1267 48.6624 82.1267C48.977 82.1267 49.2916 82.1674 49.612 82.2545C49.9266 82.3357 50.1888 82.4403 50.3927 82.5796L50.1072 83.1079C49.7052 82.8292 49.2275 82.6899 48.6682 82.6899C48.2488 82.6899 47.9284 82.7654 47.7128 82.9105C47.5031 83.0615 47.3982 83.253 47.3982 83.4911C47.3982 83.6769 47.4565 83.822 47.573 83.9323C47.6954 84.0426 47.8468 84.1297 48.0274 84.1819C48.208 84.2342 48.4527 84.2864 48.7731 84.3387C49.1634 84.4142 49.4722 84.4896 49.7111 84.5593C49.9499 84.629 50.148 84.7625 50.3169 84.9367C50.4859 85.1167 50.5674 85.3605 50.5674 85.6798C50.5674 86.1036 50.3868 86.4461 50.0315 86.6958C49.6761 86.9396 49.1867 87.0674 48.5576 87.0674L48.5401 87.0732ZM56.0262 84.7973H51.9423C51.9773 85.3024 52.1754 85.7146 52.5249 86.0281C52.8803 86.3358 53.323 86.4926 53.8648 86.4926C54.1678 86.4926 54.4474 86.4403 54.6979 86.3358C54.9484 86.2255 55.1756 86.063 55.3562 85.854L55.7291 86.2778C55.5135 86.539 55.2397 86.7364 54.9135 86.87C54.5756 87.0093 54.2144 87.079 53.8473 87.0732C53.3463 87.0732 52.8977 86.9687 52.5074 86.7597C52.1287 86.5507 51.82 86.243 51.6044 85.8714C51.3831 85.4824 51.2724 85.0412 51.2782 84.5942C51.2782 84.1181 51.3831 83.6943 51.587 83.3169C51.785 82.9511 52.0821 82.6493 52.4433 82.4402C52.8162 82.2254 53.2415 82.1209 53.6667 82.1267C54.1153 82.1267 54.5231 82.2312 54.8843 82.4402C55.2455 82.6493 55.5252 82.9395 55.7291 83.3169C55.933 83.6885 56.0378 84.1123 56.0378 84.5942L56.0262 84.7973ZM53.6667 82.6841C53.1949 82.6841 52.7987 82.835 52.4783 83.1369C52.1637 83.433 51.9831 83.822 51.9365 84.3039H55.397C55.3562 83.822 55.1698 83.433 54.8494 83.1369C54.5348 82.835 54.1386 82.6841 53.6609 82.6841H53.6667ZM61.8344 80.1586V87.0209H61.2053V86.0572C61.0188 86.3765 60.745 86.6319 60.413 86.8061C60.0751 86.9803 59.6964 87.0732 59.3177 87.0674C58.8808 87.0732 58.4555 86.9628 58.071 86.7538C57.704 86.5448 57.4011 86.243 57.1971 85.8772C56.9874 85.4998 56.8826 85.0702 56.8826 84.5942C56.8826 84.1181 56.9874 83.6827 57.1971 83.3111C57.4069 82.9337 57.6982 82.6434 58.071 82.4402C58.4439 82.2312 58.8575 82.1267 59.3177 82.1267C59.7139 82.1267 60.0692 82.208 60.3838 82.3764C60.7043 82.5389 60.9664 82.7712 61.1703 83.0905V80.1702H61.8286L61.8344 80.1586ZM59.376 86.4868C59.7139 86.4868 60.0226 86.4113 60.2964 86.2546C60.5761 86.092 60.7916 85.8714 60.9431 85.5811C61.1062 85.2908 61.1878 84.9599 61.1878 84.5883C61.1878 84.2168 61.1062 83.8917 60.9431 83.5956C60.7975 83.3169 60.5703 83.0847 60.2964 82.9279C60.0168 82.7654 59.7022 82.6841 59.376 82.6841C59.0264 82.6841 58.7177 82.7654 58.438 82.9279C58.1642 83.0847 57.937 83.3169 57.7856 83.5956C57.6283 83.9033 57.5467 84.24 57.5525 84.5883C57.5525 84.9599 57.6283 85.2908 57.7856 85.5811C57.9487 85.8714 58.1642 86.0978 58.438 86.2546C58.7177 86.4113 59.0264 86.4868 59.376 86.4868ZM33.2591 97.204C34.0864 97.204 34.7389 97.4014 35.2108 97.7962C35.6827 98.191 35.9157 98.7367 35.9157 99.4276C35.9157 100.118 35.6827 100.658 35.2108 101.053C34.7389 101.442 34.0922 101.634 33.2591 101.634H31.5114V103.677H30.824V97.1982H33.2533L33.2591 97.204ZM33.2417 101.036C33.8825 101.036 34.3777 100.896 34.7156 100.618C35.0535 100.333 35.2282 99.9385 35.2282 99.4218C35.2282 98.9051 35.0593 98.4987 34.7156 98.22C34.3719 97.9355 33.8825 97.7962 33.2417 97.7962H31.5172V101.036H33.2417ZM38.9218 98.7774C39.5626 98.7774 40.052 98.9399 40.3899 99.2592C40.7278 99.5727 40.9025 100.043 40.9025 100.664V103.683H40.2733V102.923C40.1219 103.178 39.9063 103.375 39.615 103.515C39.3296 103.654 38.9917 103.73 38.5955 103.73C38.0479 103.73 37.6168 103.602 37.2964 103.341C36.976 103.079 36.8128 102.737 36.8128 102.313C36.8128 101.889 36.9585 101.564 37.2556 101.314C37.5585 101.059 38.0363 100.937 38.6946 100.937H40.2442V100.641C40.2442 100.223 40.1277 99.9037 39.8888 99.6888C39.6558 99.4682 39.3121 99.3579 38.8577 99.3579C38.5489 99.3579 38.2518 99.4102 37.9663 99.5147C37.6809 99.6134 37.4362 99.7527 37.2323 99.9327L36.9352 99.445C37.1973 99.2244 37.5003 99.0618 37.8265 98.9631C38.1819 98.847 38.5489 98.7832 38.9218 98.789V98.7774ZM38.6887 103.207C39.0616 103.207 39.3762 103.126 39.6442 102.957C39.9121 102.783 40.1102 102.539 40.2384 102.22V101.425H38.7062C37.8731 101.425 37.4537 101.715 37.4537 102.296C37.4537 102.58 37.5644 102.806 37.7799 102.969C37.9955 103.132 38.2984 103.207 38.6887 103.207ZM44.0018 103.73C43.6057 103.73 43.227 103.672 42.86 103.561C42.4988 103.445 42.2191 103.3 42.0152 103.126L42.3124 102.609C42.5163 102.772 42.7726 102.899 43.0814 103.01C43.3901 103.108 43.7105 103.161 44.0484 103.161C44.4912 103.161 44.8233 103.091 45.033 102.957C45.2427 102.836 45.365 102.609 45.3592 102.365C45.3592 102.185 45.301 102.046 45.1844 101.947C45.0563 101.837 44.9048 101.756 44.7417 101.715C44.5611 101.657 44.3222 101.605 44.0251 101.558C43.7047 101.5 43.3843 101.425 43.0697 101.338C42.8308 101.262 42.6153 101.123 42.4463 100.937C42.2774 100.751 42.1958 100.496 42.1958 100.171C42.1958 99.7643 42.3648 99.4334 42.7085 99.1721C43.0522 98.9109 43.5241 98.7832 44.13 98.7832C44.4446 98.7832 44.7592 98.8238 45.0796 98.9109C45.3942 98.9922 45.6563 99.0967 45.8602 99.236L45.5748 99.7643C45.1728 99.4856 44.6951 99.3463 44.1358 99.3463C43.7164 99.3463 43.3959 99.4218 43.1804 99.5669C42.9707 99.7179 42.8658 99.9095 42.8658 100.147C42.8658 100.333 42.9241 100.478 43.0406 100.589C43.1629 100.699 43.3144 100.786 43.495 100.838C43.6756 100.891 43.9203 100.943 44.2407 100.995C44.631 101.071 44.9398 101.146 45.1786 101.216C45.4117 101.291 45.6156 101.419 45.7845 101.593C45.9534 101.773 46.035 102.017 46.035 102.336C46.035 102.76 45.8544 103.103 45.4932 103.352C45.1378 103.596 44.6485 103.724 44.0193 103.724L44.0018 103.73ZM48.5401 103.73C48.1439 103.73 47.7653 103.672 47.3982 103.561C47.037 103.445 46.7574 103.3 46.5535 103.126L46.8506 102.609C47.0545 102.772 47.3108 102.899 47.6196 103.01C47.9284 103.108 48.2488 103.161 48.5867 103.161C49.0294 103.161 49.3615 103.091 49.5712 102.957C49.781 102.83 49.9033 102.609 49.8975 102.365C49.8975 102.185 49.8392 102.046 49.7227 101.947C49.5945 101.837 49.4431 101.756 49.2741 101.715C49.0935 101.657 48.8547 101.605 48.5576 101.558C48.2371 101.5 47.9167 101.425 47.6021 101.338C47.3633 101.262 47.1477 101.123 46.9788 100.937C46.8098 100.751 46.7283 100.496 46.7283 100.171C46.7283 99.7643 46.8972 99.4334 47.2409 99.1721C47.5788 98.9109 48.0565 98.7832 48.6624 98.7832C48.977 98.7832 49.2916 98.8238 49.612 98.9109C49.9266 98.9922 50.1888 99.0967 50.3927 99.236L50.1072 99.7643C49.7052 99.4856 49.2275 99.3463 48.6682 99.3463C48.2488 99.3463 47.9284 99.4218 47.7128 99.5669C47.5031 99.7179 47.3982 99.9095 47.3982 100.147C47.3982 100.333 47.4565 100.478 47.573 100.589C47.6954 100.699 47.8468 100.786 48.0274 100.838C48.208 100.891 48.4527 100.943 48.7731 100.995C49.1634 101.071 49.4722 101.146 49.7111 101.216C49.9499 101.285 50.148 101.419 50.3169 101.593C50.4859 101.773 50.5674 102.017 50.5674 102.336C50.5674 102.76 50.3868 103.103 50.0315 103.352C49.6761 103.596 49.1867 103.724 48.5576 103.724L48.5401 103.73ZM56.0262 101.454H51.9423C51.9773 101.959 52.1754 102.371 52.5249 102.685C52.8803 102.992 53.323 103.149 53.8648 103.149C54.1678 103.149 54.4474 103.097 54.6979 102.992C54.9484 102.882 55.1756 102.719 55.3562 102.51L55.7291 102.934C55.5135 103.195 55.2397 103.393 54.9135 103.526C54.5756 103.666 54.2144 103.735 53.8473 103.73C53.3463 103.73 52.8977 103.625 52.5074 103.416C52.1287 103.207 51.82 102.899 51.6044 102.528C51.3831 102.139 51.2724 101.698 51.2782 101.251C51.2782 100.774 51.3831 100.351 51.587 99.9733C51.785 99.6076 52.0821 99.3057 52.4433 99.0967C52.8162 98.8819 53.2415 98.7774 53.6667 98.7832C54.1153 98.7832 54.5231 98.8877 54.8843 99.0967C55.2455 99.3057 55.5252 99.596 55.7291 99.9733C55.933 100.345 56.0378 100.769 56.0378 101.251L56.0262 101.454ZM53.6667 99.3405C53.1949 99.3405 52.7987 99.4915 52.4783 99.7933C52.1637 100.089 51.9831 100.478 51.9365 100.96H55.397C55.3562 100.478 55.1698 100.089 54.8494 99.7933C54.5348 99.4915 54.1386 99.3405 53.6609 99.3405H53.6667ZM61.8344 96.815V103.677H61.2053V102.714C61.0188 103.033 60.745 103.288 60.413 103.463C60.0751 103.637 59.6964 103.73 59.3177 103.724C58.8808 103.73 58.4555 103.619 58.071 103.41C57.704 103.201 57.4011 102.899 57.1971 102.534C56.9874 102.156 56.8826 101.727 56.8826 101.251C56.8826 100.774 56.9874 100.339 57.1971 99.9675C57.4069 99.5901 57.6982 99.2999 58.071 99.0967C58.4439 98.8877 58.8575 98.7832 59.3177 98.7832C59.7139 98.7832 60.0692 98.8644 60.3838 99.0328C60.7043 99.1954 60.9664 99.4334 61.1703 99.7469V96.8267H61.8286L61.8344 96.815ZM59.376 103.143C59.7139 103.143 60.0226 103.068 60.2964 102.911C60.5761 102.748 60.7916 102.528 60.9431 102.238C61.1062 101.947 61.1878 101.616 61.1878 101.245C61.1878 100.873 61.1062 100.548 60.9431 100.252C60.7975 99.9733 60.5703 99.7411 60.2964 99.5843C60.0168 99.4218 59.7022 99.3405 59.376 99.3463C59.0264 99.3463 58.7177 99.4276 58.438 99.5843C58.1642 99.7411 57.937 99.9733 57.7856 100.252C57.6283 100.56 57.5467 100.896 57.5525 101.245C57.5525 101.616 57.6283 101.947 57.7856 102.238C57.9487 102.528 58.1642 102.754 58.438 102.911C58.7177 103.068 59.0264 103.143 59.376 103.143Z" fill="#72908F"/>
<path d="M14.844 82.5796L17.285 86.6145L22.7612 77.7725M14.844 99.5902L17.285 103.625L22.7612 94.7889" stroke="#72908F" stroke-width="2.38" stroke-linecap="round" stroke-linejoin="round"/>
<path fill-rule="evenodd" clip-rule="evenodd" d="M56.8944 11.5068H46.5886L47.981 3.12927C48.0334 2.80415 47.9752 2.47323 47.8062 2.18875C47.1188 1.01021 45.9361 0.41803 44.1942 0.41803C42.4407 0.41803 41.2115 1.01021 40.4425 2.21778C40.2619 2.50226 40.1861 2.83899 40.2327 3.16991L41.3804 11.5126H30.9348C29.0881 11.5126 27.5967 12.9931 27.5967 14.8219V20.0353C27.5967 20.5578 28.022 20.9817 28.5521 20.9817H59.2829C59.8073 20.9817 60.2384 20.5578 60.2384 20.0353V14.8219C60.2384 12.9931 58.7411 11.5126 56.9002 11.5126L56.8944 11.5068Z" fill="white" stroke="#72908F" stroke-width="1.43"/>
</g>
<defs>
<clipPath id="clip0_238_7321">
<rect width="89" height="122" fill="white"/>
</clipPath>
</defs>
</svg>
