<svg width="199" height="128" viewBox="0 0 199 128" fill="none" xmlns="http://www.w3.org/2000/svg">
<g clip-path="url(#clip0_238_7280)">
<path d="M101.834 28.0365L171.742 9.34743C173.598 8.85182 175.512 9.94677 176.005 11.7909L198.582 95.5779C199.081 97.422 197.979 99.318 196.123 99.8136L126.216 118.503C124.36 118.998 122.446 117.903 121.953 116.059L99.3753 32.2723C98.8766 30.4282 99.9785 28.5322 101.834 28.0365Z" fill="#E7FFFC" stroke="#72908F"/>
<path d="M127.19 81.2167L176.167 68.1695C176.538 68.0715 176.776 67.7718 176.701 67.4952C176.625 67.2243 176.272 67.0803 175.9 67.1782L126.923 80.2255C126.552 80.3234 126.314 80.6231 126.39 80.8997C126.465 81.1763 126.819 81.3146 127.19 81.2167ZM134.347 94.1602L176.486 82.9398C176.805 82.8533 177.002 82.5652 176.927 82.2886C176.852 82.0177 176.538 81.8621 176.219 81.9486L134.08 93.169C133.761 93.2554 133.564 93.5436 133.639 93.8202C133.715 94.091 134.028 94.2466 134.347 94.1602ZM141.695 98.5688L172.334 90.4085C172.566 90.3451 172.693 90.0743 172.618 89.8034C172.543 89.5326 172.299 89.3597 172.067 89.4231L141.428 97.5833C141.196 97.6467 141.068 97.9176 141.144 98.1885C141.219 98.4593 141.463 98.6322 141.695 98.5746V98.5688Z" fill="#72908F"/>
<path d="M2.86493 28.0365L72.7785 9.34743C74.6344 8.85182 76.5482 9.94677 77.0412 11.7909L99.6188 95.5779C100.118 97.422 99.0157 99.318 97.1598 99.8136L27.252 118.503C25.3962 118.998 23.4823 117.903 22.9894 116.059L0.411724 32.2723C-0.087037 30.4282 1.01488 28.5322 2.87073 28.0365H2.86493Z" fill="#E7FFFC" stroke="#72908F"/>
<path d="M28.2205 81.2167L77.1977 68.1695C77.5689 68.0715 77.8067 67.7718 77.7313 67.4952C77.6559 67.2243 77.2963 67.0803 76.931 67.1782L27.9538 80.2255C27.5826 80.3234 27.3448 80.6231 27.4202 80.8997C27.4956 81.1706 27.8552 81.3146 28.2205 81.2167ZM35.3772 94.1602L77.5167 82.9398C77.8357 82.8533 78.0329 82.5652 77.9575 82.2886C77.8821 82.0177 77.5631 81.8621 77.2499 81.9486L35.1104 93.169C34.7914 93.2554 34.5942 93.5436 34.6696 93.8202C34.745 94.091 35.0582 94.2466 35.3772 94.1602ZM42.7252 98.5688L73.3642 90.4085C73.5962 90.3451 73.7238 90.0743 73.6484 89.8034C73.5788 89.5326 73.3294 89.3597 73.0975 89.4231L42.4584 97.5833C42.2264 97.6467 42.0989 97.9176 42.1743 98.1885C42.2496 98.4593 42.4932 98.6322 42.7252 98.5746V98.5688Z" fill="#72908F"/>
<path d="M41.9366 33.2174C41.9366 33.2174 42.2266 32.0014 43.5373 31.6729C44.268 31.4597 45.0509 31.7133 45.5207 32.3126C45.5207 32.3126 46.5762 31.696 47.3534 31.8458C48.1305 31.9957 48.8729 32.9811 48.8729 32.9811C48.8729 32.9811 50.3285 31.9669 51.6218 32.4394C52.9151 32.912 53.3965 34.6063 53.3965 34.6063C53.3965 34.6063 54.8754 33.8686 55.9715 34.6697C57.0676 35.4707 57.0212 37.2514 57.0212 37.2514C57.0212 37.2514 58.6161 37.2514 59.3178 38.404C60.0196 39.5624 59.5672 41.4007 59.5672 41.4007C59.5672 41.4007 60.443 41.5045 61.1969 42.7262C61.9508 43.9479 61.5855 45.769 61.5855 45.769C61.5855 45.769 63.1745 46.1263 63.7023 47.227C64.2301 48.3335 63.9285 49.4054 63.9285 49.4054C63.9285 49.4054 65.6336 49.5841 66.2425 51.5492C66.8515 53.5201 65.5988 54.6612 65.5988 54.6612C65.5988 54.6612 66.2947 57.1047 64.8506 58.0959C63.4065 59.0871 62.061 58.1766 62.061 58.1766C62.061 58.1766 61.4405 59.3003 60.6169 59.5078C59.7934 59.7153 58.7263 59.0237 58.7263 59.0237C58.7263 59.0237 57.926 59.5193 57.3924 59.5943C56.8588 59.6692 56.1339 59.381 56.1339 59.381C56.1339 59.381 55.4611 60.2743 54.1272 60.6143C52.7934 60.9543 51.4479 60.5682 51.4479 60.5682C51.4479 60.5682 50.7287 61.6804 49.5456 61.9801C48.3625 62.2798 47.4752 61.5767 47.4752 61.5767C47.4752 61.5767 46.814 62.6716 45.7933 62.931C44.7726 63.1903 43.4909 62.5852 43.4909 62.5852C43.4909 62.5852 43.1023 63.5361 42.4296 63.7839C41.7568 64.0259 40.7709 63.5764 40.7709 63.5764C40.7709 63.5764 40.2779 64.6656 39.2456 64.9307C38.2133 65.19 37.0998 64.51 37.0998 64.51C37.0998 64.51 35.8877 66.3772 34.1594 65.8816C32.4311 65.3917 32.4659 63.0635 32.4659 63.0635C32.4659 63.0635 30.7203 62.8676 30.0939 60.718C29.4618 58.5742 30.9638 57.7674 30.9638 57.7674C30.9638 57.7674 29.8851 56.6955 30.0127 55.3182C30.1403 53.9408 31.3118 53.451 31.3118 53.451C31.3118 53.451 30.0069 52.4713 29.9315 50.9672C29.8561 49.4688 30.6855 48.541 30.6855 48.541C30.6855 48.541 29.3342 47.4576 29.253 45.9131C29.166 44.3629 30.7493 43.7981 30.7493 43.7981C30.7493 43.7981 30.0069 42.4381 30.4767 41.1414C30.9464 39.839 32.5529 39.62 32.5529 39.62C32.5529 39.62 32.002 38.0122 33.0169 37.0094C34.0318 36.0067 35.4121 36.5599 35.4121 36.5599C35.4121 36.5599 35.2439 35.0846 36.1428 34.4276C37.0418 33.7706 38.2945 34.3469 38.2945 34.3469C38.2945 34.3469 38.5729 33.1886 39.8778 32.8313C41.1884 32.474 41.9598 33.2174 41.9598 33.2174H41.9366Z" fill="white" stroke="#72908F" stroke-linecap="square"/>
<path d="M38.8337 58.7586C41.8147 60.8851 45.567 61.7438 49.2149 60.8044C52.9441 59.842 55.78 57.2026 57.2241 53.8256" stroke="#72908F"/>
<path d="M45.7991 55.6927C46.1006 56.7474 47.1562 57.3986 48.1653 57.1392C49.1744 56.8799 49.7486 55.8195 49.4528 54.7592" stroke="#72908F" stroke-linecap="round" stroke-linejoin="round"/>
<path d="M43.9141 51.9469C44.0707 52.5059 43.7633 53.0649 43.2298 53.1974C42.6962 53.3358 42.1337 52.99 41.9713 52.4367C41.8147 51.8835 42.1221 51.3187 42.6556 51.1862C43.1892 51.0479 43.7517 51.3937 43.9141 51.9469ZM50.5024 50.1777C50.659 50.7367 50.3516 51.2957 49.8181 51.434C49.2845 51.5665 48.722 51.2265 48.5596 50.6733C48.403 50.1143 48.7104 49.5553 49.2439 49.417C49.7775 49.2787 50.34 49.6244 50.5024 50.1777Z" fill="#72908F"/>
<path d="M39.1992 59.0583C39.292 58.7125 39.2688 58.3149 39.1412 57.8596C38.8628 56.8742 37.6855 56.2633 37.6855 56.2633C37.6855 56.2633 38.4047 55.2605 38.0393 53.9754C37.6739 52.6903 36.311 52.1025 36.311 52.1025C36.311 52.1025 37.9059 50.6963 37.9117 49.3997C37.9175 48.103 37.2564 47.0369 36.8968 46.668C40.5505 46.3569 46.0195 44.4839 47.307 39.9197C48.7511 41.758 51.8596 43.4812 54.568 42.8011C54.3882 43.5215 54.0055 44.4897 54.539 45.6365C55.0726 46.7833 56.3311 47.3077 56.3311 47.3077C56.3311 47.3077 55.5365 48.4661 55.8207 49.4688C56.1049 50.4658 57.4504 51.2496 57.4504 51.2496C57.4504 51.2496 56.6617 52.4252 56.9226 53.3473C57.0212 53.693 57.1952 54.01 57.4446 54.2981" stroke="#72908F" stroke-linecap="round"/>
<path d="M52.7296 28.0712L122.637 9.38204C124.493 8.88643 126.407 9.98138 126.9 11.8255L149.478 95.6182C149.976 97.4623 148.875 99.3584 147.019 99.854L77.1109 118.543C75.2551 119.039 73.3412 117.944 72.8483 116.1L50.2706 32.3011C49.7718 30.457 50.8738 28.561 52.7296 28.0654V28.0712Z" fill="#A8ECE8" stroke="#72908F"/>
<path d="M85.2361 94.1948L127.376 82.9744C127.695 82.8879 127.892 82.5998 127.816 82.3232C127.741 82.0523 127.428 81.8967 127.109 81.9832L84.9693 93.2093C84.6503 93.2958 84.4531 93.5839 84.5285 93.8548C84.6039 94.1256 84.9229 94.2812 85.2361 94.1948ZM92.5899 98.6034L123.229 90.4431C123.461 90.3797 123.588 90.1089 123.513 89.838C123.438 89.5672 123.194 89.3943 122.962 89.4519L92.3231 97.6122C92.0911 97.6756 91.9635 97.9464 92.0389 98.2173C92.1085 98.4881 92.3579 98.661 92.5899 98.5976V98.6034Z" fill="#72908F"/>
<path d="M157.21 41.6968C160.078 48.643 156.87 56.4047 150.042 59.0371C143.215 61.6694 135.355 58.1736 132.487 51.2274C129.619 44.2812 132.833 36.5189 139.66 33.8865C146.488 31.2542 154.347 34.75 157.216 41.6962L157.21 41.6968Z" fill="white"/>
<path fill-rule="evenodd" clip-rule="evenodd" d="M150.178 58.8529C157.015 56.2542 160.205 48.5296 157.298 41.5995C154.391 34.6695 146.494 31.1606 139.657 33.7593C132.82 36.358 129.631 44.0826 132.532 51.0133C135.439 57.9433 143.335 61.4523 150.173 58.8536L150.178 58.8529ZM140.105 34.8441C146.366 32.4636 153.591 35.674 156.248 42.0124C158.905 48.3509 155.989 55.4169 149.727 57.7916C143.466 60.1721 136.241 56.9617 133.584 50.6233C130.928 44.2905 133.843 37.2188 140.105 34.8383L140.105 34.8441Z" fill="#72908F"/>
<path d="M132.094 43.5275C132.264 43.7339 132.598 44.0429 133.094 44.391C133.908 44.9573 134.917 45.4484 136.136 45.7873C137.157 46.0741 138.286 46.2437 139.523 46.2846C140.906 46.3259 142.494 46.024 145.768 45.2116L147.277 44.8377C147.862 44.6938 148.35 44.5786 148.816 44.4661C154.79 43.0766 158.211 43.1173 159.941 45.172C160.754 46.1329 160.645 47.7006 159.864 48.2098C159.605 48.3909 159.541 48.7465 159.717 49.0044C159.889 49.2687 160.242 49.3491 160.515 49.1838C161.882 48.287 162.042 45.9183 160.796 44.4454C158.646 41.8944 154.921 41.8486 148.51 43.3473C148.038 43.4548 147.544 43.5764 146.954 43.7209C146.624 43.8 145.513 44.081 145.439 44.0954C142.273 44.8837 140.736 45.1737 139.499 45.1328C138.445 45.111 137.405 44.9542 136.386 44.6789C135.299 44.3709 134.409 43.9471 133.703 43.4552C133.493 43.3058 133.288 43.1499 133.104 42.9742C133.045 42.923 132.992 42.8654 132.938 42.8079C132.74 42.5641 132.385 42.5187 132.133 42.7164C131.895 42.9241 131.867 43.2871 132.077 43.5295L132.094 43.5275ZM143.589 50.0445C143.808 50.5701 143.562 51.1617 143.042 51.3617C142.523 51.5618 141.925 51.2952 141.706 50.7696C141.487 50.244 141.733 49.6524 142.252 49.4524C142.772 49.2523 143.37 49.5189 143.589 50.0445Z" fill="#72908F"/>
<path d="M149.911 47.535C150.13 48.0606 149.884 48.6522 149.364 48.8522C148.851 49.0516 148.247 48.7857 148.028 48.2601C147.809 47.7346 148.055 47.1429 148.575 46.9429C149.094 46.7428 149.692 47.0094 149.911 47.535ZM149.175 51.7755C149.599 52.7994 149.125 53.9398 148.119 54.3302C147.114 54.7205 145.962 54.2055 145.538 53.1816C145.422 52.8877 145.089 52.7352 144.787 52.846C144.497 52.9612 144.36 53.2905 144.475 53.573C144.475 53.573 144.476 53.5844 144.477 53.5902C145.145 55.2062 146.969 56.0256 148.555 55.4106C150.142 54.7956 150.888 52.9908 150.22 51.369C150.103 51.0751 149.771 50.9283 149.468 51.0334C149.178 51.1486 149.041 51.4779 149.156 51.7604L149.157 51.7718L149.175 51.7755Z" fill="#72908F"/>
<path fill-rule="evenodd" clip-rule="evenodd" d="M97.386 90.4489C120.729 90.4489 139.653 71.6445 139.653 48.4488C139.653 25.2531 120.729 6.44293 97.3802 6.44293C74.0312 6.44293 55.1131 25.2473 55.1131 48.443C55.1131 61.4672 61.075 73.1025 70.4355 80.8075L46.234 121.015C45.3583 122.473 45.828 124.364 47.2895 125.24L51.1578 127.556C52.6135 128.426 54.5041 127.965 55.3799 126.519C55.3799 126.519 55.3857 126.507 55.3915 126.502L79.477 86.4955C85.0794 89.1004 91.1979 90.4489 97.386 90.4431V90.4489Z" fill="#A8ECE8"/>
<path d="M97.3397 79.1824C114.991 79.1824 129.301 64.9632 129.301 47.423C129.301 29.8827 114.991 15.6636 97.3397 15.6636C79.688 15.6636 65.3784 29.8827 65.3784 47.423C65.3784 64.9632 79.688 79.1824 97.3397 79.1824Z" fill="white"/>
<path d="M95.2807 86.8586C118.339 86.8586 137.032 68.2842 137.032 45.3714C137.032 22.4587 118.339 3.88422 95.2807 3.88422C72.2223 3.88422 53.5298 22.4587 53.5298 45.3714C53.5298 68.2842 72.2223 86.8586 95.2807 86.8586Z" stroke="#72908F"/>
<path d="M77.8126 82.7035L53.2921 123.436C52.4222 124.888 50.5373 125.361 49.0758 124.502C49.0758 124.502 49.0642 124.496 49.0584 124.49L45.1901 122.174C43.7287 121.292 43.2589 119.407 44.1346 117.949L68.6551 77.2172" stroke="#72908F"/>
<path d="M97.4452 78.493C114.812 78.493 128.89 64.5035 128.89 47.2465C128.89 29.9895 114.812 16 97.4452 16C80.0785 16 66 29.9895 66 47.2465C66 64.5035 80.0785 78.493 97.4452 78.493Z" stroke="#72908F"/>
<path d="M98.5054 37.3148C98.7896 37.2975 99.0099 37.0555 98.9984 36.7731C98.9984 36.7673 98.9984 36.7558 98.9984 36.7501C98.9636 36.289 98.8824 35.828 98.7548 35.3785C97.7224 31.7133 93.9759 29.4945 90.3918 30.4166C86.8077 31.3387 84.7373 35.0558 85.7696 38.721C85.9146 39.2396 86.1176 39.741 86.3785 40.2193C86.5235 40.4844 86.8483 40.5882 87.1093 40.4498C87.3645 40.3115 98.2154 37.3379 98.5112 37.3206L98.5054 37.3148Z" fill="white"/>
<path d="M87.0223 40.0349C86.7903 39.6085 86.6047 39.1647 86.4771 38.6979C85.5492 35.4131 87.4108 32.0821 90.6238 31.258C93.8425 30.4282 97.2005 32.4221 98.1226 35.7012C98.2386 36.1046 98.3082 36.5138 98.343 36.9287C98.3662 37.2514 98.6446 37.4935 98.9578 37.482C99.2651 37.4647 99.4971 37.2053 99.4797 36.9057C99.4797 36.8999 99.4797 36.8884 99.4797 36.8826C99.4391 36.387 99.3521 35.8972 99.2187 35.4246C98.1168 31.5231 94.1267 29.1546 90.3048 30.1343C86.4829 31.1197 84.2791 35.0788 85.381 38.9803C85.5376 39.5336 85.7522 40.0695 86.0306 40.5709C86.1755 40.8533 86.5235 40.9628 86.8077 40.8187C87.0861 40.6631 87.1789 40.3116 87.0223 40.0349Z" fill="#72908F"/>
<path d="M108.382 46.1551C110.423 53.3876 106.335 60.7238 99.2477 62.5449C92.1606 64.3659 84.7604 59.9804 82.719 52.7479C80.6775 45.5155 84.772 38.1793 91.8591 36.3582C98.9461 34.5371 106.346 38.9227 108.388 46.1551H108.382Z" fill="white"/>
<path fill-rule="evenodd" clip-rule="evenodd" d="M99.4043 62.3777C106.497 60.5912 110.563 53.2896 108.481 46.0687C106.399 38.8478 98.9636 34.4449 91.8707 36.2314C84.7779 38.0179 80.7124 45.3195 82.7886 52.5404C84.8706 59.7614 92.3057 64.1642 99.3985 62.3777H99.4043ZM92.1897 37.3609C98.6852 35.7243 105.488 39.7525 107.39 46.3568C109.293 52.9611 105.575 59.6403 99.0795 61.2712C92.584 62.9079 85.7812 58.8796 83.8789 52.2753C81.9767 45.6768 85.6942 38.9918 92.1897 37.3552V37.3609Z" fill="#72908F"/>
<path d="M83.2235 45.0544C83.3685 45.2792 83.6642 45.6249 84.1166 46.0283C84.8589 46.6853 85.8043 47.2904 86.9758 47.7687C87.9559 48.1721 89.0578 48.4718 90.2815 48.6562C91.6502 48.8579 93.2625 48.7427 96.6088 48.3162L98.1515 48.1203C98.7489 48.0454 99.2476 47.9877 99.7232 47.9301C105.819 47.2443 109.211 47.6823 110.69 49.9241C111.386 50.9729 111.096 52.5174 110.261 52.9323C109.983 53.0821 109.878 53.4279 110.023 53.7045C110.162 53.9869 110.505 54.1079 110.795 53.9754C112.256 53.2435 112.691 50.9095 111.624 49.3017C109.785 46.5182 106.091 46.0399 99.5492 46.7833C99.0678 46.8351 98.5633 46.8985 97.9601 46.9735C97.6238 47.0138 96.487 47.1636 96.4117 47.1694C93.1755 47.5843 91.6154 47.6938 90.3917 47.5094C89.3478 47.3653 88.3329 47.0887 87.3527 46.6968C86.3088 46.2646 85.4737 45.7402 84.8299 45.1697C84.6386 44.9968 84.453 44.8181 84.2906 44.6222C84.2384 44.5646 84.192 44.5012 84.1456 44.4378C83.9774 44.1727 83.6294 44.0862 83.3569 44.2534C83.0959 44.432 83.0263 44.7893 83.2061 45.0544H83.2235ZM93.883 52.8631C94.0396 53.4106 93.7265 53.9696 93.1871 54.1079C92.6477 54.2462 92.0852 53.912 91.9286 53.3645C91.772 52.817 92.0852 52.258 92.6245 52.1197C93.1639 51.9814 93.7265 52.3157 93.883 52.8631Z" fill="#72908F"/>
<path d="M100.454 51.1055C100.611 51.6529 100.297 52.2119 99.7581 52.3502C99.2245 52.4885 98.6562 52.1543 98.4996 51.6068C98.343 51.0594 98.6562 50.5003 99.1956 50.362C99.7349 50.2237 100.297 50.558 100.454 51.1055ZM99.2304 55.2317C99.5319 56.2978 98.9288 57.3755 97.8849 57.6464C96.8409 57.9172 95.7564 57.2718 95.4548 56.2056C95.3736 55.9002 95.0605 55.71 94.7473 55.7849C94.4457 55.8656 94.2717 56.1768 94.3529 56.4707C94.3529 56.4707 94.3529 56.4822 94.3529 56.488C94.8285 58.1708 96.5452 59.1966 98.1922 58.7701C99.8393 58.3437 100.79 56.6378 100.315 54.9493C100.234 54.6439 99.9205 54.4595 99.6073 54.5286C99.3057 54.6093 99.1318 54.9205 99.213 55.2144V55.2259L99.2304 55.2317Z" fill="#72908F"/>
<path fill-rule="evenodd" clip-rule="evenodd" d="M115.689 26.3769C121.744 24.3368 124.986 17.8132 122.933 11.8025C120.88 5.79179 114.309 2.57608 108.254 4.61039C102.2 6.65046 98.9577 13.1741 101.011 19.1848C103.064 25.1955 109.635 28.417 115.689 26.3769Z" fill="white" stroke="#72908F"/>
<path fill-rule="evenodd" clip-rule="evenodd" d="M115.532 26.4137C121.285 24.4615 124.365 18.2187 122.414 12.4667C120.464 6.71466 114.221 3.63737 108.468 5.58412C102.715 7.53638 99.6351 13.7792 101.586 19.5312C103.536 25.2832 109.779 28.366 115.532 26.4137Z" fill="#A8ECE8"/>
<path d="M106.89 16.5L111.12 20.7305L117.5 11" stroke="#72908F" stroke-width="1.4" stroke-linecap="round" stroke-linejoin="round"/>
</g>
<defs>
<clipPath id="clip0_238_7280">
<rect width="199" height="128" fill="white"/>
</clipPath>
</defs>
</svg>
