<svg width="106" height="130" viewBox="0 0 106 130" fill="none" xmlns="http://www.w3.org/2000/svg">
<g clip-path="url(#clip0_238_7340)">
<path d="M10.3528 19.4866L95.0389 19.4068C97.4475 19.4068 99.3991 21.3584 99.3991 23.767L99.2032 125.212C99.2032 127.613 97.2516 129.557 94.8575 129.557L10.1715 129.637C7.76284 129.637 5.81128 127.686 5.81128 125.277L6.00716 23.8323C6.00716 21.4309 7.95872 19.4866 10.3528 19.4866Z" fill="#A8ECE8" stroke="#72908F"/>
<path d="M22.5047 87.5736H82.1832C82.633 87.5736 82.9958 87.3051 82.9958 86.9641C82.9958 86.6304 82.633 86.3547 82.1832 86.3547H22.5047C22.0549 86.3547 21.6921 86.6232 21.6921 86.9641C21.6921 87.2979 22.0549 87.5736 22.5047 87.5736ZM26.64 104.448H77.9827C78.3672 104.448 78.6864 104.18 78.6864 103.839C78.6864 103.498 78.3744 103.23 77.9899 103.23H26.64C26.2555 103.23 25.9362 103.498 25.9362 103.839C25.9362 104.173 26.2482 104.448 26.6327 104.448H26.64ZM33.6337 111.681H70.9672C71.2501 111.681 71.475 111.413 71.475 111.072C71.475 110.738 71.2501 110.463 70.9672 110.463H33.6337C33.3507 110.463 33.1258 110.731 33.1258 111.072C33.1258 111.406 33.3507 111.681 33.6337 111.681Z" fill="#72908F"/>
<path d="M59.3016 43.6671C59.6426 43.7397 59.9763 43.5148 60.0489 43.1738C60.1577 42.6514 60.2157 42.1146 60.2157 41.5777C60.2157 37.203 56.6391 33.6627 52.2209 33.6627C47.8027 33.6627 44.2188 37.2175 44.2188 41.5922C44.2188 42.2234 44.2913 42.8328 44.4364 43.435C44.5162 43.7759 44.8572 43.9791 45.1982 43.8993C45.5391 43.8195 58.9679 43.6018 59.3089 43.6671H59.3016Z" fill="white"/>
<path d="M45.2344 43.4205C45.1038 42.8836 45.0385 42.3322 45.0385 41.7736C45.0385 37.856 48.2524 34.6711 52.2208 34.6711C56.1892 34.6711 59.3959 37.8415 59.3959 41.7663C59.3959 42.2524 59.3451 42.724 59.2508 43.1956C59.1782 43.5583 59.4104 43.9138 59.7731 43.9863C60.1359 44.0589 60.4914 43.8267 60.5712 43.464C60.6873 42.9054 60.7453 42.3395 60.7453 41.7663C60.7453 37.1015 56.9365 33.3289 52.2281 33.3362C47.5197 33.3362 43.7036 37.1232 43.7036 41.7809C43.7036 42.4483 43.7834 43.1085 43.9358 43.7397C44.0228 44.1024 44.3856 44.3273 44.7483 44.2403C45.1111 44.1532 45.336 43.7905 45.2489 43.4277L45.2344 43.4205Z" fill="#72908F"/>
<path d="M68.0436 56.7186C68.0436 65.4027 60.9265 72.4472 52.1554 72.4545C43.3843 72.4617 36.2817 65.4317 36.2817 56.7477C36.2817 48.0636 43.3988 41.0191 52.1699 41.0118C60.941 41.0046 68.0436 48.0346 68.0436 56.7186Z" fill="white"/>
<path fill-rule="evenodd" clip-rule="evenodd" d="M52.1555 72.4544C60.9266 72.4472 68.0364 65.4027 68.0436 56.7186C68.0436 48.0346 60.9411 40.9973 52.1772 41.0046C43.4061 41.0118 36.2963 48.0563 36.2891 56.7404C36.2891 65.4245 43.3916 72.4617 52.1627 72.4544H52.1555ZM52.1772 42.3467C60.2011 42.3467 66.7087 48.7745 66.7015 56.7186C66.7015 64.6627 60.1866 71.105 52.1627 71.1123C44.1388 71.1123 37.6312 64.6845 37.6385 56.7404C37.6385 48.7963 44.1533 42.354 52.1772 42.3467Z" fill="#72908F"/>
<path d="M39.4015 48.3538C39.4959 48.644 39.7208 49.1155 40.1125 49.6959C40.751 50.6391 41.6433 51.5822 42.8258 52.4455C43.8198 53.171 44.9878 53.8239 46.3372 54.3753C47.839 54.992 49.7252 55.3185 53.7081 55.8045L55.5436 56.0222C56.2546 56.1092 56.8495 56.1818 57.4081 56.2616C64.6267 57.2337 68.3775 58.6847 69.3496 61.6012C69.8067 62.9723 68.9724 64.5974 67.8842 64.8296C67.5142 64.8876 67.2675 65.2286 67.3183 65.5913C67.3691 65.9541 67.7173 66.208 68.08 66.1572C68.1018 66.1572 68.1308 66.15 68.1526 66.1427C70.0679 65.7437 71.323 63.277 70.6192 61.1804C69.4077 57.5602 65.3232 55.9786 57.5823 54.9339C57.0091 54.8541 56.4142 54.7816 55.696 54.6945L53.8533 54.4769C50.0082 54.0126 48.1799 53.6934 46.8305 53.142C45.6915 52.6849 44.6033 52.09 43.6094 51.3718C42.5502 50.5955 41.7666 49.7685 41.2153 48.9559C41.0484 48.7093 40.9033 48.4553 40.7727 48.1869C40.7364 48.1071 40.7002 48.0273 40.6712 47.9403C40.5551 47.5848 40.1778 47.3961 39.8223 47.5122C39.4668 47.6283 39.2782 48.0055 39.3943 48.361L39.4015 48.3538ZM49.2319 60.0922C49.2319 60.7523 48.6878 61.2892 48.0203 61.2892C47.3601 61.2892 46.816 60.7596 46.816 60.0922C46.816 59.432 47.3601 58.8951 48.0276 58.8951C48.695 58.8951 49.2319 59.432 49.2319 60.0922Z" fill="#72908F"/>
<path d="M57.2484 60.0849C57.2484 60.7451 56.7043 61.2819 56.0368 61.2819C55.3766 61.2819 54.8325 60.7523 54.8325 60.0849C54.8325 59.4247 55.3766 58.8878 56.0441 58.8878C56.7115 58.8878 57.2556 59.4247 57.2484 60.0849ZM54.6004 64.4233C54.5931 65.7001 53.5484 66.7303 52.2716 66.7231C50.9947 66.7303 49.9572 65.7074 49.95 64.4305C49.95 64.0605 49.6453 63.7558 49.2753 63.7558C48.9053 63.7558 48.6006 64.0605 48.6006 64.4305C48.6006 66.4401 50.2402 68.0652 52.2716 68.0652C54.2957 68.0652 55.9425 66.4329 55.9425 64.4233C55.9425 64.0533 55.6378 63.7486 55.2678 63.7486C54.8978 63.7486 54.5931 64.0533 54.5931 64.4233H54.6004Z" fill="#72908F"/>
<path d="M17.673 1.41473L21.7647 13.2764L34.3084 13.0515L24.2894 20.6039L28.3811 32.4656L18.101 25.276L8.08202 32.8283L11.7457 20.8288L1.46558 13.6392L14.0092 13.4143L17.673 1.41473Z" fill="#FFF9D1"/>
<path d="M16.2364 1.82104L19.7623 12.0504L19.8929 12.4349H20.2992L31.1162 12.2318L22.4829 18.7466L22.1564 18.9933L22.287 19.3778L25.8129 29.5999L16.9474 23.397L16.6137 23.1649L16.2872 23.4115L7.65393 29.9264L10.8098 19.581L10.9331 19.1892L10.5994 18.957L1.74121 12.7541L12.5582 12.5582H12.9645L13.0806 12.1592L16.2364 1.81378V1.82104Z" stroke="#72908F" stroke-width="1.1245"/>
<path d="M52.9752 1.87909L57.0669 13.7408L69.6106 13.5159L59.5916 21.0682L63.6834 32.9299L53.4032 25.7404L43.3843 33.2927L47.048 21.2931L36.7678 14.1035L49.3115 13.8786L52.9752 1.87909Z" fill="#FFF9D1"/>
<path d="M51.5459 2.27807L55.0718 12.5074L55.2024 12.8919H55.6087L66.4257 12.6888L57.7924 19.2037L57.4659 19.4503L57.5965 19.8348L61.1224 30.057L52.2569 23.854L51.9232 23.6219L51.5967 23.8686L42.9634 30.3834L46.1193 20.038L46.2426 19.6462L45.9089 19.4141L37.0435 13.2112L47.8605 13.0153H48.2667L48.3828 12.6163L51.5387 2.27081L51.5459 2.27807Z" stroke="#72908F" stroke-width="1.1245"/>
<path d="M89.3727 1.87909L93.4644 13.7408L106.008 13.5159L95.9891 21.0682L100.081 32.9299L89.8007 25.7404L79.7817 33.2927L83.4454 21.2931L73.1653 14.1035L85.709 13.8786L89.3727 1.87909Z" fill="#FFF9D1"/>
<path d="M87.9434 2.27807L91.4693 12.5074L91.5999 12.8919H92.0061L102.823 12.6888L94.1898 19.2037L93.8634 19.4503L93.994 19.8348L97.5198 30.057L88.6544 23.854L88.3206 23.6219L87.9942 23.8686L79.3609 30.3834L82.5168 20.038L82.6401 19.6462L82.3064 19.4141L73.4409 13.2112L84.2579 13.0153H84.6642L84.7803 12.6163L87.9361 2.27081L87.9434 2.27807Z" stroke="#72908F" stroke-width="1.1245"/>
</g>
<defs>
<clipPath id="clip0_238_7340">
<rect width="106.008" height="130" fill="white"/>
</clipPath>
</defs>
</svg>
