<svg width="178" height="140" viewBox="0 0 178 140" fill="none" xmlns="http://www.w3.org/2000/svg">
<g clip-path="url(#clip0_238_7240)">
<path d="M107.08 40.0121L169.524 56.6798C171.313 57.1579 172.371 58.9949 171.893 60.7782L151.551 136.65C151.073 138.434 149.241 139.492 147.458 139.019L85.0144 122.351C83.2257 121.873 82.1675 120.036 82.6456 118.253L102.987 42.3809C103.465 40.5976 105.297 39.5394 107.08 40.0121Z" fill="#E7FFFC" stroke="#72908F" stroke-width="0.537148"/>
<path d="M102.472 93.3186L146.496 105.114C146.829 105.206 147.152 105.077 147.216 104.824C147.281 104.577 147.066 104.303 146.738 104.217L102.713 92.4216C102.38 92.3303 102.058 92.4592 101.994 92.7117C101.929 92.9587 102.144 93.2327 102.472 93.3186ZM102.171 106.753L140.045 116.899C140.33 116.975 140.615 116.835 140.684 116.588C140.749 116.341 140.572 116.078 140.287 116.002L102.413 105.856C102.128 105.78 101.843 105.92 101.773 106.162C101.709 106.409 101.886 106.672 102.171 106.747V106.753ZM105.888 113.542L133.428 120.923C133.637 120.976 133.857 120.826 133.922 120.574C133.986 120.326 133.873 120.079 133.664 120.026L106.124 112.645C105.915 112.591 105.695 112.747 105.63 112.994C105.566 113.241 105.679 113.489 105.888 113.542Z" fill="#72908F"/>
<path fill-rule="evenodd" clip-rule="evenodd" d="M127.234 87.4208C133.669 89.1611 140.265 85.3742 141.968 78.9661C143.671 72.5579 139.836 65.951 133.401 64.2106C126.966 62.4703 120.369 66.2572 118.661 72.6653C116.953 79.0735 120.794 85.6804 127.229 87.4208H127.234Z" fill="white" stroke="#72908F" stroke-width="0.929266"/>
<path d="M127.53 78.2087C127.395 78.7136 126.874 79.009 126.369 78.8694C125.864 78.7351 125.558 78.2194 125.693 77.7091C125.827 77.2096 126.348 76.9142 126.853 77.0484C127.358 77.1881 127.664 77.7038 127.53 78.2087ZM133.18 79.7127C133.046 80.2176 132.525 80.513 132.02 80.3734C131.515 80.2391 131.214 79.7234 131.343 79.2131C131.478 78.7136 131.999 78.4182 132.504 78.5525C133.014 78.6921 133.315 79.2078 133.18 79.7127Z" fill="#72908F"/>
<path d="M126.735 81.8398C126.482 82.8066 127.057 83.8004 128.024 84.0582C128.985 84.3214 129.979 83.7574 130.242 82.7959C130.242 82.7959 130.242 82.7905 130.242 82.7852" stroke="#72908F" stroke-width="0.929266" stroke-linecap="round" stroke-linejoin="round"/>
<path fill-rule="evenodd" clip-rule="evenodd" d="M125.596 68.6152C127.825 72.9446 136.049 80.0027 142.258 82.4199C142.763 80.1639 143.703 77.5534 143.644 75.5552C143.397 67.7612 135.684 62.2715 127.755 63.6251C120.015 62.3736 117.394 71.924 117.834 74.5937C118.307 74.0028 118.994 73.6429 120.036 72.4719C122.072 72.1926 124.21 70.5275 125.596 68.6045V68.6152Z" fill="white" stroke="#72908F" stroke-width="0.929266" stroke-linecap="round"/>
<path d="M2.74489 56.986L65.1561 40.2001C66.9448 39.722 68.7818 40.7802 69.2599 42.5636L89.5802 118.441C90.0583 120.224 89.0001 122.061 87.2167 122.539L24.8055 139.331C23.0168 139.809 21.1798 138.751 20.7017 136.967L0.381438 61.079C-0.0966237 59.2957 0.961558 57.4587 2.74489 56.9806V56.986Z" fill="#E7FFFC" stroke="#72908F" stroke-width="0.537148"/>
<path d="M25.4123 105.453L69.437 93.657C69.77 93.5657 69.9849 93.2972 69.915 93.0501C69.8506 92.803 69.5283 92.6741 69.1953 92.76L25.1706 104.556C24.8376 104.647 24.6227 104.916 24.6872 105.163C24.7517 105.41 25.0793 105.539 25.407 105.453H25.4123ZM31.8635 117.243L69.7378 107.096C70.0225 107.021 70.1997 106.758 70.1353 106.511C70.0708 106.264 69.7861 106.124 69.4961 106.199L31.6218 116.346C31.3371 116.421 31.1598 116.685 31.2243 116.932C31.2887 117.179 31.5734 117.318 31.8581 117.238L31.8635 117.243ZM38.4812 121.261L66.0207 113.881C66.2302 113.827 66.343 113.58 66.2785 113.333C66.2141 113.086 65.9885 112.93 65.7844 112.984L38.2448 120.364C38.0353 120.418 37.9225 120.665 37.987 120.912C38.0514 121.159 38.277 121.315 38.4812 121.261Z" fill="#72908F"/>
<path d="M38.0675 62.2231C38.0675 62.2231 38.3683 61.1327 39.5769 60.8051C40.7801 60.472 41.371 61.3154 41.371 61.3154C41.371 61.3154 42.354 60.7353 43.063 60.8481C43.772 60.9609 44.422 61.8149 44.422 61.8149C44.422 61.8149 45.781 60.8749 46.952 61.2563C48.1229 61.6377 48.5097 63.1309 48.5097 63.1309C48.5097 63.1309 49.8848 62.4326 50.857 63.1148C51.8346 63.797 51.7379 65.3816 51.7379 65.3816C51.7379 65.3816 53.199 65.3332 53.806 66.3377C54.4129 67.3422 53.9403 68.9912 53.9403 68.9912C53.9403 68.9912 54.7406 69.0557 55.3906 70.1246C56.0405 71.1881 55.6538 72.8211 55.6538 72.8211C55.6538 72.8211 57.0933 73.0896 57.5391 74.0565C57.9904 75.0234 57.6842 75.9849 57.6842 75.9849C57.6842 75.9849 59.2419 76.0923 59.7361 77.8273C60.2303 79.5569 59.0485 80.6097 59.0485 80.6097C59.0485 80.6097 59.6072 82.7637 58.2589 83.6876C56.9107 84.6115 55.7075 83.838 55.7075 83.838C55.7075 83.838 55.1059 84.8532 54.3485 85.0627C53.5911 85.2722 52.635 84.6867 52.635 84.6867C52.635 84.6867 51.8884 85.154 51.3995 85.2346C50.9107 85.3151 50.2554 85.0788 50.2554 85.0788C50.2554 85.0788 49.6108 85.8952 48.3861 86.2336C47.1615 86.5721 45.9368 86.2713 45.9368 86.2713C45.9368 86.2713 45.2492 87.2757 44.1588 87.5765C43.0684 87.8773 42.2788 87.2811 42.2788 87.2811C42.2788 87.2811 41.6449 88.2748 40.7049 88.5326C39.7649 88.7905 38.6101 88.2909 38.6101 88.2909C38.6101 88.2909 38.2287 89.1504 37.6056 89.3867C36.9825 89.6231 36.0962 89.2524 36.0962 89.2524C36.0962 89.2524 35.6128 90.2408 34.662 90.4986C33.7113 90.7618 32.7122 90.1817 32.7122 90.1817C32.7122 90.1817 31.5466 91.8737 29.9835 91.487C28.4204 91.1002 28.5224 89.0322 28.5224 89.0322C28.5224 89.0322 26.9325 88.9086 26.4222 87.0179C25.9119 85.1271 27.3085 84.3698 27.3085 84.3698C27.3085 84.3698 26.3577 83.4512 26.5135 82.2212C26.6693 80.9911 27.7597 80.5238 27.7597 80.5238C27.7597 80.5238 26.5941 79.6912 26.5726 78.3591C26.5511 77.0269 27.3353 76.1836 27.3353 76.1836C27.3353 76.1836 26.1321 75.2597 26.1053 73.89C26.073 72.5149 27.5394 71.967 27.5394 71.967C27.5394 71.967 26.9002 70.7853 27.3676 69.6089C27.8349 68.4379 29.312 68.1962 29.312 68.1962C29.312 68.1962 28.8608 66.7835 29.817 65.865C30.7731 64.9465 32.0193 65.3977 32.0193 65.3977C32.0193 65.3977 31.9065 64.0924 32.7498 63.4801C33.5931 62.8677 34.7157 63.3458 34.7157 63.3458C34.7157 63.3458 35.0058 62.3091 36.209 61.9546C37.4176 61.6001 38.0998 62.2339 38.0998 62.2339L38.0675 62.2231Z" fill="white" stroke="#72908F" stroke-width="0.929266" stroke-linecap="square"/>
<path d="M34.9199 85.3151C37.654 87.1253 41.0327 87.6571 44.1911 86.7815C47.4462 85.8898 50.1481 83.6285 51.5984 80.5828" stroke="#72908F" stroke-width="0.929266"/>
<path d="M41.1775 82.3447C41.4138 83.2525 42.3431 83.795 43.2509 83.5586C43.2616 83.5586 43.2724 83.5533 43.2831 83.5479C44.2016 83.2954 44.7549 82.35 44.5185 81.4261" stroke="#72908F" stroke-width="0.929266" stroke-linecap="round" stroke-linejoin="round"/>
<path d="M39.507 78.8264C39.6305 79.3259 39.3351 79.8308 38.8409 79.9651C38.3575 80.1048 37.8525 79.8201 37.7129 79.3366C37.7129 79.3366 37.7129 79.3259 37.7129 79.3205C37.5893 78.821 37.8848 78.3161 38.3789 78.1818C38.8624 78.0421 39.3673 78.3214 39.507 78.8049C39.507 78.8102 39.507 78.8156 39.507 78.8264ZM45.4263 77.231C45.5499 77.7306 45.2544 78.2355 44.7603 78.3698C44.2768 78.5094 43.7719 78.2248 43.6323 77.7413C43.6323 77.7413 43.6323 77.7306 43.6323 77.7252C43.5087 77.2257 43.8041 76.7207 44.2983 76.5865C44.7818 76.4468 45.2867 76.7261 45.4263 77.2095C45.4263 77.2149 45.4263 77.2203 45.4263 77.231Z" fill="#72908F"/>
<path d="M34.8285 85.2936C34.9199 84.9875 34.9145 84.633 34.8124 84.2355C34.5868 83.3653 33.534 82.8604 33.534 82.8604C33.534 82.8604 34.2162 81.9526 33.9261 80.8192C33.6307 79.6912 32.406 79.2078 32.406 79.2078C32.406 79.2078 33.9046 77.9132 33.9476 76.7584C33.9906 75.6089 33.4212 74.6796 33.1043 74.3627C36.4507 73.9813 41.4999 72.1604 42.8159 68.0727C44.0782 69.6627 46.866 71.1076 49.3584 70.42C49.1704 71.0646 48.7944 71.9348 49.2456 72.9392C49.6968 73.9437 50.8302 74.3734 50.8302 74.3734C50.8302 74.3734 50.0728 75.4262 50.2984 76.3018C50.524 77.1773 51.7326 77.838 51.7326 77.838C51.7326 77.838 50.9752 78.907 51.1901 79.7181C51.2706 80.0189 51.4157 80.2982 51.6359 80.5453" stroke="#72908F" stroke-width="0.929266" stroke-linecap="round"/>
<path d="M51.6789 25.2889H116.475C118.258 25.2889 119.698 26.7338 119.698 28.5171L119.612 107.387C119.612 109.164 118.167 110.604 116.389 110.604H51.593C49.8097 110.604 48.3701 109.159 48.3701 107.376L48.4561 28.5064C48.4561 26.7284 49.901 25.2889 51.6789 25.2889Z" fill="#A8ECE8" stroke="#72908F" stroke-width="0.537148"/>
<path d="M61.0953 78.0422H106.619C106.962 78.0422 107.242 77.8327 107.242 77.5802C107.242 77.3278 106.962 77.1183 106.619 77.1183H61.0953C60.7515 77.1183 60.4722 77.3278 60.4722 77.5802C60.4722 77.8327 60.7515 78.0422 61.0953 78.0422ZM64.2698 91.111H103.433C103.729 91.111 103.965 90.9015 103.965 90.649C103.965 90.3912 103.729 90.1871 103.433 90.1871H64.2698C63.9744 90.1871 63.738 90.3966 63.738 90.649C63.738 90.9015 63.9744 91.111 64.2698 91.111ZM69.6144 96.7134H98.094C98.3088 96.7134 98.4807 96.5093 98.4807 96.2515C98.4807 95.9937 98.3088 95.7895 98.094 95.7895H69.6144C69.3996 95.7895 69.2277 95.999 69.2277 96.2515C69.2277 96.5093 69.3996 96.7134 69.6198 96.7134H69.6144Z" fill="#72908F"/>
<path d="M89.1021 44.0407C89.3653 44.0944 89.6178 43.9225 89.6715 43.6647C89.7521 43.2565 89.7951 42.8429 89.7951 42.4293C89.7951 39.0399 87.0556 36.3004 83.6877 36.3004C80.3198 36.3004 77.5911 39.0506 77.5964 42.44C77.5964 42.9288 77.6555 43.4015 77.763 43.8635C77.822 44.1213 78.0852 44.2824 78.3431 44.2233C78.6009 44.1589 88.8443 43.9924 89.1021 44.0461V44.0407Z" fill="white"/>
<path d="M78.3697 43.8527C78.2677 43.4338 78.2193 43.0094 78.2193 42.5797C78.2193 39.5448 80.6633 37.0793 83.6875 37.0793C86.7116 37.0793 89.161 39.5341 89.1664 42.5743C89.1664 42.9503 89.1288 43.3156 89.059 43.6808C88.9999 43.9602 89.1825 44.2341 89.4618 44.2932C89.7411 44.3523 90.0097 44.1696 90.0688 43.8903C90.1547 43.4552 90.1977 43.0202 90.1977 42.5743C90.1977 38.9647 87.281 36.0426 83.6875 36.0426C80.0993 36.0426 77.1934 38.9754 77.1987 42.5851C77.1987 43.1061 77.2578 43.611 77.376 44.0998C77.4351 44.3791 77.709 44.551 77.9883 44.4919C78.2677 44.4329 78.4395 44.1589 78.3805 43.8796C78.3805 43.8688 78.3805 43.8635 78.3751 43.8527H78.3697Z" fill="#72908F"/>
<path d="M95.7896 54.1552C95.8003 60.8803 90.3859 66.3377 83.6984 66.3431C77.0109 66.3485 71.5803 60.9018 71.5696 54.1767C71.5589 47.4516 76.9733 41.9942 83.6662 41.9888C90.3536 41.9835 95.7842 47.4301 95.795 54.1552H95.7896Z" fill="white"/>
<path fill-rule="evenodd" clip-rule="evenodd" d="M83.6984 66.3431C90.3859 66.3377 95.795 60.8803 95.7842 54.1552C95.7735 47.4301 90.3429 41.9835 83.6554 41.9888C76.9679 41.9942 71.5589 47.4516 71.5696 54.1767C71.5803 60.9018 77.0109 66.3485 83.6984 66.3431ZM83.6608 43.0255C89.7789 43.0202 94.7475 48.0049 94.7583 54.1552C94.769 60.3056 89.8219 65.301 83.6984 65.3064C77.5803 65.3118 72.6117 60.3271 72.5955 54.1767C72.5848 48.0264 77.5373 43.0309 83.6554 43.0255H83.6608Z" fill="#72908F"/>
<path d="M73.933 47.6772C74.0082 47.9028 74.1747 48.2627 74.4755 48.7139C74.9643 49.4444 75.6465 50.1749 76.5543 50.8464C77.3171 51.4104 78.2033 51.9153 79.2293 52.3396C80.3734 52.8177 81.813 53.0755 84.8532 53.4462L86.2552 53.6181C86.7977 53.6825 87.2489 53.7416 87.6786 53.8007C93.1844 54.5527 96.0474 55.6807 96.794 57.9367C97.1432 58.9949 96.5147 60.2572 95.6821 60.4345C95.4028 60.4989 95.2309 60.7836 95.3008 61.0629C95.3652 61.3315 95.623 61.498 95.897 61.455C97.358 61.1435 98.3088 59.2366 97.7716 57.6091C96.8424 54.8052 93.7269 53.5805 87.8183 52.7694C87.3402 52.7049 86.8622 52.6404 86.3787 52.5814L84.9768 52.4095C82.044 52.0496 80.6474 51.8025 79.6214 51.3728C78.7459 51.0183 77.924 50.5563 77.1613 50.0031C76.3502 49.4014 75.754 48.7622 75.3296 48.1284C75.2007 47.9404 75.0879 47.7417 74.9912 47.5375C74.959 47.4731 74.9321 47.414 74.9106 47.3495C74.8247 47.081 74.5346 46.9306 74.2661 47.0165C73.9975 47.1078 73.8471 47.3979 73.9384 47.6718L73.933 47.6772ZM81.4477 56.7657C81.4477 57.276 81.0341 57.6896 80.5292 57.6896C80.0189 57.6896 79.6053 57.276 79.6053 56.7657C79.6053 56.2555 80.0189 55.8418 80.5292 55.8418C81.0395 55.8418 81.4531 56.2555 81.4531 56.7657H81.4477Z" fill="#72908F"/>
<path d="M87.5604 56.7603C87.5604 57.2706 87.1521 57.6842 86.6419 57.6842C86.1316 57.6681 85.7287 57.2438 85.7448 56.7335C85.7609 56.2447 86.1531 55.8525 86.6419 55.8364C87.1521 55.8364 87.5658 56.25 87.5658 56.7603H87.5604ZM85.5461 60.1229C85.5461 61.1005 84.7565 61.9008 83.7789 61.9062C82.7959 61.9062 82.0009 61.1112 82.0063 60.1282C82.0063 59.8436 81.7753 59.6072 81.4906 59.6072C81.2059 59.6072 80.9749 59.8436 80.9803 60.1282C80.9803 61.6806 82.2319 62.9429 83.7842 62.9429C85.3366 62.9375 86.5881 61.6752 86.5828 60.1229C86.5828 59.8382 86.3518 59.6072 86.0671 59.6018C85.7824 59.6018 85.5514 59.8382 85.5568 60.1229H85.5461Z" fill="#72908F"/>
<path d="M177.672 97.4547C178.333 94.9999 177.146 92.3518 175.029 91.7824C172.854 91.2023 170.577 92.846 169.9 95.376L162.858 121.573C162.82 121.696 162.804 121.825 162.809 121.954L163.212 131.413C163.223 131.929 163.572 132.375 164.077 132.509C164.577 132.649 165.103 132.445 165.382 132.009L170.474 124.022C170.55 123.915 170.603 123.786 170.63 123.657L177.678 97.4601L177.672 97.4547Z" fill="#A8ECE8"/>
<path d="M167.993 97.6803C167.676 97.5675 167.509 97.2183 167.622 96.9014C167.73 96.6006 168.052 96.4341 168.358 96.5201L178 99.5549L174.718 111.652C174.648 111.979 174.32 112.189 173.993 112.113C173.665 112.044 173.456 111.716 173.531 111.388C173.531 111.372 173.542 111.351 173.547 111.335L176.523 100.366L167.993 97.6803Z" fill="#72908F"/>
<path d="M176.367 96.1494C177.028 93.6946 175.841 91.0465 173.724 90.4771C171.549 89.897 169.271 91.5407 168.595 94.0707L161.553 120.267C161.515 120.391 161.499 120.52 161.504 120.649L161.907 130.108C161.918 130.624 162.267 131.069 162.772 131.204C163.271 131.343 163.798 131.139 164.077 130.704L169.169 122.717C169.244 122.609 169.298 122.48 169.325 122.351L176.372 96.1548L176.367 96.1494Z" stroke="#72908F" stroke-width="1.30527"/>
<path d="M163.121 117.598L169.83 119.505C170.206 119.612 170.426 119.999 170.34 120.38C170.26 120.74 169.9 120.966 169.54 120.88C169.529 120.88 169.513 120.874 169.502 120.869L162.793 118.957C162.417 118.849 162.197 118.463 162.283 118.081C162.369 117.721 162.723 117.501 163.083 117.582C163.094 117.582 163.11 117.587 163.121 117.592V117.598Z" fill="#72908F"/>
<path d="M151.422 32.1805C144.063 27.5342 144.251 22.63 145.347 17.4949C142.527 21.9263 137.735 25.0364 130.736 23.6882C136.237 27.4697 137.907 33.2387 136.457 39.244C139.631 33.9423 142.779 31.1707 151.422 32.1805Z" fill="#FFF9D1" stroke="#72908F" stroke-width="0.891665" stroke-linecap="round" stroke-linejoin="round"/>
<path d="M167.595 26.3954C164.077 24.2146 164.131 21.9693 164.609 19.6274C163.309 21.6309 161.064 23.0222 157.744 22.3507C160.376 24.1233 161.209 26.7768 160.57 29.5163C162.031 27.1152 163.497 25.869 167.595 26.3954Z" fill="#FFF9D1"/>
<path d="M167.015 24.9988C163.497 22.818 163.551 20.5727 164.029 18.2308C162.729 20.2397 160.484 21.6255 157.164 20.9541C159.796 22.7267 160.629 25.3802 159.989 28.1197C161.451 25.7186 162.917 24.4724 167.015 24.9988Z" fill="#FFF9D1" stroke="#72908F" stroke-width="0.891665" stroke-linecap="round" stroke-linejoin="round"/>
<path d="M164.072 43.466C161.257 41.7202 161.3 39.9262 161.682 38.0515C160.645 39.6576 158.845 40.7641 156.192 40.227C158.298 41.645 158.964 43.7668 158.453 45.9583C159.619 44.0353 160.795 43.0416 164.072 43.466Z" fill="#FFF9D1"/>
<path d="M163.486 42.0747C160.672 40.329 160.715 38.5349 161.096 36.6603C160.059 38.2664 158.26 39.3729 155.606 38.8357C157.712 40.2538 158.378 42.3755 157.868 44.5671C159.033 42.6441 160.21 41.6504 163.486 42.0747ZM129.786 30.1608L126.359 28.7535L130.93 30.6281M129.576 27.4106L127.712 31.971L129.576 27.4106ZM149.698 36.4025L146.743 35.1885L150.686 36.8053M149.515 34.0336L147.909 37.9656L149.515 34.0336ZM139.658 3.196L136.231 1.78867L140.797 3.66332M139.449 0.445801L137.585 5.00618L139.449 0.445801ZM157.921 4.95247L155.972 4.15212L158.571 5.21567M157.803 3.38937L156.745 5.98379L157.803 3.38937ZM131.424 7.85844L129.474 7.05809L132.074 8.12164M131.306 6.29534L130.248 8.88976L131.306 6.29534Z" fill="#FFF9D1"/>
<path d="M129.786 30.1608L126.359 28.7535L130.93 30.6281M129.576 27.4106L127.712 31.971M149.698 36.4025L146.743 35.1885L150.686 36.8053M149.515 34.0336L147.909 37.9656M139.658 3.196L136.231 1.78867L140.797 3.66332M139.449 0.445801L137.585 5.00618M157.921 4.95247L155.972 4.15212L158.571 5.21567M157.803 3.38937L156.745 5.98379M131.424 7.85844L129.474 7.05809L132.074 8.12164M131.306 6.29534L130.248 8.88976M163.486 42.0747C160.672 40.329 160.715 38.5349 161.096 36.6603C160.059 38.2664 158.26 39.3729 155.606 38.8357C157.712 40.2538 158.378 42.3756 157.868 44.5671C159.033 42.6441 160.21 41.6504 163.486 42.0747Z" stroke="#72908F" stroke-width="0.891665" stroke-linecap="round" stroke-linejoin="round"/>
</g>
<defs>
<clipPath id="clip0_238_7240">
<rect width="178" height="139.712" fill="white"/>
</clipPath>
</defs>
</svg>
