<svg width="51" height="51" viewBox="0 0 51 51" fill="none" xmlns="http://www.w3.org/2000/svg">
<mask id="mask0_544_1448" style="mask-type:luminance" maskUnits="userSpaceOnUse" x="0" y="0" width="51" height="51">
<path d="M25.5 49.25C28.6195 49.2539 31.7089 48.6413 34.5909 47.4475C37.4729 46.2537 40.0906 44.5022 42.2936 42.2936C44.5022 40.0906 46.2537 37.4729 47.4475 34.5909C48.6413 31.7089 49.2539 28.6195 49.25 25.5C49.2539 22.3806 48.6413 19.2911 47.4475 16.4091C46.2537 13.5271 44.5022 10.9094 42.2936 8.70639C40.0906 6.49783 37.4729 4.74634 34.5909 3.55254C31.7089 2.35874 28.6195 1.74617 25.5 1.75002C22.3806 1.74617 19.2911 2.35874 16.4091 3.55254C13.5271 4.74634 10.9094 6.49783 8.70639 8.70639C6.49783 10.9094 4.74634 13.5271 3.55254 16.4091C2.35874 19.2911 1.74617 22.3806 1.75002 25.5C1.74617 28.6195 2.35874 31.7089 3.55254 34.5909C4.74634 37.4729 6.49783 40.0906 8.70639 42.2936C10.9094 44.5022 13.5271 46.2537 16.4091 47.4475C19.2911 48.6413 22.3806 49.2539 25.5 49.25Z" fill="white" stroke="white" stroke-width="2" stroke-linejoin="round"/>
<path d="M16 25.5L23.125 32.625L37.375 18.375" stroke="black" stroke-width="3" stroke-linecap="round" stroke-linejoin="round"/>
</mask>
<g mask="url(#mask0_544_1448)">
<path d="M-3 -3H54V54H-3V-3Z" fill="#14D27F"/>
</g>
</svg>
