<svg width="130" height="9" viewBox="0 0 130 9" fill="none" xmlns="http://www.w3.org/2000/svg">
<path d="M71.5083 8.82178C69.2317 8.44235 67.2536 6.9321 65.2954 5.5242C64.6328 5.07238 63.8713 4.91262 63.1572 5.27707C61.9328 5.85871 60.7935 6.69496 59.5988 7.36396C58.2497 8.11783 56.8157 8.8068 55.3183 8.76437C54.3966 8.7419 53.4887 8.43236 52.6876 7.85822C51.8093 7.25662 51.0617 6.29306 50.0628 6.00099C49.0362 5.90114 48.0729 6.57014 47.0957 6.88218C46.3401 7.17175 45.5845 7.43885 44.8171 7.66601C43.5076 8.05543 42.1191 8.19522 40.7918 7.91563C39.5516 7.69347 38.4696 6.82976 37.2571 6.48527C36.8042 6.35796 36.3453 6.42536 35.8963 6.5352C33.8411 7.23914 31.8433 8.23516 29.7209 8.59462C27.3789 9.10386 25.1102 8.22517 23.1223 6.67748C22.2104 6.08337 21.1917 5.62655 20.1612 5.95856C16.5928 7.22167 12.623 9.80531 9.02696 7.30155C7.59686 6.43784 6.61577 4.44581 4.99775 4.09883C3.89798 4.0539 2.98018 4.98002 2.07228 5.64403C1.49272 6.1308 0.307891 7.18922 0.00327741 5.82126C-0.0600189 4.42584 0.80635 3.2501 1.49074 2.26657C2.73095 0.571597 4.64765 -0.409439 6.46346 0.164704C8.12103 0.591567 9.3474 2.12428 10.7637 3.16523C13.9957 4.80777 17.9043 0.586575 21.3242 0.93106C23.3557 0.99846 25.039 2.48374 26.833 3.47976C30.4903 4.75535 33.8648 0.933557 37.5281 1.5102C38.703 1.68494 39.789 2.29652 40.8789 2.83572C43.118 3.6545 45.3788 2.23911 47.5171 1.5077C48.6307 1.06836 49.8214 0.833706 50.9746 1.16821C52.1436 1.47026 53.1801 2.29153 54.1434 3.15025C54.903 3.97402 55.8742 3.89164 56.7603 3.45729C56.7049 3.48225 56.6574 3.50222 56.606 3.52469C59.3792 2.40636 61.9091 -0.476838 64.9829 0.19466C66.6246 0.514183 67.9934 1.78479 69.4255 2.75334C73.1244 5.36694 77.4008 3.22514 81.2184 2.3764C83.0401 1.85718 84.3753 2.31899 85.9102 3.56463C87.2157 4.02394 88.5568 3.31251 89.8148 2.89563C91.8186 2.08933 93.8342 1.13076 95.9704 1.18818C98.0572 1.16821 100.069 1.92957 102.118 2.31899C103.469 2.60107 104.84 2.7109 106.209 2.70341C109.783 2.69343 113.316 1.88464 116.874 1.61254C117.823 1.5751 118.755 1.8447 119.701 1.92458C120.674 1.96452 121.645 1.95453 122.618 1.95703C124.434 1.97201 126.248 1.86966 128.044 1.52018C128.972 1.34544 129.858 2.21664 129.984 3.37741C130.113 4.56564 129.438 5.64652 128.513 5.82625C126.681 6.18072 124.834 6.3979 122.994 6.67748C121.556 6.9321 120.102 6.97704 118.658 6.79481C117.938 6.70494 117.224 6.50274 116.494 6.60509C112.77 7.04444 109.049 7.75338 105.299 7.66102C102.941 7.63106 100.627 7.04943 98.3242 6.47029C94.2871 5.25211 91.69 7.90815 87.8764 8.58713C86.1694 8.92663 84.4109 8.45733 82.9986 7.19421C82.605 7.04194 82.1856 7.22417 81.7881 7.29157C80.714 7.58363 79.6419 7.87569 78.5639 8.14529C76.2496 8.72443 73.8642 9.30107 71.5044 8.82178H71.5083Z" fill="#64CDC7"/>
</svg>
