<svg width="21" height="18" viewBox="0 0 21 18" fill="none" xmlns="http://www.w3.org/2000/svg">
<path d="M19.2781 2.90151H17.2126V1.5245C17.2126 1.3419 17.1401 1.16678 17.0109 1.03766C16.8818 0.908537 16.7067 0.835999 16.5241 0.835999H4.13102C3.94842 0.835999 3.7733 0.908537 3.64418 1.03766C3.51506 1.16678 3.44252 1.3419 3.44252 1.5245V2.90151H1.37701C1.0118 2.90151 0.661555 3.04659 0.403316 3.30483C0.145077 3.56307 0 3.91331 0 4.27852V5.65553C0 6.56854 0.362693 7.44416 1.00829 8.08975C1.32796 8.40942 1.70746 8.663 2.12512 8.836C2.54279 9.009 2.99044 9.09804 3.44252 9.09804H3.75665C4.16222 10.3833 4.93551 11.5216 5.98095 12.3722C7.02639 13.2227 8.29815 13.7483 9.63905 13.884V15.9831H7.57354C7.39094 15.9831 7.21582 16.0556 7.0867 16.1847C6.95758 16.3139 6.88504 16.489 6.88504 16.6716C6.88504 16.8542 6.95758 17.0293 7.0867 17.1584C7.21582 17.2876 7.39094 17.3601 7.57354 17.3601H13.0816C13.2642 17.3601 13.4393 17.2876 13.5684 17.1584C13.6975 17.0293 13.7701 16.8542 13.7701 16.6716C13.7701 16.489 13.6975 16.3139 13.5684 16.1847C13.4393 16.0556 13.2642 15.9831 13.0816 15.9831H11.0161V13.8814C13.7649 13.6034 16.0456 11.6748 16.8752 9.09804H17.2126C18.1256 9.09804 19.0012 8.73535 19.6468 8.08975C20.2924 7.44416 20.6551 6.56854 20.6551 5.65553V4.27852C20.6551 3.91331 20.51 3.56307 20.2518 3.30483C19.9936 3.04659 19.6433 2.90151 19.2781 2.90151ZM3.44252 7.72104C2.89471 7.72104 2.36934 7.50342 1.98198 7.11606C1.59462 6.7287 1.37701 6.20333 1.37701 5.65553V4.27852H3.44252V7.03253C3.44252 7.26203 3.45371 7.49154 3.47608 7.72104H3.44252ZM15.8356 6.95508C15.8356 10.012 13.3398 12.5182 10.3276 12.5406C8.86674 12.5406 7.46575 11.9603 6.43279 10.9273C5.39984 9.89434 4.81953 8.49335 4.81953 7.03253V2.21301H15.8356V6.95508ZM19.2781 5.65553C19.2781 6.20333 19.0605 6.7287 18.6731 7.11606C18.2858 7.50342 17.7604 7.72104 17.2126 7.72104H17.1696C17.1978 7.46669 17.2122 7.21099 17.2126 6.95508V4.27852H19.2781V5.65553Z" fill="#64CDC7"/>
</svg>
