<svg width="24" height="24" viewBox="0 0 24 24" fill="none" xmlns="http://www.w3.org/2000/svg">
<path d="M12 24C5.38286 24 0 18.6171 0 12C0 5.38286 5.38286 0 12 0C18.6171 0 24 5.38286 24 12C24 18.6171 18.6171 24 12 24ZM12 1.71429C6.32571 1.71429 1.71429 6.32571 1.71429 12C1.71429 17.6743 6.32571 22.2857 12 22.2857C17.6743 22.2857 22.2857 17.6743 22.2857 12C22.2857 6.32571 17.6743 1.71429 12 1.71429Z" fill="#64CDC7"/>
<path d="M12 18C11.52 18 11.1429 17.6229 11.1429 17.1429V6.85714C11.1429 6.37714 11.52 6 12 6C12.48 6 12.8571 6.37714 12.8571 6.85714V17.1429C12.8571 17.6229 12.48 18 12 18Z" fill="#64CDC7"/>
<path d="M17.1429 12.8571H6.85714C6.37714 12.8571 6 12.48 6 12C6 11.52 6.37714 11.1429 6.85714 11.1429H17.1429C17.6229 11.1429 18 11.52 18 12C18 12.48 17.6229 12.8571 17.1429 12.8571Z" fill="#64CDC7"/>
</svg>
