<svg width="14" height="14" viewBox="0 0 14 14" fill="none" xmlns="http://www.w3.org/2000/svg">
<path fill-rule="evenodd" clip-rule="evenodd" d="M5.77686 1.42666C5.6769 1.51637 5.57225 1.60072 5.46336 1.67936C5.27462 1.80602 5.06246 1.89342 4.83953 1.93776C4.74263 1.95676 4.64129 1.96499 4.43926 1.98082C3.93196 2.02136 3.67799 2.04162 3.46646 2.11636C3.22452 2.20163 3.00478 2.34006 2.82338 2.52145C2.64199 2.70284 2.50357 2.92259 2.41829 3.16452C2.34356 3.37606 2.32329 3.63002 2.28276 4.13732C2.27549 4.27141 2.26111 4.40502 2.23969 4.53759C2.19536 4.76052 2.10796 4.97269 1.98129 5.16142C1.92619 5.24376 1.86032 5.32102 1.72859 5.47492C1.39862 5.86252 1.23332 6.05632 1.13643 6.25899C0.912858 6.72766 0.912858 7.27232 1.13643 7.74099C1.23332 7.94366 1.39862 8.13746 1.72859 8.52506C1.86032 8.67896 1.92619 8.75622 1.98129 8.83856C2.10796 9.02729 2.19536 9.23946 2.23969 9.46239C2.25869 9.55929 2.26692 9.66062 2.28276 9.86266C2.32329 10.37 2.34356 10.6239 2.41829 10.8355C2.50357 11.0774 2.64199 11.2971 2.82338 11.4785C3.00478 11.6599 3.22452 11.7983 3.46646 11.8836C3.67799 11.9584 3.93196 11.9786 4.43926 12.0192C4.64129 12.035 4.74263 12.0432 4.83953 12.0622C5.06246 12.1066 5.27462 12.1946 5.46336 12.3206C5.54569 12.3757 5.62296 12.4416 5.77686 12.5733C6.16446 12.9033 6.35826 13.0686 6.56092 13.1655C7.02959 13.3891 7.57426 13.3891 8.04293 13.1655C8.24559 13.0686 8.43939 12.9033 8.82699 12.5733C8.98089 12.4416 9.05816 12.3757 9.14049 12.3206C9.32922 12.194 9.54139 12.1066 9.76432 12.0622C9.86122 12.0432 9.96256 12.035 10.1646 12.0192C10.6719 11.9786 10.9259 11.9584 11.1374 11.8836C11.3793 11.7983 11.5991 11.6599 11.7805 11.4785C11.9619 11.2971 12.1003 11.0774 12.1856 10.8355C12.2603 10.6239 12.2806 10.37 12.3211 9.86266C12.3369 9.66062 12.3452 9.55929 12.3642 9.46239C12.4085 9.23946 12.4965 9.02729 12.6226 8.83856C12.6777 8.75622 12.7435 8.67896 12.8753 8.52506C13.2052 8.13746 13.3705 7.94366 13.4674 7.74099C13.691 7.27232 13.691 6.72766 13.4674 6.25899C13.3705 6.05632 13.2052 5.86252 12.8753 5.47492C12.7855 5.37496 12.7012 5.27032 12.6226 5.16142C12.4958 4.97272 12.408 4.76064 12.3642 4.53759C12.3427 4.40502 12.3284 4.27141 12.3211 4.13732C12.2806 3.63002 12.2603 3.37606 12.1856 3.16452C12.1003 2.92259 11.9619 2.70284 11.7805 2.52145C11.5991 2.34006 11.3793 2.20163 11.1374 2.11636C10.9259 2.04162 10.6719 2.02136 10.1646 1.98082C10.0305 1.97355 9.89689 1.95917 9.76432 1.93776C9.54127 1.89394 9.32919 1.8061 9.14049 1.67936C9.0316 1.60072 8.92695 1.51637 8.82699 1.42666C8.43939 1.09669 8.24559 0.93139 8.04293 0.83449C7.81159 0.723765 7.55839 0.66629 7.30193 0.66629C7.04546 0.66629 6.79226 0.723765 6.56092 0.83449C6.35826 0.93139 6.16446 1.09669 5.77686 1.42666ZM10.0715 5.64656C10.161 5.54859 10.2093 5.41987 10.2063 5.2872C10.2033 5.15453 10.1493 5.02812 10.0554 4.93428C9.9616 4.84045 9.83519 4.78641 9.70252 4.78342C9.56984 4.78043 9.44113 4.82871 9.34316 4.91822L6.27149 7.98989L5.26069 6.97972C5.16272 6.89021 5.03401 6.84193 4.90133 6.84492C4.76866 6.84791 4.64225 6.90195 4.54842 6.99578C4.45458 7.08962 4.40054 7.21603 4.39755 7.3487C4.39456 7.48137 4.44285 7.61009 4.53236 7.70806L5.90669 9.08239C6.00334 9.17885 6.13431 9.23302 6.27086 9.23302C6.4074 9.23302 6.53837 9.17885 6.63502 9.08239L10.0715 5.64656Z" fill="white"/>
</svg>
