<svg width="19" height="16" viewBox="0 0 19 16" fill="none" xmlns="http://www.w3.org/2000/svg">
<path d="M12.5808 6.37738L8.4498 3.62337C8.34609 3.55417 8.22553 3.51444 8.101 3.5084C7.97647 3.50237 7.85264 3.53026 7.74272 3.58911C7.6328 3.64796 7.54093 3.73554 7.4769 3.84253C7.41287 3.94951 7.3791 4.07187 7.37918 4.19655V9.70458C7.3791 9.82926 7.41287 9.95162 7.4769 10.0586C7.54093 10.1656 7.6328 10.2532 7.74272 10.312C7.85264 10.3709 7.97647 10.3988 8.101 10.3927C8.22553 10.3867 8.34609 10.347 8.4498 10.2778L12.5808 7.52374C12.6753 7.46089 12.7527 7.37568 12.8063 7.27568C12.8598 7.17569 12.8879 7.064 12.8879 6.95056C12.8879 6.83712 12.8598 6.72544 12.8063 6.62544C12.7527 6.52544 12.6753 6.44023 12.5808 6.37738ZM8.75619 8.41794V5.48749L10.9577 6.95056L8.75619 8.41794ZM17.0182 0.754028H1.87115C1.50594 0.754028 1.1557 0.899105 0.897457 1.15734C0.639218 1.41558 0.494141 1.76583 0.494141 2.13104V11.7701C0.494141 12.1353 0.639218 12.4855 0.897457 12.7438C1.1557 13.002 1.50594 13.1471 1.87115 13.1471H17.0182C17.3834 13.1471 17.7337 13.002 17.9919 12.7438C18.2502 12.4855 18.3952 12.1353 18.3952 11.7701V2.13104C18.3952 1.76583 18.2502 1.41558 17.9919 1.15734C17.7337 0.899105 17.3834 0.754028 17.0182 0.754028ZM17.0182 11.7701H1.87115V2.13104H17.0182V11.7701ZM18.3952 15.2126C18.3952 15.3952 18.3227 15.5703 18.1936 15.6995C18.0645 15.8286 17.8893 15.9011 17.7067 15.9011H1.18264C1.00004 15.9011 0.824918 15.8286 0.695799 15.6995C0.566679 15.5703 0.494141 15.3952 0.494141 15.2126C0.494141 15.03 0.566679 14.8549 0.695799 14.7258C0.824918 14.5966 1.00004 14.5241 1.18264 14.5241H17.7067C17.8893 14.5241 18.0645 14.5966 18.1936 14.7258C18.3227 14.8549 18.3952 15.03 18.3952 15.2126Z" fill="#64CDC7"/>
</svg>
