<svg width="36" height="29" viewBox="0 0 36 29" fill="none" xmlns="http://www.w3.org/2000/svg">
<g clip-path="url(#clip0_34_1951)">
<path d="M19.3333 25.7778H4.02993C2.69378 25.7778 1.61541 24.6951 1.61541 23.3633H18.5342C18.981 23.3633 19.3419 23.0024 19.3419 22.5556C19.3419 22.1087 18.981 21.7479 18.5342 21.7479H1.61111V4.02993C1.61111 2.69378 2.69378 1.61541 4.02563 1.61541H29.8034C31.1396 1.61541 32.2179 2.69807 32.2179 4.02993V13.2927C32.2179 13.7396 32.5788 14.1004 33.0256 14.1004C33.4724 14.1004 33.8333 13.7396 33.8333 13.2927V4.02993C33.8333 1.80444 32.0289 0.0042963 29.8034 0H4.02993C1.80444 0 0 1.80444 0 4.02993V23.3633C0 25.5887 1.80444 27.3889 4.02993 27.3932H19.3333C19.7801 27.3932 20.141 27.0323 20.141 26.5855C20.141 26.1387 19.7801 25.7778 19.3333 25.7778Z" fill="#64CDC7"/>
<path d="M13.9753 6.01484C13.2449 5.5938 12.3083 5.84299 11.883 6.57336C11.7498 6.80536 11.6768 7.07173 11.6768 7.3381V16.8243C11.6768 17.6664 12.3556 18.3538 13.1976 18.3581C13.4683 18.3581 13.7347 18.2894 13.971 18.1519L22.1855 13.4088C22.9159 12.9877 23.1694 12.0511 22.744 11.3165C22.6108 11.0845 22.4175 10.8911 22.1855 10.758L13.971 6.01484H13.9753ZM13.2922 16.6868V7.47988L21.2661 12.0855L13.2922 16.6911V16.6868Z" fill="#64CDC7"/>
<path d="M29.1675 18.762C28.8538 18.4483 28.3426 18.4483 28.0289 18.762L26.014 20.7769C25.7046 21.0948 25.7089 21.6061 26.0269 21.9154C26.3405 22.2205 26.8389 22.2205 27.1525 21.9154L27.7926 21.2753V24.9701C27.7926 25.4169 28.1535 25.7778 28.6003 25.7778C29.0472 25.7778 29.4081 25.4169 29.4081 24.9701V21.2753L30.0482 21.9154C30.3575 22.2334 30.8688 22.2377 31.1867 21.9283C31.5046 21.619 31.5089 21.1077 31.1996 20.7898C31.1996 20.7898 31.191 20.7812 31.1867 20.7769L29.1718 18.762H29.1675Z" fill="#64CDC7"/>
<path d="M28.5954 15.3034C24.8146 15.3034 21.7471 18.371 21.7471 22.1517C21.7471 25.9324 24.8146 29 28.5954 29C32.3761 29 35.4437 25.9324 35.4437 22.1517C35.4437 18.371 32.3761 15.3077 28.5954 15.3034ZM28.5954 27.3889C25.704 27.3889 23.3582 25.0431 23.3582 22.1517C23.3582 19.2603 25.704 16.9145 28.5954 16.9145C31.4868 16.9145 33.8326 19.2603 33.8326 22.1517C33.8326 25.0431 31.4868 27.3846 28.5954 27.3889Z" fill="#64CDC7"/>
</g>
<defs>
<clipPath id="clip0_34_1951">
<rect width="35.4444" height="29" fill="white"/>
</clipPath>
</defs>
</svg>
