<svg width="24" height="32" viewBox="0 0 24 32" fill="none" xmlns="http://www.w3.org/2000/svg">
<path d="M20.4118 7.52174H23V31H1V4.91304C12 3.6087 20.0882 1 20.0882 1H20.4118V7.52174ZM20.4118 7.52174H4.23529M17.8235 19.2609C17.8235 17.7042 17.21 16.2112 16.1179 15.1105C15.0257 14.0097 13.5445 13.3913 12 13.3913M17.8235 19.2609C17.8235 20.0317 17.6729 20.7949 17.3802 21.5071C17.0876 22.2192 16.6586 22.8662 16.1179 23.4113C15.5771 23.9563 14.9351 24.3887 14.2286 24.6836C13.522 24.9786 12.7648 25.1304 12 25.1304M17.8235 19.2609C17.1765 19.913 15.2353 20.5652 12 20.5652C8.76471 20.5652 6.82353 19.913 6.17647 19.2609M12 13.3913C10.4555 13.3913 8.97427 14.0097 7.88214 15.1105C6.79002 16.2112 6.17647 17.7042 6.17647 19.2609M12 13.3913C13.2501 13.3913 14.2647 16.0196 14.2647 19.2609C14.2647 22.5022 13.2501 25.1304 12 25.1304M12 13.3913C10.7499 13.3913 9.73529 16.0196 9.73529 19.2609C9.73529 22.5022 10.7499 25.1304 12 25.1304M12 25.1304C10.4555 25.1304 8.97427 24.512 7.88214 23.4113C7.34138 22.8662 6.91242 22.2192 6.61976 21.5071C6.3271 20.7949 6.17647 20.0317 6.17647 19.2609" stroke="#64CDC7" stroke-width="1.6"/>
</svg>
