<svg width="21" height="21" viewBox="0 0 21 21" fill="none" xmlns="http://www.w3.org/2000/svg">
<path d="M17.3613 3.41005C16.4444 2.48416 15.3524 1.75002 14.1488 1.25042C12.9453 0.750812 11.6544 0.495737 10.3513 0.500054C4.89133 0.500054 0.441328 4.95005 0.441328 10.4101C0.441328 12.1601 0.901328 13.8601 1.76133 15.3601L0.361328 20.5001L5.61133 19.1201C7.06133 19.9101 8.69133 20.3301 10.3513 20.3301C15.8113 20.3301 20.2613 15.8801 20.2613 10.4201C20.2613 7.77005 19.2313 5.28005 17.3613 3.41005ZM10.3513 18.6501C8.87133 18.6501 7.42133 18.2501 6.15133 17.5001L5.85133 17.3201L2.73133 18.1401L3.56133 15.1001L3.36133 14.7901C2.53888 13.4771 2.10225 11.9593 2.10133 10.4101C2.10133 5.87005 5.80133 2.17005 10.3413 2.17005C12.5413 2.17005 14.6113 3.03005 16.1613 4.59005C16.9289 5.35392 17.5372 6.2626 17.951 7.26338C18.3647 8.26417 18.5755 9.33714 18.5713 10.4201C18.5913 14.9601 14.8913 18.6501 10.3513 18.6501ZM14.8713 12.4901C14.6213 12.3701 13.4013 11.7701 13.1813 11.6801C12.9513 11.6001 12.7913 11.5601 12.6213 11.8001C12.4513 12.0501 11.9813 12.6101 11.8413 12.7701C11.7013 12.9401 11.5513 12.9601 11.3013 12.8301C11.0513 12.7101 10.2513 12.4401 9.31133 11.6001C8.57133 10.9401 8.08133 10.1301 7.93133 9.88005C7.79133 9.63005 7.91133 9.50005 8.04133 9.37005C8.15133 9.26005 8.29133 9.08005 8.41133 8.94005C8.53133 8.80005 8.58133 8.69005 8.66133 8.53005C8.74133 8.36005 8.70133 8.22005 8.64133 8.10005C8.58133 7.98005 8.08133 6.76005 7.88133 6.26005C7.68133 5.78005 7.47133 5.84005 7.32133 5.83005H6.84133C6.67133 5.83005 6.41133 5.89005 6.18133 6.14005C5.96133 6.39005 5.32133 6.99005 5.32133 8.21005C5.32133 9.43005 6.21133 10.6101 6.33133 10.7701C6.45133 10.9401 8.08133 13.4401 10.5613 14.5101C11.1513 14.7701 11.6113 14.9201 11.9713 15.0301C12.5613 15.2201 13.1013 15.1901 13.5313 15.1301C14.0113 15.0601 15.0013 14.5301 15.2013 13.9501C15.4113 13.3701 15.4113 12.8801 15.3413 12.7701C15.2713 12.6601 15.1213 12.6101 14.8713 12.4901Z" fill="#00BD55"/>
</svg>
